<?xml version="1.0" encoding="UTF-8" standalone="no"?>
<svg xmlns="http://www.w3.org/2000/svg" version="1.0" width="1000.0" height="1000.0" id="C:\1-uniform_5.svg">
<!-- X Coordinate transform: fx(x)=(x+105.0)*0.8264463-->
<!-- Y Coordinate transform: fy(y)=(1105.0-y)*0.8264463 -->
<!-- Flac geometry view -->
<g style="opacity:1.0;fill:#ff0000;fill-opacity:1;stroke:#000000;stroke-width:2.5;stroke-opacity:0.80;">  <!-- 4-sided blocks -->
<path d="M 500,500 500,458.678 541.322,458.678 541.322,500 Z" />
<path d="M 500,500 500,541.322 458.678,541.322 458.678,500 Z" />
<path d="M 500,500 458.678,500 458.678,458.678 500,458.678 Z" />
<path d="M 541.322,500 582.645,500 582.645,541.322 541.322,541.322 Z" />
<path d="M 541.322,500 541.322,458.678 582.645,458.678 582.645,500 Z" />
<path d="M 500,541.322 541.322,541.322 541.322,582.645 500,582.645 Z" />
<path d="M 500,541.322 500,582.645 458.678,582.645 458.678,541.322 Z" />
<path d="M 458.678,500 458.678,541.322 417.355,541.322 417.355,500 Z" />
<path d="M 458.678,500 417.355,500 417.355,458.678 458.678,458.678 Z" />
<path d="M 500,458.678 500,417.355 541.322,417.355 541.322,458.678 Z" />
<path d="M 500,458.678 458.678,458.678 458.678,417.355 500,417.355 Z" />
<path d="M 582.645,500 623.967,500 623.967,541.322 582.645,541.322 Z" />
<path d="M 582.645,500 582.645,458.678 623.967,458.678 623.967,500 Z" />
<path d="M 541.322,541.322 582.645,541.322 582.645,582.645 541.322,582.645 Z" />
<path d="M 541.322,458.678 541.322,417.355 582.645,417.355 582.645,458.678 Z" />
<path d="M 500,582.645 541.322,582.645 541.322,623.967 500,623.967 Z" />
<path d="M 500,582.645 500,623.967 458.678,623.967 458.678,582.645 Z" />
<path d="M 458.678,541.322 458.678,582.645 417.355,582.645 417.355,541.322 Z" />
<path d="M 417.355,500 417.355,541.322 376.033,541.322 376.033,500 Z" />
<path d="M 417.355,500 376.033,500 376.033,458.678 417.355,458.678 Z" />
<path d="M 458.678,458.678 417.355,458.678 417.355,417.355 458.678,417.355 Z" />
<path d="M 500,417.355 500,376.033 541.322,376.033 541.322,417.355 Z" />
<path d="M 500,417.355 458.678,417.355 458.678,376.033 500,376.033 Z" />
<path d="M 623.967,500 665.289,500 665.289,541.322 623.967,541.322 Z" />
<path d="M 623.967,500 623.967,458.678 665.289,458.678 665.289,500 Z" />
<path d="M 582.645,541.322 623.967,541.322 623.967,582.645 582.645,582.645 Z" />
<path d="M 582.645,458.678 582.645,417.355 623.967,417.355 623.967,458.678 Z" />
<path d="M 541.322,582.645 582.645,582.645 582.645,623.967 541.322,623.967 Z" />
<path d="M 541.322,417.355 541.322,376.033 582.645,376.033 582.645,417.355 Z" />
<path d="M 500,623.967 541.322,623.967 541.322,665.289 500,665.289 Z" />
<path d="M 500,623.967 500,665.289 458.678,665.289 458.678,623.967 Z" />
<path d="M 458.678,582.645 458.678,623.967 417.355,623.967 417.355,582.645 Z" />
<path d="M 417.355,541.322 417.355,582.645 376.033,582.645 376.033,541.322 Z" />
<path d="M 376.033,500 376.033,541.322 334.711,541.322 334.711,500 Z" />
<path d="M 376.033,500 334.711,500 334.711,458.678 376.033,458.678 Z" />
<path d="M 417.355,458.678 376.033,458.678 376.033,417.355 417.355,417.355 Z" />
<path d="M 458.678,417.355 417.355,417.355 417.355,376.033 458.678,376.033 Z" />
<path d="M 500,376.033 500,334.711 541.322,334.711 541.322,376.033 Z" />
<path d="M 500,376.033 458.678,376.033 458.678,334.711 500,334.711 Z" />
<path d="M 665.289,500 706.612,500 706.612,541.322 665.289,541.322 Z" />
<path d="M 665.289,500 665.289,458.678 706.612,458.678 706.612,500 Z" />
<path d="M 623.967,541.322 665.289,541.322 665.289,582.645 623.967,582.645 Z" />
<path d="M 623.967,458.678 623.967,417.355 665.289,417.355 665.289,458.678 Z" />
<path d="M 582.645,582.645 623.967,582.645 623.967,623.967 582.645,623.967 Z" />
<path d="M 582.645,417.355 582.645,376.033 623.967,376.033 623.967,417.355 Z" />
<path d="M 541.322,623.967 582.645,623.967 582.645,665.289 541.322,665.289 Z" />
<path d="M 541.322,376.033 541.322,334.711 582.645,334.711 582.645,376.033 Z" />
<path d="M 500,665.289 541.322,665.289 541.322,706.612 500,706.612 Z" />
<path d="M 500,665.289 500,706.612 458.678,706.612 458.678,665.289 Z" />
<path d="M 458.678,623.967 458.678,665.289 417.355,665.289 417.355,623.967 Z" />
<path d="M 417.355,582.645 417.355,623.967 376.033,623.967 376.033,582.645 Z" />
<path d="M 376.033,541.322 376.033,582.645 334.711,582.645 334.711,541.322 Z" />
<path d="M 334.711,500 334.711,541.322 293.388,541.322 293.388,500 Z" />
<path d="M 334.711,500 293.388,500 293.388,458.678 334.711,458.678 Z" />
<path d="M 376.033,458.678 334.711,458.678 334.711,417.355 376.033,417.355 Z" />
<path d="M 417.355,417.355 376.033,417.355 376.033,376.033 417.355,376.033 Z" />
<path d="M 458.678,376.033 417.355,376.033 417.355,334.711 458.678,334.711 Z" />
<path d="M 500,334.711 500,293.388 541.322,293.388 541.322,334.711 Z" />
<path d="M 500,334.711 458.678,334.711 458.678,293.388 500,293.388 Z" />
<path d="M 706.612,500 747.934,500 747.934,541.322 706.612,541.322 Z" />
<path d="M 706.612,500 706.612,458.678 747.934,458.678 747.934,500 Z" />
<path d="M 665.289,541.322 706.612,541.322 706.612,582.645 665.289,582.645 Z" />
<path d="M 665.289,458.678 665.289,417.355 706.612,417.355 706.612,458.678 Z" />
<path d="M 623.967,582.645 665.289,582.645 665.289,623.967 623.967,623.967 Z" />
<path d="M 623.967,417.355 623.967,376.033 665.289,376.033 665.289,417.355 Z" />
<path d="M 582.645,623.967 623.967,623.967 623.967,665.289 582.645,665.289 Z" />
<path d="M 582.645,376.033 582.645,334.711 623.967,334.711 623.967,376.033 Z" />
<path d="M 541.322,665.289 582.645,665.289 582.645,706.612 541.322,706.612 Z" />
<path d="M 541.322,334.711 541.322,293.388 582.645,293.388 582.645,334.711 Z" />
<path d="M 500,706.612 541.322,706.612 541.322,747.934 500,747.934 Z" />
<path d="M 500,706.612 500,747.934 458.678,747.934 458.678,706.612 Z" />
<path d="M 458.678,665.289 458.678,706.612 417.355,706.612 417.355,665.289 Z" />
<path d="M 417.355,623.967 417.355,665.289 376.033,665.289 376.033,623.967 Z" />
<path d="M 376.033,582.645 376.033,623.967 334.711,623.967 334.711,582.645 Z" />
<path d="M 334.711,541.322 334.711,582.645 293.388,582.645 293.388,541.322 Z" />
<path d="M 293.388,500 293.388,541.322 252.066,541.322 252.066,500 Z" />
<path d="M 293.388,500 252.066,500 252.066,458.678 293.388,458.678 Z" />
<path d="M 334.711,458.678 293.388,458.678 293.388,417.355 334.711,417.355 Z" />
<path d="M 376.033,417.355 334.711,417.355 334.711,376.033 376.033,376.033 Z" />
<path d="M 417.355,376.033 376.033,376.033 376.033,334.711 417.355,334.711 Z" />
<path d="M 458.678,334.711 417.355,334.711 417.355,293.388 458.678,293.388 Z" />
<path d="M 500,293.388 500,252.066 541.322,252.066 541.322,293.388 Z" />
<path d="M 500,293.388 458.678,293.388 458.678,252.066 500,252.066 Z" />
<path d="M 747.934,500 789.256,500 789.256,541.322 747.934,541.322 Z" />
<path d="M 747.934,500 747.934,458.678 789.256,458.678 789.256,500 Z" />
<path d="M 706.612,541.322 747.934,541.322 747.934,582.645 706.612,582.645 Z" />
<path d="M 706.612,458.678 706.612,417.355 747.934,417.355 747.934,458.678 Z" />
<path d="M 665.289,582.645 706.612,582.645 706.612,623.967 665.289,623.967 Z" />
<path d="M 665.289,417.355 665.289,376.033 706.612,376.033 706.612,417.355 Z" />
<path d="M 623.967,623.967 665.289,623.967 665.289,665.289 623.967,665.289 Z" />
<path d="M 623.967,376.033 623.967,334.711 665.289,334.711 665.289,376.033 Z" />
<path d="M 582.645,665.289 623.967,665.289 623.967,706.612 582.645,706.612 Z" />
<path d="M 582.645,334.711 582.645,293.388 623.967,293.388 623.967,334.711 Z" />
<path d="M 541.322,706.612 582.645,706.612 582.645,747.934 541.322,747.934 Z" />
<path d="M 541.322,293.388 541.322,252.066 582.645,252.066 582.645,293.388 Z" />
<path d="M 500,747.934 541.322,747.934 541.322,789.256 500,789.256 Z" />
<path d="M 500,747.934 500,789.256 458.678,789.256 458.678,747.934 Z" />
<path d="M 458.678,706.612 458.678,747.934 417.355,747.934 417.355,706.612 Z" />
<path d="M 417.355,665.289 417.355,706.612 376.033,706.612 376.033,665.289 Z" />
<path d="M 376.033,623.967 376.033,665.289 334.711,665.289 334.711,623.967 Z" />
<path d="M 334.711,582.645 334.711,623.967 293.388,623.967 293.388,582.645 Z" />
<path d="M 293.388,541.322 293.388,582.645 252.066,582.645 252.066,541.322 Z" />
<path d="M 252.066,500 252.066,541.322 210.744,541.322 210.744,500 Z" />
<path d="M 252.066,500 210.744,500 210.744,458.678 252.066,458.678 Z" />
<path d="M 293.388,458.678 252.066,458.678 252.066,417.355 293.388,417.355 Z" />
<path d="M 334.711,417.355 293.388,417.355 293.388,376.033 334.711,376.033 Z" />
<path d="M 376.033,376.033 334.711,376.033 334.711,334.711 376.033,334.711 Z" />
<path d="M 417.355,334.711 376.033,334.711 376.033,293.388 417.355,293.388 Z" />
<path d="M 458.678,293.388 417.355,293.388 417.355,252.066 458.678,252.066 Z" />
<path d="M 500,252.066 500,210.744 541.322,210.744 541.322,252.066 Z" />
<path d="M 500,252.066 458.678,252.066 458.678,210.744 500,210.744 Z" />
<path d="M 789.256,500 830.579,500 830.579,541.322 789.256,541.322 Z" />
<path d="M 789.256,500 789.256,458.678 830.579,458.678 830.579,500 Z" />
<path d="M 747.934,541.322 789.256,541.322 789.256,582.645 747.934,582.645 Z" />
<path d="M 747.934,458.678 747.934,417.355 789.256,417.355 789.256,458.678 Z" />
<path d="M 706.612,582.645 747.934,582.645 747.934,623.967 706.612,623.967 Z" />
<path d="M 706.612,417.355 706.612,376.033 747.934,376.033 747.934,417.355 Z" />
<path d="M 665.289,623.967 706.612,623.967 706.612,665.289 665.289,665.289 Z" />
<path d="M 665.289,376.033 665.289,334.711 706.612,334.711 706.612,376.033 Z" />
<path d="M 623.967,665.289 665.289,665.289 665.289,706.612 623.967,706.612 Z" />
<path d="M 665.289,293.388 665.289,334.711 623.967,334.711 623.967,293.388 Z" />
<path d="M 623.967,747.934 582.645,747.934 582.645,706.612 623.967,706.612 Z" />
<path d="M 623.967,252.066 623.967,293.388 582.645,293.388 582.645,252.066 Z" />
<path d="M 582.645,789.256 541.322,789.256 541.322,747.934 582.645,747.934 Z" />
<path d="M 582.645,210.744 582.645,252.066 541.322,252.066 541.322,210.744 Z" />
<path d="M 541.322,830.579 500,830.579 500,789.256 541.322,789.256 Z" />
<path d="M 458.678,830.579 458.678,789.256 500,789.256 500,830.579 Z" />
<path d="M 417.355,789.256 417.355,747.934 458.678,747.934 458.678,789.256 Z" />
<path d="M 376.033,747.934 376.033,706.612 417.355,706.612 417.355,747.934 Z" />
<path d="M 334.711,706.612 334.711,665.289 376.033,665.289 376.033,706.612 Z" />
<path d="M 293.388,665.289 293.388,623.967 334.711,623.967 334.711,665.289 Z" />
<path d="M 252.066,623.967 252.066,582.645 293.388,582.645 293.388,623.967 Z" />
<path d="M 210.744,582.645 210.744,541.322 252.066,541.322 252.066,582.645 Z" />
<path d="M 169.421,541.322 169.421,500 210.744,500 210.744,541.322 Z" />
<path d="M 169.421,458.678 210.744,458.678 210.744,500 169.421,500 Z" />
<path d="M 210.744,417.355 252.066,417.355 252.066,458.678 210.744,458.678 Z" />
<path d="M 252.066,376.033 293.388,376.033 293.388,417.355 252.066,417.355 Z" />
<path d="M 293.388,334.711 334.711,334.711 334.711,376.033 293.388,376.033 Z" />
<path d="M 334.711,293.388 376.033,293.388 376.033,334.711 334.711,334.711 Z" />
<path d="M 376.033,252.066 417.355,252.066 417.355,293.388 376.033,293.388 Z" />
<path d="M 417.355,210.744 458.678,210.744 458.678,252.066 417.355,252.066 Z" />
<path d="M 541.322,169.421 541.322,210.744 500,210.744 500,169.421 Z" />
<path d="M 458.678,169.421 500,169.421 500,210.744 458.678,210.744 Z" />
<path d="M 871.901,541.322 830.579,541.322 830.579,500 871.901,500 Z" />
<path d="M 871.901,458.678 871.901,500 830.579,500 830.579,458.678 Z" />
<path d="M 830.579,582.645 789.256,582.645 789.256,541.322 830.579,541.322 Z" />
<path d="M 830.579,417.355 830.579,458.678 789.256,458.678 789.256,417.355 Z" />
<path d="M 789.256,623.967 747.934,623.967 747.934,582.645 789.256,582.645 Z" />
<path d="M 789.256,376.033 789.256,417.355 747.934,417.355 747.934,376.033 Z" />
<path d="M 747.934,665.289 706.612,665.289 706.612,623.967 747.934,623.967 Z" />
<path d="M 747.934,334.711 747.934,376.033 706.612,376.033 706.612,334.711 Z" />
<path d="M 706.612,706.612 665.289,706.612 665.289,665.289 706.612,665.289 Z" />
<path d="M 706.612,293.388 706.612,334.711 665.289,334.711 665.289,293.388 Z" />
<path d="M 665.289,747.934 623.967,747.934 623.967,706.612 665.289,706.612 Z" />
<path d="M 665.289,252.066 665.289,293.388 623.967,293.388 623.967,252.066 Z" />
<path d="M 623.967,789.256 582.645,789.256 582.645,747.934 623.967,747.934 Z" />
<path d="M 623.967,210.744 623.967,252.066 582.645,252.066 582.645,210.744 Z" />
<path d="M 582.645,830.579 541.322,830.579 541.322,789.256 582.645,789.256 Z" />
<path d="M 582.645,169.421 582.645,210.744 541.322,210.744 541.322,169.421 Z" />
<path d="M 541.322,871.901 500,871.901 500,830.579 541.322,830.579 Z" />
<path d="M 458.678,871.901 458.678,830.579 500,830.579 500,871.901 Z" />
<path d="M 417.355,789.256 458.678,789.256 458.678,830.579 417.355,830.579 Z" />
<path d="M 376.033,747.934 417.355,747.934 417.355,789.256 376.033,789.256 Z" />
<path d="M 334.711,706.612 376.033,706.612 376.033,747.934 334.711,747.934 Z" />
<path d="M 293.388,665.289 334.711,665.289 334.711,706.612 293.388,706.612 Z" />
<path d="M 252.066,623.967 293.388,623.967 293.388,665.289 252.066,665.289 Z" />
<path d="M 210.744,582.645 252.066,582.645 252.066,623.967 210.744,623.967 Z" />
<path d="M 169.421,541.322 210.744,541.322 210.744,582.645 169.421,582.645 Z" />
<path d="M 128.099,500 169.421,500 169.421,541.322 128.099,541.322 Z" />
<path d="M 169.421,458.678 169.421,500 128.099,500 128.099,458.678 Z" />
<path d="M 210.744,417.355 210.744,458.678 169.421,458.678 169.421,417.355 Z" />
<path d="M 252.066,376.033 252.066,417.355 210.744,417.355 210.744,376.033 Z" />
<path d="M 252.066,376.033 252.066,334.711 293.388,334.711 293.388,376.033 Z" />
<path d="M 293.388,334.711 293.388,293.388 334.711,293.388 334.711,334.711 Z" />
<path d="M 334.711,293.388 334.711,252.066 376.033,252.066 376.033,293.388 Z" />
<path d="M 376.033,252.066 376.033,210.744 417.355,210.744 417.355,252.066 Z" />
<path d="M 417.355,210.744 417.355,169.421 458.678,169.421 458.678,210.744 Z" />
<path d="M 500,128.099 541.322,128.099 541.322,169.421 500,169.421 Z" />
<path d="M 458.678,169.421 458.678,128.099 500,128.099 500,169.421 Z" />
<path d="M 913.223,500 913.223,541.322 871.901,541.322 871.901,500 Z" />
<path d="M 913.223,500 871.901,500 871.901,458.678 913.223,458.678 Z" />
<path d="M 871.901,541.322 871.901,582.645 830.579,582.645 830.579,541.322 Z" />
<path d="M 871.901,458.678 830.579,458.678 830.579,417.355 871.901,417.355 Z" />
<path d="M 830.579,582.645 830.579,623.967 789.256,623.967 789.256,582.645 Z" />
<path d="M 830.579,417.355 789.256,417.355 789.256,376.033 830.579,376.033 Z" />
<path d="M 789.256,623.967 789.256,665.289 747.934,665.289 747.934,623.967 Z" />
<path d="M 789.256,376.033 747.934,376.033 747.934,334.711 789.256,334.711 Z" />
<path d="M 747.934,665.289 747.934,706.612 706.612,706.612 706.612,665.289 Z" />
<path d="M 747.934,334.711 706.612,334.711 706.612,293.388 747.934,293.388 Z" />
<path d="M 706.612,706.612 706.612,747.934 665.289,747.934 665.289,706.612 Z" />
<path d="M 706.612,293.388 665.289,293.388 665.289,252.066 706.612,252.066 Z" />
<path d="M 665.289,747.934 665.289,789.256 623.967,789.256 623.967,747.934 Z" />
<path d="M 665.289,252.066 623.967,252.066 623.967,210.744 665.289,210.744 Z" />
<path d="M 623.967,789.256 623.967,830.579 582.645,830.579 582.645,789.256 Z" />
<path d="M 623.967,210.744 582.645,210.744 582.645,169.421 623.967,169.421 Z" />
<path d="M 582.645,830.579 582.645,871.901 541.322,871.901 541.322,830.579 Z" />
<path d="M 582.645,169.421 541.322,169.421 541.322,128.099 582.645,128.099 Z" />
<path d="M 541.322,871.901 541.322,913.223 500,913.223 500,871.901 Z" />
<path d="M 500,913.223 458.678,913.223 458.678,871.901 500,871.901 Z" />
<path d="M 458.678,871.901 417.355,871.901 417.355,830.579 458.678,830.579 Z" />
<path d="M 417.355,789.256 417.355,830.579 376.033,830.579 376.033,789.256 Z" />
<path d="M 376.033,747.934 376.033,789.256 334.711,789.256 334.711,747.934 Z" />
<path d="M 334.711,706.612 334.711,747.934 293.388,747.934 293.388,706.612 Z" />
<path d="M 293.388,665.289 293.388,706.612 252.066,706.612 252.066,665.289 Z" />
<path d="M 252.066,623.967 252.066,665.289 210.744,665.289 210.744,623.967 Z" />
<path d="M 210.744,582.645 210.744,623.967 169.421,623.967 169.421,582.645 Z" />
<path d="M 169.421,541.322 169.421,582.645 128.099,582.645 128.099,541.322 Z" />
<path d="M 128.099,500 128.099,541.322 86.777,541.322 86.777,500 Z" />
<path d="M 128.099,500 86.777,500 86.777,458.678 128.099,458.678 Z" />
<path d="M 169.421,458.678 128.099,458.678 128.099,417.355 169.421,417.355 Z" />
<path d="M 210.744,417.355 169.421,417.355 169.421,376.033 210.744,376.033 Z" />
<path d="M 252.066,376.033 210.744,376.033 210.744,334.711 252.066,334.711 Z" />
<path d="M 293.388,334.711 252.066,334.711 252.066,293.388 293.388,293.388 Z" />
<path d="M 334.711,293.388 293.388,293.388 293.388,252.066 334.711,252.066 Z" />
<path d="M 376.033,252.066 334.711,252.066 334.711,210.744 376.033,210.744 Z" />
<path d="M 417.355,210.744 376.033,210.744 376.033,169.421 417.355,169.421 Z" />
<path d="M 458.678,169.421 417.355,169.421 417.355,128.099 458.678,128.099 Z" />
<path d="M 500,128.099 500,86.777 541.322,86.777 541.322,128.099 Z" />
<path d="M 500,128.099 458.678,128.099 458.678,86.777 500,86.777 Z" />
<path d="M 913.223,500 954.545,500 954.545,541.322 913.223,541.322 Z" />
<path d="M 913.223,500 913.223,458.678 954.545,458.678 954.545,500 Z" />
<path d="M 871.901,541.322 913.223,541.322 913.223,582.645 871.901,582.645 Z" />
<path d="M 871.901,458.678 871.901,417.355 913.223,417.355 913.223,458.678 Z" />
<path d="M 830.579,582.645 871.901,582.645 871.901,623.967 830.579,623.967 Z" />
<path d="M 830.579,417.355 830.579,376.033 871.901,376.033 871.901,417.355 Z" />
<path d="M 789.256,623.967 830.579,623.967 830.579,665.289 789.256,665.289 Z" />
<path d="M 789.256,376.033 789.256,334.711 830.579,334.711 830.579,376.033 Z" />
<path d="M 747.934,665.289 789.256,665.289 789.256,706.612 747.934,706.612 Z" />
<path d="M 747.934,334.711 747.934,293.388 789.256,293.388 789.256,334.711 Z" />
<path d="M 706.612,706.612 747.934,706.612 747.934,747.934 706.612,747.934 Z" />
<path d="M 706.612,293.388 706.612,252.066 747.934,252.066 747.934,293.388 Z" />
<path d="M 665.289,747.934 706.612,747.934 706.612,789.256 665.289,789.256 Z" />
<path d="M 665.289,252.066 665.289,210.744 706.612,210.744 706.612,252.066 Z" />
<path d="M 623.967,789.256 665.289,789.256 665.289,830.579 623.967,830.579 Z" />
<path d="M 623.967,210.744 623.967,169.421 665.289,169.421 665.289,210.744 Z" />
<path d="M 582.645,830.579 623.967,830.579 623.967,871.901 582.645,871.901 Z" />
<path d="M 582.645,169.421 582.645,128.099 623.967,128.099 623.967,169.421 Z" />
<path d="M 541.322,871.901 582.645,871.901 582.645,913.223 541.322,913.223 Z" />
<path d="M 541.322,128.099 541.322,86.777 582.645,86.777 582.645,128.099 Z" />
<path d="M 500,913.223 541.322,913.223 541.322,954.545 500,954.545 Z" />
<path d="M 500,913.223 500,954.545 458.678,954.545 458.678,913.223 Z" />
<path d="M 458.678,871.901 458.678,913.223 417.355,913.223 417.355,871.901 Z" />
<path d="M 417.355,830.579 417.355,871.901 376.033,871.901 376.033,830.579 Z" />
<path d="M 376.033,789.256 376.033,830.579 334.711,830.579 334.711,789.256 Z" />
<path d="M 334.711,747.934 334.711,789.256 293.388,789.256 293.388,747.934 Z" />
<path d="M 293.388,706.612 293.388,747.934 252.066,747.934 252.066,706.612 Z" />
<path d="M 252.066,665.289 252.066,706.612 210.744,706.612 210.744,665.289 Z" />
<path d="M 210.744,623.967 210.744,665.289 169.421,665.289 169.421,623.967 Z" />
<path d="M 169.421,582.645 169.421,623.967 128.099,623.967 128.099,582.645 Z" />
<path d="M 128.099,541.322 128.099,582.645 86.777,582.645 86.777,541.322 Z" />
<path d="M 86.777,500 86.777,541.322 45.455,541.322 45.455,500 Z" />
<path d="M 86.777,500 45.455,500 45.455,458.678 86.777,458.678 Z" />
<path d="M 128.099,458.678 86.777,458.678 86.777,417.355 128.099,417.355 Z" />
<path d="M 169.421,417.355 128.099,417.355 128.099,376.033 169.421,376.033 Z" />
<path d="M 210.744,376.033 169.421,376.033 169.421,334.711 210.744,334.711 Z" />
<path d="M 252.066,334.711 210.744,334.711 210.744,293.388 252.066,293.388 Z" />
<path d="M 293.388,293.388 252.066,293.388 252.066,252.066 293.388,252.066 Z" />
<path d="M 334.711,252.066 293.388,252.066 293.388,210.744 334.711,210.744 Z" />
<path d="M 376.033,210.744 334.711,210.744 334.711,169.421 376.033,169.421 Z" />
<path d="M 417.355,169.421 376.033,169.421 376.033,128.099 417.355,128.099 Z" />
<path d="M 458.678,128.099 417.355,128.099 417.355,86.777 458.678,86.777 Z" />
<path d="M 500,86.777 500,45.455 541.322,45.455 541.322,86.777 Z" />
<path d="M 500,86.777 458.678,86.777 458.678,45.455 500,45.455 Z" />
<path d="M 500,500 541.322,500 541.322,541.322 500,541.322 Z" />
<path d="M 86.777,45.455 86.777,86.777 45.455,86.777 45.455,45.455 Z" />
<path d="M 913.223,541.322 954.545,541.322 954.545,582.645 913.223,582.645 Z" />
<path d="M 913.223,458.678 913.223,417.355 954.545,417.355 954.545,458.678 Z" />
<path d="M 871.901,582.645 913.223,582.645 913.223,623.967 871.901,623.967 Z" />
<path d="M 871.901,417.355 871.901,376.033 913.223,376.033 913.223,417.355 Z" />
<path d="M 830.579,623.967 871.901,623.967 871.901,665.289 830.579,665.289 Z" />
<path d="M 830.579,376.033 830.579,334.711 871.901,334.711 871.901,376.033 Z" />
<path d="M 789.256,665.289 830.579,665.289 830.579,706.612 789.256,706.612 Z" />
<path d="M 789.256,334.711 789.256,293.388 830.579,293.388 830.579,334.711 Z" />
<path d="M 747.934,706.612 789.256,706.612 789.256,747.934 747.934,747.934 Z" />
<path d="M 747.934,293.388 747.934,252.066 789.256,252.066 789.256,293.388 Z" />
<path d="M 706.612,747.934 747.934,747.934 747.934,789.256 706.612,789.256 Z" />
<path d="M 706.612,252.066 706.612,210.744 747.934,210.744 747.934,252.066 Z" />
<path d="M 665.289,789.256 706.612,789.256 706.612,830.579 665.289,830.579 Z" />
<path d="M 665.289,210.744 665.289,169.421 706.612,169.421 706.612,210.744 Z" />
<path d="M 623.967,830.579 665.289,830.579 665.289,871.901 623.967,871.901 Z" />
<path d="M 623.967,169.421 623.967,128.099 665.289,128.099 665.289,169.421 Z" />
<path d="M 623.967,913.223 582.645,913.223 582.645,871.901 623.967,871.901 Z" />
<path d="M 623.967,86.777 623.967,128.099 582.645,128.099 582.645,86.777 Z" />
<path d="M 582.645,954.545 541.322,954.545 541.322,913.223 582.645,913.223 Z" />
<path d="M 582.645,45.455 582.645,86.777 541.322,86.777 541.322,45.455 Z" />
<path d="M 417.355,954.545 417.355,913.223 458.678,913.223 458.678,954.545 Z" />
<path d="M 376.033,913.223 376.033,871.901 417.355,871.901 417.355,913.223 Z" />
<path d="M 334.711,871.901 334.711,830.579 376.033,830.579 376.033,871.901 Z" />
<path d="M 293.388,830.579 293.388,789.256 334.711,789.256 334.711,830.579 Z" />
<path d="M 252.066,789.256 252.066,747.934 293.388,747.934 293.388,789.256 Z" />
<path d="M 210.744,747.934 210.744,706.612 252.066,706.612 252.066,747.934 Z" />
<path d="M 169.421,706.612 169.421,665.289 210.744,665.289 210.744,706.612 Z" />
<path d="M 128.099,665.289 128.099,623.967 169.421,623.967 169.421,665.289 Z" />
<path d="M 86.777,623.967 86.777,582.645 128.099,582.645 128.099,623.967 Z" />
<path d="M 45.455,582.645 45.455,541.322 86.777,541.322 86.777,582.645 Z" />
<path d="M 45.455,913.223 86.777,913.223 86.777,954.545 45.455,954.545 Z" />
<path d="M 45.455,417.355 86.777,417.355 86.777,458.678 45.455,458.678 Z" />
<path d="M 86.777,376.033 128.099,376.033 128.099,417.355 86.777,417.355 Z" />
<path d="M 128.099,334.711 169.421,334.711 169.421,376.033 128.099,376.033 Z" />
<path d="M 169.421,293.388 210.744,293.388 210.744,334.711 169.421,334.711 Z" />
<path d="M 210.744,252.066 252.066,252.066 252.066,293.388 210.744,293.388 Z" />
<path d="M 252.066,210.744 293.388,210.744 293.388,252.066 252.066,252.066 Z" />
<path d="M 293.388,169.421 334.711,169.421 334.711,210.744 293.388,210.744 Z" />
<path d="M 334.711,128.099 376.033,128.099 376.033,169.421 334.711,169.421 Z" />
<path d="M 376.033,86.777 417.355,86.777 417.355,128.099 376.033,128.099 Z" />
<path d="M 417.355,45.455 458.678,45.455 458.678,86.777 417.355,86.777 Z" />
<path d="M 913.223,45.455 954.545,45.455 954.545,86.777 913.223,86.777 Z" />
<path d="M 913.223,954.545 913.223,913.223 954.545,913.223 954.545,954.545 Z" />
<path d="M 954.545,623.967 913.223,623.967 913.223,582.645 954.545,582.645 Z" />
<path d="M 954.545,376.033 954.545,417.355 913.223,417.355 913.223,376.033 Z" />
<path d="M 913.223,665.289 871.901,665.289 871.901,623.967 913.223,623.967 Z" />
<path d="M 913.223,334.711 913.223,376.033 871.901,376.033 871.901,334.711 Z" />
<path d="M 871.901,706.612 830.579,706.612 830.579,665.289 871.901,665.289 Z" />
<path d="M 871.901,293.388 871.901,334.711 830.579,334.711 830.579,293.388 Z" />
<path d="M 830.579,747.934 789.256,747.934 789.256,706.612 830.579,706.612 Z" />
<path d="M 830.579,252.066 830.579,293.388 789.256,293.388 789.256,252.066 Z" />
<path d="M 789.256,789.256 747.934,789.256 747.934,747.934 789.256,747.934 Z" />
<path d="M 789.256,210.744 789.256,252.066 747.934,252.066 747.934,210.744 Z" />
<path d="M 747.934,830.579 706.612,830.579 706.612,789.256 747.934,789.256 Z" />
<path d="M 747.934,169.421 747.934,210.744 706.612,210.744 706.612,169.421 Z" />
<path d="M 706.612,871.901 665.289,871.901 665.289,830.579 706.612,830.579 Z" />
<path d="M 706.612,128.099 706.612,169.421 665.289,169.421 665.289,128.099 Z" />
<path d="M 665.289,913.223 623.967,913.223 623.967,871.901 665.289,871.901 Z" />
<path d="M 665.289,86.777 665.289,128.099 623.967,128.099 623.967,86.777 Z" />
<path d="M 623.967,954.545 582.645,954.545 582.645,913.223 623.967,913.223 Z" />
<path d="M 623.967,45.455 623.967,86.777 582.645,86.777 582.645,45.455 Z" />
<path d="M 86.777,45.455 128.099,45.455 128.099,86.777 86.777,86.777 Z" />
<path d="M 376.033,954.545 376.033,913.223 417.355,913.223 417.355,954.545 Z" />
<path d="M 334.711,913.223 334.711,871.901 376.033,871.901 376.033,913.223 Z" />
<path d="M 293.388,871.901 293.388,830.579 334.711,830.579 334.711,871.901 Z" />
<path d="M 252.066,830.579 252.066,789.256 293.388,789.256 293.388,830.579 Z" />
<path d="M 210.744,789.256 210.744,747.934 252.066,747.934 252.066,789.256 Z" />
<path d="M 169.421,747.934 169.421,706.612 210.744,706.612 210.744,747.934 Z" />
<path d="M 128.099,706.612 128.099,665.289 169.421,665.289 169.421,706.612 Z" />
<path d="M 86.777,665.289 86.777,623.967 128.099,623.967 128.099,665.289 Z" />
<path d="M 45.455,623.967 45.455,582.645 86.777,582.645 86.777,623.967 Z" />
<path d="M 45.455,86.777 86.777,86.777 86.777,128.099 45.455,128.099 Z" />
<path d="M 45.455,376.033 86.777,376.033 86.777,417.355 45.455,417.355 Z" />
<path d="M 86.777,334.711 128.099,334.711 128.099,376.033 86.777,376.033 Z" />
<path d="M 128.099,293.388 169.421,293.388 169.421,334.711 128.099,334.711 Z" />
<path d="M 169.421,252.066 210.744,252.066 210.744,293.388 169.421,293.388 Z" />
<path d="M 210.744,210.744 252.066,210.744 252.066,252.066 210.744,252.066 Z" />
<path d="M 252.066,169.421 293.388,169.421 293.388,210.744 252.066,210.744 Z" />
<path d="M 293.388,128.099 334.711,128.099 334.711,169.421 293.388,169.421 Z" />
<path d="M 334.711,86.777 376.033,86.777 376.033,128.099 334.711,128.099 Z" />
<path d="M 376.033,45.455 417.355,45.455 417.355,86.777 376.033,86.777 Z" />
<path d="M 45.455,913.223 45.455,871.901 86.777,871.901 86.777,913.223 Z" />
<path d="M 954.545,665.289 913.223,665.289 913.223,623.967 954.545,623.967 Z" />
<path d="M 954.545,334.711 954.545,376.033 913.223,376.033 913.223,334.711 Z" />
<path d="M 913.223,706.612 871.901,706.612 871.901,665.289 913.223,665.289 Z" />
<path d="M 913.223,293.388 913.223,334.711 871.901,334.711 871.901,293.388 Z" />
<path d="M 871.901,747.934 830.579,747.934 830.579,706.612 871.901,706.612 Z" />
<path d="M 871.901,252.066 871.901,293.388 830.579,293.388 830.579,252.066 Z" />
<path d="M 830.579,789.256 789.256,789.256 789.256,747.934 830.579,747.934 Z" />
<path d="M 830.579,210.744 830.579,252.066 789.256,252.066 789.256,210.744 Z" />
<path d="M 789.256,830.579 747.934,830.579 747.934,789.256 789.256,789.256 Z" />
<path d="M 789.256,169.421 789.256,210.744 747.934,210.744 747.934,169.421 Z" />
<path d="M 747.934,871.901 706.612,871.901 706.612,830.579 747.934,830.579 Z" />
<path d="M 747.934,128.099 747.934,169.421 706.612,169.421 706.612,128.099 Z" />
<path d="M 706.612,913.223 665.289,913.223 665.289,871.901 706.612,871.901 Z" />
<path d="M 706.612,86.777 706.612,128.099 665.289,128.099 665.289,86.777 Z" />
<path d="M 665.289,954.545 623.967,954.545 623.967,913.223 665.289,913.223 Z" />
<path d="M 665.289,45.455 665.289,86.777 623.967,86.777 623.967,45.455 Z" />
<path d="M 86.777,954.545 86.777,913.223 128.099,913.223 128.099,954.545 Z" />
<path d="M 913.223,45.455 913.223,86.777 871.901,86.777 871.901,45.455 Z" />
<path d="M 334.711,954.545 334.711,913.223 376.033,913.223 376.033,954.545 Z" />
<path d="M 293.388,913.223 293.388,871.901 334.711,871.901 334.711,913.223 Z" />
<path d="M 252.066,871.901 252.066,830.579 293.388,830.579 293.388,871.901 Z" />
<path d="M 210.744,830.579 210.744,789.256 252.066,789.256 252.066,830.579 Z" />
<path d="M 169.421,789.256 169.421,747.934 210.744,747.934 210.744,789.256 Z" />
<path d="M 128.099,747.934 128.099,706.612 169.421,706.612 169.421,747.934 Z" />
<path d="M 86.777,706.612 86.777,665.289 128.099,665.289 128.099,706.612 Z" />
<path d="M 45.455,665.289 45.455,623.967 86.777,623.967 86.777,665.289 Z" />
<path d="M 913.223,954.545 871.901,954.545 871.901,913.223 913.223,913.223 Z" />
<path d="M 45.455,334.711 86.777,334.711 86.777,376.033 45.455,376.033 Z" />
<path d="M 86.777,293.388 128.099,293.388 128.099,334.711 86.777,334.711 Z" />
<path d="M 128.099,252.066 169.421,252.066 169.421,293.388 128.099,293.388 Z" />
<path d="M 169.421,210.744 210.744,210.744 210.744,252.066 169.421,252.066 Z" />
<path d="M 210.744,169.421 252.066,169.421 252.066,210.744 210.744,210.744 Z" />
<path d="M 252.066,128.099 293.388,128.099 293.388,169.421 252.066,169.421 Z" />
<path d="M 293.388,86.777 334.711,86.777 334.711,128.099 293.388,128.099 Z" />
<path d="M 334.711,45.455 376.033,45.455 376.033,86.777 334.711,86.777 Z" />
<path d="M 954.545,86.777 954.545,128.099 913.223,128.099 913.223,86.777 Z" />
<path d="M 954.545,913.223 913.223,913.223 913.223,871.901 954.545,871.901 Z" />
<path d="M 954.545,706.612 913.223,706.612 913.223,665.289 954.545,665.289 Z" />
<path d="M 954.545,293.388 954.545,334.711 913.223,334.711 913.223,293.388 Z" />
<path d="M 913.223,747.934 871.901,747.934 871.901,706.612 913.223,706.612 Z" />
<path d="M 913.223,252.066 913.223,293.388 871.901,293.388 871.901,252.066 Z" />
<path d="M 871.901,789.256 830.579,789.256 830.579,747.934 871.901,747.934 Z" />
<path d="M 871.901,210.744 871.901,252.066 830.579,252.066 830.579,210.744 Z" />
<path d="M 830.579,830.579 789.256,830.579 789.256,789.256 830.579,789.256 Z" />
<path d="M 830.579,169.421 830.579,210.744 789.256,210.744 789.256,169.421 Z" />
<path d="M 789.256,871.901 747.934,871.901 747.934,830.579 789.256,830.579 Z" />
<path d="M 789.256,128.099 789.256,169.421 747.934,169.421 747.934,128.099 Z" />
<path d="M 747.934,913.223 706.612,913.223 706.612,871.901 747.934,871.901 Z" />
<path d="M 747.934,86.777 747.934,128.099 706.612,128.099 706.612,86.777 Z" />
<path d="M 706.612,954.545 665.289,954.545 665.289,913.223 706.612,913.223 Z" />
<path d="M 706.612,45.455 706.612,86.777 665.289,86.777 665.289,45.455 Z" />
<path d="M 128.099,45.455 169.421,45.455 169.421,86.777 128.099,86.777 Z" />
<path d="M 293.388,954.545 293.388,913.223 334.711,913.223 334.711,954.545 Z" />
<path d="M 252.066,913.223 252.066,871.901 293.388,871.901 293.388,913.223 Z" />
<path d="M 210.744,871.901 210.744,830.579 252.066,830.579 252.066,871.901 Z" />
<path d="M 169.421,830.579 169.421,789.256 210.744,789.256 210.744,830.579 Z" />
<path d="M 128.099,789.256 128.099,747.934 169.421,747.934 169.421,789.256 Z" />
<path d="M 86.777,747.934 86.777,706.612 128.099,706.612 128.099,747.934 Z" />
<path d="M 45.455,706.612 45.455,665.289 86.777,665.289 86.777,706.612 Z" />
<path d="M 86.777,86.777 128.099,86.777 128.099,128.099 86.777,128.099 Z" />
<path d="M 45.455,293.388 86.777,293.388 86.777,334.711 45.455,334.711 Z" />
<path d="M 86.777,252.066 128.099,252.066 128.099,293.388 86.777,293.388 Z" />
<path d="M 128.099,210.744 169.421,210.744 169.421,252.066 128.099,252.066 Z" />
<path d="M 169.421,169.421 210.744,169.421 210.744,210.744 169.421,210.744 Z" />
<path d="M 210.744,128.099 252.066,128.099 252.066,169.421 210.744,169.421 Z" />
<path d="M 252.066,86.777 293.388,86.777 293.388,128.099 252.066,128.099 Z" />
<path d="M 293.388,45.455 334.711,45.455 334.711,86.777 293.388,86.777 Z" />
<path d="M 45.455,128.099 86.777,128.099 86.777,169.421 45.455,169.421 Z" />
<path d="M 954.545,747.934 913.223,747.934 913.223,706.612 954.545,706.612 Z" />
<path d="M 954.545,252.066 954.545,293.388 913.223,293.388 913.223,252.066 Z" />
<path d="M 913.223,789.256 871.901,789.256 871.901,747.934 913.223,747.934 Z" />
<path d="M 913.223,210.744 913.223,252.066 871.901,252.066 871.901,210.744 Z" />
<path d="M 871.901,830.579 830.579,830.579 830.579,789.256 871.901,789.256 Z" />
<path d="M 871.901,169.421 871.901,210.744 830.579,210.744 830.579,169.421 Z" />
<path d="M 830.579,871.901 789.256,871.901 789.256,830.579 830.579,830.579 Z" />
<path d="M 830.579,128.099 830.579,169.421 789.256,169.421 789.256,128.099 Z" />
<path d="M 789.256,913.223 747.934,913.223 747.934,871.901 789.256,871.901 Z" />
<path d="M 789.256,86.777 789.256,128.099 747.934,128.099 747.934,86.777 Z" />
<path d="M 747.934,954.545 706.612,954.545 706.612,913.223 747.934,913.223 Z" />
<path d="M 747.934,45.455 747.934,86.777 706.612,86.777 706.612,45.455 Z" />
<path d="M 45.455,871.901 45.455,830.579 86.777,830.579 86.777,871.901 Z" />
<path d="M 86.777,913.223 86.777,871.901 128.099,871.901 128.099,913.223 Z" />
<path d="M 252.066,954.545 252.066,913.223 293.388,913.223 293.388,954.545 Z" />
<path d="M 210.744,913.223 210.744,871.901 252.066,871.901 252.066,913.223 Z" />
<path d="M 169.421,871.901 169.421,830.579 210.744,830.579 210.744,871.901 Z" />
<path d="M 128.099,830.579 128.099,789.256 169.421,789.256 169.421,830.579 Z" />
<path d="M 86.777,789.256 86.777,747.934 128.099,747.934 128.099,789.256 Z" />
<path d="M 45.455,747.934 45.455,706.612 86.777,706.612 86.777,747.934 Z" />
<path d="M 128.099,954.545 128.099,913.223 169.421,913.223 169.421,954.545 Z" />
<path d="M 45.455,252.066 86.777,252.066 86.777,293.388 45.455,293.388 Z" />
<path d="M 86.777,210.744 128.099,210.744 128.099,252.066 86.777,252.066 Z" />
<path d="M 128.099,169.421 169.421,169.421 169.421,210.744 128.099,210.744 Z" />
<path d="M 169.421,128.099 210.744,128.099 210.744,169.421 169.421,169.421 Z" />
<path d="M 210.744,86.777 252.066,86.777 252.066,128.099 210.744,128.099 Z" />
<path d="M 252.066,45.455 293.388,45.455 293.388,86.777 252.066,86.777 Z" />
<path d="M 871.901,45.455 871.901,86.777 830.579,86.777 830.579,45.455 Z" />
<path d="M 871.901,954.545 830.579,954.545 830.579,913.223 871.901,913.223 Z" />
<path d="M 954.545,789.256 913.223,789.256 913.223,747.934 954.545,747.934 Z" />
<path d="M 954.545,210.744 954.545,252.066 913.223,252.066 913.223,210.744 Z" />
<path d="M 913.223,830.579 871.901,830.579 871.901,789.256 913.223,789.256 Z" />
<path d="M 913.223,169.421 913.223,210.744 871.901,210.744 871.901,169.421 Z" />
<path d="M 871.901,871.901 830.579,871.901 830.579,830.579 871.901,830.579 Z" />
<path d="M 871.901,128.099 871.901,169.421 830.579,169.421 830.579,128.099 Z" />
<path d="M 830.579,913.223 789.256,913.223 789.256,871.901 830.579,871.901 Z" />
<path d="M 830.579,86.777 830.579,128.099 789.256,128.099 789.256,86.777 Z" />
<path d="M 789.256,954.545 747.934,954.545 747.934,913.223 789.256,913.223 Z" />
<path d="M 789.256,45.455 789.256,86.777 747.934,86.777 747.934,45.455 Z" />
<path d="M 913.223,86.777 913.223,128.099 871.901,128.099 871.901,86.777 Z" />
<path d="M 210.744,954.545 210.744,913.223 252.066,913.223 252.066,954.545 Z" />
<path d="M 169.421,913.223 169.421,871.901 210.744,871.901 210.744,913.223 Z" />
<path d="M 128.099,871.901 128.099,830.579 169.421,830.579 169.421,871.901 Z" />
<path d="M 86.777,830.579 86.777,789.256 128.099,789.256 128.099,830.579 Z" />
<path d="M 45.455,789.256 45.455,747.934 86.777,747.934 86.777,789.256 Z" />
<path d="M 913.223,913.223 871.901,913.223 871.901,871.901 913.223,871.901 Z" />
<path d="M 45.455,210.744 86.777,210.744 86.777,252.066 45.455,252.066 Z" />
<path d="M 86.777,169.421 128.099,169.421 128.099,210.744 86.777,210.744 Z" />
<path d="M 128.099,128.099 169.421,128.099 169.421,169.421 128.099,169.421 Z" />
<path d="M 169.421,86.777 210.744,86.777 210.744,128.099 169.421,128.099 Z" />
<path d="M 210.744,45.455 252.066,45.455 252.066,86.777 210.744,86.777 Z" />
<path d="M 954.545,128.099 954.545,169.421 913.223,169.421 913.223,128.099 Z" />
<path d="M 954.545,871.901 913.223,871.901 913.223,830.579 954.545,830.579 Z" />
<path d="M 954.545,830.579 913.223,830.579 913.223,789.256 954.545,789.256 Z" />
<path d="M 954.545,169.421 954.545,210.744 913.223,210.744 913.223,169.421 Z" />
<path d="M 913.223,871.901 871.901,871.901 871.901,830.579 913.223,830.579 Z" />
<path d="M 913.223,128.099 913.223,169.421 871.901,169.421 871.901,128.099 Z" />
<path d="M 871.901,913.223 830.579,913.223 830.579,871.901 871.901,871.901 Z" />
<path d="M 871.901,86.777 871.901,128.099 830.579,128.099 830.579,86.777 Z" />
<path d="M 830.579,954.545 789.256,954.545 789.256,913.223 830.579,913.223 Z" />
<path d="M 830.579,45.455 830.579,86.777 789.256,86.777 789.256,45.455 Z" />
<path d="M 169.421,45.455 210.744,45.455 210.744,86.777 169.421,86.777 Z" />
<path d="M 169.421,954.545 169.421,913.223 210.744,913.223 210.744,954.545 Z" />
<path d="M 128.099,913.223 128.099,871.901 169.421,871.901 169.421,913.223 Z" />
<path d="M 86.777,871.901 86.777,830.579 128.099,830.579 128.099,871.901 Z" />
<path d="M 45.455,830.579 45.455,789.256 86.777,789.256 86.777,830.579 Z" />
<path d="M 128.099,86.777 169.421,86.777 169.421,128.099 128.099,128.099 Z" />
<path d="M 45.455,169.421 86.777,169.421 86.777,210.744 45.455,210.744 Z" />
<path d="M 86.777,128.099 128.099,128.099 128.099,169.421 86.777,169.421 Z" />
</g>
</svg>
