<?xml version="1.0" encoding="UTF-8" standalone="no"?>
<svg xmlns="http://www.w3.org/2000/svg" version="1.0" width="1000.0" height="978.98535" id="C:\1-uniform_11.svg">
<!-- X Coordinate transform: fx(x)=(x+132.5)*0.7905138-->
<!-- Y Coordinate transform: fy(y)=(1119.2083-y)*0.7905138 -->
<!-- Flac geometry view -->
<g style="opacity:1.0;fill:#ffff00;fill-opacity:1;stroke:#000000;stroke-width:2.5;stroke-opacity:0.80;">  <!-- 3-sided blocks -->
<path d="M 500,489.493 519.763,455.262 539.526,489.493 Z" />
<path d="M 500,489.493 519.763,523.723 480.237,523.723 Z" />
<path d="M 500,489.493 480.237,523.723 460.474,489.493 Z" />
<path d="M 500,489.493 460.474,489.493 480.237,455.262 Z" />
<path d="M 500,489.493 480.237,455.262 519.763,455.262 Z" />
<path d="M 539.526,489.493 579.051,489.493 559.289,523.723 Z" />
<path d="M 539.526,489.493 559.289,455.262 579.051,489.493 Z" />
<path d="M 539.526,489.493 559.289,523.723 519.763,523.723 Z" />
<path d="M 539.526,489.493 519.763,455.262 559.289,455.262 Z" />
<path d="M 519.763,523.723 559.289,523.723 539.526,557.953 Z" />
<path d="M 519.763,523.723 539.526,557.953 500,557.953 Z" />
<path d="M 519.763,523.723 500,557.953 480.237,523.723 Z" />
<path d="M 480.237,523.723 500,557.953 460.474,557.953 Z" />
<path d="M 480.237,523.723 460.474,557.953 440.711,523.723 Z" />
<path d="M 480.237,523.723 440.711,523.723 460.474,489.493 Z" />
<path d="M 460.474,489.493 440.711,523.723 420.949,489.493 Z" />
<path d="M 460.474,489.493 420.949,489.493 440.711,455.262 Z" />
<path d="M 460.474,489.493 440.711,455.262 480.237,455.262 Z" />
<path d="M 480.237,455.262 500,421.032 519.763,455.262 Z" />
<path d="M 480.237,455.262 440.711,455.262 460.474,421.032 Z" />
<path d="M 480.237,455.262 460.474,421.032 500,421.032 Z" />
<path d="M 519.763,455.262 539.526,421.032 559.289,455.262 Z" />
<path d="M 519.763,455.262 500,421.032 539.526,421.032 Z" />
<path d="M 579.051,489.493 618.577,489.493 598.814,523.723 Z" />
<path d="M 579.051,489.493 598.814,455.262 618.577,489.493 Z" />
<path d="M 579.051,489.493 598.814,523.723 559.289,523.723 Z" />
<path d="M 579.051,489.493 559.289,455.262 598.814,455.262 Z" />
<path d="M 559.289,523.723 598.814,523.723 579.051,557.953 Z" />
<path d="M 559.289,523.723 579.051,557.953 539.526,557.953 Z" />
<path d="M 559.289,455.262 579.051,421.032 598.814,455.262 Z" />
<path d="M 559.289,455.262 539.526,421.032 579.051,421.032 Z" />
<path d="M 539.526,557.953 579.051,557.953 559.289,592.183 Z" />
<path d="M 539.526,557.953 559.289,592.183 519.763,592.183 Z" />
<path d="M 539.526,557.953 519.763,592.183 500,557.953 Z" />
<path d="M 500,557.953 519.763,592.183 480.237,592.183 Z" />
<path d="M 500,557.953 480.237,592.183 460.474,557.953 Z" />
<path d="M 460.474,557.953 480.237,592.183 440.711,592.183 Z" />
<path d="M 460.474,557.953 440.711,592.183 420.949,557.953 Z" />
<path d="M 460.474,557.953 420.949,557.953 440.711,523.723 Z" />
<path d="M 440.711,523.723 420.949,557.953 401.186,523.723 Z" />
<path d="M 440.711,523.723 401.186,523.723 420.949,489.493 Z" />
<path d="M 420.949,489.493 401.186,523.723 381.423,489.493 Z" />
<path d="M 420.949,489.493 381.423,489.493 401.186,455.262 Z" />
<path d="M 420.949,489.493 401.186,455.262 440.711,455.262 Z" />
<path d="M 440.711,455.262 401.186,455.262 420.949,421.032 Z" />
<path d="M 440.711,455.262 420.949,421.032 460.474,421.032 Z" />
<path d="M 460.474,421.032 480.237,386.802 500,421.032 Z" />
<path d="M 460.474,421.032 420.949,421.032 440.711,386.802 Z" />
<path d="M 460.474,421.032 440.711,386.802 480.237,386.802 Z" />
<path d="M 500,421.032 519.763,386.802 539.526,421.032 Z" />
<path d="M 500,421.032 480.237,386.802 519.763,386.802 Z" />
<path d="M 539.526,421.032 559.289,386.802 579.051,421.032 Z" />
<path d="M 539.526,421.032 519.763,386.802 559.289,386.802 Z" />
<path d="M 618.577,489.493 658.103,489.493 638.34,523.723 Z" />
<path d="M 618.577,489.493 638.34,455.262 658.103,489.493 Z" />
<path d="M 618.577,489.493 638.34,523.723 598.814,523.723 Z" />
<path d="M 618.577,489.493 598.814,455.262 638.34,455.262 Z" />
<path d="M 598.814,523.723 638.34,523.723 618.577,557.953 Z" />
<path d="M 598.814,523.723 618.577,557.953 579.051,557.953 Z" />
<path d="M 598.814,455.262 618.577,421.032 638.34,455.262 Z" />
<path d="M 598.814,455.262 579.051,421.032 618.577,421.032 Z" />
<path d="M 579.051,557.953 618.577,557.953 598.814,592.183 Z" />
<path d="M 579.051,557.953 598.814,592.183 559.289,592.183 Z" />
<path d="M 579.051,421.032 598.814,386.802 618.577,421.032 Z" />
<path d="M 579.051,421.032 559.289,386.802 598.814,386.802 Z" />
<path d="M 559.289,592.183 598.814,592.183 579.051,626.414 Z" />
<path d="M 559.289,592.183 579.051,626.414 539.526,626.414 Z" />
<path d="M 559.289,592.183 539.526,626.414 519.763,592.183 Z" />
<path d="M 519.763,592.183 539.526,626.414 500,626.414 Z" />
<path d="M 519.763,592.183 500,626.414 480.237,592.183 Z" />
<path d="M 480.237,592.183 500,626.414 460.474,626.414 Z" />
<path d="M 480.237,592.183 460.474,626.414 440.711,592.183 Z" />
<path d="M 440.711,592.183 460.474,626.414 420.949,626.414 Z" />
<path d="M 440.711,592.183 420.949,626.414 401.186,592.183 Z" />
<path d="M 440.711,592.183 401.186,592.183 420.949,557.953 Z" />
<path d="M 420.949,557.953 401.186,592.183 381.423,557.953 Z" />
<path d="M 420.949,557.953 381.423,557.953 401.186,523.723 Z" />
<path d="M 401.186,523.723 381.423,557.953 361.66,523.723 Z" />
<path d="M 401.186,523.723 361.66,523.723 381.423,489.493 Z" />
<path d="M 381.423,489.493 361.66,523.723 341.897,489.493 Z" />
<path d="M 381.423,489.493 341.897,489.493 361.66,455.262 Z" />
<path d="M 381.423,489.493 361.66,455.262 401.186,455.262 Z" />
<path d="M 401.186,455.262 361.66,455.262 381.423,421.032 Z" />
<path d="M 401.186,455.262 381.423,421.032 420.949,421.032 Z" />
<path d="M 420.949,421.032 381.423,421.032 401.186,386.802 Z" />
<path d="M 420.949,421.032 401.186,386.802 440.711,386.802 Z" />
<path d="M 440.711,386.802 460.474,352.572 480.237,386.802 Z" />
<path d="M 440.711,386.802 401.186,386.802 420.949,352.572 Z" />
<path d="M 440.711,386.802 420.949,352.572 460.474,352.572 Z" />
<path d="M 480.237,386.802 500,352.572 519.763,386.802 Z" />
<path d="M 480.237,386.802 460.474,352.572 500,352.572 Z" />
<path d="M 519.763,386.802 539.526,352.572 559.289,386.802 Z" />
<path d="M 519.763,386.802 500,352.572 539.526,352.572 Z" />
<path d="M 559.289,386.802 579.051,352.572 598.814,386.802 Z" />
<path d="M 559.289,386.802 539.526,352.572 579.051,352.572 Z" />
<path d="M 658.103,489.493 697.628,489.493 677.866,523.723 Z" />
<path d="M 658.103,489.493 677.866,455.262 697.628,489.493 Z" />
<path d="M 658.103,489.493 677.866,523.723 638.34,523.723 Z" />
<path d="M 658.103,489.493 638.34,455.262 677.866,455.262 Z" />
<path d="M 638.34,523.723 677.866,523.723 658.103,557.953 Z" />
<path d="M 638.34,523.723 658.103,557.953 618.577,557.953 Z" />
<path d="M 638.34,455.262 658.103,421.032 677.866,455.262 Z" />
<path d="M 638.34,455.262 618.577,421.032 658.103,421.032 Z" />
<path d="M 618.577,557.953 658.103,557.953 638.34,592.183 Z" />
<path d="M 618.577,557.953 638.34,592.183 598.814,592.183 Z" />
<path d="M 618.577,421.032 638.34,386.802 658.103,421.032 Z" />
<path d="M 618.577,421.032 598.814,386.802 638.34,386.802 Z" />
<path d="M 598.814,592.183 638.34,592.183 618.577,626.414 Z" />
<path d="M 598.814,592.183 618.577,626.414 579.051,626.414 Z" />
<path d="M 598.814,386.802 618.577,352.572 638.34,386.802 Z" />
<path d="M 598.814,386.802 579.051,352.572 618.577,352.572 Z" />
<path d="M 579.051,626.414 618.577,626.414 598.814,660.644 Z" />
<path d="M 579.051,626.414 598.814,660.644 559.289,660.644 Z" />
<path d="M 579.051,626.414 559.289,660.644 539.526,626.414 Z" />
<path d="M 539.526,626.414 559.289,660.644 519.763,660.644 Z" />
<path d="M 539.526,626.414 519.763,660.644 500,626.414 Z" />
<path d="M 500,626.414 519.763,660.644 480.237,660.644 Z" />
<path d="M 500,626.414 480.237,660.644 460.474,626.414 Z" />
<path d="M 460.474,626.414 480.237,660.644 440.711,660.644 Z" />
<path d="M 460.474,626.414 440.711,660.644 420.949,626.414 Z" />
<path d="M 420.949,626.414 440.711,660.644 401.186,660.644 Z" />
<path d="M 420.949,626.414 401.186,660.644 381.423,626.414 Z" />
<path d="M 420.949,626.414 381.423,626.414 401.186,592.183 Z" />
<path d="M 401.186,592.183 381.423,626.414 361.66,592.183 Z" />
<path d="M 401.186,592.183 361.66,592.183 381.423,557.953 Z" />
<path d="M 381.423,557.953 361.66,592.183 341.897,557.953 Z" />
<path d="M 381.423,557.953 341.897,557.953 361.66,523.723 Z" />
<path d="M 361.66,523.723 341.897,557.953 322.134,523.723 Z" />
<path d="M 361.66,523.723 322.134,523.723 341.897,489.493 Z" />
<path d="M 341.897,489.493 322.134,523.723 302.372,489.493 Z" />
<path d="M 341.897,489.493 302.372,489.493 322.134,455.262 Z" />
<path d="M 341.897,489.493 322.134,455.262 361.66,455.262 Z" />
<path d="M 361.66,455.262 322.134,455.262 341.897,421.032 Z" />
<path d="M 361.66,455.262 341.897,421.032 381.423,421.032 Z" />
<path d="M 381.423,421.032 341.897,421.032 361.66,386.802 Z" />
<path d="M 381.423,421.032 361.66,386.802 401.186,386.802 Z" />
<path d="M 401.186,386.802 361.66,386.802 381.423,352.572 Z" />
<path d="M 401.186,386.802 381.423,352.572 420.949,352.572 Z" />
<path d="M 420.949,352.572 440.711,318.341 460.474,352.572 Z" />
<path d="M 420.949,352.572 381.423,352.572 401.186,318.341 Z" />
<path d="M 420.949,352.572 401.186,318.341 440.711,318.341 Z" />
<path d="M 460.474,352.572 480.237,318.341 500,352.572 Z" />
<path d="M 460.474,352.572 440.711,318.341 480.237,318.341 Z" />
<path d="M 500,352.572 519.763,318.341 539.526,352.572 Z" />
<path d="M 500,352.572 480.237,318.341 519.763,318.341 Z" />
<path d="M 539.526,352.572 559.289,318.341 579.051,352.572 Z" />
<path d="M 539.526,352.572 519.763,318.341 559.289,318.341 Z" />
<path d="M 579.051,352.572 598.814,318.341 618.577,352.572 Z" />
<path d="M 579.051,352.572 559.289,318.341 598.814,318.341 Z" />
<path d="M 697.628,489.493 737.154,489.493 717.391,523.723 Z" />
<path d="M 697.628,489.493 717.391,455.262 737.154,489.493 Z" />
<path d="M 697.628,489.493 717.391,523.723 677.866,523.723 Z" />
<path d="M 697.628,489.493 677.866,455.262 717.391,455.262 Z" />
<path d="M 677.866,523.723 717.391,523.723 697.628,557.953 Z" />
<path d="M 677.866,523.723 697.628,557.953 658.103,557.953 Z" />
<path d="M 677.866,455.262 697.628,421.032 717.391,455.262 Z" />
<path d="M 677.866,455.262 658.103,421.032 697.628,421.032 Z" />
<path d="M 658.103,557.953 697.628,557.953 677.866,592.183 Z" />
<path d="M 658.103,557.953 677.866,592.183 638.34,592.183 Z" />
<path d="M 658.103,421.032 677.866,386.802 697.628,421.032 Z" />
<path d="M 658.103,421.032 638.34,386.802 677.866,386.802 Z" />
<path d="M 638.34,592.183 677.866,592.183 658.103,626.414 Z" />
<path d="M 638.34,592.183 658.103,626.414 618.577,626.414 Z" />
<path d="M 638.34,386.802 658.103,352.572 677.866,386.802 Z" />
<path d="M 638.34,386.802 618.577,352.572 658.103,352.572 Z" />
<path d="M 618.577,626.414 658.103,626.414 638.34,660.644 Z" />
<path d="M 618.577,626.414 638.34,660.644 598.814,660.644 Z" />
<path d="M 618.577,352.572 638.34,318.341 658.103,352.572 Z" />
<path d="M 618.577,352.572 598.814,318.341 638.34,318.341 Z" />
<path d="M 598.814,660.644 638.34,660.644 618.577,694.874 Z" />
<path d="M 598.814,660.644 618.577,694.874 579.051,694.874 Z" />
<path d="M 598.814,660.644 579.051,694.874 559.289,660.644 Z" />
<path d="M 559.289,660.644 579.051,694.874 539.526,694.874 Z" />
<path d="M 559.289,660.644 539.526,694.874 519.763,660.644 Z" />
<path d="M 519.763,660.644 539.526,694.874 500,694.874 Z" />
<path d="M 519.763,660.644 500,694.874 480.237,660.644 Z" />
<path d="M 480.237,660.644 500,694.874 460.474,694.874 Z" />
<path d="M 480.237,660.644 460.474,694.874 440.711,660.644 Z" />
<path d="M 440.711,660.644 460.474,694.874 420.949,694.874 Z" />
<path d="M 440.711,660.644 420.949,694.874 401.186,660.644 Z" />
<path d="M 401.186,660.644 420.949,694.874 381.423,694.874 Z" />
<path d="M 401.186,660.644 381.423,694.874 361.66,660.644 Z" />
<path d="M 401.186,660.644 361.66,660.644 381.423,626.414 Z" />
<path d="M 381.423,626.414 361.66,660.644 341.897,626.414 Z" />
<path d="M 381.423,626.414 341.897,626.414 361.66,592.183 Z" />
<path d="M 361.66,592.183 341.897,626.414 322.134,592.183 Z" />
<path d="M 361.66,592.183 322.134,592.183 341.897,557.953 Z" />
<path d="M 341.897,557.953 322.134,592.183 302.372,557.953 Z" />
<path d="M 341.897,557.953 302.372,557.953 322.134,523.723 Z" />
<path d="M 322.134,523.723 302.372,557.953 282.609,523.723 Z" />
<path d="M 322.134,523.723 282.609,523.723 302.372,489.493 Z" />
<path d="M 302.372,489.493 282.609,523.723 262.846,489.493 Z" />
<path d="M 302.372,489.493 262.846,489.493 282.609,455.262 Z" />
<path d="M 302.372,489.493 282.609,455.262 322.134,455.262 Z" />
<path d="M 322.134,455.262 282.609,455.262 302.372,421.032 Z" />
<path d="M 322.134,455.262 302.372,421.032 341.897,421.032 Z" />
<path d="M 341.897,421.032 302.372,421.032 322.134,386.802 Z" />
<path d="M 341.897,421.032 322.134,386.802 361.66,386.802 Z" />
<path d="M 361.66,386.802 322.134,386.802 341.897,352.572 Z" />
<path d="M 361.66,386.802 341.897,352.572 381.423,352.572 Z" />
<path d="M 381.423,352.572 341.897,352.572 361.66,318.341 Z" />
<path d="M 381.423,352.572 361.66,318.341 401.186,318.341 Z" />
<path d="M 401.186,318.341 420.949,284.111 440.711,318.341 Z" />
<path d="M 401.186,318.341 361.66,318.341 381.423,284.111 Z" />
<path d="M 401.186,318.341 381.423,284.111 420.949,284.111 Z" />
<path d="M 440.711,318.341 460.474,284.111 480.237,318.341 Z" />
<path d="M 440.711,318.341 420.949,284.111 460.474,284.111 Z" />
<path d="M 480.237,318.341 500,284.111 519.763,318.341 Z" />
<path d="M 480.237,318.341 460.474,284.111 500,284.111 Z" />
<path d="M 519.763,318.341 539.526,284.111 559.289,318.341 Z" />
<path d="M 519.763,318.341 500,284.111 539.526,284.111 Z" />
<path d="M 559.289,318.341 579.051,284.111 598.814,318.341 Z" />
<path d="M 559.289,318.341 539.526,284.111 579.051,284.111 Z" />
<path d="M 598.814,318.341 618.577,284.111 638.34,318.341 Z" />
<path d="M 598.814,318.341 579.051,284.111 618.577,284.111 Z" />
<path d="M 737.154,489.493 776.68,489.493 756.917,523.723 Z" />
<path d="M 737.154,489.493 756.917,455.262 776.68,489.493 Z" />
<path d="M 737.154,489.493 756.917,523.723 717.391,523.723 Z" />
<path d="M 737.154,489.493 717.391,455.262 756.917,455.262 Z" />
<path d="M 717.391,523.723 756.917,523.723 737.154,557.953 Z" />
<path d="M 717.391,523.723 737.154,557.953 697.628,557.953 Z" />
<path d="M 737.154,421.032 756.917,455.262 717.391,455.262 Z" />
<path d="M 737.154,421.032 717.391,455.262 697.628,421.032 Z" />
<path d="M 717.391,592.183 697.628,557.953 737.154,557.953 Z" />
<path d="M 717.391,592.183 677.866,592.183 697.628,557.953 Z" />
<path d="M 717.391,386.802 737.154,421.032 697.628,421.032 Z" />
<path d="M 717.391,386.802 697.628,421.032 677.866,386.802 Z" />
<path d="M 697.628,626.414 677.866,592.183 717.391,592.183 Z" />
<path d="M 697.628,626.414 658.103,626.414 677.866,592.183 Z" />
<path d="M 697.628,352.572 717.391,386.802 677.866,386.802 Z" />
<path d="M 697.628,352.572 677.866,386.802 658.103,352.572 Z" />
<path d="M 677.866,660.644 658.103,626.414 697.628,626.414 Z" />
<path d="M 677.866,660.644 638.34,660.644 658.103,626.414 Z" />
<path d="M 677.866,318.341 697.628,352.572 658.103,352.572 Z" />
<path d="M 677.866,318.341 658.103,352.572 638.34,318.341 Z" />
<path d="M 677.866,660.644 658.103,694.874 638.34,660.644 Z" />
<path d="M 658.103,694.874 618.577,694.874 638.34,660.644 Z" />
<path d="M 677.866,318.341 638.34,318.341 658.103,284.111 Z" />
<path d="M 658.103,284.111 638.34,318.341 618.577,284.111 Z" />
<path d="M 658.103,694.874 638.34,729.104 618.577,694.874 Z" />
<path d="M 638.34,729.104 598.814,729.104 618.577,694.874 Z" />
<path d="M 598.814,729.104 579.051,694.874 618.577,694.874 Z" />
<path d="M 598.814,729.104 559.289,729.104 579.051,694.874 Z" />
<path d="M 559.289,729.104 539.526,694.874 579.051,694.874 Z" />
<path d="M 559.289,729.104 519.763,729.104 539.526,694.874 Z" />
<path d="M 519.763,729.104 500,694.874 539.526,694.874 Z" />
<path d="M 519.763,729.104 480.237,729.104 500,694.874 Z" />
<path d="M 480.237,729.104 460.474,694.874 500,694.874 Z" />
<path d="M 480.237,729.104 440.711,729.104 460.474,694.874 Z" />
<path d="M 440.711,729.104 420.949,694.874 460.474,694.874 Z" />
<path d="M 440.711,729.104 401.186,729.104 420.949,694.874 Z" />
<path d="M 401.186,729.104 381.423,694.874 420.949,694.874 Z" />
<path d="M 401.186,729.104 361.66,729.104 381.423,694.874 Z" />
<path d="M 361.66,729.104 341.897,694.874 381.423,694.874 Z" />
<path d="M 341.897,694.874 361.66,660.644 381.423,694.874 Z" />
<path d="M 341.897,694.874 322.134,660.644 361.66,660.644 Z" />
<path d="M 322.134,660.644 341.897,626.414 361.66,660.644 Z" />
<path d="M 322.134,660.644 302.372,626.414 341.897,626.414 Z" />
<path d="M 302.372,626.414 322.134,592.183 341.897,626.414 Z" />
<path d="M 302.372,626.414 282.609,592.183 322.134,592.183 Z" />
<path d="M 282.609,592.183 302.372,557.953 322.134,592.183 Z" />
<path d="M 282.609,592.183 262.846,557.953 302.372,557.953 Z" />
<path d="M 262.846,557.953 282.609,523.723 302.372,557.953 Z" />
<path d="M 262.846,557.953 243.083,523.723 282.609,523.723 Z" />
<path d="M 243.083,523.723 262.846,489.493 282.609,523.723 Z" />
<path d="M 243.083,523.723 223.32,489.493 262.846,489.493 Z" />
<path d="M 223.32,489.493 243.083,455.262 262.846,489.493 Z" />
<path d="M 243.083,455.262 282.609,455.262 262.846,489.493 Z" />
<path d="M 243.083,455.262 262.846,421.032 282.609,455.262 Z" />
<path d="M 262.846,421.032 302.372,421.032 282.609,455.262 Z" />
<path d="M 262.846,421.032 282.609,386.802 302.372,421.032 Z" />
<path d="M 282.609,386.802 322.134,386.802 302.372,421.032 Z" />
<path d="M 282.609,386.802 302.372,352.572 322.134,386.802 Z" />
<path d="M 302.372,352.572 341.897,352.572 322.134,386.802 Z" />
<path d="M 302.372,352.572 322.134,318.341 341.897,352.572 Z" />
<path d="M 322.134,318.341 361.66,318.341 341.897,352.572 Z" />
<path d="M 322.134,318.341 341.897,284.111 361.66,318.341 Z" />
<path d="M 341.897,284.111 381.423,284.111 361.66,318.341 Z" />
<path d="M 381.423,284.111 401.186,249.881 420.949,284.111 Z" />
<path d="M 341.897,284.111 361.66,249.881 381.423,284.111 Z" />
<path d="M 381.423,284.111 361.66,249.881 401.186,249.881 Z" />
<path d="M 420.949,284.111 440.711,249.881 460.474,284.111 Z" />
<path d="M 420.949,284.111 401.186,249.881 440.711,249.881 Z" />
<path d="M 460.474,284.111 480.237,249.881 500,284.111 Z" />
<path d="M 460.474,284.111 440.711,249.881 480.237,249.881 Z" />
<path d="M 500,284.111 519.763,249.881 539.526,284.111 Z" />
<path d="M 500,284.111 480.237,249.881 519.763,249.881 Z" />
<path d="M 539.526,284.111 559.289,249.881 579.051,284.111 Z" />
<path d="M 539.526,284.111 519.763,249.881 559.289,249.881 Z" />
<path d="M 579.051,284.111 598.814,249.881 618.577,284.111 Z" />
<path d="M 579.051,284.111 559.289,249.881 598.814,249.881 Z" />
<path d="M 658.103,284.111 618.577,284.111 638.34,249.881 Z" />
<path d="M 618.577,284.111 598.814,249.881 638.34,249.881 Z" />
<path d="M 776.68,489.493 816.206,489.493 796.443,523.723 Z" />
<path d="M 776.68,489.493 796.443,455.262 816.206,489.493 Z" />
<path d="M 776.68,489.493 796.443,523.723 756.917,523.723 Z" />
<path d="M 776.68,489.493 756.917,455.262 796.443,455.262 Z" />
<path d="M 756.917,523.723 796.443,523.723 776.68,557.953 Z" />
<path d="M 756.917,523.723 776.68,557.953 737.154,557.953 Z" />
<path d="M 776.68,421.032 796.443,455.262 756.917,455.262 Z" />
<path d="M 737.154,421.032 776.68,421.032 756.917,455.262 Z" />
<path d="M 756.917,592.183 737.154,557.953 776.68,557.953 Z" />
<path d="M 717.391,592.183 737.154,557.953 756.917,592.183 Z" />
<path d="M 737.154,421.032 756.917,386.802 776.68,421.032 Z" />
<path d="M 717.391,386.802 756.917,386.802 737.154,421.032 Z" />
<path d="M 717.391,592.183 756.917,592.183 737.154,626.414 Z" />
<path d="M 697.628,626.414 717.391,592.183 737.154,626.414 Z" />
<path d="M 717.391,386.802 737.154,352.572 756.917,386.802 Z" />
<path d="M 697.628,352.572 737.154,352.572 717.391,386.802 Z" />
<path d="M 697.628,626.414 737.154,626.414 717.391,660.644 Z" />
<path d="M 677.866,660.644 697.628,626.414 717.391,660.644 Z" />
<path d="M 697.628,352.572 717.391,318.341 737.154,352.572 Z" />
<path d="M 677.866,318.341 717.391,318.341 697.628,352.572 Z" />
<path d="M 677.866,660.644 717.391,660.644 697.628,694.874 Z" />
<path d="M 677.866,660.644 697.628,694.874 658.103,694.874 Z" />
<path d="M 677.866,318.341 697.628,284.111 717.391,318.341 Z" />
<path d="M 677.866,318.341 658.103,284.111 697.628,284.111 Z" />
<path d="M 658.103,694.874 697.628,694.874 677.866,729.104 Z" />
<path d="M 658.103,694.874 677.866,729.104 638.34,729.104 Z" />
<path d="M 658.103,284.111 677.866,249.881 697.628,284.111 Z" />
<path d="M 658.103,284.111 638.34,249.881 677.866,249.881 Z" />
<path d="M 638.34,729.104 677.866,729.104 658.103,763.335 Z" />
<path d="M 638.34,729.104 658.103,763.335 618.577,763.335 Z" />
<path d="M 638.34,729.104 618.577,763.335 598.814,729.104 Z" />
<path d="M 598.814,729.104 618.577,763.335 579.051,763.335 Z" />
<path d="M 598.814,729.104 579.051,763.335 559.289,729.104 Z" />
<path d="M 559.289,729.104 579.051,763.335 539.526,763.335 Z" />
<path d="M 559.289,729.104 539.526,763.335 519.763,729.104 Z" />
<path d="M 519.763,729.104 539.526,763.335 500,763.335 Z" />
<path d="M 519.763,729.104 500,763.335 480.237,729.104 Z" />
<path d="M 480.237,729.104 500,763.335 460.474,763.335 Z" />
<path d="M 480.237,729.104 460.474,763.335 440.711,729.104 Z" />
<path d="M 440.711,729.104 460.474,763.335 420.949,763.335 Z" />
<path d="M 440.711,729.104 420.949,763.335 401.186,729.104 Z" />
<path d="M 401.186,729.104 420.949,763.335 381.423,763.335 Z" />
<path d="M 401.186,729.104 381.423,763.335 361.66,729.104 Z" />
<path d="M 361.66,729.104 381.423,763.335 341.897,763.335 Z" />
<path d="M 361.66,729.104 341.897,763.335 322.134,729.104 Z" />
<path d="M 361.66,729.104 322.134,729.104 341.897,694.874 Z" />
<path d="M 341.897,694.874 322.134,729.104 302.372,694.874 Z" />
<path d="M 341.897,694.874 302.372,694.874 322.134,660.644 Z" />
<path d="M 322.134,660.644 302.372,694.874 282.609,660.644 Z" />
<path d="M 322.134,660.644 282.609,660.644 302.372,626.414 Z" />
<path d="M 302.372,626.414 282.609,660.644 262.846,626.414 Z" />
<path d="M 302.372,626.414 262.846,626.414 282.609,592.183 Z" />
<path d="M 282.609,592.183 262.846,626.414 243.083,592.183 Z" />
<path d="M 282.609,592.183 243.083,592.183 262.846,557.953 Z" />
<path d="M 262.846,557.953 243.083,592.183 223.32,557.953 Z" />
<path d="M 262.846,557.953 223.32,557.953 243.083,523.723 Z" />
<path d="M 243.083,523.723 223.32,557.953 203.557,523.723 Z" />
<path d="M 243.083,523.723 203.557,523.723 223.32,489.493 Z" />
<path d="M 223.32,489.493 203.557,523.723 183.794,489.493 Z" />
<path d="M 223.32,489.493 183.794,489.493 203.557,455.262 Z" />
<path d="M 223.32,489.493 203.557,455.262 243.083,455.262 Z" />
<path d="M 243.083,455.262 203.557,455.262 223.32,421.032 Z" />
<path d="M 243.083,455.262 223.32,421.032 262.846,421.032 Z" />
<path d="M 262.846,421.032 223.32,421.032 243.083,386.802 Z" />
<path d="M 262.846,421.032 243.083,386.802 282.609,386.802 Z" />
<path d="M 282.609,386.802 243.083,386.802 262.846,352.572 Z" />
<path d="M 282.609,386.802 262.846,352.572 302.372,352.572 Z" />
<path d="M 302.372,352.572 262.846,352.572 282.609,318.341 Z" />
<path d="M 302.372,352.572 282.609,318.341 322.134,318.341 Z" />
<path d="M 322.134,318.341 282.609,318.341 302.372,284.111 Z" />
<path d="M 322.134,318.341 302.372,284.111 341.897,284.111 Z" />
<path d="M 341.897,284.111 302.372,284.111 322.134,249.881 Z" />
<path d="M 341.897,284.111 322.134,249.881 361.66,249.881 Z" />
<path d="M 381.423,215.651 401.186,249.881 361.66,249.881 Z" />
<path d="M 341.897,215.651 361.66,249.881 322.134,249.881 Z" />
<path d="M 381.423,215.651 361.66,249.881 341.897,215.651 Z" />
<path d="M 420.949,215.651 440.711,249.881 401.186,249.881 Z" />
<path d="M 420.949,215.651 401.186,249.881 381.423,215.651 Z" />
<path d="M 460.474,215.651 480.237,249.881 440.711,249.881 Z" />
<path d="M 460.474,215.651 440.711,249.881 420.949,215.651 Z" />
<path d="M 500,215.651 519.763,249.881 480.237,249.881 Z" />
<path d="M 500,215.651 480.237,249.881 460.474,215.651 Z" />
<path d="M 539.526,215.651 559.289,249.881 519.763,249.881 Z" />
<path d="M 539.526,215.651 519.763,249.881 500,215.651 Z" />
<path d="M 579.051,215.651 598.814,249.881 559.289,249.881 Z" />
<path d="M 579.051,215.651 559.289,249.881 539.526,215.651 Z" />
<path d="M 618.577,215.651 638.34,249.881 598.814,249.881 Z" />
<path d="M 618.577,215.651 598.814,249.881 579.051,215.651 Z" />
<path d="M 658.103,215.651 677.866,249.881 638.34,249.881 Z" />
<path d="M 658.103,215.651 638.34,249.881 618.577,215.651 Z" />
<path d="M 835.968,523.723 816.206,489.493 855.731,489.493 Z" />
<path d="M 835.968,455.262 855.731,489.493 816.206,489.493 Z" />
<path d="M 835.968,523.723 796.443,523.723 816.206,489.493 Z" />
<path d="M 835.968,455.262 816.206,489.493 796.443,455.262 Z" />
<path d="M 816.206,557.953 796.443,523.723 835.968,523.723 Z" />
<path d="M 816.206,557.953 776.68,557.953 796.443,523.723 Z" />
<path d="M 816.206,421.032 835.968,455.262 796.443,455.262 Z" />
<path d="M 816.206,421.032 796.443,455.262 776.68,421.032 Z" />
<path d="M 796.443,592.183 776.68,557.953 816.206,557.953 Z" />
<path d="M 796.443,592.183 756.917,592.183 776.68,557.953 Z" />
<path d="M 796.443,386.802 816.206,421.032 776.68,421.032 Z" />
<path d="M 796.443,386.802 776.68,421.032 756.917,386.802 Z" />
<path d="M 776.68,626.414 756.917,592.183 796.443,592.183 Z" />
<path d="M 776.68,626.414 737.154,626.414 756.917,592.183 Z" />
<path d="M 776.68,352.572 796.443,386.802 756.917,386.802 Z" />
<path d="M 776.68,352.572 756.917,386.802 737.154,352.572 Z" />
<path d="M 756.917,660.644 737.154,626.414 776.68,626.414 Z" />
<path d="M 756.917,660.644 717.391,660.644 737.154,626.414 Z" />
<path d="M 756.917,318.341 776.68,352.572 737.154,352.572 Z" />
<path d="M 756.917,318.341 737.154,352.572 717.391,318.341 Z" />
<path d="M 737.154,694.874 717.391,660.644 756.917,660.644 Z" />
<path d="M 737.154,694.874 697.628,694.874 717.391,660.644 Z" />
<path d="M 737.154,284.111 756.917,318.341 717.391,318.341 Z" />
<path d="M 737.154,284.111 717.391,318.341 697.628,284.111 Z" />
<path d="M 717.391,729.104 697.628,694.874 737.154,694.874 Z" />
<path d="M 717.391,729.104 677.866,729.104 697.628,694.874 Z" />
<path d="M 717.391,249.881 737.154,284.111 697.628,284.111 Z" />
<path d="M 717.391,249.881 697.628,284.111 677.866,249.881 Z" />
<path d="M 697.628,763.335 677.866,729.104 717.391,729.104 Z" />
<path d="M 697.628,763.335 658.103,763.335 677.866,729.104 Z" />
<path d="M 697.628,215.651 717.391,249.881 677.866,249.881 Z" />
<path d="M 697.628,215.651 677.866,249.881 658.103,215.651 Z" />
<path d="M 677.866,797.565 658.103,763.335 697.628,763.335 Z" />
<path d="M 638.34,797.565 658.103,763.335 677.866,797.565 Z" />
<path d="M 638.34,797.565 618.577,763.335 658.103,763.335 Z" />
<path d="M 598.814,797.565 618.577,763.335 638.34,797.565 Z" />
<path d="M 598.814,797.565 579.051,763.335 618.577,763.335 Z" />
<path d="M 559.289,797.565 579.051,763.335 598.814,797.565 Z" />
<path d="M 559.289,797.565 539.526,763.335 579.051,763.335 Z" />
<path d="M 519.763,797.565 539.526,763.335 559.289,797.565 Z" />
<path d="M 519.763,797.565 500,763.335 539.526,763.335 Z" />
<path d="M 480.237,797.565 500,763.335 519.763,797.565 Z" />
<path d="M 480.237,797.565 460.474,763.335 500,763.335 Z" />
<path d="M 440.711,797.565 460.474,763.335 480.237,797.565 Z" />
<path d="M 440.711,797.565 420.949,763.335 460.474,763.335 Z" />
<path d="M 401.186,797.565 420.949,763.335 440.711,797.565 Z" />
<path d="M 401.186,797.565 381.423,763.335 420.949,763.335 Z" />
<path d="M 361.66,797.565 381.423,763.335 401.186,797.565 Z" />
<path d="M 361.66,797.565 341.897,763.335 381.423,763.335 Z" />
<path d="M 322.134,797.565 341.897,763.335 361.66,797.565 Z" />
<path d="M 302.372,763.335 341.897,763.335 322.134,797.565 Z" />
<path d="M 302.372,763.335 322.134,729.104 341.897,763.335 Z" />
<path d="M 282.609,729.104 322.134,729.104 302.372,763.335 Z" />
<path d="M 282.609,729.104 302.372,694.874 322.134,729.104 Z" />
<path d="M 262.846,694.874 302.372,694.874 282.609,729.104 Z" />
<path d="M 262.846,694.874 282.609,660.644 302.372,694.874 Z" />
<path d="M 243.083,660.644 282.609,660.644 262.846,694.874 Z" />
<path d="M 243.083,660.644 262.846,626.414 282.609,660.644 Z" />
<path d="M 223.32,626.414 262.846,626.414 243.083,660.644 Z" />
<path d="M 223.32,626.414 243.083,592.183 262.846,626.414 Z" />
<path d="M 203.557,592.183 243.083,592.183 223.32,626.414 Z" />
<path d="M 203.557,592.183 223.32,557.953 243.083,592.183 Z" />
<path d="M 183.794,557.953 223.32,557.953 203.557,592.183 Z" />
<path d="M 183.794,557.953 203.557,523.723 223.32,557.953 Z" />
<path d="M 164.032,523.723 203.557,523.723 183.794,557.953 Z" />
<path d="M 164.032,523.723 183.794,489.493 203.557,523.723 Z" />
<path d="M 144.269,489.493 183.794,489.493 164.032,523.723 Z" />
<path d="M 164.032,455.262 183.794,489.493 144.269,489.493 Z" />
<path d="M 164.032,455.262 203.557,455.262 183.794,489.493 Z" />
<path d="M 183.794,421.032 203.557,455.262 164.032,455.262 Z" />
<path d="M 183.794,421.032 223.32,421.032 203.557,455.262 Z" />
<path d="M 203.557,386.802 223.32,421.032 183.794,421.032 Z" />
<path d="M 203.557,386.802 243.083,386.802 223.32,421.032 Z" />
<path d="M 223.32,352.572 243.083,386.802 203.557,386.802 Z" />
<path d="M 223.32,352.572 262.846,352.572 243.083,386.802 Z" />
<path d="M 243.083,318.341 262.846,352.572 223.32,352.572 Z" />
<path d="M 243.083,318.341 282.609,318.341 262.846,352.572 Z" />
<path d="M 262.846,284.111 282.609,318.341 243.083,318.341 Z" />
<path d="M 262.846,284.111 302.372,284.111 282.609,318.341 Z" />
<path d="M 282.609,249.881 302.372,284.111 262.846,284.111 Z" />
<path d="M 282.609,249.881 322.134,249.881 302.372,284.111 Z" />
<path d="M 302.372,215.651 322.134,249.881 282.609,249.881 Z" />
<path d="M 302.372,215.651 341.897,215.651 322.134,249.881 Z" />
<path d="M 361.66,181.42 381.423,215.651 341.897,215.651 Z" />
<path d="M 322.134,181.42 341.897,215.651 302.372,215.651 Z" />
<path d="M 361.66,181.42 341.897,215.651 322.134,181.42 Z" />
<path d="M 401.186,181.42 420.949,215.651 381.423,215.651 Z" />
<path d="M 401.186,181.42 381.423,215.651 361.66,181.42 Z" />
<path d="M 440.711,181.42 460.474,215.651 420.949,215.651 Z" />
<path d="M 440.711,181.42 420.949,215.651 401.186,181.42 Z" />
<path d="M 480.237,181.42 500,215.651 460.474,215.651 Z" />
<path d="M 480.237,181.42 460.474,215.651 440.711,181.42 Z" />
<path d="M 519.763,181.42 539.526,215.651 500,215.651 Z" />
<path d="M 519.763,181.42 500,215.651 480.237,181.42 Z" />
<path d="M 559.289,181.42 579.051,215.651 539.526,215.651 Z" />
<path d="M 559.289,181.42 539.526,215.651 519.763,181.42 Z" />
<path d="M 598.814,181.42 618.577,215.651 579.051,215.651 Z" />
<path d="M 598.814,181.42 579.051,215.651 559.289,181.42 Z" />
<path d="M 638.34,181.42 658.103,215.651 618.577,215.651 Z" />
<path d="M 638.34,181.42 618.577,215.651 598.814,181.42 Z" />
<path d="M 677.866,181.42 697.628,215.651 658.103,215.651 Z" />
<path d="M 677.866,181.42 658.103,215.651 638.34,181.42 Z" />
<path d="M 875.494,523.723 855.731,489.493 895.257,489.493 Z" />
<path d="M 875.494,455.262 895.257,489.493 855.731,489.493 Z" />
<path d="M 875.494,523.723 835.968,523.723 855.731,489.493 Z" />
<path d="M 875.494,455.262 855.731,489.493 835.968,455.262 Z" />
<path d="M 855.731,557.953 835.968,523.723 875.494,523.723 Z" />
<path d="M 855.731,557.953 816.206,557.953 835.968,523.723 Z" />
<path d="M 855.731,421.032 875.494,455.262 835.968,455.262 Z" />
<path d="M 855.731,421.032 835.968,455.262 816.206,421.032 Z" />
<path d="M 835.968,592.183 816.206,557.953 855.731,557.953 Z" />
<path d="M 835.968,592.183 796.443,592.183 816.206,557.953 Z" />
<path d="M 835.968,386.802 855.731,421.032 816.206,421.032 Z" />
<path d="M 835.968,386.802 816.206,421.032 796.443,386.802 Z" />
<path d="M 816.206,626.414 796.443,592.183 835.968,592.183 Z" />
<path d="M 816.206,626.414 776.68,626.414 796.443,592.183 Z" />
<path d="M 816.206,352.572 835.968,386.802 796.443,386.802 Z" />
<path d="M 816.206,352.572 796.443,386.802 776.68,352.572 Z" />
<path d="M 796.443,660.644 776.68,626.414 816.206,626.414 Z" />
<path d="M 796.443,660.644 756.917,660.644 776.68,626.414 Z" />
<path d="M 796.443,318.341 816.206,352.572 776.68,352.572 Z" />
<path d="M 796.443,318.341 776.68,352.572 756.917,318.341 Z" />
<path d="M 776.68,694.874 756.917,660.644 796.443,660.644 Z" />
<path d="M 776.68,694.874 737.154,694.874 756.917,660.644 Z" />
<path d="M 776.68,284.111 796.443,318.341 756.917,318.341 Z" />
<path d="M 776.68,284.111 756.917,318.341 737.154,284.111 Z" />
<path d="M 756.917,729.104 737.154,694.874 776.68,694.874 Z" />
<path d="M 756.917,729.104 717.391,729.104 737.154,694.874 Z" />
<path d="M 756.917,249.881 776.68,284.111 737.154,284.111 Z" />
<path d="M 756.917,249.881 737.154,284.111 717.391,249.881 Z" />
<path d="M 737.154,763.335 717.391,729.104 756.917,729.104 Z" />
<path d="M 737.154,763.335 697.628,763.335 717.391,729.104 Z" />
<path d="M 737.154,215.651 756.917,249.881 717.391,249.881 Z" />
<path d="M 737.154,215.651 717.391,249.881 697.628,215.651 Z" />
<path d="M 717.391,797.565 697.628,763.335 737.154,763.335 Z" />
<path d="M 717.391,797.565 677.866,797.565 697.628,763.335 Z" />
<path d="M 717.391,181.42 737.154,215.651 697.628,215.651 Z" />
<path d="M 717.391,181.42 697.628,215.651 677.866,181.42 Z" />
<path d="M 697.628,831.795 677.866,797.565 717.391,797.565 Z" />
<path d="M 658.103,831.795 677.866,797.565 697.628,831.795 Z" />
<path d="M 658.103,831.795 638.34,797.565 677.866,797.565 Z" />
<path d="M 618.577,831.795 638.34,797.565 658.103,831.795 Z" />
<path d="M 618.577,831.795 598.814,797.565 638.34,797.565 Z" />
<path d="M 579.051,831.795 598.814,797.565 618.577,831.795 Z" />
<path d="M 579.051,831.795 559.289,797.565 598.814,797.565 Z" />
<path d="M 539.526,831.795 559.289,797.565 579.051,831.795 Z" />
<path d="M 539.526,831.795 519.763,797.565 559.289,797.565 Z" />
<path d="M 500,831.795 519.763,797.565 539.526,831.795 Z" />
<path d="M 500,831.795 480.237,797.565 519.763,797.565 Z" />
<path d="M 460.474,831.795 480.237,797.565 500,831.795 Z" />
<path d="M 460.474,831.795 440.711,797.565 480.237,797.565 Z" />
<path d="M 420.949,831.795 440.711,797.565 460.474,831.795 Z" />
<path d="M 420.949,831.795 401.186,797.565 440.711,797.565 Z" />
<path d="M 381.423,831.795 401.186,797.565 420.949,831.795 Z" />
<path d="M 381.423,831.795 361.66,797.565 401.186,797.565 Z" />
<path d="M 341.897,831.795 361.66,797.565 381.423,831.795 Z" />
<path d="M 341.897,831.795 322.134,797.565 361.66,797.565 Z" />
<path d="M 302.372,831.795 322.134,797.565 341.897,831.795 Z" />
<path d="M 282.609,797.565 322.134,797.565 302.372,831.795 Z" />
<path d="M 282.609,797.565 302.372,763.335 322.134,797.565 Z" />
<path d="M 262.846,763.335 302.372,763.335 282.609,797.565 Z" />
<path d="M 262.846,763.335 282.609,729.104 302.372,763.335 Z" />
<path d="M 243.083,729.104 282.609,729.104 262.846,763.335 Z" />
<path d="M 243.083,729.104 262.846,694.874 282.609,729.104 Z" />
<path d="M 223.32,694.874 262.846,694.874 243.083,729.104 Z" />
<path d="M 223.32,694.874 243.083,660.644 262.846,694.874 Z" />
<path d="M 203.557,660.644 243.083,660.644 223.32,694.874 Z" />
<path d="M 203.557,660.644 223.32,626.414 243.083,660.644 Z" />
<path d="M 183.794,626.414 223.32,626.414 203.557,660.644 Z" />
<path d="M 183.794,626.414 203.557,592.183 223.32,626.414 Z" />
<path d="M 164.032,592.183 203.557,592.183 183.794,626.414 Z" />
<path d="M 164.032,592.183 183.794,557.953 203.557,592.183 Z" />
<path d="M 144.269,557.953 183.794,557.953 164.032,592.183 Z" />
<path d="M 144.269,557.953 164.032,523.723 183.794,557.953 Z" />
<path d="M 124.506,523.723 164.032,523.723 144.269,557.953 Z" />
<path d="M 124.506,523.723 144.269,489.493 164.032,523.723 Z" />
<path d="M 104.743,489.493 144.269,489.493 124.506,523.723 Z" />
<path d="M 124.506,455.262 144.269,489.493 104.743,489.493 Z" />
<path d="M 124.506,455.262 164.032,455.262 144.269,489.493 Z" />
<path d="M 144.269,421.032 164.032,455.262 124.506,455.262 Z" />
<path d="M 144.269,421.032 183.794,421.032 164.032,455.262 Z" />
<path d="M 164.032,386.802 183.794,421.032 144.269,421.032 Z" />
<path d="M 164.032,386.802 203.557,386.802 183.794,421.032 Z" />
<path d="M 183.794,352.572 203.557,386.802 164.032,386.802 Z" />
<path d="M 183.794,352.572 223.32,352.572 203.557,386.802 Z" />
<path d="M 203.557,318.341 223.32,352.572 183.794,352.572 Z" />
<path d="M 203.557,318.341 243.083,318.341 223.32,352.572 Z" />
<path d="M 223.32,284.111 243.083,318.341 203.557,318.341 Z" />
<path d="M 223.32,284.111 262.846,284.111 243.083,318.341 Z" />
<path d="M 243.083,249.881 262.846,284.111 223.32,284.111 Z" />
<path d="M 243.083,249.881 282.609,249.881 262.846,284.111 Z" />
<path d="M 262.846,215.651 282.609,249.881 243.083,249.881 Z" />
<path d="M 262.846,215.651 302.372,215.651 282.609,249.881 Z" />
<path d="M 282.609,181.42 302.372,215.651 262.846,215.651 Z" />
<path d="M 282.609,181.42 322.134,181.42 302.372,215.651 Z" />
<path d="M 341.897,147.19 361.66,181.42 322.134,181.42 Z" />
<path d="M 302.372,147.19 322.134,181.42 282.609,181.42 Z" />
<path d="M 341.897,147.19 322.134,181.42 302.372,147.19 Z" />
<path d="M 381.423,147.19 401.186,181.42 361.66,181.42 Z" />
<path d="M 381.423,147.19 361.66,181.42 341.897,147.19 Z" />
<path d="M 420.949,147.19 440.711,181.42 401.186,181.42 Z" />
<path d="M 420.949,147.19 401.186,181.42 381.423,147.19 Z" />
<path d="M 460.474,147.19 480.237,181.42 440.711,181.42 Z" />
<path d="M 460.474,147.19 440.711,181.42 420.949,147.19 Z" />
<path d="M 500,147.19 519.763,181.42 480.237,181.42 Z" />
<path d="M 500,147.19 480.237,181.42 460.474,147.19 Z" />
<path d="M 539.526,147.19 559.289,181.42 519.763,181.42 Z" />
<path d="M 539.526,147.19 519.763,181.42 500,147.19 Z" />
<path d="M 579.051,147.19 598.814,181.42 559.289,181.42 Z" />
<path d="M 579.051,147.19 559.289,181.42 539.526,147.19 Z" />
<path d="M 618.577,147.19 638.34,181.42 598.814,181.42 Z" />
<path d="M 618.577,147.19 598.814,181.42 579.051,147.19 Z" />
<path d="M 658.103,147.19 677.866,181.42 638.34,181.42 Z" />
<path d="M 658.103,147.19 638.34,181.42 618.577,147.19 Z" />
<path d="M 697.628,147.19 717.391,181.42 677.866,181.42 Z" />
<path d="M 697.628,147.19 677.866,181.42 658.103,147.19 Z" />
<path d="M 915.02,523.723 895.257,489.493 934.783,489.493 Z" />
<path d="M 915.02,455.262 934.783,489.493 895.257,489.493 Z" />
<path d="M 915.02,523.723 875.494,523.723 895.257,489.493 Z" />
<path d="M 915.02,455.262 895.257,489.493 875.494,455.262 Z" />
<path d="M 895.257,557.953 875.494,523.723 915.02,523.723 Z" />
<path d="M 895.257,557.953 855.731,557.953 875.494,523.723 Z" />
<path d="M 895.257,421.032 915.02,455.262 875.494,455.262 Z" />
<path d="M 895.257,421.032 875.494,455.262 855.731,421.032 Z" />
<path d="M 875.494,592.183 855.731,557.953 895.257,557.953 Z" />
<path d="M 875.494,592.183 835.968,592.183 855.731,557.953 Z" />
<path d="M 875.494,386.802 895.257,421.032 855.731,421.032 Z" />
<path d="M 875.494,386.802 855.731,421.032 835.968,386.802 Z" />
<path d="M 855.731,626.414 835.968,592.183 875.494,592.183 Z" />
<path d="M 855.731,626.414 816.206,626.414 835.968,592.183 Z" />
<path d="M 855.731,352.572 875.494,386.802 835.968,386.802 Z" />
<path d="M 855.731,352.572 835.968,386.802 816.206,352.572 Z" />
<path d="M 835.968,660.644 816.206,626.414 855.731,626.414 Z" />
<path d="M 835.968,660.644 796.443,660.644 816.206,626.414 Z" />
<path d="M 835.968,318.341 855.731,352.572 816.206,352.572 Z" />
<path d="M 835.968,318.341 816.206,352.572 796.443,318.341 Z" />
<path d="M 816.206,694.874 796.443,660.644 835.968,660.644 Z" />
<path d="M 816.206,694.874 776.68,694.874 796.443,660.644 Z" />
<path d="M 816.206,284.111 835.968,318.341 796.443,318.341 Z" />
<path d="M 816.206,284.111 796.443,318.341 776.68,284.111 Z" />
<path d="M 796.443,729.104 776.68,694.874 816.206,694.874 Z" />
<path d="M 796.443,729.104 756.917,729.104 776.68,694.874 Z" />
<path d="M 796.443,249.881 816.206,284.111 776.68,284.111 Z" />
<path d="M 796.443,249.881 776.68,284.111 756.917,249.881 Z" />
<path d="M 776.68,763.335 756.917,729.104 796.443,729.104 Z" />
<path d="M 776.68,763.335 737.154,763.335 756.917,729.104 Z" />
<path d="M 776.68,215.651 796.443,249.881 756.917,249.881 Z" />
<path d="M 776.68,215.651 756.917,249.881 737.154,215.651 Z" />
<path d="M 756.917,797.565 737.154,763.335 776.68,763.335 Z" />
<path d="M 756.917,797.565 717.391,797.565 737.154,763.335 Z" />
<path d="M 756.917,181.42 776.68,215.651 737.154,215.651 Z" />
<path d="M 756.917,181.42 737.154,215.651 717.391,181.42 Z" />
<path d="M 737.154,831.795 717.391,797.565 756.917,797.565 Z" />
<path d="M 737.154,831.795 697.628,831.795 717.391,797.565 Z" />
<path d="M 737.154,147.19 756.917,181.42 717.391,181.42 Z" />
<path d="M 737.154,147.19 717.391,181.42 697.628,147.19 Z" />
<path d="M 717.391,866.025 697.628,831.795 737.154,831.795 Z" />
<path d="M 677.866,866.025 697.628,831.795 717.391,866.025 Z" />
<path d="M 677.866,866.025 658.103,831.795 697.628,831.795 Z" />
<path d="M 638.34,866.025 658.103,831.795 677.866,866.025 Z" />
<path d="M 638.34,866.025 618.577,831.795 658.103,831.795 Z" />
<path d="M 598.814,866.025 618.577,831.795 638.34,866.025 Z" />
<path d="M 598.814,866.025 579.051,831.795 618.577,831.795 Z" />
<path d="M 559.289,866.025 579.051,831.795 598.814,866.025 Z" />
<path d="M 559.289,866.025 539.526,831.795 579.051,831.795 Z" />
<path d="M 519.763,866.025 539.526,831.795 559.289,866.025 Z" />
<path d="M 519.763,866.025 500,831.795 539.526,831.795 Z" />
<path d="M 480.237,866.025 500,831.795 519.763,866.025 Z" />
<path d="M 480.237,866.025 460.474,831.795 500,831.795 Z" />
<path d="M 440.711,866.025 460.474,831.795 480.237,866.025 Z" />
<path d="M 440.711,866.025 420.949,831.795 460.474,831.795 Z" />
<path d="M 401.186,866.025 420.949,831.795 440.711,866.025 Z" />
<path d="M 401.186,866.025 381.423,831.795 420.949,831.795 Z" />
<path d="M 361.66,866.025 381.423,831.795 401.186,866.025 Z" />
<path d="M 361.66,866.025 341.897,831.795 381.423,831.795 Z" />
<path d="M 322.134,866.025 341.897,831.795 361.66,866.025 Z" />
<path d="M 322.134,866.025 302.372,831.795 341.897,831.795 Z" />
<path d="M 282.609,866.025 302.372,831.795 322.134,866.025 Z" />
<path d="M 262.846,831.795 302.372,831.795 282.609,866.025 Z" />
<path d="M 262.846,831.795 282.609,797.565 302.372,831.795 Z" />
<path d="M 243.083,797.565 282.609,797.565 262.846,831.795 Z" />
<path d="M 243.083,797.565 262.846,763.335 282.609,797.565 Z" />
<path d="M 223.32,763.335 262.846,763.335 243.083,797.565 Z" />
<path d="M 223.32,763.335 243.083,729.104 262.846,763.335 Z" />
<path d="M 203.557,729.104 243.083,729.104 223.32,763.335 Z" />
<path d="M 203.557,729.104 223.32,694.874 243.083,729.104 Z" />
<path d="M 183.794,694.874 223.32,694.874 203.557,729.104 Z" />
<path d="M 183.794,694.874 203.557,660.644 223.32,694.874 Z" />
<path d="M 164.032,660.644 203.557,660.644 183.794,694.874 Z" />
<path d="M 164.032,660.644 183.794,626.414 203.557,660.644 Z" />
<path d="M 144.269,626.414 183.794,626.414 164.032,660.644 Z" />
<path d="M 144.269,626.414 164.032,592.183 183.794,626.414 Z" />
<path d="M 124.506,592.183 164.032,592.183 144.269,626.414 Z" />
<path d="M 124.506,592.183 144.269,557.953 164.032,592.183 Z" />
<path d="M 104.743,557.953 144.269,557.953 124.506,592.183 Z" />
<path d="M 104.743,557.953 124.506,523.723 144.269,557.953 Z" />
<path d="M 84.98,523.723 124.506,523.723 104.743,557.953 Z" />
<path d="M 84.98,523.723 104.743,489.493 124.506,523.723 Z" />
<path d="M 65.217,489.493 104.743,489.493 84.98,523.723 Z" />
<path d="M 84.98,455.262 104.743,489.493 65.217,489.493 Z" />
<path d="M 84.98,455.262 124.506,455.262 104.743,489.493 Z" />
<path d="M 104.743,421.032 124.506,455.262 84.98,455.262 Z" />
<path d="M 104.743,421.032 144.269,421.032 124.506,455.262 Z" />
<path d="M 124.506,386.802 144.269,421.032 104.743,421.032 Z" />
<path d="M 124.506,386.802 164.032,386.802 144.269,421.032 Z" />
<path d="M 144.269,352.572 164.032,386.802 124.506,386.802 Z" />
<path d="M 144.269,352.572 183.794,352.572 164.032,386.802 Z" />
<path d="M 164.032,318.341 183.794,352.572 144.269,352.572 Z" />
<path d="M 164.032,318.341 203.557,318.341 183.794,352.572 Z" />
<path d="M 183.794,284.111 203.557,318.341 164.032,318.341 Z" />
<path d="M 183.794,284.111 223.32,284.111 203.557,318.341 Z" />
<path d="M 203.557,249.881 223.32,284.111 183.794,284.111 Z" />
<path d="M 203.557,249.881 243.083,249.881 223.32,284.111 Z" />
<path d="M 223.32,215.651 243.083,249.881 203.557,249.881 Z" />
<path d="M 223.32,215.651 262.846,215.651 243.083,249.881 Z" />
<path d="M 243.083,181.42 262.846,215.651 223.32,215.651 Z" />
<path d="M 243.083,181.42 282.609,181.42 262.846,215.651 Z" />
<path d="M 262.846,147.19 282.609,181.42 243.083,181.42 Z" />
<path d="M 262.846,147.19 302.372,147.19 282.609,181.42 Z" />
<path d="M 322.134,112.96 341.897,147.19 302.372,147.19 Z" />
<path d="M 282.609,112.96 302.372,147.19 262.846,147.19 Z" />
<path d="M 322.134,112.96 302.372,147.19 282.609,112.96 Z" />
<path d="M 361.66,112.96 381.423,147.19 341.897,147.19 Z" />
<path d="M 361.66,112.96 341.897,147.19 322.134,112.96 Z" />
<path d="M 401.186,112.96 420.949,147.19 381.423,147.19 Z" />
<path d="M 401.186,112.96 381.423,147.19 361.66,112.96 Z" />
<path d="M 440.711,112.96 460.474,147.19 420.949,147.19 Z" />
<path d="M 440.711,112.96 420.949,147.19 401.186,112.96 Z" />
<path d="M 480.237,112.96 500,147.19 460.474,147.19 Z" />
<path d="M 480.237,112.96 460.474,147.19 440.711,112.96 Z" />
<path d="M 519.763,112.96 539.526,147.19 500,147.19 Z" />
<path d="M 519.763,112.96 500,147.19 480.237,112.96 Z" />
<path d="M 559.289,112.96 579.051,147.19 539.526,147.19 Z" />
<path d="M 559.289,112.96 539.526,147.19 519.763,112.96 Z" />
<path d="M 598.814,112.96 618.577,147.19 579.051,147.19 Z" />
<path d="M 598.814,112.96 579.051,147.19 559.289,112.96 Z" />
<path d="M 638.34,112.96 658.103,147.19 618.577,147.19 Z" />
<path d="M 638.34,112.96 618.577,147.19 598.814,112.96 Z" />
<path d="M 677.866,112.96 697.628,147.19 658.103,147.19 Z" />
<path d="M 677.866,112.96 658.103,147.19 638.34,112.96 Z" />
<path d="M 717.391,112.96 737.154,147.19 697.628,147.19 Z" />
<path d="M 717.391,112.96 697.628,147.19 677.866,112.96 Z" />
<path d="M 500,489.493 539.526,489.493 519.763,523.723 Z" />
<path d="M 65.217,78.73 84.98,44.499 104.743,78.73 Z" />
<path d="M 954.545,523.723 915.02,523.723 934.783,489.493 Z" />
<path d="M 954.545,455.262 934.783,489.493 915.02,455.262 Z" />
<path d="M 934.783,557.953 915.02,523.723 954.545,523.723 Z" />
<path d="M 934.783,557.953 895.257,557.953 915.02,523.723 Z" />
<path d="M 934.783,421.032 954.545,455.262 915.02,455.262 Z" />
<path d="M 934.783,421.032 915.02,455.262 895.257,421.032 Z" />
<path d="M 915.02,592.183 895.257,557.953 934.783,557.953 Z" />
<path d="M 915.02,592.183 875.494,592.183 895.257,557.953 Z" />
<path d="M 915.02,386.802 934.783,421.032 895.257,421.032 Z" />
<path d="M 915.02,386.802 895.257,421.032 875.494,386.802 Z" />
<path d="M 895.257,626.414 875.494,592.183 915.02,592.183 Z" />
<path d="M 895.257,626.414 855.731,626.414 875.494,592.183 Z" />
<path d="M 895.257,352.572 915.02,386.802 875.494,386.802 Z" />
<path d="M 895.257,352.572 875.494,386.802 855.731,352.572 Z" />
<path d="M 875.494,660.644 855.731,626.414 895.257,626.414 Z" />
<path d="M 875.494,660.644 835.968,660.644 855.731,626.414 Z" />
<path d="M 875.494,318.341 895.257,352.572 855.731,352.572 Z" />
<path d="M 875.494,318.341 855.731,352.572 835.968,318.341 Z" />
<path d="M 855.731,694.874 835.968,660.644 875.494,660.644 Z" />
<path d="M 855.731,694.874 816.206,694.874 835.968,660.644 Z" />
<path d="M 855.731,284.111 875.494,318.341 835.968,318.341 Z" />
<path d="M 855.731,284.111 835.968,318.341 816.206,284.111 Z" />
<path d="M 835.968,729.104 816.206,694.874 855.731,694.874 Z" />
<path d="M 835.968,729.104 796.443,729.104 816.206,694.874 Z" />
<path d="M 835.968,249.881 855.731,284.111 816.206,284.111 Z" />
<path d="M 835.968,249.881 816.206,284.111 796.443,249.881 Z" />
<path d="M 816.206,763.335 796.443,729.104 835.968,729.104 Z" />
<path d="M 816.206,763.335 776.68,763.335 796.443,729.104 Z" />
<path d="M 816.206,215.651 835.968,249.881 796.443,249.881 Z" />
<path d="M 816.206,215.651 796.443,249.881 776.68,215.651 Z" />
<path d="M 796.443,797.565 776.68,763.335 816.206,763.335 Z" />
<path d="M 796.443,797.565 756.917,797.565 776.68,763.335 Z" />
<path d="M 796.443,181.42 816.206,215.651 776.68,215.651 Z" />
<path d="M 796.443,181.42 776.68,215.651 756.917,181.42 Z" />
<path d="M 776.68,831.795 756.917,797.565 796.443,797.565 Z" />
<path d="M 776.68,831.795 737.154,831.795 756.917,797.565 Z" />
<path d="M 776.68,147.19 796.443,181.42 756.917,181.42 Z" />
<path d="M 776.68,147.19 756.917,181.42 737.154,147.19 Z" />
<path d="M 756.917,866.025 737.154,831.795 776.68,831.795 Z" />
<path d="M 756.917,866.025 717.391,866.025 737.154,831.795 Z" />
<path d="M 756.917,112.96 776.68,147.19 737.154,147.19 Z" />
<path d="M 756.917,112.96 737.154,147.19 717.391,112.96 Z" />
<path d="M 737.154,900.256 717.391,866.025 756.917,866.025 Z" />
<path d="M 697.628,900.256 717.391,866.025 737.154,900.256 Z" />
<path d="M 697.628,900.256 677.866,866.025 717.391,866.025 Z" />
<path d="M 658.103,900.256 677.866,866.025 697.628,900.256 Z" />
<path d="M 658.103,900.256 638.34,866.025 677.866,866.025 Z" />
<path d="M 618.577,900.256 638.34,866.025 658.103,900.256 Z" />
<path d="M 618.577,900.256 598.814,866.025 638.34,866.025 Z" />
<path d="M 579.051,900.256 598.814,866.025 618.577,900.256 Z" />
<path d="M 579.051,900.256 559.289,866.025 598.814,866.025 Z" />
<path d="M 539.526,900.256 559.289,866.025 579.051,900.256 Z" />
<path d="M 539.526,900.256 519.763,866.025 559.289,866.025 Z" />
<path d="M 500,900.256 519.763,866.025 539.526,900.256 Z" />
<path d="M 500,900.256 480.237,866.025 519.763,866.025 Z" />
<path d="M 460.474,900.256 480.237,866.025 500,900.256 Z" />
<path d="M 460.474,900.256 440.711,866.025 480.237,866.025 Z" />
<path d="M 420.949,900.256 440.711,866.025 460.474,900.256 Z" />
<path d="M 420.949,900.256 401.186,866.025 440.711,866.025 Z" />
<path d="M 381.423,900.256 401.186,866.025 420.949,900.256 Z" />
<path d="M 381.423,900.256 361.66,866.025 401.186,866.025 Z" />
<path d="M 341.897,900.256 361.66,866.025 381.423,900.256 Z" />
<path d="M 341.897,900.256 322.134,866.025 361.66,866.025 Z" />
<path d="M 302.372,900.256 322.134,866.025 341.897,900.256 Z" />
<path d="M 302.372,900.256 282.609,866.025 322.134,866.025 Z" />
<path d="M 262.846,900.256 282.609,866.025 302.372,900.256 Z" />
<path d="M 243.083,866.025 282.609,866.025 262.846,900.256 Z" />
<path d="M 243.083,866.025 262.846,831.795 282.609,866.025 Z" />
<path d="M 223.32,831.795 262.846,831.795 243.083,866.025 Z" />
<path d="M 223.32,831.795 243.083,797.565 262.846,831.795 Z" />
<path d="M 203.557,797.565 243.083,797.565 223.32,831.795 Z" />
<path d="M 203.557,797.565 223.32,763.335 243.083,797.565 Z" />
<path d="M 183.794,763.335 223.32,763.335 203.557,797.565 Z" />
<path d="M 183.794,763.335 203.557,729.104 223.32,763.335 Z" />
<path d="M 164.032,729.104 203.557,729.104 183.794,763.335 Z" />
<path d="M 164.032,729.104 183.794,694.874 203.557,729.104 Z" />
<path d="M 144.269,694.874 183.794,694.874 164.032,729.104 Z" />
<path d="M 144.269,694.874 164.032,660.644 183.794,694.874 Z" />
<path d="M 124.506,660.644 164.032,660.644 144.269,694.874 Z" />
<path d="M 124.506,660.644 144.269,626.414 164.032,660.644 Z" />
<path d="M 104.743,626.414 144.269,626.414 124.506,660.644 Z" />
<path d="M 104.743,626.414 124.506,592.183 144.269,626.414 Z" />
<path d="M 84.98,592.183 124.506,592.183 104.743,626.414 Z" />
<path d="M 84.98,592.183 104.743,557.953 124.506,592.183 Z" />
<path d="M 65.217,557.953 104.743,557.953 84.98,592.183 Z" />
<path d="M 65.217,557.953 84.98,523.723 104.743,557.953 Z" />
<path d="M 45.455,523.723 84.98,523.723 65.217,557.953 Z" />
<path d="M 45.455,523.723 65.217,489.493 84.98,523.723 Z" />
<path d="M 65.217,78.73 84.98,112.96 45.455,112.96 Z" />
<path d="M 45.455,455.262 84.98,455.262 65.217,489.493 Z" />
<path d="M 65.217,421.032 84.98,455.262 45.455,455.262 Z" />
<path d="M 65.217,421.032 104.743,421.032 84.98,455.262 Z" />
<path d="M 84.98,386.802 104.743,421.032 65.217,421.032 Z" />
<path d="M 84.98,386.802 124.506,386.802 104.743,421.032 Z" />
<path d="M 104.743,352.572 124.506,386.802 84.98,386.802 Z" />
<path d="M 104.743,352.572 144.269,352.572 124.506,386.802 Z" />
<path d="M 124.506,318.341 144.269,352.572 104.743,352.572 Z" />
<path d="M 124.506,318.341 164.032,318.341 144.269,352.572 Z" />
<path d="M 144.269,284.111 164.032,318.341 124.506,318.341 Z" />
<path d="M 144.269,284.111 183.794,284.111 164.032,318.341 Z" />
<path d="M 164.032,249.881 183.794,284.111 144.269,284.111 Z" />
<path d="M 164.032,249.881 203.557,249.881 183.794,284.111 Z" />
<path d="M 183.794,215.651 203.557,249.881 164.032,249.881 Z" />
<path d="M 183.794,215.651 223.32,215.651 203.557,249.881 Z" />
<path d="M 203.557,181.42 223.32,215.651 183.794,215.651 Z" />
<path d="M 203.557,181.42 243.083,181.42 223.32,215.651 Z" />
<path d="M 223.32,147.19 243.083,181.42 203.557,181.42 Z" />
<path d="M 223.32,147.19 262.846,147.19 243.083,181.42 Z" />
<path d="M 243.083,112.96 262.846,147.19 223.32,147.19 Z" />
<path d="M 243.083,112.96 282.609,112.96 262.846,147.19 Z" />
<path d="M 302.372,78.73 322.134,112.96 282.609,112.96 Z" />
<path d="M 262.846,78.73 282.609,112.96 243.083,112.96 Z" />
<path d="M 302.372,78.73 282.609,112.96 262.846,78.73 Z" />
<path d="M 341.897,78.73 361.66,112.96 322.134,112.96 Z" />
<path d="M 341.897,78.73 322.134,112.96 302.372,78.73 Z" />
<path d="M 381.423,78.73 401.186,112.96 361.66,112.96 Z" />
<path d="M 381.423,78.73 361.66,112.96 341.897,78.73 Z" />
<path d="M 420.949,78.73 440.711,112.96 401.186,112.96 Z" />
<path d="M 420.949,78.73 401.186,112.96 381.423,78.73 Z" />
<path d="M 460.474,78.73 480.237,112.96 440.711,112.96 Z" />
<path d="M 460.474,78.73 440.711,112.96 420.949,78.73 Z" />
<path d="M 500,78.73 519.763,112.96 480.237,112.96 Z" />
<path d="M 500,78.73 480.237,112.96 460.474,78.73 Z" />
<path d="M 539.526,78.73 559.289,112.96 519.763,112.96 Z" />
<path d="M 539.526,78.73 519.763,112.96 500,78.73 Z" />
<path d="M 579.051,78.73 598.814,112.96 559.289,112.96 Z" />
<path d="M 579.051,78.73 559.289,112.96 539.526,78.73 Z" />
<path d="M 618.577,78.73 638.34,112.96 598.814,112.96 Z" />
<path d="M 618.577,78.73 598.814,112.96 579.051,78.73 Z" />
<path d="M 658.103,78.73 677.866,112.96 638.34,112.96 Z" />
<path d="M 658.103,78.73 638.34,112.96 618.577,78.73 Z" />
<path d="M 697.628,78.73 717.391,112.96 677.866,112.96 Z" />
<path d="M 697.628,78.73 677.866,112.96 658.103,78.73 Z" />
<path d="M 737.154,78.73 756.917,112.96 717.391,112.96 Z" />
<path d="M 737.154,78.73 717.391,112.96 697.628,78.73 Z" />
<path d="M 45.455,866.025 84.98,866.025 65.217,900.256 Z" />
<path d="M 954.545,592.183 915.02,592.183 934.783,557.953 Z" />
<path d="M 65.217,900.256 104.743,900.256 84.98,934.486 Z" />
<path d="M 954.545,386.802 934.783,421.032 915.02,386.802 Z" />
<path d="M 934.783,626.414 915.02,592.183 954.545,592.183 Z" />
<path d="M 934.783,626.414 895.257,626.414 915.02,592.183 Z" />
<path d="M 934.783,352.572 954.545,386.802 915.02,386.802 Z" />
<path d="M 934.783,352.572 915.02,386.802 895.257,352.572 Z" />
<path d="M 915.02,660.644 895.257,626.414 934.783,626.414 Z" />
<path d="M 915.02,660.644 875.494,660.644 895.257,626.414 Z" />
<path d="M 915.02,318.341 934.783,352.572 895.257,352.572 Z" />
<path d="M 915.02,318.341 895.257,352.572 875.494,318.341 Z" />
<path d="M 895.257,694.874 875.494,660.644 915.02,660.644 Z" />
<path d="M 895.257,694.874 855.731,694.874 875.494,660.644 Z" />
<path d="M 895.257,284.111 915.02,318.341 875.494,318.341 Z" />
<path d="M 895.257,284.111 875.494,318.341 855.731,284.111 Z" />
<path d="M 875.494,729.104 855.731,694.874 895.257,694.874 Z" />
<path d="M 875.494,729.104 835.968,729.104 855.731,694.874 Z" />
<path d="M 875.494,249.881 895.257,284.111 855.731,284.111 Z" />
<path d="M 875.494,249.881 855.731,284.111 835.968,249.881 Z" />
<path d="M 855.731,763.335 835.968,729.104 875.494,729.104 Z" />
<path d="M 855.731,763.335 816.206,763.335 835.968,729.104 Z" />
<path d="M 855.731,215.651 875.494,249.881 835.968,249.881 Z" />
<path d="M 855.731,215.651 835.968,249.881 816.206,215.651 Z" />
<path d="M 835.968,797.565 816.206,763.335 855.731,763.335 Z" />
<path d="M 835.968,797.565 796.443,797.565 816.206,763.335 Z" />
<path d="M 835.968,181.42 855.731,215.651 816.206,215.651 Z" />
<path d="M 835.968,181.42 816.206,215.651 796.443,181.42 Z" />
<path d="M 816.206,831.795 796.443,797.565 835.968,797.565 Z" />
<path d="M 816.206,831.795 776.68,831.795 796.443,797.565 Z" />
<path d="M 816.206,147.19 835.968,181.42 796.443,181.42 Z" />
<path d="M 816.206,147.19 796.443,181.42 776.68,147.19 Z" />
<path d="M 796.443,866.025 776.68,831.795 816.206,831.795 Z" />
<path d="M 796.443,866.025 756.917,866.025 776.68,831.795 Z" />
<path d="M 796.443,112.96 816.206,147.19 776.68,147.19 Z" />
<path d="M 796.443,112.96 776.68,147.19 756.917,112.96 Z" />
<path d="M 776.68,900.256 756.917,866.025 796.443,866.025 Z" />
<path d="M 776.68,900.256 737.154,900.256 756.917,866.025 Z" />
<path d="M 776.68,78.73 796.443,112.96 756.917,112.96 Z" />
<path d="M 776.68,78.73 756.917,112.96 737.154,78.73 Z" />
<path d="M 776.68,900.256 756.917,934.486 737.154,900.256 Z" />
<path d="M 697.628,900.256 737.154,900.256 717.391,934.486 Z" />
<path d="M 658.103,900.256 697.628,900.256 677.866,934.486 Z" />
<path d="M 618.577,900.256 658.103,900.256 638.34,934.486 Z" />
<path d="M 579.051,900.256 618.577,900.256 598.814,934.486 Z" />
<path d="M 539.526,900.256 579.051,900.256 559.289,934.486 Z" />
<path d="M 500,900.256 539.526,900.256 519.763,934.486 Z" />
<path d="M 460.474,900.256 500,900.256 480.237,934.486 Z" />
<path d="M 420.949,900.256 460.474,900.256 440.711,934.486 Z" />
<path d="M 381.423,900.256 420.949,900.256 401.186,934.486 Z" />
<path d="M 341.897,900.256 381.423,900.256 361.66,934.486 Z" />
<path d="M 302.372,900.256 341.897,900.256 322.134,934.486 Z" />
<path d="M 262.846,900.256 302.372,900.256 282.609,934.486 Z" />
<path d="M 223.32,900.256 262.846,900.256 243.083,934.486 Z" />
<path d="M 223.32,900.256 243.083,866.025 262.846,900.256 Z" />
<path d="M 203.557,866.025 243.083,866.025 223.32,900.256 Z" />
<path d="M 203.557,866.025 223.32,831.795 243.083,866.025 Z" />
<path d="M 183.794,831.795 223.32,831.795 203.557,866.025 Z" />
<path d="M 183.794,831.795 203.557,797.565 223.32,831.795 Z" />
<path d="M 164.032,797.565 203.557,797.565 183.794,831.795 Z" />
<path d="M 164.032,797.565 183.794,763.335 203.557,797.565 Z" />
<path d="M 144.269,763.335 183.794,763.335 164.032,797.565 Z" />
<path d="M 144.269,763.335 164.032,729.104 183.794,763.335 Z" />
<path d="M 124.506,729.104 164.032,729.104 144.269,763.335 Z" />
<path d="M 124.506,729.104 144.269,694.874 164.032,729.104 Z" />
<path d="M 104.743,694.874 144.269,694.874 124.506,729.104 Z" />
<path d="M 104.743,694.874 124.506,660.644 144.269,694.874 Z" />
<path d="M 84.98,660.644 124.506,660.644 104.743,694.874 Z" />
<path d="M 84.98,660.644 104.743,626.414 124.506,660.644 Z" />
<path d="M 65.217,626.414 104.743,626.414 84.98,660.644 Z" />
<path d="M 65.217,626.414 84.98,592.183 104.743,626.414 Z" />
<path d="M 45.455,592.183 84.98,592.183 65.217,626.414 Z" />
<path d="M 45.455,592.183 65.217,557.953 84.98,592.183 Z" />
<path d="M 934.783,78.73 895.257,78.73 915.02,44.499 Z" />
<path d="M 934.783,78.73 954.545,112.96 915.02,112.96 Z" />
<path d="M 45.455,386.802 84.98,386.802 65.217,421.032 Z" />
<path d="M 65.217,352.572 84.98,386.802 45.455,386.802 Z" />
<path d="M 65.217,352.572 104.743,352.572 84.98,386.802 Z" />
<path d="M 84.98,318.341 104.743,352.572 65.217,352.572 Z" />
<path d="M 84.98,318.341 124.506,318.341 104.743,352.572 Z" />
<path d="M 104.743,284.111 124.506,318.341 84.98,318.341 Z" />
<path d="M 104.743,284.111 144.269,284.111 124.506,318.341 Z" />
<path d="M 124.506,249.881 144.269,284.111 104.743,284.111 Z" />
<path d="M 124.506,249.881 164.032,249.881 144.269,284.111 Z" />
<path d="M 144.269,215.651 164.032,249.881 124.506,249.881 Z" />
<path d="M 144.269,215.651 183.794,215.651 164.032,249.881 Z" />
<path d="M 164.032,181.42 183.794,215.651 144.269,215.651 Z" />
<path d="M 164.032,181.42 203.557,181.42 183.794,215.651 Z" />
<path d="M 183.794,147.19 203.557,181.42 164.032,181.42 Z" />
<path d="M 183.794,147.19 223.32,147.19 203.557,181.42 Z" />
<path d="M 203.557,112.96 223.32,147.19 183.794,147.19 Z" />
<path d="M 203.557,112.96 243.083,112.96 223.32,147.19 Z" />
<path d="M 223.32,78.73 243.083,112.96 203.557,112.96 Z" />
<path d="M 223.32,78.73 262.846,78.73 243.083,112.96 Z" />
<path d="M 302.372,78.73 262.846,78.73 282.609,44.499 Z" />
<path d="M 223.32,78.73 243.083,44.499 262.846,78.73 Z" />
<path d="M 341.897,78.73 302.372,78.73 322.134,44.499 Z" />
<path d="M 381.423,78.73 341.897,78.73 361.66,44.499 Z" />
<path d="M 420.949,78.73 381.423,78.73 401.186,44.499 Z" />
<path d="M 460.474,78.73 420.949,78.73 440.711,44.499 Z" />
<path d="M 500,78.73 460.474,78.73 480.237,44.499 Z" />
<path d="M 539.526,78.73 500,78.73 519.763,44.499 Z" />
<path d="M 579.051,78.73 539.526,78.73 559.289,44.499 Z" />
<path d="M 618.577,78.73 579.051,78.73 598.814,44.499 Z" />
<path d="M 658.103,78.73 618.577,78.73 638.34,44.499 Z" />
<path d="M 697.628,78.73 658.103,78.73 677.866,44.499 Z" />
<path d="M 737.154,78.73 697.628,78.73 717.391,44.499 Z" />
<path d="M 776.68,78.73 737.154,78.73 756.917,44.499 Z" />
<path d="M 934.783,900.256 915.02,866.025 954.545,866.025 Z" />
<path d="M 954.545,660.644 915.02,660.644 934.783,626.414 Z" />
<path d="M 934.783,900.256 915.02,934.486 895.257,900.256 Z" />
<path d="M 954.545,318.341 934.783,352.572 915.02,318.341 Z" />
<path d="M 934.783,694.874 915.02,660.644 954.545,660.644 Z" />
<path d="M 934.783,694.874 895.257,694.874 915.02,660.644 Z" />
<path d="M 934.783,284.111 954.545,318.341 915.02,318.341 Z" />
<path d="M 934.783,284.111 915.02,318.341 895.257,284.111 Z" />
<path d="M 915.02,729.104 895.257,694.874 934.783,694.874 Z" />
<path d="M 915.02,729.104 875.494,729.104 895.257,694.874 Z" />
<path d="M 915.02,249.881 934.783,284.111 895.257,284.111 Z" />
<path d="M 915.02,249.881 895.257,284.111 875.494,249.881 Z" />
<path d="M 895.257,763.335 875.494,729.104 915.02,729.104 Z" />
<path d="M 895.257,763.335 855.731,763.335 875.494,729.104 Z" />
<path d="M 895.257,215.651 915.02,249.881 875.494,249.881 Z" />
<path d="M 895.257,215.651 875.494,249.881 855.731,215.651 Z" />
<path d="M 875.494,797.565 855.731,763.335 895.257,763.335 Z" />
<path d="M 875.494,797.565 835.968,797.565 855.731,763.335 Z" />
<path d="M 875.494,181.42 895.257,215.651 855.731,215.651 Z" />
<path d="M 875.494,181.42 855.731,215.651 835.968,181.42 Z" />
<path d="M 855.731,831.795 835.968,797.565 875.494,797.565 Z" />
<path d="M 855.731,831.795 816.206,831.795 835.968,797.565 Z" />
<path d="M 855.731,147.19 875.494,181.42 835.968,181.42 Z" />
<path d="M 855.731,147.19 835.968,181.42 816.206,147.19 Z" />
<path d="M 835.968,866.025 816.206,831.795 855.731,831.795 Z" />
<path d="M 835.968,866.025 796.443,866.025 816.206,831.795 Z" />
<path d="M 835.968,112.96 855.731,147.19 816.206,147.19 Z" />
<path d="M 835.968,112.96 816.206,147.19 796.443,112.96 Z" />
<path d="M 816.206,900.256 796.443,866.025 835.968,866.025 Z" />
<path d="M 816.206,900.256 776.68,900.256 796.443,866.025 Z" />
<path d="M 816.206,78.73 835.968,112.96 796.443,112.96 Z" />
<path d="M 816.206,78.73 796.443,112.96 776.68,78.73 Z" />
<path d="M 816.206,900.256 796.443,934.486 776.68,900.256 Z" />
<path d="M 816.206,78.73 776.68,78.73 796.443,44.499 Z" />
<path d="M 183.794,900.256 223.32,900.256 203.557,934.486 Z" />
<path d="M 183.794,900.256 203.557,866.025 223.32,900.256 Z" />
<path d="M 164.032,866.025 203.557,866.025 183.794,900.256 Z" />
<path d="M 164.032,866.025 183.794,831.795 203.557,866.025 Z" />
<path d="M 144.269,831.795 183.794,831.795 164.032,866.025 Z" />
<path d="M 144.269,831.795 164.032,797.565 183.794,831.795 Z" />
<path d="M 124.506,797.565 164.032,797.565 144.269,831.795 Z" />
<path d="M 124.506,797.565 144.269,763.335 164.032,797.565 Z" />
<path d="M 104.743,763.335 144.269,763.335 124.506,797.565 Z" />
<path d="M 104.743,763.335 124.506,729.104 144.269,763.335 Z" />
<path d="M 84.98,729.104 124.506,729.104 104.743,763.335 Z" />
<path d="M 84.98,729.104 104.743,694.874 124.506,729.104 Z" />
<path d="M 65.217,694.874 104.743,694.874 84.98,729.104 Z" />
<path d="M 65.217,694.874 84.98,660.644 104.743,694.874 Z" />
<path d="M 45.455,660.644 84.98,660.644 65.217,694.874 Z" />
<path d="M 45.455,660.644 65.217,626.414 84.98,660.644 Z" />
<path d="M 104.743,78.73 124.506,44.499 144.269,78.73 Z" />
<path d="M 45.455,318.341 84.98,318.341 65.217,352.572 Z" />
<path d="M 65.217,284.111 84.98,318.341 45.455,318.341 Z" />
<path d="M 65.217,284.111 104.743,284.111 84.98,318.341 Z" />
<path d="M 84.98,249.881 104.743,284.111 65.217,284.111 Z" />
<path d="M 84.98,249.881 124.506,249.881 104.743,284.111 Z" />
<path d="M 104.743,215.651 124.506,249.881 84.98,249.881 Z" />
<path d="M 104.743,215.651 144.269,215.651 124.506,249.881 Z" />
<path d="M 124.506,181.42 144.269,215.651 104.743,215.651 Z" />
<path d="M 124.506,181.42 164.032,181.42 144.269,215.651 Z" />
<path d="M 144.269,147.19 164.032,181.42 124.506,181.42 Z" />
<path d="M 144.269,147.19 183.794,147.19 164.032,181.42 Z" />
<path d="M 164.032,112.96 183.794,147.19 144.269,147.19 Z" />
<path d="M 164.032,112.96 203.557,112.96 183.794,147.19 Z" />
<path d="M 183.794,78.73 203.557,112.96 164.032,112.96 Z" />
<path d="M 183.794,78.73 223.32,78.73 203.557,112.96 Z" />
<path d="M 183.794,78.73 203.557,44.499 223.32,78.73 Z" />
<path d="M 65.217,78.73 104.743,78.73 84.98,112.96 Z" />
<path d="M 954.545,729.104 915.02,729.104 934.783,694.874 Z" />
<path d="M 104.743,78.73 124.506,112.96 84.98,112.96 Z" />
<path d="M 954.545,249.881 934.783,284.111 915.02,249.881 Z" />
<path d="M 934.783,763.335 915.02,729.104 954.545,729.104 Z" />
<path d="M 934.783,763.335 895.257,763.335 915.02,729.104 Z" />
<path d="M 934.783,215.651 954.545,249.881 915.02,249.881 Z" />
<path d="M 934.783,215.651 915.02,249.881 895.257,215.651 Z" />
<path d="M 915.02,797.565 895.257,763.335 934.783,763.335 Z" />
<path d="M 915.02,797.565 875.494,797.565 895.257,763.335 Z" />
<path d="M 915.02,181.42 934.783,215.651 895.257,215.651 Z" />
<path d="M 915.02,181.42 895.257,215.651 875.494,181.42 Z" />
<path d="M 895.257,831.795 875.494,797.565 915.02,797.565 Z" />
<path d="M 895.257,831.795 855.731,831.795 875.494,797.565 Z" />
<path d="M 895.257,147.19 915.02,181.42 875.494,181.42 Z" />
<path d="M 895.257,147.19 875.494,181.42 855.731,147.19 Z" />
<path d="M 875.494,866.025 855.731,831.795 895.257,831.795 Z" />
<path d="M 875.494,866.025 835.968,866.025 855.731,831.795 Z" />
<path d="M 875.494,112.96 895.257,147.19 855.731,147.19 Z" />
<path d="M 875.494,112.96 855.731,147.19 835.968,112.96 Z" />
<path d="M 855.731,900.256 835.968,866.025 875.494,866.025 Z" />
<path d="M 855.731,900.256 816.206,900.256 835.968,866.025 Z" />
<path d="M 855.731,78.73 875.494,112.96 835.968,112.96 Z" />
<path d="M 855.731,78.73 835.968,112.96 816.206,78.73 Z" />
<path d="M 855.731,900.256 835.968,934.486 816.206,900.256 Z" />
<path d="M 855.731,78.73 816.206,78.73 835.968,44.499 Z" />
<path d="M 144.269,900.256 183.794,900.256 164.032,934.486 Z" />
<path d="M 144.269,900.256 164.032,866.025 183.794,900.256 Z" />
<path d="M 124.506,866.025 164.032,866.025 144.269,900.256 Z" />
<path d="M 124.506,866.025 144.269,831.795 164.032,866.025 Z" />
<path d="M 104.743,831.795 144.269,831.795 124.506,866.025 Z" />
<path d="M 104.743,831.795 124.506,797.565 144.269,831.795 Z" />
<path d="M 84.98,797.565 124.506,797.565 104.743,831.795 Z" />
<path d="M 84.98,797.565 104.743,763.335 124.506,797.565 Z" />
<path d="M 65.217,763.335 104.743,763.335 84.98,797.565 Z" />
<path d="M 65.217,763.335 84.98,729.104 104.743,763.335 Z" />
<path d="M 45.455,729.104 84.98,729.104 65.217,763.335 Z" />
<path d="M 45.455,729.104 65.217,694.874 84.98,729.104 Z" />
<path d="M 45.455,112.96 84.98,112.96 65.217,147.19 Z" />
<path d="M 45.455,249.881 84.98,249.881 65.217,284.111 Z" />
<path d="M 65.217,215.651 84.98,249.881 45.455,249.881 Z" />
<path d="M 65.217,215.651 104.743,215.651 84.98,249.881 Z" />
<path d="M 84.98,181.42 104.743,215.651 65.217,215.651 Z" />
<path d="M 84.98,181.42 124.506,181.42 104.743,215.651 Z" />
<path d="M 104.743,147.19 124.506,181.42 84.98,181.42 Z" />
<path d="M 104.743,147.19 144.269,147.19 124.506,181.42 Z" />
<path d="M 124.506,112.96 144.269,147.19 104.743,147.19 Z" />
<path d="M 124.506,112.96 164.032,112.96 144.269,147.19 Z" />
<path d="M 144.269,78.73 164.032,112.96 124.506,112.96 Z" />
<path d="M 144.269,78.73 183.794,78.73 164.032,112.96 Z" />
<path d="M 144.269,78.73 164.032,44.499 183.794,78.73 Z" />
<path d="M 84.98,112.96 104.743,147.19 65.217,147.19 Z" />
<path d="M 954.545,797.565 915.02,797.565 934.783,763.335 Z" />
<path d="M 954.545,181.42 934.783,215.651 915.02,181.42 Z" />
<path d="M 934.783,831.795 915.02,797.565 954.545,797.565 Z" />
<path d="M 934.783,831.795 895.257,831.795 915.02,797.565 Z" />
<path d="M 934.783,147.19 954.545,181.42 915.02,181.42 Z" />
<path d="M 934.783,147.19 915.02,181.42 895.257,147.19 Z" />
<path d="M 915.02,866.025 895.257,831.795 934.783,831.795 Z" />
<path d="M 915.02,866.025 875.494,866.025 895.257,831.795 Z" />
<path d="M 915.02,112.96 934.783,147.19 895.257,147.19 Z" />
<path d="M 915.02,112.96 895.257,147.19 875.494,112.96 Z" />
<path d="M 895.257,900.256 875.494,866.025 915.02,866.025 Z" />
<path d="M 895.257,900.256 855.731,900.256 875.494,866.025 Z" />
<path d="M 895.257,78.73 915.02,112.96 875.494,112.96 Z" />
<path d="M 895.257,78.73 875.494,112.96 855.731,78.73 Z" />
<path d="M 895.257,900.256 875.494,934.486 855.731,900.256 Z" />
<path d="M 895.257,78.73 855.731,78.73 875.494,44.499 Z" />
<path d="M 104.743,900.256 144.269,900.256 124.506,934.486 Z" />
<path d="M 104.743,900.256 124.506,866.025 144.269,900.256 Z" />
<path d="M 84.98,866.025 124.506,866.025 104.743,900.256 Z" />
<path d="M 84.98,866.025 104.743,831.795 124.506,866.025 Z" />
<path d="M 65.217,831.795 104.743,831.795 84.98,866.025 Z" />
<path d="M 65.217,831.795 84.98,797.565 104.743,831.795 Z" />
<path d="M 45.455,797.565 84.98,797.565 65.217,831.795 Z" />
<path d="M 45.455,797.565 65.217,763.335 84.98,797.565 Z" />
<path d="M 65.217,147.19 84.98,181.42 45.455,181.42 Z" />
<path d="M 45.455,181.42 84.98,181.42 65.217,215.651 Z" />
<path d="M 65.217,147.19 104.743,147.19 84.98,181.42 Z" />
<path d="M 84.98,112.96 124.506,112.96 104.743,147.19 Z" />
<path d="M 104.743,78.73 144.269,78.73 124.506,112.96 Z" />
<path d="M 45.455,866.025 65.217,831.795 84.98,866.025 Z" />
<path d="M 954.545,866.025 915.02,866.025 934.783,831.795 Z" />
<path d="M 954.545,112.96 934.783,147.19 915.02,112.96 Z" />
<path d="M 934.783,900.256 895.257,900.256 915.02,866.025 Z" />
<path d="M 934.783,78.73 915.02,112.96 895.257,78.73 Z" />
<path d="M 65.217,900.256 84.98,866.025 104.743,900.256 Z" />
</g>
</svg>
