<?xml version="1.0" encoding="UTF-8" standalone="no"?>
<svg xmlns="http://www.w3.org/2000/svg" version="1.0" width="1000.00006" height="966.7261" id="C:\1-uniform_1.svg">
<!-- X Coordinate transform: fx(x)=(x+103.75)*0.845666-->
<!-- Y Coordinate transform: fy(y)=(1071.5768-y)*0.845666 -->
<!-- Flac geometry view -->
<g style="opacity:1.0;fill:#00ff00;fill-opacity:1;stroke:#000000;stroke-width:2.5;stroke-opacity:0.80;">  <!-- 6-sided blocks -->
<path d="M 510.571,483.363 489.429,446.745 510.571,410.126 552.854,410.126 573.996,446.745 552.854,483.363 Z" />
<path d="M 510.571,483.363 489.429,519.981 447.146,519.981 426.004,483.363 447.146,446.745 489.429,446.745 Z" />
<path d="M 552.854,483.363 573.996,446.745 616.279,446.745 637.421,483.363 616.279,519.981 573.996,519.981 Z" />
<path d="M 489.429,519.981 510.571,556.6 489.429,593.218 447.146,593.218 426.004,556.6 447.146,519.981 Z" />
<path d="M 489.429,446.745 447.146,446.745 426.004,410.126 447.146,373.508 489.429,373.508 510.571,410.126 Z" />
<path d="M 573.996,519.981 616.279,519.981 637.421,556.6 616.279,593.218 573.996,593.218 552.854,556.6 Z" />
<path d="M 573.996,446.745 552.854,410.126 573.996,373.508 616.279,373.508 637.421,410.126 616.279,446.745 Z" />
<path d="M 510.571,556.6 552.854,556.6 573.996,593.218 552.854,629.837 510.571,629.837 489.429,593.218 Z" />
<path d="M 447.146,519.981 426.004,556.6 383.721,556.6 362.579,519.981 383.721,483.363 426.004,483.363 Z" />
<path d="M 447.146,446.745 426.004,483.363 383.721,483.363 362.579,446.745 383.721,410.126 426.004,410.126 Z" />
<path d="M 510.571,410.126 489.429,373.508 510.571,336.889 552.854,336.889 573.996,373.508 552.854,410.126 Z" />
<path d="M 616.279,519.981 637.421,483.363 679.704,483.363 700.846,519.981 679.704,556.6 637.421,556.6 Z" />
<path d="M 616.279,446.745 637.421,410.126 679.704,410.126 700.846,446.745 679.704,483.363 637.421,483.363 Z" />
<path d="M 489.429,593.218 510.571,629.837 489.429,666.455 447.146,666.455 426.004,629.837 447.146,593.218 Z" />
<path d="M 426.004,556.6 447.146,593.218 426.004,629.837 383.721,629.837 362.579,593.218 383.721,556.6 Z" />
<path d="M 426.004,410.126 383.721,410.126 362.579,373.508 383.721,336.889 426.004,336.889 447.146,373.508 Z" />
<path d="M 489.429,373.508 447.146,373.508 426.004,336.889 447.146,300.271 489.429,300.271 510.571,336.889 Z" />
<path d="M 573.996,593.218 616.279,593.218 637.421,629.837 616.279,666.455 573.996,666.455 552.854,629.837 Z" />
<path d="M 637.421,556.6 679.704,556.6 700.846,593.218 679.704,629.837 637.421,629.837 616.279,593.218 Z" />
<path d="M 573.996,373.508 552.854,336.889 573.996,300.271 616.279,300.271 637.421,336.889 616.279,373.508 Z" />
<path d="M 637.421,410.126 616.279,373.508 637.421,336.889 679.704,336.889 700.846,373.508 679.704,410.126 Z" />
<path d="M 510.571,629.837 552.854,629.837 573.996,666.455 552.854,703.073 510.571,703.073 489.429,666.455 Z" />
<path d="M 383.721,556.6 362.579,593.218 320.296,593.218 299.154,556.6 320.296,519.981 362.579,519.981 Z" />
<path d="M 383.721,483.363 362.579,519.981 320.296,519.981 299.154,483.363 320.296,446.745 362.579,446.745 Z" />
<path d="M 383.721,410.126 362.579,446.745 320.296,446.745 299.154,410.126 320.296,373.508 362.579,373.508 Z" />
<path d="M 510.571,336.889 489.429,300.271 510.571,263.653 552.854,263.653 573.996,300.271 552.854,336.889 Z" />
<path d="M 679.704,483.363 700.846,446.745 743.129,446.745 764.271,483.363 743.129,519.981 700.846,519.981 Z" />
<path d="M 679.704,556.6 700.846,519.981 743.129,519.981 764.271,556.6 743.129,593.218 700.846,593.218 Z" />
<path d="M 679.704,410.126 700.846,373.508 743.129,373.508 764.271,410.126 743.129,446.745 700.846,446.745 Z" />
<path d="M 426.004,629.837 447.146,666.455 426.004,703.073 383.721,703.073 362.579,666.455 383.721,629.837 Z" />
<path d="M 489.429,666.455 510.571,703.073 489.429,739.692 447.146,739.692 426.004,703.073 447.146,666.455 Z" />
<path d="M 362.579,593.218 383.721,629.837 362.579,666.455 320.296,666.455 299.154,629.837 320.296,593.218 Z" />
<path d="M 362.579,373.508 320.296,373.508 299.154,336.889 320.296,300.271 362.579,300.271 383.721,336.889 Z" />
<path d="M 426.004,336.889 383.721,336.889 362.579,300.271 383.721,263.653 426.004,263.653 447.146,300.271 Z" />
<path d="M 489.429,300.271 447.146,300.271 426.004,263.653 447.146,227.034 489.429,227.034 510.571,263.653 Z" />
<path d="M 637.421,629.837 679.704,629.837 700.846,666.455 679.704,703.073 637.421,703.073 616.279,666.455 Z" />
<path d="M 573.996,666.455 616.279,666.455 637.421,703.073 616.279,739.692 573.996,739.692 552.854,703.073 Z" />
<path d="M 700.846,593.218 743.129,593.218 764.271,629.837 743.129,666.455 700.846,666.455 679.704,629.837 Z" />
<path d="M 573.996,300.271 552.854,263.653 573.996,227.034 616.279,227.034 637.421,263.653 616.279,300.271 Z" />
<path d="M 637.421,336.889 616.279,300.271 637.421,263.653 679.704,263.653 700.846,300.271 679.704,336.889 Z" />
<path d="M 700.846,373.508 679.704,336.889 700.846,300.271 743.129,300.271 764.271,336.889 743.129,373.508 Z" />
<path d="M 510.571,703.073 552.854,703.073 573.996,739.692 552.854,776.31 510.571,776.31 489.429,739.692 Z" />
<path d="M 320.296,519.981 299.154,556.6 256.871,556.6 235.729,519.981 256.871,483.363 299.154,483.363 Z" />
<path d="M 320.296,593.218 299.154,629.837 256.871,629.837 235.729,593.218 256.871,556.6 299.154,556.6 Z" />
<path d="M 320.296,446.745 299.154,483.363 256.871,483.363 235.729,446.745 256.871,410.126 299.154,410.126 Z" />
<path d="M 320.296,373.508 299.154,410.126 256.871,410.126 235.729,373.508 256.871,336.889 299.154,336.889 Z" />
<path d="M 510.571,263.653 489.429,227.034 510.571,190.416 552.854,190.416 573.996,227.034 552.854,263.653 Z" />
<path d="M 743.129,446.745 764.271,410.126 806.554,410.126 827.696,446.745 806.554,483.363 764.271,483.363 Z" />
<path d="M 743.129,519.981 764.271,483.363 806.554,483.363 827.696,519.981 806.554,556.6 764.271,556.6 Z" />
<path d="M 827.696,593.218 806.554,629.837 764.271,629.837 743.129,593.218 764.271,556.6 806.554,556.6 Z" />
<path d="M 827.696,373.508 806.554,410.126 764.271,410.126 743.129,373.508 764.271,336.889 806.554,336.889 Z" />
<path d="M 383.721,776.31 362.579,739.692 383.721,703.073 426.004,703.073 447.146,739.692 426.004,776.31 Z" />
<path d="M 320.296,739.692 299.154,703.073 320.296,666.455 362.579,666.455 383.721,703.073 362.579,739.692 Z" />
<path d="M 447.146,812.929 426.004,776.31 447.146,739.692 489.429,739.692 510.571,776.31 489.429,812.929 Z" />
<path d="M 256.871,703.073 235.729,666.455 256.871,629.837 299.154,629.837 320.296,666.455 299.154,703.073 Z" />
<path d="M 320.296,227.034 362.579,227.034 383.721,263.653 362.579,300.271 320.296,300.271 299.154,263.653 Z" />
<path d="M 256.871,263.653 299.154,263.653 320.296,300.271 299.154,336.889 256.871,336.889 235.729,300.271 Z" />
<path d="M 383.721,190.416 426.004,190.416 447.146,227.034 426.004,263.653 383.721,263.653 362.579,227.034 Z" />
<path d="M 447.146,153.797 489.429,153.797 510.571,190.416 489.429,227.034 447.146,227.034 426.004,190.416 Z" />
<path d="M 743.129,739.692 700.846,739.692 679.704,703.073 700.846,666.455 743.129,666.455 764.271,703.073 Z" />
<path d="M 679.704,776.31 637.421,776.31 616.279,739.692 637.421,703.073 679.704,703.073 700.846,739.692 Z" />
<path d="M 573.996,812.929 552.854,776.31 573.996,739.692 616.279,739.692 637.421,776.31 616.279,812.929 Z" />
<path d="M 806.554,703.073 764.271,703.073 743.129,666.455 764.271,629.837 806.554,629.837 827.696,666.455 Z" />
<path d="M 679.704,190.416 700.846,227.034 679.704,263.653 637.421,263.653 616.279,227.034 637.421,190.416 Z" />
<path d="M 616.279,153.797 637.421,190.416 616.279,227.034 573.996,227.034 552.854,190.416 573.996,153.797 Z" />
<path d="M 764.271,263.653 743.129,300.271 700.846,300.271 679.704,263.653 700.846,227.034 743.129,227.034 Z" />
<path d="M 827.696,300.271 806.554,336.889 764.271,336.889 743.129,300.271 764.271,263.653 806.554,263.653 Z" />
<path d="M 573.996,812.929 552.854,849.547 510.571,849.547 489.429,812.929 510.571,776.31 552.854,776.31 Z" />
<path d="M 193.446,519.981 235.729,519.981 256.871,556.6 235.729,593.218 193.446,593.218 172.304,556.6 Z" />
<path d="M 193.446,446.745 235.729,446.745 256.871,483.363 235.729,519.981 193.446,519.981 172.304,483.363 Z" />
<path d="M 193.446,666.455 172.304,629.837 193.446,593.218 235.729,593.218 256.871,629.837 235.729,666.455 Z" />
<path d="M 193.446,373.508 235.729,373.508 256.871,410.126 235.729,446.745 193.446,446.745 172.304,410.126 Z" />
<path d="M 193.446,373.508 172.304,336.889 193.446,300.271 235.729,300.271 256.871,336.889 235.729,373.508 Z" />
<path d="M 510.571,117.179 552.854,117.179 573.996,153.797 552.854,190.416 510.571,190.416 489.429,153.797 Z" />
<path d="M 869.979,446.745 891.121,483.363 869.979,519.981 827.696,519.981 806.554,483.363 827.696,446.745 Z" />
<path d="M 869.979,446.745 827.696,446.745 806.554,410.126 827.696,373.508 869.979,373.508 891.121,410.126 Z" />
<path d="M 869.979,519.981 891.121,556.6 869.979,593.218 827.696,593.218 806.554,556.6 827.696,519.981 Z" />
<path d="M 869.979,593.218 891.121,629.837 869.979,666.455 827.696,666.455 806.554,629.837 827.696,593.218 Z" />
<path d="M 869.979,373.508 827.696,373.508 806.554,336.889 827.696,300.271 869.979,300.271 891.121,336.889 Z" />
<path d="M 447.146,812.929 426.004,849.547 383.721,849.547 362.579,812.929 383.721,776.31 426.004,776.31 Z" />
<path d="M 320.296,739.692 362.579,739.692 383.721,776.31 362.579,812.929 320.296,812.929 299.154,776.31 Z" />
<path d="M 256.871,703.073 299.154,703.073 320.296,739.692 299.154,776.31 256.871,776.31 235.729,739.692 Z" />
<path d="M 510.571,849.547 489.429,886.166 447.146,886.166 426.004,849.547 447.146,812.929 489.429,812.929 Z" />
<path d="M 193.446,666.455 235.729,666.455 256.871,703.073 235.729,739.692 193.446,739.692 172.304,703.073 Z" />
<path d="M 256.871,263.653 235.729,227.034 256.871,190.416 299.154,190.416 320.296,227.034 299.154,263.653 Z" />
<path d="M 320.296,227.034 299.154,190.416 320.296,153.797 362.579,153.797 383.721,190.416 362.579,227.034 Z" />
<path d="M 256.871,263.653 235.729,300.271 193.446,300.271 172.304,263.653 193.446,227.034 235.729,227.034 Z" />
<path d="M 383.721,190.416 362.579,153.797 383.721,117.179 426.004,117.179 447.146,153.797 426.004,190.416 Z" />
<path d="M 447.146,153.797 426.004,117.179 447.146,80.561 489.429,80.561 510.571,117.179 489.429,153.797 Z" />
<path d="M 743.129,739.692 764.271,776.31 743.129,812.929 700.846,812.929 679.704,776.31 700.846,739.692 Z" />
<path d="M 743.129,739.692 764.271,703.073 806.554,703.073 827.696,739.692 806.554,776.31 764.271,776.31 Z" />
<path d="M 679.704,776.31 700.846,812.929 679.704,849.547 637.421,849.547 616.279,812.929 637.421,776.31 Z" />
<path d="M 573.996,812.929 616.279,812.929 637.421,849.547 616.279,886.166 573.996,886.166 552.854,849.547 Z" />
<path d="M 806.554,703.073 827.696,666.455 869.979,666.455 891.121,703.073 869.979,739.692 827.696,739.692 Z" />
<path d="M 616.279,153.797 637.421,117.179 679.704,117.179 700.846,153.797 679.704,190.416 637.421,190.416 Z" />
<path d="M 679.704,190.416 700.846,153.797 743.129,153.797 764.271,190.416 743.129,227.034 700.846,227.034 Z" />
<path d="M 616.279,153.797 573.996,153.797 552.854,117.179 573.996,80.561 616.279,80.561 637.421,117.179 Z" />
<path d="M 764.271,263.653 743.129,227.034 764.271,190.416 806.554,190.416 827.696,227.034 806.554,263.653 Z" />
<path d="M 827.696,300.271 806.554,263.653 827.696,227.034 869.979,227.034 891.121,263.653 869.979,300.271 Z" />
<path d="M 510.571,849.547 552.854,849.547 573.996,886.166 552.854,922.784 510.571,922.784 489.429,886.166 Z" />
<path d="M 193.446,593.218 172.304,629.837 130.021,629.837 108.879,593.218 130.021,556.6 172.304,556.6 Z" />
<path d="M 193.446,519.981 172.304,556.6 130.021,556.6 108.879,519.981 130.021,483.363 172.304,483.363 Z" />
<path d="M 193.446,446.745 172.304,483.363 130.021,483.363 108.879,446.745 130.021,410.126 172.304,410.126 Z" />
<path d="M 193.446,666.455 172.304,703.073 130.021,703.073 108.879,666.455 130.021,629.837 172.304,629.837 Z" />
<path d="M 193.446,373.508 172.304,410.126 130.021,410.126 108.879,373.508 130.021,336.889 172.304,336.889 Z" />
<path d="M 193.446,300.271 172.304,336.889 130.021,336.889 108.879,300.271 130.021,263.653 172.304,263.653 Z" />
<path d="M 510.571,117.179 489.429,80.561 510.571,43.942 552.854,43.942 573.996,80.561 552.854,117.179 Z" />
<path d="M 869.979,446.745 891.121,410.126 933.404,410.126 954.545,446.745 933.404,483.363 891.121,483.363 Z" />
<path d="M 869.979,519.981 891.121,483.363 933.404,483.363 954.545,519.981 933.404,556.6 891.121,556.6 Z" />
<path d="M 869.979,373.508 891.121,336.889 933.404,336.889 954.545,373.508 933.404,410.126 891.121,410.126 Z" />
<path d="M 869.979,593.218 891.121,556.6 933.404,556.6 954.545,593.218 933.404,629.837 891.121,629.837 Z" />
<path d="M 869.979,666.455 891.121,629.837 933.404,629.837 954.545,666.455 933.404,703.073 891.121,703.073 Z" />
<path d="M 869.979,300.271 891.121,263.653 933.404,263.653 954.545,300.271 933.404,336.889 891.121,336.889 Z" />
<path d="M 362.579,812.929 383.721,849.547 362.579,886.166 320.296,886.166 299.154,849.547 320.296,812.929 Z" />
<path d="M 426.004,849.547 447.146,886.166 426.004,922.784 383.721,922.784 362.579,886.166 383.721,849.547 Z" />
<path d="M 299.154,776.31 320.296,812.929 299.154,849.547 256.871,849.547 235.729,812.929 256.871,776.31 Z" />
<path d="M 235.729,739.692 256.871,776.31 235.729,812.929 193.446,812.929 172.304,776.31 193.446,739.692 Z" />
<path d="M 510.571,483.363 552.854,483.363 573.996,519.981 552.854,556.6 510.571,556.6 489.429,519.981 Z" />
<path d="M 130.021,776.31 108.879,739.692 130.021,703.073 172.304,703.073 193.446,739.692 172.304,776.31 Z" />
<path d="M 193.446,153.797 235.729,153.797 256.871,190.416 235.729,227.034 193.446,227.034 172.304,190.416 Z" />
<path d="M 256.871,117.179 299.154,117.179 320.296,153.797 299.154,190.416 256.871,190.416 235.729,153.797 Z" />
<path d="M 320.296,80.561 362.579,80.561 383.721,117.179 362.579,153.797 320.296,153.797 299.154,117.179 Z" />
<path d="M 130.021,190.416 172.304,190.416 193.446,227.034 172.304,263.653 130.021,263.653 108.879,227.034 Z" />
<path d="M 362.579,80.561 383.721,43.942 426.004,43.942 447.146,80.561 426.004,117.179 383.721,117.179 Z" />
<path d="M 806.554,849.547 764.271,849.547 743.129,812.929 764.271,776.31 806.554,776.31 827.696,812.929 Z" />
<path d="M 743.129,886.166 700.846,886.166 679.704,849.547 700.846,812.929 743.129,812.929 764.271,849.547 Z" />
<path d="M 869.979,812.929 827.696,812.929 806.554,776.31 827.696,739.692 869.979,739.692 891.121,776.31 Z" />
<path d="M 700.846,886.166 679.704,922.784 637.421,922.784 616.279,886.166 637.421,849.547 679.704,849.547 Z" />
<path d="M 933.404,776.31 891.121,776.31 869.979,739.692 891.121,703.073 933.404,703.073 954.545,739.692 Z" />
<path d="M 700.846,80.561 679.704,117.179 637.421,117.179 616.279,80.561 637.421,43.942 679.704,43.942 Z" />
<path d="M 743.129,80.561 764.271,117.179 743.129,153.797 700.846,153.797 679.704,117.179 700.846,80.561 Z" />
<path d="M 806.554,117.179 827.696,153.797 806.554,190.416 764.271,190.416 743.129,153.797 764.271,117.179 Z" />
<path d="M 869.979,153.797 891.121,190.416 869.979,227.034 827.696,227.034 806.554,190.416 827.696,153.797 Z" />
<path d="M 933.404,190.416 954.545,227.034 933.404,263.653 891.121,263.653 869.979,227.034 891.121,190.416 Z" />
<path d="M 108.879,80.561 130.021,117.179 108.879,153.797 66.596,153.797 45.455,117.179 66.596,80.561 Z" />
<path d="M 66.596,519.981 108.879,519.981 130.021,556.6 108.879,593.218 66.596,593.218 45.455,556.6 Z" />
<path d="M 66.596,666.455 45.455,629.837 66.596,593.218 108.879,593.218 130.021,629.837 108.879,666.455 Z" />
<path d="M 66.596,446.745 108.879,446.745 130.021,483.363 108.879,519.981 66.596,519.981 45.455,483.363 Z" />
<path d="M 66.596,373.508 108.879,373.508 130.021,410.126 108.879,446.745 66.596,446.745 45.455,410.126 Z" />
<path d="M 66.596,739.692 45.455,703.073 66.596,666.455 108.879,666.455 130.021,703.073 108.879,739.692 Z" />
<path d="M 66.596,300.271 108.879,300.271 130.021,336.889 108.879,373.508 66.596,373.508 45.455,336.889 Z" />
<path d="M 66.596,227.034 108.879,227.034 130.021,263.653 108.879,300.271 66.596,300.271 45.455,263.653 Z" />
<path d="M 933.404,849.547 891.121,849.547 869.979,812.929 891.121,776.31 933.404,776.31 954.545,812.929 Z" />
<path d="M 933.404,117.179 891.121,117.179 869.979,80.561 891.121,43.942 933.404,43.942 954.545,80.561 Z" />
<path d="M 235.729,886.166 256.871,849.547 299.154,849.547 320.296,886.166 299.154,922.784 256.871,922.784 Z" />
<path d="M 933.404,849.547 954.545,886.166 933.404,922.784 891.121,922.784 869.979,886.166 891.121,849.547 Z" />
<path d="M 193.446,886.166 172.304,849.547 193.446,812.929 235.729,812.929 256.871,849.547 235.729,886.166 Z" />
<path d="M 130.021,849.547 108.879,812.929 130.021,776.31 172.304,776.31 193.446,812.929 172.304,849.547 Z" />
<path d="M 66.596,812.929 45.455,776.31 66.596,739.692 108.879,739.692 130.021,776.31 108.879,812.929 Z" />
<path d="M 193.446,80.561 235.729,80.561 256.871,117.179 235.729,153.797 193.446,153.797 172.304,117.179 Z" />
<path d="M 130.021,117.179 172.304,117.179 193.446,153.797 172.304,190.416 130.021,190.416 108.879,153.797 Z" />
<path d="M 235.729,80.561 256.871,43.942 299.154,43.942 320.296,80.561 299.154,117.179 256.871,117.179 Z" />
<path d="M 66.596,153.797 108.879,153.797 130.021,190.416 108.879,227.034 66.596,227.034 45.455,190.416 Z" />
<path d="M 869.979,886.166 827.696,886.166 806.554,849.547 827.696,812.929 869.979,812.929 891.121,849.547 Z" />
<path d="M 827.696,886.166 806.554,922.784 764.271,922.784 743.129,886.166 764.271,849.547 806.554,849.547 Z" />
<path d="M 108.879,80.561 130.021,43.942 172.304,43.942 193.446,80.561 172.304,117.179 130.021,117.179 Z" />
<path d="M 108.879,886.166 66.596,886.166 45.455,849.547 66.596,812.929 108.879,812.929 130.021,849.547 Z" />
<path d="M 108.879,886.166 130.021,849.547 172.304,849.547 193.446,886.166 172.304,922.784 130.021,922.784 Z" />
<path d="M 827.696,80.561 806.554,117.179 764.271,117.179 743.129,80.561 764.271,43.942 806.554,43.942 Z" />
<path d="M 869.979,80.561 891.121,117.179 869.979,153.797 827.696,153.797 806.554,117.179 827.696,80.561 Z" />
<path d="M 933.404,117.179 954.545,153.797 933.404,190.416 891.121,190.416 869.979,153.797 891.121,117.179 Z" />
</g>
</svg>
