<?xml version="1.0" encoding="UTF-8"?>
<svg xmlns="http://www.w3.org/2000/svg" xmlns:xlink="http://www.w3.org/1999/xlink" width="360pt" height="360pt" viewBox="0 0 360 360" version="1.1">
<g id="surface6">
<rect x="0" y="0" width="360" height="360" style="fill:rgb(100%,100%,100%);fill-opacity:1;stroke:none;"/>
<path style="fill:none;stroke-width:1.5;stroke-linecap:round;stroke-linejoin:round;stroke:rgb(98.039216%,41.176471%,0%);stroke-opacity:1;stroke-miterlimit:10;" d="M 13.332031 346.667969 L 13.332031 13.332031 L 346.667969 13.332031 L 346.667969 346.667969 Z "/>
<path style=" stroke:none;fill-rule:nonzero;fill:rgb(41.176471%,82.352941%,90.588235%);fill-opacity:1;" d="M 346.667969 180 L 346.335938 190.464844 L 345.351562 200.890625 L 343.714844 211.230469 L 341.429688 221.449219 L 338.507812 231.503906 L 334.960938 241.355469 L 330.804688 250.964844 L 326.050781 260.292969 L 320.722656 269.304688 L 314.835938 277.964844 L 308.417969 286.238281 L 301.496094 294.089844 L 294.089844 301.496094 L 286.238281 308.417969 L 277.964844 314.835938 L 269.304688 320.722656 L 260.292969 326.050781 L 250.964844 330.804688 L 241.355469 334.960938 L 231.503906 338.507812 L 221.449219 341.429688 L 211.230469 343.714844 L 200.890625 345.351562 L 190.464844 346.335938 L 180 346.667969 L 169.535156 346.335938 L 159.109375 345.351562 L 148.769531 343.714844 L 138.550781 341.429688 L 128.496094 338.507812 L 118.644531 334.960938 L 109.035156 330.804688 L 99.707031 326.050781 L 90.695312 320.722656 L 82.035156 314.835938 L 73.761719 308.417969 L 65.910156 301.496094 L 58.503906 294.089844 L 51.582031 286.238281 L 45.164062 277.964844 L 39.277344 269.304688 L 33.949219 260.292969 L 29.195312 250.964844 L 25.039062 241.355469 L 21.492188 231.503906 L 18.570312 221.449219 L 16.285156 211.230469 L 14.648438 200.890625 L 13.664062 190.464844 L 13.332031 180 L 13.664062 169.535156 L 14.648438 159.109375 L 16.285156 148.769531 L 18.570312 138.550781 L 21.492188 128.496094 L 25.039062 118.644531 L 29.195312 109.035156 L 33.949219 99.707031 L 39.277344 90.695312 L 45.164062 82.035156 L 51.582031 73.761719 L 58.503906 65.910156 L 65.910156 58.503906 L 73.761719 51.582031 L 82.035156 45.164062 L 90.695312 39.277344 L 99.707031 33.949219 L 109.035156 29.195312 L 118.644531 25.039062 L 128.496094 21.492188 L 138.550781 18.570312 L 148.769531 16.285156 L 159.109375 14.648438 L 169.535156 13.664062 L 180 13.332031 L 190.464844 13.664062 L 200.890625 14.648438 L 211.230469 16.285156 L 221.449219 18.570312 L 231.503906 21.492188 L 241.355469 25.039062 L 250.964844 29.195312 L 260.292969 33.949219 L 269.304688 39.277344 L 277.964844 45.164062 L 286.238281 51.582031 L 294.089844 58.503906 L 301.496094 65.910156 L 308.417969 73.761719 L 314.835938 82.035156 L 320.722656 90.695312 L 326.050781 99.707031 L 330.804688 109.035156 L 334.960938 118.644531 L 338.507812 128.496094 L 341.429688 138.550781 L 343.714844 148.769531 L 345.351562 159.109375 L 346.335938 169.535156 Z "/>
</g>
</svg>
