<?xml version="1.0" encoding="UTF-8"?>
<svg xmlns="http://www.w3.org/2000/svg" xmlns:xlink="http://www.w3.org/1999/xlink" width="360pt" height="360pt" viewBox="0 0 360 360" version="1.1">
<g id="surface21">
<rect x="0" y="0" width="360" height="360" style="fill:rgb(100%,100%,100%);fill-opacity:1;stroke:none;"/>
<path style=" stroke:none;fill-rule:evenodd;fill:rgb(40%,40%,40%);fill-opacity:1;" d="M 19.597656 19.597656 L 100.402344 19.597656 L 100.402344 100.402344 L 19.597656 100.402344 Z M 19.597656 19.597656 "/>
<path style="fill:none;stroke-width:1.5;stroke-linecap:round;stroke-linejoin:round;stroke:rgb(89.411765%,10.196078%,10.980392%);stroke-opacity:1;stroke-miterlimit:10;" d="M 19.597656 19.597656 L 31.195312 11.179688 L 45.035156 6.128906 L 60 4.445312 L 74.964844 6.128906 L 88.804688 11.179688 L 100.402344 19.597656 L 108.820312 31.195312 L 113.871094 45.035156 L 115.554688 60 L 113.871094 74.964844 L 108.820312 88.804688 L 100.402344 100.402344 L 88.804688 108.820312 L 74.964844 113.871094 L 60 115.554688 L 45.035156 113.871094 L 31.195312 108.820312 L 19.597656 100.402344 L 11.179688 88.804688 L 6.128906 74.964844 L 4.445312 60 L 6.128906 45.035156 L 11.179688 31.195312 Z M 19.597656 19.597656 "/>
<path style=" stroke:none;fill-rule:evenodd;fill:rgb(40%,40%,40%);fill-opacity:1;" d="M 196.183594 76.183594 L 196.183594 108.554688 L 163.816406 108.554688 L 163.816406 76.183594 L 131.449219 76.183594 L 131.449219 43.816406 L 163.816406 43.816406 L 163.816406 11.445312 L 196.183594 11.445312 L 196.183594 43.816406 L 228.550781 43.816406 L 228.550781 76.183594 Z M 196.183594 76.183594 "/>
<path style="fill:none;stroke-width:1.5;stroke-linecap:round;stroke-linejoin:round;stroke:rgb(89.411765%,10.196078%,10.980392%);stroke-opacity:1;stroke-miterlimit:10;" d="M 196.183594 76.183594 L 195.046875 79.988281 L 195.746094 85.878906 L 197.101562 92.917969 L 197.933594 100.167969 L 197.058594 106.699219 L 193.414062 111.617188 L 187.324219 114.570312 L 180 115.554688 L 172.675781 114.570312 L 166.585938 111.617188 L 162.941406 106.699219 L 162.066406 100.167969 L 162.898438 92.917969 L 164.253906 85.878906 L 164.953125 79.988281 L 163.816406 76.183594 L 160.011719 75.046875 L 154.121094 75.746094 L 147.085938 77.101562 L 139.832031 77.933594 L 133.304688 77.058594 L 128.386719 73.414062 L 125.429688 67.324219 L 124.445312 60 L 125.429688 52.675781 L 128.386719 46.585938 L 133.304688 42.941406 L 139.832031 42.066406 L 147.085938 42.898438 L 154.121094 44.253906 L 160.011719 44.953125 L 163.816406 43.816406 L 164.953125 40.011719 L 164.253906 34.121094 L 162.898438 27.082031 L 162.066406 19.832031 L 162.941406 13.300781 L 166.585938 8.382812 L 172.675781 5.429688 L 180 4.445312 L 187.324219 5.429688 L 193.414062 8.382812 L 197.058594 13.300781 L 197.933594 19.832031 L 197.101562 27.082031 L 195.746094 34.121094 L 195.046875 40.011719 L 196.183594 43.816406 L 199.988281 44.953125 L 205.878906 44.253906 L 212.914062 42.898438 L 220.167969 42.066406 L 226.695312 42.941406 L 231.613281 46.585938 L 234.570312 52.675781 L 235.554688 60 L 234.570312 67.324219 L 231.613281 73.414062 L 226.695312 77.058594 L 220.167969 77.933594 L 212.914062 77.101562 L 205.878906 75.746094 L 199.988281 75.046875 Z M 196.183594 76.183594 "/>
<path style=" stroke:none;fill-rule:evenodd;fill:rgb(40%,40%,40%);fill-opacity:1;" d="M 305.917969 101.429688 L 305.917969 113.265625 L 294.082031 113.265625 L 294.082031 101.429688 L 270.410156 101.429688 L 270.410156 89.589844 L 258.574219 89.589844 L 258.574219 65.917969 L 246.738281 65.917969 L 246.738281 54.082031 L 258.574219 54.082031 L 258.574219 30.410156 L 270.410156 30.410156 L 270.410156 18.570312 L 294.082031 18.570312 L 294.082031 6.734375 L 305.917969 6.734375 L 305.917969 18.570312 L 329.589844 18.570312 L 329.589844 30.410156 L 341.425781 30.410156 L 341.425781 54.082031 L 353.261719 54.082031 L 353.261719 65.917969 L 341.425781 65.917969 L 341.425781 89.589844 L 329.589844 89.589844 L 329.589844 101.429688 Z M 305.917969 101.429688 "/>
<path style="fill:none;stroke-width:1.5;stroke-linecap:round;stroke-linejoin:round;stroke:rgb(89.411765%,10.196078%,10.980392%);stroke-opacity:1;stroke-miterlimit:10;" d="M 305.917969 101.429688 L 305.707031 103.277344 L 306.050781 105.671875 L 306.511719 108.304688 L 306.65625 110.867188 L 306.050781 113.058594 L 304.363281 114.605469 L 301.871094 115.4375 L 299.054688 115.554688 L 296.402344 114.960938 L 294.390625 113.652344 L 293.441406 111.652344 L 293.382812 109.179688 L 293.789062 106.539062 L 294.21875 104.03125 L 294.242188 101.964844 L 293.449219 100.625 L 291.800781 100.027344 L 289.488281 100.007812 L 286.703125 100.417969 L 283.644531 101.085938 L 280.5 101.859375 L 277.46875 102.554688 L 274.734375 102.972656 L 272.488281 102.921875 L 270.921875 102.195312 L 270.207031 100.609375 L 270.261719 98.246094 L 270.679688 95.511719 L 271.046875 92.824219 L 270.945312 90.605469 L 269.960938 89.265625 L 267.988281 88.914062 L 265.410156 89.171875 L 262.644531 89.621094 L 260.113281 89.84375 L 258.234375 89.421875 L 257.238281 88.121094 L 256.984375 86.078125 L 257.265625 83.484375 L 257.890625 80.53125 L 258.660156 77.40625 L 259.382812 74.296875 L 259.894531 71.398438 L 260.039062 68.90625 L 259.652344 67.015625 L 258.574219 65.917969 L 256.722656 65.707031 L 254.332031 66.050781 L 251.699219 66.511719 L 249.132812 66.65625 L 246.945312 66.050781 L 245.398438 64.363281 L 244.566406 61.871094 L 244.445312 59.054688 L 245.042969 56.402344 L 246.351562 54.390625 L 248.347656 53.4375 L 250.820312 53.382812 L 253.464844 53.789062 L 255.972656 54.21875 L 258.035156 54.242188 L 259.375 53.449219 L 259.976562 51.800781 L 259.992188 49.488281 L 259.585938 46.703125 L 258.914062 43.644531 L 258.140625 40.5 L 257.445312 37.46875 L 257.027344 34.734375 L 257.082031 32.488281 L 257.808594 30.917969 L 259.394531 30.207031 L 261.753906 30.257812 L 264.488281 30.679688 L 267.175781 31.046875 L 269.398438 30.945312 L 270.734375 29.960938 L 271.085938 27.988281 L 270.828125 25.410156 L 270.378906 22.644531 L 270.15625 20.113281 L 270.578125 18.230469 L 271.882812 17.238281 L 273.921875 16.980469 L 276.515625 17.265625 L 279.46875 17.890625 L 282.597656 18.660156 L 285.703125 19.382812 L 288.601562 19.894531 L 291.09375 20.035156 L 292.984375 19.648438 L 294.082031 18.570312 L 294.292969 16.722656 L 293.949219 14.328125 L 293.488281 11.695312 L 293.34375 9.132812 L 293.949219 6.941406 L 295.636719 5.394531 L 298.128906 4.5625 L 300.945312 4.445312 L 303.597656 5.039062 L 305.609375 6.347656 L 306.558594 8.347656 L 306.617188 10.820312 L 306.210938 13.460938 L 305.78125 15.96875 L 305.757812 18.035156 L 306.550781 19.375 L 308.199219 19.972656 L 310.511719 19.992188 L 313.296875 19.582031 L 316.355469 18.914062 L 319.5 18.140625 L 322.53125 17.445312 L 325.265625 17.027344 L 327.511719 17.078125 L 329.078125 17.804688 L 329.792969 19.390625 L 329.738281 21.753906 L 329.320312 24.488281 L 328.953125 27.175781 L 329.054688 29.394531 L 330.039062 30.734375 L 332.011719 31.085938 L 334.589844 30.828125 L 337.355469 30.378906 L 339.886719 30.15625 L 341.765625 30.578125 L 342.761719 31.878906 L 343.015625 33.921875 L 342.734375 36.515625 L 342.109375 39.46875 L 341.339844 42.59375 L 340.617188 45.703125 L 340.105469 48.601562 L 339.960938 51.09375 L 340.347656 52.984375 L 341.425781 54.082031 L 343.277344 54.292969 L 345.667969 53.949219 L 348.300781 53.488281 L 350.867188 53.34375 L 353.054688 53.949219 L 354.601562 55.636719 L 355.433594 58.128906 L 355.554688 60.945312 L 354.957031 63.597656 L 353.648438 65.609375 L 351.652344 66.5625 L 349.179688 66.617188 L 346.535156 66.210938 L 344.027344 65.78125 L 341.964844 65.757812 L 340.625 66.550781 L 340.023438 68.199219 L 340.007812 70.511719 L 340.414062 73.296875 L 341.085938 76.355469 L 341.859375 79.5 L 342.554688 82.53125 L 342.972656 85.265625 L 342.917969 87.511719 L 342.191406 89.082031 L 340.605469 89.792969 L 338.246094 89.742188 L 335.511719 89.320312 L 332.824219 88.953125 L 330.601562 89.054688 L 329.265625 90.039062 L 328.914062 92.011719 L 329.171875 94.589844 L 329.621094 97.355469 L 329.84375 99.886719 L 329.421875 101.769531 L 328.117188 102.761719 L 326.078125 103.019531 L 323.484375 102.734375 L 320.53125 102.109375 L 317.402344 101.339844 L 314.296875 100.617188 L 311.398438 100.105469 L 308.90625 99.964844 L 307.015625 100.351562 Z M 305.917969 101.429688 "/>
<path style=" stroke:none;fill-rule:evenodd;fill:rgb(40%,40%,40%);fill-opacity:1;" d="M 91.371094 182.957031 L 79.386719 127.292969 L 54.011719 148.867188 L 47.417969 164.003906 L 12.507812 186.734375 L 7.710938 233.8125 L 35.871094 212.269531 L 60.761719 224.683594 L 56.710938 191.636719 L 114.226562 212.839844 Z M 91.371094 182.957031 "/>
<path style="fill:none;stroke-width:1.5;stroke-linecap:round;stroke-linejoin:round;stroke:rgb(89.411765%,10.196078%,10.980392%);stroke-opacity:1;stroke-miterlimit:10;" d="M 91.371094 182.957031 L 87.351562 170.714844 L 85.074219 157.996094 L 83.71875 146 L 82.476562 135.917969 L 80.539062 128.941406 L 77.144531 126.1875 L 72.363281 127.484375 L 66.894531 131.683594 L 61.453125 137.605469 L 56.753906 144.082031 L 53.511719 149.933594 L 52.007812 154.410156 L 51.542969 157.707031 L 51.289062 160.136719 L 50.425781 162.019531 L 48.121094 163.671875 L 43.691406 165.425781 L 37.46875 167.683594 L 30.246094 170.878906 L 22.824219 175.453125 L 15.992188 181.84375 L 10.539062 190.46875 L 6.867188 200.972656 L 4.878906 211.988281 L 4.445312 222.085938 L 5.433594 229.835938 L 7.710938 233.8125 L 11.144531 233.105469 L 15.578125 228.9375 L 20.839844 223.039062 L 26.765625 217.160156 L 33.195312 213.035156 L 39.945312 212.289062 L 46.605469 214.726562 L 52.59375 218.757812 L 57.320312 222.757812 L 60.195312 225.097656 L 60.628906 224.160156 L 58.640625 219.269531 L 55.59375 211.878906 L 53.03125 203.722656 L 52.496094 196.539062 L 55.539062 192.058594 L 63.382812 191.738281 L 74.9375 194.992188 L 88.070312 200.300781 L 100.636719 206.148438 L 110.5 211.019531 L 115.554688 213.410156 L 115.261719 212.589844 L 111.089844 208.8125 L 104.644531 202.398438 L 97.539062 193.671875 Z M 91.371094 182.957031 "/>
<path style=" stroke:none;fill-rule:evenodd;fill:rgb(40%,40%,40%);fill-opacity:1;" d="M 187.515625 217.582031 L 187.515625 232.613281 L 172.484375 232.613281 L 172.484375 217.582031 L 142.421875 217.582031 L 142.421875 187.515625 L 127.390625 187.515625 L 127.390625 172.484375 L 142.421875 172.484375 L 142.421875 142.417969 L 172.484375 142.417969 L 172.484375 127.386719 L 187.515625 127.386719 L 187.515625 142.417969 L 217.578125 142.417969 L 217.578125 172.484375 L 232.609375 172.484375 L 232.609375 187.515625 L 217.578125 187.515625 L 217.578125 217.582031 Z M 157.453125 172.484375 L 157.453125 187.515625 L 172.484375 187.515625 L 172.484375 202.546875 L 187.515625 202.546875 L 187.515625 187.515625 L 202.546875 187.515625 L 202.546875 172.484375 L 187.515625 172.484375 L 187.515625 157.453125 L 172.484375 157.453125 L 172.484375 172.484375 Z M 157.453125 172.484375 "/>
<path style="fill:none;stroke-width:1.5;stroke-linecap:round;stroke-linejoin:round;stroke:rgb(89.411765%,10.196078%,10.980392%);stroke-opacity:1;stroke-miterlimit:10;" d="M 187.515625 217.582031 L 187.21875 219.878906 L 187.640625 222.886719 L 188.234375 226.214844 L 188.445312 229.472656 L 187.726562 232.273438 L 185.648438 234.269531 L 182.527344 235.363281 L 178.976562 235.554688 L 175.597656 234.847656 L 173 233.238281 L 171.714844 230.75 L 171.597656 227.640625 L 172.09375 224.296875 L 172.65625 221.105469 L 172.734375 218.453125 L 171.804688 216.714844 L 169.765625 215.933594 L 166.878906 215.890625 L 163.414062 216.355469 L 159.640625 217.109375 L 155.832031 217.921875 L 152.191406 218.601562 L 148.855469 219.003906 L 145.964844 218.988281 L 143.648438 218.414062 L 142.039062 217.136719 L 141.179688 215.109375 L 140.941406 212.445312 L 141.183594 209.285156 L 141.765625 205.761719 L 142.539062 202.003906 L 143.34375 198.179688 L 143.960938 194.550781 L 144.164062 191.386719 L 143.726562 188.949219 L 142.421875 187.515625 L 140.121094 187.21875 L 137.113281 187.640625 L 133.789062 188.234375 L 130.53125 188.445312 L 127.730469 187.726562 L 125.734375 185.648438 L 124.640625 182.527344 L 124.445312 178.976562 L 125.15625 175.597656 L 126.765625 173 L 129.25 171.714844 L 132.359375 171.597656 L 135.703125 172.09375 L 138.894531 172.65625 L 141.546875 172.734375 L 143.285156 171.804688 L 144.070312 169.765625 L 144.113281 166.878906 L 143.644531 163.414062 L 142.890625 159.640625 L 142.082031 155.828125 L 141.398438 152.1875 L 140.996094 148.855469 L 141.011719 145.964844 L 141.585938 143.648438 L 142.867188 142.039062 L 144.894531 141.179688 L 147.554688 140.941406 L 150.714844 141.183594 L 154.242188 141.761719 L 158 142.535156 L 161.820312 143.339844 L 165.449219 143.960938 L 168.617188 144.164062 L 171.050781 143.726562 L 172.484375 142.417969 L 172.78125 140.121094 L 172.359375 137.113281 L 171.765625 133.785156 L 171.554688 130.527344 L 172.273438 127.726562 L 174.351562 125.730469 L 177.472656 124.636719 L 181.023438 124.445312 L 184.402344 125.152344 L 187 126.761719 L 188.285156 129.25 L 188.402344 132.359375 L 187.90625 135.703125 L 187.34375 138.894531 L 187.265625 141.546875 L 188.195312 143.285156 L 190.234375 144.066406 L 193.121094 144.109375 L 196.585938 143.644531 L 200.359375 142.890625 L 204.167969 142.078125 L 207.808594 141.398438 L 211.144531 140.996094 L 214.035156 141.011719 L 216.351562 141.585938 L 217.960938 142.863281 L 218.820312 144.890625 L 219.058594 147.554688 L 218.816406 150.714844 L 218.234375 154.238281 L 217.460938 157.996094 L 216.65625 161.820312 L 216.039062 165.449219 L 215.835938 168.613281 L 216.273438 171.050781 L 217.578125 172.484375 L 219.878906 172.78125 L 222.886719 172.359375 L 226.210938 171.765625 L 229.46875 171.554688 L 232.269531 172.273438 L 234.265625 174.351562 L 235.359375 177.472656 L 235.554688 181.023438 L 234.84375 184.402344 L 233.234375 187 L 230.75 188.285156 L 227.640625 188.402344 L 224.296875 187.90625 L 221.105469 187.34375 L 218.453125 187.265625 L 216.714844 188.195312 L 215.929688 190.234375 L 215.886719 193.121094 L 216.355469 196.585938 L 217.109375 200.359375 L 217.917969 204.171875 L 218.601562 207.8125 L 219.003906 211.144531 L 218.988281 214.035156 L 218.414062 216.351562 L 217.132812 217.960938 L 215.105469 218.820312 L 212.445312 219.058594 L 209.285156 218.816406 L 205.757812 218.238281 L 202 217.464844 L 198.179688 216.660156 L 194.550781 216.039062 L 191.382812 215.835938 L 188.949219 216.273438 Z M 157.453125 172.484375 L 155.472656 174.613281 L 154.402344 177.699219 L 154.25 181.160156 L 155.011719 184.4375 L 156.691406 186.945312 L 159.261719 188.179688 L 162.453125 188.261719 L 165.835938 187.734375 L 168.972656 187.144531 L 171.433594 187.042969 L 172.789062 187.972656 L 172.972656 190.109375 L 172.484375 193.070312 L 171.875 196.421875 L 171.691406 199.722656 L 172.484375 202.546875 L 174.613281 204.53125 L 177.699219 205.597656 L 181.160156 205.75 L 184.433594 204.988281 L 186.945312 203.3125 L 188.179688 200.742188 L 188.261719 197.546875 L 187.734375 194.164062 L 187.144531 191.027344 L 187.042969 188.566406 L 187.96875 187.210938 L 190.109375 187.027344 L 193.070312 187.515625 L 196.417969 188.125 L 199.722656 188.308594 L 202.546875 187.515625 L 204.527344 185.386719 L 205.597656 182.300781 L 205.75 178.839844 L 204.988281 175.5625 L 203.308594 173.054688 L 200.738281 171.820312 L 197.546875 171.738281 L 194.164062 172.265625 L 191.027344 172.855469 L 188.566406 172.957031 L 187.210938 172.027344 L 187.027344 169.890625 L 187.515625 166.929688 L 188.125 163.578125 L 188.308594 160.277344 L 187.515625 157.453125 L 185.386719 155.46875 L 182.300781 154.402344 L 178.839844 154.25 L 175.566406 155.011719 L 173.054688 156.6875 L 171.820312 159.257812 L 171.738281 162.453125 L 172.265625 165.835938 L 172.855469 168.972656 L 172.957031 171.433594 L 172.03125 172.789062 L 169.890625 172.972656 L 166.929688 172.484375 L 163.582031 171.875 L 160.277344 171.691406 Z M 157.453125 172.484375 "/>
<path style=" stroke:none;fill-rule:evenodd;fill:rgb(40%,40%,40%);fill-opacity:1;" d="M 305.917969 221.429688 L 305.917969 233.265625 L 294.082031 233.265625 L 294.082031 221.429688 L 270.410156 221.429688 L 270.410156 209.589844 L 258.574219 209.589844 L 258.574219 185.917969 L 246.738281 185.917969 L 246.738281 174.082031 L 258.574219 174.082031 L 258.574219 150.410156 L 270.410156 150.410156 L 270.410156 138.570312 L 294.082031 138.570312 L 294.082031 126.734375 L 305.917969 126.734375 L 305.917969 138.570312 L 329.589844 138.570312 L 329.589844 150.410156 L 341.425781 150.410156 L 341.425781 174.082031 L 353.261719 174.082031 L 353.261719 185.917969 L 341.425781 185.917969 L 341.425781 209.589844 L 329.589844 209.589844 L 329.589844 221.429688 Z M 270.410156 174.082031 L 270.410156 197.753906 L 282.246094 197.753906 L 282.246094 209.589844 L 317.753906 209.589844 L 317.753906 197.753906 L 329.589844 197.753906 L 329.589844 162.246094 L 317.753906 162.246094 L 317.753906 150.410156 L 282.246094 150.410156 L 282.246094 162.246094 L 270.410156 162.246094 Z M 270.410156 174.082031 "/>
<path style="fill:none;stroke-width:1.5;stroke-linecap:round;stroke-linejoin:round;stroke:rgb(89.411765%,10.196078%,10.980392%);stroke-opacity:1;stroke-miterlimit:10;" d="M 305.917969 221.429688 L 305.707031 223.277344 L 306.050781 225.671875 L 306.511719 228.304688 L 306.65625 230.867188 L 306.050781 233.058594 L 304.363281 234.605469 L 301.871094 235.4375 L 299.054688 235.554688 L 296.402344 234.960938 L 294.390625 233.652344 L 293.441406 231.652344 L 293.382812 229.179688 L 293.789062 226.539062 L 294.21875 224.03125 L 294.242188 221.964844 L 293.449219 220.625 L 291.800781 220.027344 L 289.488281 220.007812 L 286.703125 220.417969 L 283.644531 221.085938 L 280.5 221.859375 L 277.46875 222.554688 L 274.734375 222.972656 L 272.488281 222.921875 L 270.921875 222.195312 L 270.207031 220.609375 L 270.261719 218.246094 L 270.679688 215.511719 L 271.046875 212.824219 L 270.945312 210.605469 L 269.960938 209.265625 L 267.988281 208.914062 L 265.410156 209.171875 L 262.644531 209.621094 L 260.113281 209.84375 L 258.234375 209.421875 L 257.238281 208.121094 L 256.984375 206.078125 L 257.265625 203.484375 L 257.890625 200.53125 L 258.660156 197.40625 L 259.382812 194.296875 L 259.894531 191.398438 L 260.039062 188.90625 L 259.652344 187.015625 L 258.574219 185.917969 L 256.722656 185.707031 L 254.332031 186.050781 L 251.699219 186.511719 L 249.132812 186.65625 L 246.945312 186.050781 L 245.398438 184.363281 L 244.566406 181.871094 L 244.445312 179.054688 L 245.042969 176.402344 L 246.351562 174.390625 L 248.347656 173.4375 L 250.820312 173.382812 L 253.464844 173.789062 L 255.972656 174.21875 L 258.035156 174.242188 L 259.375 173.449219 L 259.976562 171.800781 L 259.992188 169.488281 L 259.585938 166.703125 L 258.914062 163.644531 L 258.140625 160.5 L 257.445312 157.46875 L 257.027344 154.734375 L 257.082031 152.488281 L 257.808594 150.917969 L 259.394531 150.207031 L 261.753906 150.257812 L 264.488281 150.679688 L 267.175781 151.046875 L 269.398438 150.945312 L 270.734375 149.960938 L 271.085938 147.988281 L 270.828125 145.410156 L 270.378906 142.644531 L 270.15625 140.113281 L 270.578125 138.230469 L 271.882812 137.238281 L 273.921875 136.980469 L 276.515625 137.265625 L 279.46875 137.890625 L 282.597656 138.660156 L 285.703125 139.382812 L 288.601562 139.894531 L 291.09375 140.035156 L 292.984375 139.648438 L 294.082031 138.570312 L 294.292969 136.722656 L 293.949219 134.328125 L 293.488281 131.695312 L 293.34375 129.132812 L 293.949219 126.941406 L 295.636719 125.394531 L 298.128906 124.5625 L 300.945312 124.445312 L 303.597656 125.039062 L 305.609375 126.347656 L 306.558594 128.347656 L 306.617188 130.820312 L 306.210938 133.460938 L 305.78125 135.96875 L 305.757812 138.035156 L 306.550781 139.375 L 308.199219 139.972656 L 310.511719 139.992188 L 313.296875 139.582031 L 316.355469 138.914062 L 319.5 138.140625 L 322.53125 137.445312 L 325.265625 137.027344 L 327.511719 137.078125 L 329.078125 137.804688 L 329.792969 139.390625 L 329.738281 141.753906 L 329.320312 144.488281 L 328.953125 147.175781 L 329.054688 149.394531 L 330.039062 150.734375 L 332.011719 151.085938 L 334.589844 150.828125 L 337.355469 150.378906 L 339.886719 150.15625 L 341.765625 150.578125 L 342.761719 151.878906 L 343.015625 153.921875 L 342.734375 156.515625 L 342.109375 159.46875 L 341.339844 162.59375 L 340.617188 165.703125 L 340.105469 168.601562 L 339.960938 171.09375 L 340.347656 172.984375 L 341.425781 174.082031 L 343.277344 174.292969 L 345.667969 173.949219 L 348.300781 173.488281 L 350.867188 173.34375 L 353.054688 173.949219 L 354.601562 175.636719 L 355.433594 178.128906 L 355.554688 180.945312 L 354.957031 183.597656 L 353.648438 185.609375 L 351.652344 186.5625 L 349.179688 186.617188 L 346.535156 186.210938 L 344.027344 185.78125 L 341.964844 185.757812 L 340.625 186.550781 L 340.023438 188.199219 L 340.007812 190.511719 L 340.414062 193.296875 L 341.085938 196.355469 L 341.859375 199.5 L 342.554688 202.53125 L 342.972656 205.265625 L 342.917969 207.511719 L 342.191406 209.082031 L 340.605469 209.792969 L 338.246094 209.742188 L 335.511719 209.320312 L 332.824219 208.953125 L 330.601562 209.054688 L 329.265625 210.039062 L 328.914062 212.011719 L 329.171875 214.589844 L 329.621094 217.355469 L 329.84375 219.886719 L 329.421875 221.769531 L 328.117188 222.761719 L 326.078125 223.019531 L 323.484375 222.734375 L 320.53125 222.109375 L 317.402344 221.339844 L 314.296875 220.617188 L 311.398438 220.105469 L 308.90625 219.964844 L 307.015625 220.351562 Z M 270.410156 174.082031 L 270.828125 176.507812 L 271.046875 178.71875 L 271.066406 180.851562 L 270.886719 183.039062 L 270.507812 185.410156 L 269.949219 188.066406 L 269.375 190.855469 L 269.015625 193.507812 L 269.101562 195.765625 L 269.863281 197.363281 L 271.507812 198.054688 L 273.894531 197.972656 L 276.609375 197.535156 L 279.242188 197.160156 L 281.378906 197.277344 L 282.605469 198.292969 L 282.871094 200.277344 L 282.558594 202.84375 L 282.101562 205.578125 L 281.914062 208.0625 L 282.421875 209.882812 L 283.851562 210.808594 L 286 211.007812 L 288.597656 210.722656 L 291.378906 210.171875 L 294.082031 209.589844 L 296.507812 209.171875 L 298.71875 208.953125 L 300.851562 208.933594 L 303.039062 209.113281 L 305.410156 209.492188 L 308.066406 210.050781 L 310.851562 210.625 L 313.507812 210.984375 L 315.765625 210.898438 L 317.359375 210.136719 L 318.054688 208.492188 L 317.972656 206.109375 L 317.535156 203.390625 L 317.160156 200.757812 L 317.273438 198.621094 L 318.292969 197.394531 L 320.277344 197.132812 L 322.84375 197.441406 L 325.578125 197.898438 L 328.0625 198.085938 L 329.882812 197.578125 L 330.804688 196.148438 L 331.007812 194 L 330.71875 191.402344 L 330.171875 188.621094 L 329.589844 185.917969 L 329.171875 183.492188 L 328.953125 181.28125 L 328.933594 179.148438 L 329.113281 176.960938 L 329.492188 174.589844 L 330.050781 171.933594 L 330.625 169.144531 L 330.984375 166.492188 L 330.898438 164.234375 L 330.136719 162.636719 L 328.492188 161.945312 L 326.105469 162.027344 L 323.390625 162.464844 L 320.757812 162.839844 L 318.621094 162.722656 L 317.394531 161.707031 L 317.128906 159.722656 L 317.441406 157.15625 L 317.898438 154.421875 L 318.085938 151.9375 L 317.578125 150.117188 L 316.148438 149.191406 L 314 148.992188 L 311.402344 149.277344 L 308.621094 149.828125 L 305.917969 150.410156 L 303.492188 150.828125 L 301.28125 151.046875 L 299.148438 151.066406 L 296.960938 150.886719 L 294.589844 150.507812 L 291.933594 149.949219 L 289.148438 149.375 L 286.492188 149.015625 L 284.234375 149.101562 L 282.640625 149.863281 L 281.945312 151.507812 L 282.027344 153.890625 L 282.464844 156.609375 L 282.839844 159.242188 L 282.726562 161.378906 L 281.707031 162.605469 L 279.722656 162.867188 L 277.15625 162.558594 L 274.421875 162.101562 L 271.9375 161.914062 L 270.117188 162.421875 L 269.195312 163.851562 L 268.992188 166 L 269.28125 168.597656 L 269.828125 171.378906 Z M 270.410156 174.082031 "/>
<path style=" stroke:none;fill-rule:evenodd;fill:rgb(40%,40%,40%);fill-opacity:1;" d="M 77.777344 341.5 L 101.480469 341.5 L 101.480469 353.351562 L 77.777344 353.351562 Z M 77.777344 341.5 "/>
<path style=" stroke:none;fill-rule:evenodd;fill:rgb(40%,40%,40%);fill-opacity:1;" d="M 6.667969 246.683594 L 18.519531 246.683594 L 18.519531 258.535156 L 6.667969 258.535156 Z M 6.667969 246.683594 "/>
<path style=" stroke:none;fill-rule:evenodd;fill:rgb(40%,40%,40%);fill-opacity:1;" d="M 30.371094 258.535156 L 42.222656 258.535156 L 42.222656 270.386719 L 30.371094 270.386719 Z M 30.371094 258.535156 "/>
<path style=" stroke:none;fill-rule:evenodd;fill:rgb(40%,40%,40%);fill-opacity:1;" d="M 54.074219 270.386719 L 65.925781 270.386719 L 65.925781 282.238281 L 54.074219 282.238281 Z M 54.074219 270.386719 "/>
<path style=" stroke:none;fill-rule:evenodd;fill:rgb(40%,40%,40%);fill-opacity:1;" d="M 77.777344 270.386719 L 89.628906 270.386719 L 89.628906 282.238281 L 77.777344 282.238281 Z M 77.777344 270.386719 "/>
<path style=" stroke:none;fill-rule:evenodd;fill:rgb(40%,40%,40%);fill-opacity:1;" d="M 113.332031 258.535156 L 113.332031 270.386719 L 101.480469 270.386719 L 101.480469 246.683594 L 113.332031 246.683594 Z M 113.332031 258.535156 "/>
<path style=" stroke:none;fill-rule:evenodd;fill:rgb(40%,40%,40%);fill-opacity:1;" d="M 18.519531 329.648438 L 18.519531 341.5 L 6.667969 341.5 L 6.667969 317.796875 L 18.519531 317.796875 Z M 18.519531 329.648438 "/>
<path style=" stroke:none;fill-rule:evenodd;fill:rgb(40%,40%,40%);fill-opacity:1;" d="M 42.222656 341.5 L 42.222656 353.351562 L 30.371094 353.351562 L 30.371094 305.945312 L 54.074219 305.945312 L 54.074219 294.089844 L 65.925781 294.089844 L 65.925781 305.945312 L 77.777344 305.945312 L 77.777344 317.796875 L 65.925781 317.796875 L 65.925781 329.648438 L 77.777344 329.648438 L 77.777344 341.5 L 65.925781 341.5 L 65.925781 353.351562 L 54.074219 353.351562 L 54.074219 317.796875 L 42.222656 317.796875 Z M 42.222656 341.5 "/>
<path style=" stroke:none;fill-rule:evenodd;fill:rgb(40%,40%,40%);fill-opacity:1;" d="M 101.480469 317.796875 L 113.332031 317.796875 L 113.332031 329.648438 L 101.480469 329.648438 Z M 101.480469 317.796875 "/>
<path style=" stroke:none;fill-rule:evenodd;fill:rgb(40%,40%,40%);fill-opacity:1;" d="M 101.480469 305.945312 L 101.480469 317.796875 L 89.628906 317.796875 L 89.628906 282.238281 L 113.332031 282.238281 L 113.332031 294.089844 L 101.480469 294.089844 Z M 101.480469 305.945312 "/>
<path style="fill:none;stroke-width:1.5;stroke-linecap:round;stroke-linejoin:round;stroke:rgb(89.411765%,10.196078%,10.980392%);stroke-opacity:1;stroke-miterlimit:10;" d="M 77.777344 341.5 L 79.242188 340.648438 L 81.070312 340.449219 L 83.183594 340.667969 L 85.507812 341.066406 L 87.960938 341.414062 L 90.464844 341.476562 L 92.945312 341.199219 L 95.320312 340.792969 L 97.511719 340.488281 L 99.445312 340.523438 L 101.039062 341.128906 L 102.21875 342.519531 L 102.957031 344.582031 L 103.253906 347.007812 L 103.105469 349.488281 L 102.515625 351.707031 L 101.480469 353.351562 L 100.019531 354.203125 L 98.191406 354.402344 L 96.074219 354.1875 L 93.753906 353.789062 L 91.300781 353.441406 L 88.792969 353.375 L 86.3125 353.652344 L 83.9375 354.0625 L 81.746094 354.367188 L 79.8125 354.332031 L 78.21875 353.722656 L 77.039062 352.335938 L 76.300781 350.273438 L 76.007812 347.84375 L 76.152344 345.367188 L 76.746094 343.148438 Z M 77.777344 341.5 "/>
<path style="fill:none;stroke-width:1.5;stroke-linecap:round;stroke-linejoin:round;stroke:rgb(89.411765%,10.196078%,10.980392%);stroke-opacity:1;stroke-miterlimit:10;" d="M 6.667969 246.683594 L 8.367188 245.449219 L 10.398438 244.707031 L 12.59375 244.460938 L 14.789062 244.707031 L 16.816406 245.449219 L 18.519531 246.683594 L 19.753906 248.382812 L 20.492188 250.414062 L 20.742188 252.609375 L 20.492188 254.804688 L 19.753906 256.832031 L 18.519531 258.535156 L 16.816406 259.769531 L 14.789062 260.511719 L 12.59375 260.757812 L 10.398438 260.511719 L 8.367188 259.769531 L 6.667969 258.535156 L 5.433594 256.832031 L 4.691406 254.804688 L 4.445312 252.609375 L 4.691406 250.414062 L 5.433594 248.382812 Z M 6.667969 246.683594 "/>
<path style="fill:none;stroke-width:1.5;stroke-linecap:round;stroke-linejoin:round;stroke:rgb(89.411765%,10.196078%,10.980392%);stroke-opacity:1;stroke-miterlimit:10;" d="M 30.371094 258.535156 L 32.070312 257.300781 L 34.101562 256.558594 L 36.296875 256.3125 L 38.492188 256.558594 L 40.519531 257.300781 L 42.222656 258.535156 L 43.457031 260.234375 L 44.199219 262.265625 L 44.445312 264.460938 L 44.199219 266.65625 L 43.457031 268.6875 L 42.222656 270.386719 L 40.519531 271.621094 L 38.492188 272.363281 L 36.296875 272.609375 L 34.101562 272.363281 L 32.070312 271.621094 L 30.371094 270.386719 L 29.136719 268.6875 L 28.394531 266.65625 L 28.148438 264.460938 L 28.394531 262.265625 L 29.136719 260.234375 Z M 30.371094 258.535156 "/>
<path style="fill:none;stroke-width:1.5;stroke-linecap:round;stroke-linejoin:round;stroke:rgb(89.411765%,10.196078%,10.980392%);stroke-opacity:1;stroke-miterlimit:10;" d="M 54.074219 270.386719 L 55.773438 269.152344 L 57.804688 268.410156 L 60 268.164062 L 62.195312 268.410156 L 64.226562 269.152344 L 65.925781 270.386719 L 67.160156 272.089844 L 67.902344 274.117188 L 68.148438 276.3125 L 67.902344 278.507812 L 67.160156 280.539062 L 65.925781 282.238281 L 64.226562 283.472656 L 62.195312 284.214844 L 60 284.460938 L 57.804688 284.214844 L 55.773438 283.472656 L 54.074219 282.238281 L 52.839844 280.539062 L 52.097656 278.507812 L 51.851562 276.3125 L 52.097656 274.117188 L 52.839844 272.089844 Z M 54.074219 270.386719 "/>
<path style="fill:none;stroke-width:1.5;stroke-linecap:round;stroke-linejoin:round;stroke:rgb(89.411765%,10.196078%,10.980392%);stroke-opacity:1;stroke-miterlimit:10;" d="M 77.777344 270.386719 L 79.480469 269.152344 L 81.507812 268.410156 L 83.703125 268.164062 L 85.898438 268.410156 L 87.929688 269.152344 L 89.628906 270.386719 L 90.863281 272.089844 L 91.605469 274.117188 L 91.851562 276.3125 L 91.605469 278.507812 L 90.863281 280.539062 L 89.628906 282.238281 L 87.929688 283.472656 L 85.898438 284.214844 L 83.703125 284.460938 L 81.507812 284.214844 L 79.480469 283.472656 L 77.777344 282.238281 L 76.542969 280.539062 L 75.800781 278.507812 L 75.554688 276.3125 L 75.800781 274.117188 L 76.542969 272.089844 Z M 77.777344 270.386719 "/>
<path style="fill:none;stroke-width:1.5;stroke-linecap:round;stroke-linejoin:round;stroke:rgb(89.411765%,10.196078%,10.980392%);stroke-opacity:1;stroke-miterlimit:10;" d="M 113.332031 258.535156 L 113.515625 261.03125 L 113.90625 263.449219 L 114.269531 265.710938 L 114.375 267.742188 L 113.984375 269.457031 L 112.867188 270.78125 L 110.996094 271.667969 L 108.65625 272.109375 L 106.160156 272.109375 L 103.820312 271.667969 L 101.945312 270.78125 L 100.832031 269.457031 L 100.4375 267.742188 L 100.542969 265.710938 L 100.910156 263.449219 L 101.300781 261.03125 L 101.480469 258.535156 L 101.300781 256.039062 L 100.910156 253.617188 L 100.542969 251.355469 L 100.4375 249.328125 L 100.832031 247.613281 L 101.945312 246.289062 L 103.820312 245.402344 L 106.160156 244.960938 L 108.65625 244.960938 L 110.996094 245.402344 L 112.867188 246.289062 L 113.984375 247.613281 L 114.375 249.328125 L 114.269531 251.355469 L 113.90625 253.617188 L 113.515625 256.039062 Z M 113.332031 258.535156 "/>
<path style="fill:none;stroke-width:1.5;stroke-linecap:round;stroke-linejoin:round;stroke:rgb(89.411765%,10.196078%,10.980392%);stroke-opacity:1;stroke-miterlimit:10;" d="M 18.519531 329.648438 L 18.699219 332.144531 L 19.089844 334.5625 L 19.457031 336.828125 L 19.5625 338.855469 L 19.167969 340.570312 L 18.054688 341.894531 L 16.179688 342.78125 L 13.839844 343.222656 L 11.34375 343.222656 L 9.003906 342.78125 L 7.132812 341.894531 L 6.015625 340.570312 L 5.625 338.855469 L 5.730469 336.828125 L 6.09375 334.5625 L 6.484375 332.144531 L 6.667969 329.648438 L 6.484375 327.152344 L 6.09375 324.734375 L 5.730469 322.46875 L 5.625 320.441406 L 6.015625 318.726562 L 7.132812 317.402344 L 9.003906 316.515625 L 11.34375 316.074219 L 13.839844 316.074219 L 16.179688 316.515625 L 18.054688 317.402344 L 19.167969 318.726562 L 19.5625 320.441406 L 19.457031 322.46875 L 19.089844 324.734375 L 18.699219 327.152344 Z M 18.519531 329.648438 "/>
<path style="fill:none;stroke-width:1.5;stroke-linecap:round;stroke-linejoin:round;stroke:rgb(89.411765%,10.196078%,10.980392%);stroke-opacity:1;stroke-miterlimit:10;" d="M 42.222656 341.5 L 42.632812 344.039062 L 43.117188 346.617188 L 43.417969 349.089844 L 43.273438 351.308594 L 42.429688 353.121094 L 40.691406 354.394531 L 38.28125 355.089844 L 35.582031 355.21875 L 32.980469 354.777344 L 30.863281 353.773438 L 29.582031 352.21875 L 29.117188 350.195312 L 29.222656 347.84375 L 29.65625 345.296875 L 30.171875 342.6875 L 30.53125 340.148438 L 30.664062 337.734375 L 30.632812 335.417969 L 30.523438 333.175781 L 30.410156 330.984375 L 30.367188 328.816406 L 30.414062 326.644531 L 30.496094 324.433594 L 30.546875 322.148438 L 30.507812 319.746094 L 30.308594 317.191406 L 29.960938 314.515625 L 29.628906 311.871094 L 29.480469 309.433594 L 29.695312 307.367188 L 30.453125 305.851562 L 31.859375 304.988281 L 33.839844 304.691406 L 36.269531 304.828125 L 39.027344 305.273438 L 41.988281 305.894531 L 45.023438 306.550781 L 47.9375 307.089844 L 50.527344 307.332031 L 52.582031 307.109375 L 53.898438 306.25 L 54.3125 304.617188 L 54.0625 302.363281 L 53.585938 299.789062 L 53.308594 297.183594 L 53.671875 294.851562 L 55.070312 293.078125 L 57.398438 291.996094 L 60.171875 291.636719 L 62.910156 292.011719 L 65.125 293.152344 L 66.335938 295.074219 L 66.523438 297.601562 L 66.128906 300.359375 L 65.636719 302.964844 L 65.527344 305.03125 L 66.273438 306.175781 L 68.039062 306.324219 L 70.492188 305.910156 L 73.238281 305.421875 L 75.890625 305.339844 L 78.066406 306.144531 L 79.476562 308.070312 L 80.121094 310.710938 L 80.03125 313.550781 L 79.238281 316.082031 L 77.777344 317.796875 L 75.722656 318.351562 L 73.285156 318.097656 L 70.71875 317.550781 L 68.269531 317.222656 L 66.195312 317.632812 L 64.71875 319.199219 L 63.90625 321.65625 L 63.75 324.496094 L 64.261719 327.191406 L 65.433594 329.234375 L 67.25 330.15625 L 69.558594 330.105469 L 72.101562 329.59375 L 74.628906 329.136719 L 76.894531 329.257812 L 78.644531 330.441406 L 79.746094 332.660156 L 80.164062 335.421875 L 79.863281 338.21875 L 78.8125 340.535156 L 76.980469 341.871094 L 74.507812 342.132812 L 71.761719 341.761719 L 69.125 341.253906 L 66.988281 341.085938 L 65.734375 341.753906 L 65.480469 343.464844 L 65.835938 345.894531 L 66.324219 348.640625 L 66.480469 351.308594 L 65.835938 353.496094 L 64.121094 354.90625 L 61.652344 355.539062 L 58.878906 355.46875 L 56.242188 354.757812 L 54.195312 353.472656 L 53.082031 351.691406 L 52.78125 349.53125 L 53.015625 347.117188 L 53.511719 344.585938 L 53.992188 342.066406 L 54.21875 339.671875 L 54.199219 337.398438 L 54.066406 335.171875 L 53.949219 332.921875 L 53.988281 330.585938 L 54.300781 328.097656 L 54.785156 325.515625 L 55.191406 322.988281 L 55.25 320.65625 L 54.707031 318.671875 L 53.3125 317.175781 L 51.105469 316.25 L 48.464844 315.898438 L 45.777344 316.117188 L 43.4375 316.910156 L 41.824219 318.277344 L 41.105469 320.164062 L 41.046875 322.429688 L 41.394531 324.929688 L 41.886719 327.511719 L 42.261719 330.023438 L 42.363281 332.382812 L 42.28125 334.632812 L 42.144531 336.855469 L 42.082031 339.117188 Z M 42.222656 341.5 "/>
<path style="fill:none;stroke-width:1.5;stroke-linecap:round;stroke-linejoin:round;stroke:rgb(89.411765%,10.196078%,10.980392%);stroke-opacity:1;stroke-miterlimit:10;" d="M 101.480469 317.796875 L 103.183594 316.5625 L 105.210938 315.820312 L 107.40625 315.574219 L 109.601562 315.820312 L 111.632812 316.5625 L 113.332031 317.796875 L 114.566406 319.496094 L 115.308594 321.527344 L 115.554688 323.722656 L 115.308594 325.917969 L 114.566406 327.949219 L 113.332031 329.648438 L 111.632812 330.882812 L 109.601562 331.625 L 107.40625 331.871094 L 105.210938 331.625 L 103.183594 330.882812 L 101.480469 329.648438 L 100.246094 327.949219 L 99.507812 325.917969 L 99.257812 323.722656 L 99.507812 321.527344 L 100.246094 319.496094 Z M 101.480469 317.796875 "/>
<path style="fill:none;stroke-width:1.5;stroke-linecap:round;stroke-linejoin:round;stroke:rgb(89.411765%,10.196078%,10.980392%);stroke-opacity:1;stroke-miterlimit:10;" d="M 101.480469 305.945312 L 102.1875 308.679688 L 102.746094 311.238281 L 103.007812 313.558594 L 102.8125 315.582031 L 102.007812 317.246094 L 100.457031 318.492188 L 98.265625 319.28125 L 95.75 319.597656 L 93.21875 319.421875 L 90.988281 318.730469 L 89.371094 317.507812 L 88.53125 315.777344 L 88.324219 313.664062 L 88.550781 311.308594 L 89.023438 308.84375 L 89.539062 306.414062 L 89.925781 304.136719 L 90.132812 301.988281 L 90.179688 299.894531 L 90.078125 297.765625 L 89.835938 295.523438 L 89.46875 293.089844 L 89.050781 290.496094 L 88.714844 287.925781 L 88.605469 285.566406 L 88.863281 283.605469 L 89.628906 282.238281 L 91.003906 281.585938 L 92.902344 281.484375 L 95.191406 281.710938 L 97.734375 282.039062 L 100.40625 282.242188 L 103.074219 282.113281 L 105.644531 281.703125 L 108.050781 281.273438 L 110.222656 281.09375 L 112.09375 281.425781 L 113.601562 282.535156 L 114.679688 284.507812 L 115.273438 287.007812 L 115.335938 289.652344 L 114.808594 292.058594 L 113.648438 293.84375 L 111.820312 294.683594 L 109.515625 294.734375 L 107.007812 294.367188 L 104.5625 293.945312 L 102.464844 293.84375 L 100.976562 294.425781 L 100.199219 295.824219 L 100.003906 297.863281 L 100.246094 300.355469 L 100.785156 303.113281 Z M 101.480469 305.945312 "/>
<path style=" stroke:none;fill-rule:evenodd;fill:rgb(40%,40%,40%);fill-opacity:1;" d="M 126.667969 341.480469 L 138.519531 341.480469 L 138.519531 353.332031 L 126.667969 353.332031 Z M 126.667969 341.480469 "/>
<path style=" stroke:none;fill-rule:evenodd;fill:rgb(40%,40%,40%);fill-opacity:1;" d="M 221.480469 341.480469 L 233.332031 341.480469 L 233.332031 353.332031 L 221.480469 353.332031 Z M 221.480469 341.480469 "/>
<path style=" stroke:none;fill-rule:evenodd;fill:rgb(40%,40%,40%);fill-opacity:1;" d="M 209.628906 329.628906 L 221.480469 329.628906 L 221.480469 341.480469 L 209.628906 341.480469 Z M 209.628906 329.628906 "/>
<path style=" stroke:none;fill-rule:evenodd;fill:rgb(40%,40%,40%);fill-opacity:1;" d="M 197.777344 317.777344 L 209.628906 317.777344 L 209.628906 329.628906 L 197.777344 329.628906 Z M 197.777344 317.777344 "/>
<path style=" stroke:none;fill-rule:evenodd;fill:rgb(40%,40%,40%);fill-opacity:1;" d="M 185.925781 305.925781 L 197.777344 305.925781 L 197.777344 317.777344 L 185.925781 317.777344 Z M 185.925781 305.925781 "/>
<path style=" stroke:none;fill-rule:evenodd;fill:rgb(40%,40%,40%);fill-opacity:1;" d="M 126.667969 246.667969 L 138.519531 246.667969 L 138.519531 258.519531 L 126.667969 258.519531 Z M 126.667969 246.667969 "/>
<path style=" stroke:none;fill-rule:evenodd;fill:rgb(40%,40%,40%);fill-opacity:1;" d="M 150.371094 270.371094 L 162.222656 270.371094 L 162.222656 282.222656 L 150.371094 282.222656 Z M 150.371094 270.371094 "/>
<path style=" stroke:none;fill-rule:evenodd;fill:rgb(40%,40%,40%);fill-opacity:1;" d="M 138.519531 258.519531 L 150.371094 258.519531 L 150.371094 270.371094 L 138.519531 270.371094 Z M 138.519531 258.519531 "/>
<path style=" stroke:none;fill-rule:evenodd;fill:rgb(40%,40%,40%);fill-opacity:1;" d="M 221.480469 246.667969 L 233.332031 246.667969 L 233.332031 258.519531 L 221.480469 258.519531 Z M 221.480469 246.667969 "/>
<path style=" stroke:none;fill-rule:evenodd;fill:rgb(40%,40%,40%);fill-opacity:1;" d="M 174.074219 294.074219 L 185.925781 294.074219 L 185.925781 305.925781 L 174.074219 305.925781 Z M 174.074219 294.074219 "/>
<path style=" stroke:none;fill-rule:evenodd;fill:rgb(40%,40%,40%);fill-opacity:1;" d="M 162.222656 282.222656 L 174.074219 282.222656 L 174.074219 294.074219 L 162.222656 294.074219 Z M 162.222656 282.222656 "/>
<path style="fill:none;stroke-width:1.5;stroke-linecap:round;stroke-linejoin:round;stroke:rgb(89.411765%,10.196078%,10.980392%);stroke-opacity:1;stroke-miterlimit:10;" d="M 126.667969 341.480469 L 128.371094 340.246094 L 130.398438 339.507812 L 132.59375 339.257812 L 134.789062 339.507812 L 136.820312 340.246094 L 138.519531 341.480469 L 139.753906 343.183594 L 140.496094 345.210938 L 140.742188 347.40625 L 140.496094 349.601562 L 139.753906 351.632812 L 138.519531 353.332031 L 136.820312 354.566406 L 134.789062 355.308594 L 132.59375 355.554688 L 130.398438 355.308594 L 128.371094 354.566406 L 126.667969 353.332031 L 125.433594 351.632812 L 124.695312 349.601562 L 124.445312 347.40625 L 124.695312 345.210938 L 125.433594 343.183594 Z M 126.667969 341.480469 "/>
<path style="fill:none;stroke-width:1.5;stroke-linecap:round;stroke-linejoin:round;stroke:rgb(89.411765%,10.196078%,10.980392%);stroke-opacity:1;stroke-miterlimit:10;" d="M 221.480469 341.480469 L 223.179688 340.246094 L 225.210938 339.507812 L 227.40625 339.257812 L 229.601562 339.507812 L 231.628906 340.246094 L 233.332031 341.480469 L 234.566406 343.183594 L 235.304688 345.210938 L 235.554688 347.40625 L 235.304688 349.601562 L 234.566406 351.632812 L 233.332031 353.332031 L 231.628906 354.566406 L 229.601562 355.308594 L 227.40625 355.554688 L 225.210938 355.308594 L 223.179688 354.566406 L 221.480469 353.332031 L 220.246094 351.632812 L 219.503906 349.601562 L 219.257812 347.40625 L 219.503906 345.210938 L 220.246094 343.183594 Z M 221.480469 341.480469 "/>
<path style="fill:none;stroke-width:1.5;stroke-linecap:round;stroke-linejoin:round;stroke:rgb(89.411765%,10.196078%,10.980392%);stroke-opacity:1;stroke-miterlimit:10;" d="M 209.628906 329.628906 L 211.328125 328.394531 L 213.359375 327.65625 L 215.554688 327.40625 L 217.75 327.65625 L 219.777344 328.394531 L 221.480469 329.628906 L 222.714844 331.332031 L 223.457031 333.359375 L 223.703125 335.554688 L 223.457031 337.75 L 222.714844 339.78125 L 221.480469 341.480469 L 219.777344 342.714844 L 217.75 343.457031 L 215.554688 343.703125 L 213.359375 343.457031 L 211.328125 342.714844 L 209.628906 341.480469 L 208.394531 339.78125 L 207.652344 337.75 L 207.40625 335.554688 L 207.652344 333.359375 L 208.394531 331.332031 Z M 209.628906 329.628906 "/>
<path style="fill:none;stroke-width:1.5;stroke-linecap:round;stroke-linejoin:round;stroke:rgb(89.411765%,10.196078%,10.980392%);stroke-opacity:1;stroke-miterlimit:10;" d="M 197.777344 317.777344 L 199.476562 316.542969 L 201.507812 315.800781 L 203.703125 315.554688 L 205.898438 315.800781 L 207.925781 316.542969 L 209.628906 317.777344 L 210.863281 319.480469 L 211.605469 321.507812 L 211.851562 323.703125 L 211.605469 325.898438 L 210.863281 327.929688 L 209.628906 329.628906 L 207.925781 330.863281 L 205.898438 331.605469 L 203.703125 331.851562 L 201.507812 331.605469 L 199.476562 330.863281 L 197.777344 329.628906 L 196.542969 327.929688 L 195.800781 325.898438 L 195.554688 323.703125 L 195.800781 321.507812 L 196.542969 319.480469 Z M 197.777344 317.777344 "/>
<path style="fill:none;stroke-width:1.5;stroke-linecap:round;stroke-linejoin:round;stroke:rgb(89.411765%,10.196078%,10.980392%);stroke-opacity:1;stroke-miterlimit:10;" d="M 185.925781 305.925781 L 187.625 304.691406 L 189.65625 303.949219 L 191.851562 303.703125 L 194.046875 303.949219 L 196.078125 304.691406 L 197.777344 305.925781 L 199.011719 307.625 L 199.753906 309.65625 L 200 311.851562 L 199.753906 314.046875 L 199.011719 316.078125 L 197.777344 317.777344 L 196.078125 319.011719 L 194.046875 319.753906 L 191.851562 320 L 189.65625 319.753906 L 187.625 319.011719 L 185.925781 317.777344 L 184.691406 316.078125 L 183.949219 314.046875 L 183.703125 311.851562 L 183.949219 309.65625 L 184.691406 307.625 Z M 185.925781 305.925781 "/>
<path style="fill:none;stroke-width:1.5;stroke-linecap:round;stroke-linejoin:round;stroke:rgb(89.411765%,10.196078%,10.980392%);stroke-opacity:1;stroke-miterlimit:10;" d="M 126.667969 246.667969 L 128.371094 245.433594 L 130.398438 244.691406 L 132.59375 244.445312 L 134.789062 244.691406 L 136.820312 245.433594 L 138.519531 246.667969 L 139.753906 248.367188 L 140.496094 250.398438 L 140.742188 252.59375 L 140.496094 254.789062 L 139.753906 256.816406 L 138.519531 258.519531 L 136.820312 259.753906 L 134.789062 260.492188 L 132.59375 260.742188 L 130.398438 260.492188 L 128.371094 259.753906 L 126.667969 258.519531 L 125.433594 256.816406 L 124.695312 254.789062 L 124.445312 252.59375 L 124.695312 250.398438 L 125.433594 248.367188 Z M 126.667969 246.667969 "/>
<path style="fill:none;stroke-width:1.5;stroke-linecap:round;stroke-linejoin:round;stroke:rgb(89.411765%,10.196078%,10.980392%);stroke-opacity:1;stroke-miterlimit:10;" d="M 150.371094 270.371094 L 152.074219 269.136719 L 154.101562 268.394531 L 156.296875 268.148438 L 158.492188 268.394531 L 160.523438 269.136719 L 162.222656 270.371094 L 163.457031 272.070312 L 164.199219 274.101562 L 164.445312 276.296875 L 164.199219 278.492188 L 163.457031 280.519531 L 162.222656 282.222656 L 160.523438 283.457031 L 158.492188 284.199219 L 156.296875 284.445312 L 154.101562 284.199219 L 152.074219 283.457031 L 150.371094 282.222656 L 149.136719 280.519531 L 148.394531 278.492188 L 148.148438 276.296875 L 148.394531 274.101562 L 149.136719 272.070312 Z M 150.371094 270.371094 "/>
<path style="fill:none;stroke-width:1.5;stroke-linecap:round;stroke-linejoin:round;stroke:rgb(89.411765%,10.196078%,10.980392%);stroke-opacity:1;stroke-miterlimit:10;" d="M 138.519531 258.519531 L 140.222656 257.285156 L 142.25 256.542969 L 144.445312 256.296875 L 146.640625 256.542969 L 148.671875 257.285156 L 150.371094 258.519531 L 151.605469 260.21875 L 152.347656 262.25 L 152.59375 264.445312 L 152.347656 266.640625 L 151.605469 268.667969 L 150.371094 270.371094 L 148.671875 271.605469 L 146.640625 272.34375 L 144.445312 272.59375 L 142.25 272.34375 L 140.222656 271.605469 L 138.519531 270.371094 L 137.285156 268.667969 L 136.542969 266.640625 L 136.296875 264.445312 L 136.542969 262.25 L 137.285156 260.21875 Z M 138.519531 258.519531 "/>
<path style="fill:none;stroke-width:1.5;stroke-linecap:round;stroke-linejoin:round;stroke:rgb(89.411765%,10.196078%,10.980392%);stroke-opacity:1;stroke-miterlimit:10;" d="M 221.480469 246.667969 L 223.179688 245.433594 L 225.210938 244.691406 L 227.40625 244.445312 L 229.601562 244.691406 L 231.628906 245.433594 L 233.332031 246.667969 L 234.566406 248.367188 L 235.304688 250.398438 L 235.554688 252.59375 L 235.304688 254.789062 L 234.566406 256.816406 L 233.332031 258.519531 L 231.628906 259.753906 L 229.601562 260.492188 L 227.40625 260.742188 L 225.210938 260.492188 L 223.179688 259.753906 L 221.480469 258.519531 L 220.246094 256.816406 L 219.503906 254.789062 L 219.257812 252.59375 L 219.503906 250.398438 L 220.246094 248.367188 Z M 221.480469 246.667969 "/>
<path style="fill:none;stroke-width:1.5;stroke-linecap:round;stroke-linejoin:round;stroke:rgb(89.411765%,10.196078%,10.980392%);stroke-opacity:1;stroke-miterlimit:10;" d="M 174.074219 294.074219 L 175.773438 292.839844 L 177.804688 292.097656 L 180 291.851562 L 182.195312 292.097656 L 184.226562 292.839844 L 185.925781 294.074219 L 187.160156 295.773438 L 187.902344 297.804688 L 188.148438 300 L 187.902344 302.195312 L 187.160156 304.226562 L 185.925781 305.925781 L 184.226562 307.160156 L 182.195312 307.902344 L 180 308.148438 L 177.804688 307.902344 L 175.773438 307.160156 L 174.074219 305.925781 L 172.839844 304.226562 L 172.097656 302.195312 L 171.851562 300 L 172.097656 297.804688 L 172.839844 295.773438 Z M 174.074219 294.074219 "/>
<path style="fill:none;stroke-width:1.5;stroke-linecap:round;stroke-linejoin:round;stroke:rgb(89.411765%,10.196078%,10.980392%);stroke-opacity:1;stroke-miterlimit:10;" d="M 162.222656 282.222656 L 163.921875 280.988281 L 165.953125 280.246094 L 168.148438 280 L 170.34375 280.246094 L 172.375 280.988281 L 174.074219 282.222656 L 175.308594 283.921875 L 176.050781 285.953125 L 176.296875 288.148438 L 176.050781 290.34375 L 175.308594 292.375 L 174.074219 294.074219 L 172.375 295.308594 L 170.34375 296.050781 L 168.148438 296.296875 L 165.953125 296.050781 L 163.921875 295.308594 L 162.222656 294.074219 L 160.988281 292.375 L 160.246094 290.34375 L 160 288.148438 L 160.246094 285.953125 L 160.988281 283.921875 Z M 162.222656 282.222656 "/>
<path style=" stroke:none;fill-rule:evenodd;fill:rgb(40%,40%,40%);fill-opacity:1;" d="M 305.917969 341.429688 L 305.917969 353.265625 L 294.082031 353.265625 L 294.082031 341.429688 L 270.410156 341.429688 L 270.410156 329.589844 L 258.574219 329.589844 L 258.574219 305.917969 L 246.738281 305.917969 L 246.738281 294.082031 L 258.574219 294.082031 L 258.574219 270.410156 L 270.410156 270.410156 L 270.410156 258.570312 L 294.082031 258.570312 L 294.082031 246.734375 L 305.917969 246.734375 L 305.917969 258.570312 L 329.589844 258.570312 L 329.589844 270.410156 L 341.425781 270.410156 L 341.425781 294.082031 L 353.261719 294.082031 L 353.261719 305.917969 L 341.425781 305.917969 L 341.425781 329.589844 L 329.589844 329.589844 L 329.589844 341.429688 Z M 270.410156 294.082031 L 270.410156 317.753906 L 282.246094 317.753906 L 282.246094 329.589844 L 317.753906 329.589844 L 317.753906 317.753906 L 329.589844 317.753906 L 329.589844 282.246094 L 317.753906 282.246094 L 317.753906 270.410156 L 282.246094 270.410156 L 282.246094 282.246094 L 270.410156 282.246094 Z M 270.410156 294.082031 "/>
<path style=" stroke:none;fill-rule:evenodd;fill:rgb(40%,40%,40%);fill-opacity:1;" d="M 305.917969 305.917969 L 305.917969 317.753906 L 294.082031 317.753906 L 294.082031 305.917969 L 282.246094 305.917969 L 282.246094 294.082031 L 294.082031 294.082031 L 294.082031 282.246094 L 305.917969 282.246094 L 305.917969 294.082031 L 317.753906 294.082031 L 317.753906 305.917969 Z M 305.917969 305.917969 "/>
<path style="fill:none;stroke-width:1.5;stroke-linecap:round;stroke-linejoin:round;stroke:rgb(89.411765%,10.196078%,10.980392%);stroke-opacity:1;stroke-miterlimit:10;" d="M 305.917969 341.429688 L 305.707031 343.277344 L 306.050781 345.671875 L 306.511719 348.304688 L 306.65625 350.867188 L 306.050781 353.058594 L 304.363281 354.605469 L 301.871094 355.4375 L 299.054688 355.554688 L 296.402344 354.960938 L 294.390625 353.652344 L 293.441406 351.652344 L 293.382812 349.179688 L 293.789062 346.539062 L 294.21875 344.03125 L 294.242188 341.964844 L 293.449219 340.625 L 291.800781 340.027344 L 289.488281 340.007812 L 286.703125 340.417969 L 283.644531 341.085938 L 280.5 341.859375 L 277.46875 342.554688 L 274.734375 342.972656 L 272.488281 342.921875 L 270.921875 342.195312 L 270.207031 340.609375 L 270.261719 338.246094 L 270.679688 335.511719 L 271.046875 332.824219 L 270.945312 330.605469 L 269.960938 329.265625 L 267.988281 328.914062 L 265.410156 329.171875 L 262.644531 329.621094 L 260.113281 329.84375 L 258.234375 329.421875 L 257.238281 328.121094 L 256.984375 326.078125 L 257.265625 323.484375 L 257.890625 320.53125 L 258.660156 317.40625 L 259.382812 314.296875 L 259.894531 311.398438 L 260.039062 308.90625 L 259.652344 307.015625 L 258.574219 305.917969 L 256.722656 305.707031 L 254.332031 306.050781 L 251.699219 306.511719 L 249.132812 306.65625 L 246.945312 306.050781 L 245.398438 304.363281 L 244.566406 301.871094 L 244.445312 299.054688 L 245.042969 296.402344 L 246.351562 294.390625 L 248.347656 293.4375 L 250.820312 293.382812 L 253.464844 293.789062 L 255.972656 294.21875 L 258.035156 294.242188 L 259.375 293.449219 L 259.976562 291.800781 L 259.992188 289.488281 L 259.585938 286.703125 L 258.914062 283.644531 L 258.140625 280.5 L 257.445312 277.46875 L 257.027344 274.734375 L 257.082031 272.488281 L 257.808594 270.917969 L 259.394531 270.207031 L 261.753906 270.257812 L 264.488281 270.679688 L 267.175781 271.046875 L 269.398438 270.945312 L 270.734375 269.960938 L 271.085938 267.988281 L 270.828125 265.410156 L 270.378906 262.644531 L 270.15625 260.113281 L 270.578125 258.230469 L 271.882812 257.238281 L 273.921875 256.980469 L 276.515625 257.265625 L 279.46875 257.890625 L 282.597656 258.660156 L 285.703125 259.382812 L 288.601562 259.894531 L 291.09375 260.035156 L 292.984375 259.648438 L 294.082031 258.570312 L 294.292969 256.722656 L 293.949219 254.328125 L 293.488281 251.695312 L 293.34375 249.132812 L 293.949219 246.941406 L 295.636719 245.394531 L 298.128906 244.5625 L 300.945312 244.445312 L 303.597656 245.039062 L 305.609375 246.347656 L 306.558594 248.347656 L 306.617188 250.820312 L 306.210938 253.460938 L 305.78125 255.96875 L 305.757812 258.035156 L 306.550781 259.375 L 308.199219 259.972656 L 310.511719 259.992188 L 313.296875 259.582031 L 316.355469 258.914062 L 319.5 258.140625 L 322.53125 257.445312 L 325.265625 257.027344 L 327.511719 257.078125 L 329.078125 257.804688 L 329.792969 259.390625 L 329.738281 261.753906 L 329.320312 264.488281 L 328.953125 267.175781 L 329.054688 269.394531 L 330.039062 270.734375 L 332.011719 271.085938 L 334.589844 270.828125 L 337.355469 270.378906 L 339.886719 270.15625 L 341.765625 270.578125 L 342.761719 271.878906 L 343.015625 273.921875 L 342.734375 276.515625 L 342.109375 279.46875 L 341.339844 282.59375 L 340.617188 285.703125 L 340.105469 288.601562 L 339.960938 291.09375 L 340.347656 292.984375 L 341.425781 294.082031 L 343.277344 294.292969 L 345.667969 293.949219 L 348.300781 293.488281 L 350.867188 293.34375 L 353.054688 293.949219 L 354.601562 295.636719 L 355.433594 298.128906 L 355.554688 300.945312 L 354.957031 303.597656 L 353.648438 305.609375 L 351.652344 306.5625 L 349.179688 306.617188 L 346.535156 306.210938 L 344.027344 305.78125 L 341.964844 305.757812 L 340.625 306.550781 L 340.023438 308.199219 L 340.007812 310.511719 L 340.414062 313.296875 L 341.085938 316.355469 L 341.859375 319.5 L 342.554688 322.53125 L 342.972656 325.265625 L 342.917969 327.511719 L 342.191406 329.082031 L 340.605469 329.792969 L 338.246094 329.742188 L 335.511719 329.320312 L 332.824219 328.953125 L 330.601562 329.054688 L 329.265625 330.039062 L 328.914062 332.011719 L 329.171875 334.589844 L 329.621094 337.355469 L 329.84375 339.886719 L 329.421875 341.769531 L 328.117188 342.761719 L 326.078125 343.019531 L 323.484375 342.734375 L 320.53125 342.109375 L 317.402344 341.339844 L 314.296875 340.617188 L 311.398438 340.105469 L 308.90625 339.964844 L 307.015625 340.351562 Z M 270.410156 294.082031 L 270.828125 296.507812 L 271.046875 298.71875 L 271.066406 300.851562 L 270.886719 303.039062 L 270.507812 305.410156 L 269.949219 308.066406 L 269.375 310.855469 L 269.015625 313.507812 L 269.101562 315.765625 L 269.863281 317.363281 L 271.507812 318.054688 L 273.894531 317.972656 L 276.609375 317.535156 L 279.242188 317.160156 L 281.378906 317.277344 L 282.605469 318.292969 L 282.871094 320.277344 L 282.558594 322.84375 L 282.101562 325.578125 L 281.914062 328.0625 L 282.421875 329.882812 L 283.851562 330.808594 L 286 331.007812 L 288.597656 330.722656 L 291.378906 330.171875 L 294.082031 329.589844 L 296.507812 329.171875 L 298.71875 328.953125 L 300.851562 328.933594 L 303.039062 329.113281 L 305.410156 329.492188 L 308.066406 330.050781 L 310.851562 330.625 L 313.507812 330.984375 L 315.765625 330.898438 L 317.359375 330.136719 L 318.054688 328.492188 L 317.972656 326.109375 L 317.535156 323.390625 L 317.160156 320.757812 L 317.273438 318.621094 L 318.292969 317.394531 L 320.277344 317.132812 L 322.84375 317.441406 L 325.578125 317.898438 L 328.0625 318.085938 L 329.882812 317.578125 L 330.804688 316.148438 L 331.007812 314 L 330.71875 311.402344 L 330.171875 308.621094 L 329.589844 305.917969 L 329.171875 303.492188 L 328.953125 301.28125 L 328.933594 299.148438 L 329.113281 296.960938 L 329.492188 294.589844 L 330.050781 291.933594 L 330.625 289.144531 L 330.984375 286.492188 L 330.898438 284.234375 L 330.136719 282.636719 L 328.492188 281.945312 L 326.105469 282.027344 L 323.390625 282.464844 L 320.757812 282.839844 L 318.621094 282.722656 L 317.394531 281.707031 L 317.128906 279.722656 L 317.441406 277.15625 L 317.898438 274.421875 L 318.085938 271.9375 L 317.578125 270.117188 L 316.148438 269.191406 L 314 268.992188 L 311.402344 269.277344 L 308.621094 269.828125 L 305.917969 270.410156 L 303.492188 270.828125 L 301.28125 271.046875 L 299.148438 271.066406 L 296.960938 270.886719 L 294.589844 270.507812 L 291.933594 269.949219 L 289.148438 269.375 L 286.492188 269.015625 L 284.234375 269.101562 L 282.640625 269.863281 L 281.945312 271.507812 L 282.027344 273.890625 L 282.464844 276.609375 L 282.839844 279.242188 L 282.726562 281.378906 L 281.707031 282.605469 L 279.722656 282.867188 L 277.15625 282.558594 L 274.421875 282.101562 L 271.9375 281.914062 L 270.117188 282.421875 L 269.195312 283.851562 L 268.992188 286 L 269.28125 288.597656 L 269.828125 291.378906 Z M 270.410156 294.082031 "/>
<path style="fill:none;stroke-width:1.5;stroke-linecap:round;stroke-linejoin:round;stroke:rgb(89.411765%,10.196078%,10.980392%);stroke-opacity:1;stroke-miterlimit:10;" d="M 305.917969 305.917969 L 305.5 307.308594 L 305.757812 309.464844 L 306.253906 312.039062 L 306.558594 314.6875 L 306.238281 317.078125 L 304.90625 318.875 L 302.675781 319.957031 L 300 320.316406 L 297.324219 319.957031 L 295.09375 318.875 L 293.761719 317.078125 L 293.441406 314.6875 L 293.746094 312.039062 L 294.242188 309.464844 L 294.5 307.308594 L 294.082031 305.917969 L 292.691406 305.503906 L 290.535156 305.757812 L 287.964844 306.253906 L 285.3125 306.558594 L 282.925781 306.238281 L 281.125 304.90625 L 280.046875 302.679688 L 279.683594 300 L 280.046875 297.320312 L 281.125 295.09375 L 282.925781 293.761719 L 285.3125 293.441406 L 287.964844 293.746094 L 290.535156 294.242188 L 292.691406 294.496094 L 294.082031 294.082031 L 294.5 292.691406 L 294.242188 290.535156 L 293.746094 287.960938 L 293.441406 285.3125 L 293.761719 282.921875 L 295.09375 281.125 L 297.324219 280.042969 L 300 279.683594 L 302.675781 280.042969 L 304.90625 281.125 L 306.238281 282.921875 L 306.558594 285.3125 L 306.253906 287.960938 L 305.757812 290.535156 L 305.5 292.691406 L 305.917969 294.082031 L 307.308594 294.496094 L 309.464844 294.242188 L 312.035156 293.746094 L 314.6875 293.441406 L 317.074219 293.761719 L 318.875 295.09375 L 319.953125 297.320312 L 320.316406 300 L 319.953125 302.679688 L 318.875 304.90625 L 317.074219 306.238281 L 314.6875 306.558594 L 312.035156 306.253906 L 309.464844 305.757812 L 307.308594 305.503906 Z M 305.917969 305.917969 "/>
</g>
</svg>
