<?xml version="1.0" encoding="UTF-8"?>
<svg xmlns="http://www.w3.org/2000/svg" xmlns:xlink="http://www.w3.org/1999/xlink" width="360pt" height="360pt" viewBox="0 0 360 360" version="1.1">
<g id="surface26">
<rect x="0" y="0" width="360" height="360" style="fill:rgb(100%,100%,100%);fill-opacity:1;stroke:none;"/>
<path style="fill:none;stroke-width:2.25;stroke-linecap:round;stroke-linejoin:round;stroke:rgb(20%,20%,20%);stroke-opacity:1;stroke-miterlimit:10;" d="M 4.445312 115.554688 L 32.222656 115.121094 L 60 108.609375 L 87.777344 80.398438 L 115.554688 4.445312 "/>
<path style="fill:none;stroke-width:1.5;stroke-linecap:round;stroke-linejoin:round;stroke:rgb(89.411765%,10.196078%,10.980392%);stroke-opacity:1;stroke-miterlimit:10;" d="M 4.445312 115.554688 L 9.074219 115.28125 L 13.707031 115.1875 L 18.335938 115.195312 L 22.964844 115.234375 L 27.59375 115.234375 L 32.222656 115.121094 L 36.851562 114.828125 L 41.480469 114.289062 L 46.113281 113.457031 L 50.742188 112.269531 L 55.371094 110.675781 L 60 108.609375 L 64.628906 106.011719 L 69.257812 102.753906 L 73.886719 98.699219 L 78.519531 93.714844 L 83.148438 87.660156 L 87.777344 80.398438 L 92.40625 71.800781 L 97.035156 61.734375 L 101.664062 50.089844 L 106.292969 36.738281 L 110.925781 21.5625 L 115.554688 4.445312 "/>
<path style="fill:none;stroke-width:2.25;stroke-linecap:round;stroke-linejoin:round;stroke:rgb(20%,20%,20%);stroke-opacity:1;stroke-miterlimit:10;" d="M 124.445312 60 L 146.667969 7.160156 L 168.890625 27.34375 L 191.109375 92.65625 L 213.332031 112.839844 L 235.554688 60 "/>
<path style="fill:none;stroke-width:1.5;stroke-linecap:round;stroke-linejoin:round;stroke:rgb(89.411765%,10.196078%,10.980392%);stroke-opacity:1;stroke-miterlimit:10;" d="M 124.445312 60 L 128.277344 44.785156 L 132.105469 32.296875 L 135.9375 22.386719 L 139.769531 14.917969 L 143.601562 9.742188 L 147.433594 6.722656 L 151.265625 5.75 L 155.097656 6.808594 L 158.925781 9.890625 L 162.757812 14.996094 L 166.589844 22.109375 L 170.421875 31.226562 L 174.253906 42.046875 L 178.085938 53.898438 L 181.914062 66.101562 L 185.746094 77.953125 L 189.578125 88.773438 L 193.410156 97.890625 L 197.242188 105.003906 L 201.074219 110.109375 L 204.902344 113.191406 L 208.734375 114.25 L 212.566406 113.277344 L 216.398438 110.257812 L 220.230469 105.082031 L 224.0625 97.613281 L 227.894531 87.703125 L 231.722656 75.214844 L 235.554688 60 "/>
<path style="fill:none;stroke-width:2.25;stroke-linecap:round;stroke-linejoin:round;stroke:rgb(20%,20%,20%);stroke-opacity:1;stroke-miterlimit:10;" d="M 244.445312 60 L 250 7.160156 L 255.554688 27.34375 L 261.109375 92.65625 L 266.667969 112.839844 L 277.777344 7.160156 L 283.332031 27.34375 L 288.890625 92.65625 L 294.445312 112.839844 L 305.554688 7.160156 L 311.109375 27.34375 L 316.667969 92.65625 L 322.222656 112.839844 L 333.332031 7.160156 L 338.890625 27.34375 L 344.445312 92.65625 L 350 112.839844 L 355.554688 60 "/>
<path style="fill:none;stroke-width:1.5;stroke-linecap:round;stroke-linejoin:round;stroke:rgb(89.411765%,10.196078%,10.980392%);stroke-opacity:1;stroke-miterlimit:10;" d="M 244.445312 60 L 245.511719 43.179688 L 246.582031 29.742188 L 247.648438 19.488281 L 248.71875 12.222656 L 249.785156 7.742188 L 250.855469 5.863281 L 251.921875 6.515625 L 252.992188 9.675781 L 254.058594 15.320312 L 255.128906 23.421875 L 256.195312 33.925781 L 257.265625 46.308594 L 258.332031 59.683594 L 259.402344 73.148438 L 260.46875 85.816406 L 261.539062 96.789062 L 262.605469 105.449219 L 263.675781 111.539062 L 264.742188 114.8125 L 265.8125 115.027344 L 266.878906 111.949219 L 267.949219 105.589844 L 269.015625 96.546875 L 270.085938 85.484375 L 271.152344 73.082031 L 272.222656 60 L 273.289062 46.914062 L 274.359375 34.503906 L 275.425781 23.4375 L 276.496094 14.390625 L 277.5625 8.046875 L 278.632812 4.996094 L 279.699219 5.25 L 280.769531 8.546875 L 281.835938 14.632812 L 282.90625 23.246094 L 283.972656 34.113281 L 285.042969 46.640625 L 286.109375 60 L 287.179688 73.359375 L 288.246094 85.886719 L 289.316406 96.753906 L 290.382812 105.367188 L 291.453125 111.449219 L 292.519531 114.75 L 293.589844 115 L 294.65625 111.953125 L 295.726562 105.609375 L 296.792969 96.570312 L 297.863281 85.503906 L 298.929688 73.089844 L 301.070312 46.910156 L 302.136719 34.496094 L 303.207031 23.429688 L 304.273438 14.390625 L 305.34375 8.046875 L 306.410156 5 L 307.480469 5.25 L 308.546875 8.550781 L 309.617188 14.632812 L 310.683594 23.246094 L 311.753906 34.113281 L 312.820312 46.640625 L 313.890625 60 L 314.957031 73.359375 L 316.027344 85.886719 L 317.09375 96.753906 L 318.164062 105.367188 L 319.230469 111.453125 L 320.300781 114.75 L 321.367188 115.003906 L 322.4375 111.953125 L 323.503906 105.609375 L 324.574219 96.5625 L 325.640625 85.496094 L 326.710938 73.085938 L 327.777344 60 L 328.847656 46.917969 L 329.914062 34.515625 L 330.984375 23.453125 L 332.050781 14.410156 L 333.121094 8.050781 L 334.1875 4.972656 L 335.257812 5.1875 L 336.324219 8.460938 L 337.394531 14.550781 L 338.460938 23.210938 L 339.53125 34.183594 L 340.597656 46.851562 L 341.667969 60.316406 L 342.734375 73.691406 L 343.804688 86.074219 L 344.871094 96.578125 L 345.941406 104.679688 L 347.007812 110.324219 L 348.078125 113.484375 L 349.144531 114.136719 L 350.214844 112.257812 L 351.28125 107.777344 L 352.351562 100.511719 L 353.417969 90.257812 L 354.488281 76.820312 L 355.554688 60 "/>
<path style="fill:none;stroke-width:2.25;stroke-linecap:round;stroke-linejoin:round;stroke:rgb(20%,20%,20%);stroke-opacity:1;stroke-miterlimit:10;" d="M 19.597656 139.597656 L 100.402344 139.597656 L 100.402344 220.402344 L 19.597656 220.402344 L 19.597656 139.597656 "/>
<path style="fill:none;stroke-width:1.5;stroke-linecap:round;stroke-linejoin:round;stroke:rgb(89.411765%,10.196078%,10.980392%);stroke-opacity:1;stroke-miterlimit:10;" d="M 19.597656 139.597656 L 31.195312 131.179688 L 45.035156 126.128906 L 60 124.445312 L 74.964844 126.128906 L 88.804688 131.179688 L 100.402344 139.597656 L 108.820312 151.195312 L 113.871094 165.035156 L 115.554688 180 L 113.871094 194.964844 L 108.820312 208.804688 L 100.402344 220.402344 L 88.804688 228.820312 L 74.964844 233.871094 L 60 235.554688 L 45.035156 233.871094 L 31.195312 228.820312 L 19.597656 220.402344 L 11.179688 208.804688 L 6.128906 194.964844 L 4.445312 180 L 6.128906 165.035156 L 11.179688 151.195312 L 19.597656 139.597656 "/>
<path style="fill:none;stroke-width:2.25;stroke-linecap:round;stroke-linejoin:round;stroke:rgb(20%,20%,20%);stroke-opacity:1;stroke-miterlimit:10;" d="M 196.183594 196.183594 L 196.183594 228.554688 L 163.816406 228.554688 L 163.816406 196.183594 L 131.449219 196.183594 L 131.449219 163.816406 L 163.816406 163.816406 L 163.816406 131.445312 L 196.183594 131.445312 L 196.183594 163.816406 L 228.550781 163.816406 L 228.550781 196.183594 L 196.183594 196.183594 "/>
<path style="fill:none;stroke-width:1.5;stroke-linecap:round;stroke-linejoin:round;stroke:rgb(89.411765%,10.196078%,10.980392%);stroke-opacity:1;stroke-miterlimit:10;" d="M 196.183594 196.183594 L 195.046875 199.988281 L 195.746094 205.878906 L 197.101562 212.917969 L 197.933594 220.167969 L 197.058594 226.699219 L 193.414062 231.617188 L 187.324219 234.570312 L 180 235.554688 L 172.675781 234.570312 L 166.585938 231.617188 L 162.941406 226.699219 L 162.066406 220.167969 L 162.898438 212.917969 L 164.253906 205.878906 L 164.953125 199.988281 L 163.816406 196.183594 L 160.011719 195.046875 L 154.121094 195.746094 L 147.085938 197.101562 L 139.832031 197.933594 L 133.304688 197.058594 L 128.386719 193.414062 L 125.429688 187.324219 L 124.445312 180 L 125.429688 172.675781 L 128.386719 166.585938 L 133.304688 162.941406 L 139.832031 162.066406 L 147.085938 162.898438 L 154.121094 164.253906 L 160.011719 164.953125 L 163.816406 163.816406 L 164.953125 160.011719 L 164.253906 154.121094 L 162.898438 147.082031 L 162.066406 139.832031 L 162.941406 133.300781 L 166.585938 128.382812 L 172.675781 125.429688 L 180 124.445312 L 187.324219 125.429688 L 193.414062 128.382812 L 197.058594 133.300781 L 197.933594 139.832031 L 197.101562 147.082031 L 195.746094 154.121094 L 195.046875 160.011719 L 196.183594 163.816406 L 199.988281 164.953125 L 205.878906 164.253906 L 212.914062 162.898438 L 220.167969 162.066406 L 226.695312 162.941406 L 231.613281 166.585938 L 234.570312 172.675781 L 235.554688 180 L 234.570312 187.324219 L 231.613281 193.414062 L 226.695312 197.058594 L 220.167969 197.933594 L 212.914062 197.101562 L 205.878906 195.746094 L 199.988281 195.046875 L 196.183594 196.183594 "/>
<path style="fill:none;stroke-width:2.25;stroke-linecap:round;stroke-linejoin:round;stroke:rgb(20%,20%,20%);stroke-opacity:1;stroke-miterlimit:10;" d="M 305.917969 221.429688 L 305.917969 233.265625 L 294.082031 233.265625 L 294.082031 221.429688 L 270.410156 221.429688 L 270.410156 209.589844 L 258.574219 209.589844 L 258.574219 185.917969 L 246.738281 185.917969 L 246.738281 174.082031 L 258.574219 174.082031 L 258.574219 150.410156 L 270.410156 150.410156 L 270.410156 138.570312 L 294.082031 138.570312 L 294.082031 126.734375 L 305.917969 126.734375 L 305.917969 138.570312 L 329.589844 138.570312 L 329.589844 150.410156 L 341.425781 150.410156 L 341.425781 174.082031 L 353.261719 174.082031 L 353.261719 185.917969 L 341.425781 185.917969 L 341.425781 209.589844 L 329.589844 209.589844 L 329.589844 221.429688 L 305.917969 221.429688 "/>
<path style="fill:none;stroke-width:1.5;stroke-linecap:round;stroke-linejoin:round;stroke:rgb(89.411765%,10.196078%,10.980392%);stroke-opacity:1;stroke-miterlimit:10;" d="M 305.917969 221.429688 L 305.707031 223.277344 L 306.050781 225.671875 L 306.511719 228.304688 L 306.65625 230.867188 L 306.050781 233.058594 L 304.363281 234.605469 L 301.871094 235.4375 L 299.054688 235.554688 L 296.402344 234.960938 L 294.390625 233.652344 L 293.441406 231.652344 L 293.382812 229.179688 L 293.789062 226.539062 L 294.21875 224.03125 L 294.242188 221.964844 L 293.449219 220.625 L 291.800781 220.027344 L 289.488281 220.007812 L 286.703125 220.417969 L 283.644531 221.085938 L 280.5 221.859375 L 277.46875 222.554688 L 274.734375 222.972656 L 272.488281 222.921875 L 270.921875 222.195312 L 270.207031 220.609375 L 270.261719 218.246094 L 270.679688 215.511719 L 271.046875 212.824219 L 270.945312 210.605469 L 269.960938 209.265625 L 267.988281 208.914062 L 265.410156 209.171875 L 262.644531 209.621094 L 260.113281 209.84375 L 258.234375 209.421875 L 257.238281 208.121094 L 256.984375 206.078125 L 257.265625 203.484375 L 257.890625 200.53125 L 258.660156 197.40625 L 259.382812 194.296875 L 259.894531 191.398438 L 260.039062 188.90625 L 259.652344 187.015625 L 258.574219 185.917969 L 256.722656 185.707031 L 254.332031 186.050781 L 251.699219 186.511719 L 249.132812 186.65625 L 246.945312 186.050781 L 245.398438 184.363281 L 244.566406 181.871094 L 244.445312 179.054688 L 245.042969 176.402344 L 246.351562 174.390625 L 248.347656 173.4375 L 250.820312 173.382812 L 253.464844 173.789062 L 255.972656 174.21875 L 258.035156 174.242188 L 259.375 173.449219 L 259.976562 171.800781 L 259.992188 169.488281 L 259.585938 166.703125 L 258.914062 163.644531 L 258.140625 160.5 L 257.445312 157.46875 L 257.027344 154.734375 L 257.082031 152.488281 L 257.808594 150.917969 L 259.394531 150.207031 L 261.753906 150.257812 L 264.488281 150.679688 L 267.175781 151.046875 L 269.398438 150.945312 L 270.734375 149.960938 L 271.085938 147.988281 L 270.828125 145.410156 L 270.378906 142.644531 L 270.15625 140.113281 L 270.578125 138.230469 L 271.882812 137.238281 L 273.921875 136.980469 L 276.515625 137.265625 L 279.46875 137.890625 L 282.597656 138.660156 L 285.703125 139.382812 L 288.601562 139.894531 L 291.09375 140.035156 L 292.984375 139.648438 L 294.082031 138.570312 L 294.292969 136.722656 L 293.949219 134.328125 L 293.488281 131.695312 L 293.34375 129.132812 L 293.949219 126.941406 L 295.636719 125.394531 L 298.128906 124.5625 L 300.945312 124.445312 L 303.597656 125.039062 L 305.609375 126.347656 L 306.558594 128.347656 L 306.617188 130.820312 L 306.210938 133.460938 L 305.78125 135.96875 L 305.757812 138.035156 L 306.550781 139.375 L 308.199219 139.972656 L 310.511719 139.992188 L 313.296875 139.582031 L 316.355469 138.914062 L 319.5 138.140625 L 322.53125 137.445312 L 325.265625 137.027344 L 327.511719 137.078125 L 329.078125 137.804688 L 329.792969 139.390625 L 329.738281 141.753906 L 329.320312 144.488281 L 328.953125 147.175781 L 329.054688 149.394531 L 330.039062 150.734375 L 332.011719 151.085938 L 334.589844 150.828125 L 337.355469 150.378906 L 339.886719 150.15625 L 341.765625 150.578125 L 342.761719 151.878906 L 343.015625 153.921875 L 342.734375 156.515625 L 342.109375 159.46875 L 341.339844 162.59375 L 340.617188 165.703125 L 340.105469 168.601562 L 339.960938 171.09375 L 340.347656 172.984375 L 341.425781 174.082031 L 343.277344 174.292969 L 345.667969 173.949219 L 348.300781 173.488281 L 350.867188 173.34375 L 353.054688 173.949219 L 354.601562 175.636719 L 355.433594 178.128906 L 355.554688 180.945312 L 354.957031 183.597656 L 353.648438 185.609375 L 351.652344 186.5625 L 349.179688 186.617188 L 346.535156 186.210938 L 344.027344 185.78125 L 341.964844 185.757812 L 340.625 186.550781 L 340.023438 188.199219 L 340.007812 190.511719 L 340.414062 193.296875 L 341.085938 196.355469 L 341.859375 199.5 L 342.554688 202.53125 L 342.972656 205.265625 L 342.917969 207.511719 L 342.191406 209.082031 L 340.605469 209.792969 L 338.246094 209.742188 L 335.511719 209.320312 L 332.824219 208.953125 L 330.601562 209.054688 L 329.265625 210.039062 L 328.914062 212.011719 L 329.171875 214.589844 L 329.621094 217.355469 L 329.84375 219.886719 L 329.421875 221.769531 L 328.117188 222.761719 L 326.078125 223.019531 L 323.484375 222.734375 L 320.53125 222.109375 L 317.402344 221.339844 L 314.296875 220.617188 L 311.398438 220.105469 L 308.90625 219.964844 L 307.015625 220.351562 L 305.917969 221.429688 "/>
<path style="fill:none;stroke-width:2.25;stroke-linecap:round;stroke-linejoin:round;stroke:rgb(20%,20%,20%);stroke-opacity:1;stroke-miterlimit:10;" d="M 4.445312 355.554688 L 32.222656 355.121094 L 60 348.609375 L 87.777344 320.398438 L 115.554688 244.445312 "/>
<path style="fill:none;stroke-width:2.25;stroke-linecap:round;stroke-linejoin:round;stroke:rgb(20%,20%,20%);stroke-opacity:1;stroke-miterlimit:10;" d="M 4.445312 300 L 26.667969 247.164062 L 48.890625 267.34375 L 71.109375 332.65625 L 93.332031 352.835938 L 115.554688 300 "/>
<path style="fill:none;stroke-width:1.5;stroke-linecap:round;stroke-linejoin:round;stroke:rgb(89.411765%,10.196078%,10.980392%);stroke-opacity:1;stroke-miterlimit:10;" d="M 4.445312 355.554688 L 9.074219 355.28125 L 13.707031 355.1875 L 18.335938 355.195312 L 22.964844 355.234375 L 27.59375 355.234375 L 32.222656 355.121094 L 36.851562 354.828125 L 41.480469 354.289062 L 46.113281 353.457031 L 50.742188 352.269531 L 55.371094 350.675781 L 60 348.609375 L 64.628906 346.011719 L 69.257812 342.753906 L 73.886719 338.699219 L 78.519531 333.714844 L 83.148438 327.660156 L 87.777344 320.398438 L 92.40625 311.800781 L 97.035156 301.734375 L 101.664062 290.089844 L 106.292969 276.738281 L 110.925781 261.5625 L 115.554688 244.445312 "/>
<path style="fill:none;stroke-width:1.5;stroke-linecap:round;stroke-linejoin:round;stroke:rgb(89.411765%,10.196078%,10.980392%);stroke-opacity:1;stroke-miterlimit:10;" d="M 4.445312 300 L 8.277344 284.785156 L 12.109375 272.296875 L 15.941406 262.390625 L 19.773438 254.921875 L 23.601562 249.746094 L 27.433594 246.726562 L 31.265625 245.753906 L 35.097656 246.808594 L 38.929688 249.894531 L 42.757812 254.996094 L 46.589844 262.113281 L 50.421875 271.226562 L 54.253906 282.046875 L 58.085938 293.898438 L 61.914062 306.101562 L 65.746094 317.953125 L 69.578125 328.773438 L 73.410156 337.886719 L 77.242188 345.003906 L 81.070312 350.105469 L 84.902344 353.191406 L 88.734375 354.246094 L 92.566406 353.273438 L 96.398438 350.253906 L 100.226562 345.078125 L 104.058594 337.609375 L 107.890625 327.703125 L 111.722656 315.214844 L 115.554688 300 "/>
<path style="fill:none;stroke-width:2.25;stroke-linecap:round;stroke-linejoin:round;stroke:rgb(20%,20%,20%);stroke-opacity:1;stroke-miterlimit:10;" d="M 124.445312 355.554688 L 152.222656 313.890625 L 180 300 L 207.777344 313.890625 L 235.554688 355.554688 "/>
<path style="fill:none;stroke-width:2.25;stroke-linecap:round;stroke-linejoin:round;stroke:rgb(20%,20%,20%);stroke-opacity:1;stroke-miterlimit:10;" d="M 124.445312 244.445312 L 152.222656 251.390625 L 180 272.222656 L 207.777344 306.945312 L 235.554688 355.554688 "/>
<path style="fill:none;stroke-width:2.25;stroke-linecap:round;stroke-linejoin:round;stroke:rgb(20%,20%,20%);stroke-opacity:1;stroke-miterlimit:10;" d="M 124.445312 300 L 152.222656 272.222656 "/>
<path style="fill:none;stroke-width:1.5;stroke-linecap:round;stroke-linejoin:round;stroke:rgb(89.411765%,10.196078%,10.980392%);stroke-opacity:1;stroke-miterlimit:10;" d="M 124.445312 355.554688 L 129.074219 346.683594 L 133.707031 338.582031 L 138.335938 331.25 L 142.964844 324.691406 L 147.59375 318.90625 L 152.222656 313.890625 L 156.851562 309.644531 L 161.480469 306.171875 L 166.113281 303.472656 L 170.742188 301.542969 L 175.371094 300.386719 L 180 300 L 184.628906 300.386719 L 189.257812 301.542969 L 193.886719 303.472656 L 198.519531 306.171875 L 203.148438 309.644531 L 207.777344 313.890625 L 212.40625 318.90625 L 217.035156 324.691406 L 221.664062 331.25 L 226.292969 338.582031 L 230.925781 346.683594 L 235.554688 355.554688 "/>
<path style="fill:none;stroke-width:1.5;stroke-linecap:round;stroke-linejoin:round;stroke:rgb(89.411765%,10.196078%,10.980392%);stroke-opacity:1;stroke-miterlimit:10;" d="M 124.445312 244.445312 L 129.074219 244.636719 L 133.707031 245.214844 L 138.335938 246.179688 L 142.964844 247.53125 L 147.59375 249.265625 L 152.222656 251.390625 L 156.851562 253.898438 L 161.480469 256.789062 L 166.113281 260.070312 L 170.742188 263.734375 L 175.371094 267.785156 L 180 272.222656 L 184.628906 277.042969 L 189.257812 282.253906 L 193.886719 287.847656 L 198.519531 293.828125 L 203.148438 300.191406 L 207.777344 306.945312 L 212.40625 314.082031 L 217.035156 321.605469 L 221.664062 329.515625 L 226.292969 337.808594 L 230.925781 346.488281 L 235.554688 355.554688 "/>
<path style="fill:none;stroke-width:1.5;stroke-linecap:round;stroke-linejoin:round;stroke:rgb(89.411765%,10.196078%,10.980392%);stroke-opacity:1;stroke-miterlimit:10;" d="M 124.445312 300 L 127.53125 296.914062 L 130.621094 293.828125 L 136.792969 287.65625 L 139.878906 284.566406 L 152.222656 272.222656 "/>
<path style="fill:none;stroke-width:2.25;stroke-linecap:round;stroke-linejoin:round;stroke:rgb(20%,20%,20%);stroke-opacity:1;stroke-miterlimit:10;" d="M 305.917969 305.917969 L 305.917969 317.753906 L 294.082031 317.753906 L 294.082031 305.917969 L 282.246094 305.917969 L 282.246094 294.082031 L 294.082031 294.082031 L 294.082031 282.246094 L 305.917969 282.246094 L 305.917969 294.082031 L 317.753906 294.082031 L 317.753906 305.917969 L 305.917969 305.917969 "/>
<path style="fill:none;stroke-width:2.25;stroke-linecap:round;stroke-linejoin:round;stroke:rgb(20%,20%,20%);stroke-opacity:1;stroke-miterlimit:10;" d="M 305.917969 341.429688 L 305.917969 353.265625 L 294.082031 353.265625 L 294.082031 341.429688 L 270.410156 341.429688 L 270.410156 329.589844 L 258.574219 329.589844 L 258.574219 305.917969 L 246.738281 305.917969 L 246.738281 294.082031 L 258.574219 294.082031 L 258.574219 270.410156 L 270.410156 270.410156 L 270.410156 258.570312 L 294.082031 258.570312 L 294.082031 246.734375 L 305.917969 246.734375 L 305.917969 258.570312 L 329.589844 258.570312 L 329.589844 270.410156 L 341.425781 270.410156 L 341.425781 294.082031 L 353.261719 294.082031 L 353.261719 305.917969 L 341.425781 305.917969 L 341.425781 329.589844 L 329.589844 329.589844 L 329.589844 341.429688 L 305.917969 341.429688 "/>
<path style="fill:none;stroke-width:1.5;stroke-linecap:round;stroke-linejoin:round;stroke:rgb(89.411765%,10.196078%,10.980392%);stroke-opacity:1;stroke-miterlimit:10;" d="M 305.917969 305.917969 L 305.5 307.308594 L 305.757812 309.464844 L 306.253906 312.039062 L 306.558594 314.6875 L 306.238281 317.078125 L 304.90625 318.875 L 302.675781 319.957031 L 300 320.316406 L 297.324219 319.957031 L 295.09375 318.875 L 293.761719 317.078125 L 293.441406 314.6875 L 293.746094 312.039062 L 294.242188 309.464844 L 294.5 307.308594 L 294.082031 305.917969 L 292.691406 305.503906 L 290.535156 305.757812 L 287.964844 306.253906 L 285.3125 306.558594 L 282.925781 306.238281 L 281.125 304.90625 L 280.046875 302.679688 L 279.683594 300 L 280.046875 297.320312 L 281.125 295.09375 L 282.925781 293.761719 L 285.3125 293.441406 L 287.964844 293.746094 L 290.535156 294.242188 L 292.691406 294.496094 L 294.082031 294.082031 L 294.5 292.691406 L 294.242188 290.535156 L 293.746094 287.960938 L 293.441406 285.3125 L 293.761719 282.921875 L 295.09375 281.125 L 297.324219 280.042969 L 300 279.683594 L 302.675781 280.042969 L 304.90625 281.125 L 306.238281 282.921875 L 306.558594 285.3125 L 306.253906 287.960938 L 305.757812 290.535156 L 305.5 292.691406 L 305.917969 294.082031 L 307.308594 294.496094 L 309.464844 294.242188 L 312.035156 293.746094 L 314.6875 293.441406 L 317.074219 293.761719 L 318.875 295.09375 L 319.953125 297.320312 L 320.316406 300 L 319.953125 302.679688 L 318.875 304.90625 L 317.074219 306.238281 L 314.6875 306.558594 L 312.035156 306.253906 L 309.464844 305.757812 L 307.308594 305.503906 L 305.917969 305.917969 "/>
<path style="fill:none;stroke-width:1.5;stroke-linecap:round;stroke-linejoin:round;stroke:rgb(89.411765%,10.196078%,10.980392%);stroke-opacity:1;stroke-miterlimit:10;" d="M 305.917969 341.429688 L 305.707031 343.277344 L 306.050781 345.671875 L 306.511719 348.304688 L 306.65625 350.867188 L 306.050781 353.058594 L 304.363281 354.605469 L 301.871094 355.4375 L 299.054688 355.554688 L 296.402344 354.960938 L 294.390625 353.652344 L 293.441406 351.652344 L 293.382812 349.179688 L 293.789062 346.539062 L 294.21875 344.03125 L 294.242188 341.964844 L 293.449219 340.625 L 291.800781 340.027344 L 289.488281 340.007812 L 286.703125 340.417969 L 283.644531 341.085938 L 280.5 341.859375 L 277.46875 342.554688 L 274.734375 342.972656 L 272.488281 342.921875 L 270.921875 342.195312 L 270.207031 340.609375 L 270.261719 338.246094 L 270.679688 335.511719 L 271.046875 332.824219 L 270.945312 330.605469 L 269.960938 329.265625 L 267.988281 328.914062 L 265.410156 329.171875 L 262.644531 329.621094 L 260.113281 329.84375 L 258.234375 329.421875 L 257.238281 328.121094 L 256.984375 326.078125 L 257.265625 323.484375 L 257.890625 320.53125 L 258.660156 317.40625 L 259.382812 314.296875 L 259.894531 311.398438 L 260.039062 308.90625 L 259.652344 307.015625 L 258.574219 305.917969 L 256.722656 305.707031 L 254.332031 306.050781 L 251.699219 306.511719 L 249.132812 306.65625 L 246.945312 306.050781 L 245.398438 304.363281 L 244.566406 301.871094 L 244.445312 299.054688 L 245.042969 296.402344 L 246.351562 294.390625 L 248.347656 293.4375 L 250.820312 293.382812 L 253.464844 293.789062 L 255.972656 294.21875 L 258.035156 294.242188 L 259.375 293.449219 L 259.976562 291.800781 L 259.992188 289.488281 L 259.585938 286.703125 L 258.914062 283.644531 L 258.140625 280.5 L 257.445312 277.46875 L 257.027344 274.734375 L 257.082031 272.488281 L 257.808594 270.917969 L 259.394531 270.207031 L 261.753906 270.257812 L 264.488281 270.679688 L 267.175781 271.046875 L 269.398438 270.945312 L 270.734375 269.960938 L 271.085938 267.988281 L 270.828125 265.410156 L 270.378906 262.644531 L 270.15625 260.113281 L 270.578125 258.230469 L 271.882812 257.238281 L 273.921875 256.980469 L 276.515625 257.265625 L 279.46875 257.890625 L 282.597656 258.660156 L 285.703125 259.382812 L 288.601562 259.894531 L 291.09375 260.035156 L 292.984375 259.648438 L 294.082031 258.570312 L 294.292969 256.722656 L 293.949219 254.328125 L 293.488281 251.695312 L 293.34375 249.132812 L 293.949219 246.941406 L 295.636719 245.394531 L 298.128906 244.5625 L 300.945312 244.445312 L 303.597656 245.039062 L 305.609375 246.347656 L 306.558594 248.347656 L 306.617188 250.820312 L 306.210938 253.460938 L 305.78125 255.96875 L 305.757812 258.035156 L 306.550781 259.375 L 308.199219 259.972656 L 310.511719 259.992188 L 313.296875 259.582031 L 316.355469 258.914062 L 319.5 258.140625 L 322.53125 257.445312 L 325.265625 257.027344 L 327.511719 257.078125 L 329.078125 257.804688 L 329.792969 259.390625 L 329.738281 261.753906 L 329.320312 264.488281 L 328.953125 267.175781 L 329.054688 269.394531 L 330.039062 270.734375 L 332.011719 271.085938 L 334.589844 270.828125 L 337.355469 270.378906 L 339.886719 270.15625 L 341.765625 270.578125 L 342.761719 271.878906 L 343.015625 273.921875 L 342.734375 276.515625 L 342.109375 279.46875 L 341.339844 282.59375 L 340.617188 285.703125 L 340.105469 288.601562 L 339.960938 291.09375 L 340.347656 292.984375 L 341.425781 294.082031 L 343.277344 294.292969 L 345.667969 293.949219 L 348.300781 293.488281 L 350.867188 293.34375 L 353.054688 293.949219 L 354.601562 295.636719 L 355.433594 298.128906 L 355.554688 300.945312 L 354.957031 303.597656 L 353.648438 305.609375 L 351.652344 306.5625 L 349.179688 306.617188 L 346.535156 306.210938 L 344.027344 305.78125 L 341.964844 305.757812 L 340.625 306.550781 L 340.023438 308.199219 L 340.007812 310.511719 L 340.414062 313.296875 L 341.085938 316.355469 L 341.859375 319.5 L 342.554688 322.53125 L 342.972656 325.265625 L 342.917969 327.511719 L 342.191406 329.082031 L 340.605469 329.792969 L 338.246094 329.742188 L 335.511719 329.320312 L 332.824219 328.953125 L 330.601562 329.054688 L 329.265625 330.039062 L 328.914062 332.011719 L 329.171875 334.589844 L 329.621094 337.355469 L 329.84375 339.886719 L 329.421875 341.769531 L 328.117188 342.761719 L 326.078125 343.019531 L 323.484375 342.734375 L 320.53125 342.109375 L 317.402344 341.339844 L 314.296875 340.617188 L 311.398438 340.105469 L 308.90625 339.964844 L 307.015625 340.351562 L 305.917969 341.429688 "/>
</g>
</svg>
