<?xml version="1.0" encoding="UTF-8"?>
<svg xmlns="http://www.w3.org/2000/svg" xmlns:xlink="http://www.w3.org/1999/xlink" width="360pt" height="360pt" viewBox="0 0 360 360" version="1.1">
<g id="surface16">
<rect x="0" y="0" width="360" height="360" style="fill:rgb(100%,100%,100%);fill-opacity:1;stroke:none;"/>
<path style="fill:none;stroke-width:2.25;stroke-linecap:round;stroke-linejoin:round;stroke:rgb(20%,20%,20%);stroke-opacity:1;stroke-miterlimit:10;" d="M 4.445312 115.554688 L 32.222656 115.121094 L 60 108.609375 L 87.777344 80.398438 L 115.554688 4.445312 "/>
<path style="fill:none;stroke-width:1.5;stroke-linecap:round;stroke-linejoin:round;stroke:rgb(89.411765%,10.196078%,10.980392%);stroke-opacity:1;stroke-miterlimit:10;" d="M 4.445312 115.554688 L 16.164062 115.371094 L 22.242188 115.183594 L 26.582031 114.925781 L 30.488281 114.578125 L 33.960938 114.144531 L 37.429688 113.617188 L 40.902344 112.992188 L 44.375 112.273438 L 47.847656 111.460938 L 51.320312 110.304688 L 54.792969 108.816406 L 58.265625 106.984375 L 61.734375 104.8125 L 65.207031 102.304688 L 68.679688 99.457031 L 72.152344 96.269531 L 75.625 92.742188 L 79.097656 88.46875 L 82.570312 83.449219 L 86.039062 77.6875 L 89.511719 71.175781 L 93.417969 62.734375 L 97.757812 52.355469 L 103.835938 36.488281 L 115.554688 4.445312 "/>
<path style="fill:none;stroke-width:2.25;stroke-linecap:round;stroke-linejoin:round;stroke:rgb(20%,20%,20%);stroke-opacity:1;stroke-miterlimit:10;" d="M 124.445312 60 L 146.667969 7.160156 L 168.890625 27.34375 L 191.109375 92.65625 L 213.332031 112.839844 L 235.554688 60 "/>
<path style="fill:none;stroke-width:1.5;stroke-linecap:round;stroke-linejoin:round;stroke:rgb(89.411765%,10.196078%,10.980392%);stroke-opacity:1;stroke-miterlimit:10;" d="M 124.445312 60 L 133.820312 37.707031 L 138.679688 27.292969 L 142.152344 21.316406 L 145.277344 17.308594 L 148.054688 15.269531 L 150.832031 14.367188 L 153.609375 14.609375 L 156.390625 15.992188 L 159.167969 18.515625 L 161.945312 21.742188 L 164.722656 25.675781 L 167.5 30.3125 L 170.277344 35.65625 L 173.054688 41.707031 L 175.832031 48.460938 L 178.609375 55.917969 L 181.390625 64.082031 L 184.167969 71.539062 L 186.945312 78.292969 L 189.722656 84.34375 L 192.5 89.6875 L 195.277344 94.324219 L 198.054688 98.257812 L 200.832031 101.484375 L 203.609375 104.007812 L 206.390625 105.390625 L 209.167969 105.632812 L 211.945312 104.730469 L 214.722656 102.691406 L 217.847656 98.683594 L 221.320312 92.707031 L 226.179688 82.292969 L 235.554688 60 "/>
<path style="fill:none;stroke-width:2.25;stroke-linecap:round;stroke-linejoin:round;stroke:rgb(20%,20%,20%);stroke-opacity:1;stroke-miterlimit:10;" d="M 244.445312 60 L 250 7.160156 L 255.554688 27.34375 L 261.109375 92.65625 L 266.667969 112.839844 L 277.777344 7.160156 L 283.332031 27.34375 L 288.890625 92.65625 L 294.445312 112.839844 L 305.554688 7.160156 L 311.109375 27.34375 L 316.667969 92.65625 L 322.222656 112.839844 L 333.332031 7.160156 L 338.890625 27.34375 L 344.445312 92.65625 L 350 112.839844 L 355.554688 60 "/>
<path style="fill:none;stroke-width:1.5;stroke-linecap:round;stroke-linejoin:round;stroke:rgb(89.411765%,10.196078%,10.980392%);stroke-opacity:1;stroke-miterlimit:10;" d="M 244.445312 60 L 246.789062 37.707031 L 248.003906 27.292969 L 248.871094 21.316406 L 249.652344 17.308594 L 250.347656 15.269531 L 251.042969 14.367188 L 251.734375 14.609375 L 252.429688 15.992188 L 253.125 18.515625 L 253.820312 21.742188 L 254.515625 25.675781 L 255.207031 30.3125 L 255.902344 35.65625 L 256.597656 41.707031 L 257.292969 48.460938 L 257.984375 55.917969 L 258.679688 64.082031 L 259.375 71.539062 L 260.070312 78.292969 L 260.765625 84.34375 L 261.457031 89.6875 L 262.152344 94.324219 L 262.847656 98.257812 L 263.542969 101.484375 L 264.234375 104.007812 L 264.929688 105.390625 L 265.625 105.632812 L 266.320312 104.730469 L 267.015625 102.691406 L 267.707031 99.507812 L 268.402344 95.183594 L 269.097656 89.722656 L 269.792969 83.117188 L 270.484375 76.511719 L 271.875 63.300781 L 272.570312 56.699219 L 273.265625 50.09375 L 273.957031 43.488281 L 275.347656 30.277344 L 276.042969 24.816406 L 276.734375 20.492188 L 277.429688 17.308594 L 278.125 15.269531 L 278.820312 14.367188 L 279.515625 14.609375 L 280.207031 15.992188 L 280.902344 18.515625 L 281.597656 21.742188 L 282.292969 25.675781 L 282.984375 30.3125 L 283.679688 35.65625 L 284.375 41.707031 L 285.070312 48.460938 L 285.765625 55.917969 L 286.457031 64.082031 L 287.152344 71.539062 L 287.847656 78.292969 L 288.542969 84.34375 L 289.234375 89.6875 L 289.929688 94.324219 L 290.625 98.257812 L 291.320312 101.484375 L 292.015625 104.007812 L 292.707031 105.390625 L 293.402344 105.632812 L 294.097656 104.730469 L 294.792969 102.691406 L 295.484375 99.507812 L 296.179688 95.183594 L 296.875 89.722656 L 298.265625 76.511719 L 298.957031 69.90625 L 299.652344 63.300781 L 300.347656 56.699219 L 301.042969 50.09375 L 301.734375 43.488281 L 303.125 30.277344 L 303.820312 24.816406 L 304.515625 20.492188 L 305.207031 17.308594 L 305.902344 15.269531 L 306.597656 14.367188 L 307.292969 14.609375 L 307.984375 15.992188 L 308.679688 18.515625 L 309.375 21.742188 L 310.070312 25.675781 L 310.765625 30.3125 L 311.457031 35.65625 L 312.152344 41.707031 L 312.847656 48.460938 L 313.542969 55.917969 L 314.234375 64.082031 L 314.929688 71.539062 L 315.625 78.292969 L 316.320312 84.34375 L 317.015625 89.6875 L 317.707031 94.324219 L 318.402344 98.257812 L 319.097656 101.484375 L 319.792969 104.007812 L 320.484375 105.390625 L 321.179688 105.632812 L 321.875 104.730469 L 322.570312 102.691406 L 323.265625 99.507812 L 323.957031 95.183594 L 324.652344 89.722656 L 326.042969 76.511719 L 326.734375 69.90625 L 327.429688 63.300781 L 328.125 56.699219 L 329.515625 43.488281 L 330.207031 36.882812 L 330.902344 30.277344 L 331.597656 24.816406 L 332.292969 20.492188 L 332.984375 17.308594 L 333.679688 15.269531 L 334.375 14.367188 L 335.070312 14.609375 L 335.765625 15.992188 L 336.457031 18.515625 L 337.152344 21.742188 L 337.847656 25.675781 L 338.542969 30.3125 L 339.234375 35.65625 L 339.929688 41.707031 L 340.625 48.460938 L 341.320312 55.917969 L 342.015625 64.082031 L 342.707031 71.539062 L 343.402344 78.292969 L 344.097656 84.34375 L 344.792969 89.6875 L 345.484375 94.324219 L 346.179688 98.257812 L 346.875 101.484375 L 347.570312 104.007812 L 348.265625 105.390625 L 348.957031 105.632812 L 349.652344 104.730469 L 350.347656 102.691406 L 351.128906 98.683594 L 351.996094 92.707031 L 353.210938 82.292969 L 355.554688 60 "/>
<path style="fill:none;stroke-width:2.25;stroke-linecap:round;stroke-linejoin:round;stroke:rgb(20%,20%,20%);stroke-opacity:1;stroke-miterlimit:10;" d="M 4.445312 124.445312 L 115.554688 124.445312 L 115.554688 235.554688 L 4.445312 235.554688 L 4.445312 124.445312 "/>
<path style="fill:none;stroke-width:1.5;stroke-linecap:round;stroke-linejoin:round;stroke:rgb(89.411765%,10.196078%,10.980392%);stroke-opacity:1;stroke-miterlimit:10;" d="M 53.054688 124.445312 L 66.945312 124.445312 L 79.097656 126.179688 L 89.511719 129.652344 L 98.191406 134.859375 L 105.136719 141.804688 L 110.34375 150.484375 L 113.816406 160.902344 L 115.554688 173.054688 L 115.554688 186.945312 L 113.816406 199.097656 L 110.34375 209.515625 L 105.136719 218.195312 L 98.191406 225.140625 L 89.511719 230.347656 L 79.097656 233.820312 L 66.945312 235.554688 L 53.054688 235.554688 L 40.902344 233.820312 L 30.488281 230.347656 L 21.808594 225.140625 L 14.863281 218.195312 L 9.65625 209.515625 L 6.183594 199.097656 L 4.445312 186.945312 L 4.445312 173.054688 L 6.183594 160.902344 L 9.65625 150.484375 L 14.863281 141.804688 L 21.808594 134.859375 L 30.488281 129.652344 L 40.902344 126.179688 L 53.054688 124.445312 "/>
<path style="fill:none;stroke-width:2.25;stroke-linecap:round;stroke-linejoin:round;stroke:rgb(20%,20%,20%);stroke-opacity:1;stroke-miterlimit:10;" d="M 198.519531 198.519531 L 198.519531 235.554688 L 161.480469 235.554688 L 161.480469 198.519531 L 124.445312 198.519531 L 124.445312 161.480469 L 161.480469 161.480469 L 161.480469 124.445312 L 198.519531 124.445312 L 198.519531 161.480469 L 235.554688 161.480469 L 235.554688 198.519531 L 198.519531 198.519531 "/>
<path style="fill:none;stroke-width:1.5;stroke-linecap:round;stroke-linejoin:round;stroke:rgb(89.411765%,10.196078%,10.980392%);stroke-opacity:1;stroke-miterlimit:10;" d="M 198.519531 214.722656 L 198.519531 219.351562 L 197.9375 223.402344 L 196.78125 226.875 L 195.046875 229.769531 L 192.730469 232.082031 L 189.835938 233.820312 L 186.367188 234.976562 L 182.316406 235.554688 L 177.683594 235.554688 L 173.632812 234.976562 L 170.164062 233.820312 L 167.269531 232.082031 L 164.953125 229.769531 L 163.21875 226.875 L 162.0625 223.402344 L 161.480469 219.351562 L 161.480469 214.722656 L 160.902344 210.671875 L 159.746094 207.199219 L 158.011719 204.304688 L 155.695312 201.992188 L 152.800781 200.253906 L 149.328125 199.097656 L 145.277344 198.519531 L 140.648438 198.519531 L 136.597656 197.941406 L 133.125 196.78125 L 130.234375 195.046875 L 127.917969 192.730469 L 126.183594 189.839844 L 125.023438 186.367188 L 124.445312 182.316406 L 124.445312 177.683594 L 125.023438 173.632812 L 126.183594 170.160156 L 127.917969 167.269531 L 130.234375 164.953125 L 133.125 163.21875 L 136.597656 162.058594 L 140.648438 161.480469 L 145.277344 161.480469 L 149.328125 160.902344 L 152.800781 159.746094 L 155.695312 158.007812 L 158.011719 155.695312 L 159.746094 152.800781 L 160.902344 149.328125 L 161.480469 145.277344 L 161.480469 140.648438 L 162.0625 136.597656 L 163.21875 133.125 L 164.953125 130.230469 L 167.269531 127.917969 L 170.164062 126.179688 L 173.632812 125.023438 L 177.683594 124.445312 L 182.316406 124.445312 L 186.367188 125.023438 L 189.835938 126.179688 L 192.730469 127.917969 L 195.046875 130.230469 L 196.78125 133.125 L 197.9375 136.597656 L 198.519531 140.648438 L 198.519531 145.277344 L 199.097656 149.328125 L 200.253906 152.800781 L 201.988281 155.695312 L 204.304688 158.007812 L 207.199219 159.746094 L 210.671875 160.902344 L 214.722656 161.480469 L 219.351562 161.480469 L 223.402344 162.058594 L 226.875 163.21875 L 229.765625 164.953125 L 232.082031 167.269531 L 233.816406 170.160156 L 234.976562 173.632812 L 235.554688 177.683594 L 235.554688 182.316406 L 234.976562 186.367188 L 233.816406 189.839844 L 232.082031 192.730469 L 229.765625 195.046875 L 226.875 196.78125 L 223.402344 197.941406 L 219.351562 198.519531 L 214.722656 198.519531 L 210.671875 199.097656 L 207.199219 200.253906 L 204.304688 201.992188 L 201.988281 204.304688 L 200.253906 207.199219 L 199.097656 210.671875 L 198.519531 214.722656 "/>
<path style="fill:none;stroke-width:2.25;stroke-linecap:round;stroke-linejoin:round;stroke:rgb(20%,20%,20%);stroke-opacity:1;stroke-miterlimit:10;" d="M 306.171875 223.210938 L 306.171875 235.554688 L 293.828125 235.554688 L 293.828125 223.210938 L 269.136719 223.210938 L 269.136719 210.863281 L 256.792969 210.863281 L 256.792969 186.171875 L 244.445312 186.171875 L 244.445312 173.828125 L 256.792969 173.828125 L 256.792969 149.136719 L 269.136719 149.136719 L 269.136719 136.789062 L 293.828125 136.789062 L 293.828125 124.445312 L 306.171875 124.445312 L 306.171875 136.789062 L 330.863281 136.789062 L 330.863281 149.136719 L 343.207031 149.136719 L 343.207031 173.828125 L 355.554688 173.828125 L 355.554688 186.171875 L 343.207031 186.171875 L 343.207031 210.863281 L 330.863281 210.863281 L 330.863281 223.210938 L 306.171875 223.210938 "/>
<path style="fill:none;stroke-width:1.5;stroke-linecap:round;stroke-linejoin:round;stroke:rgb(89.411765%,10.196078%,10.980392%);stroke-opacity:1;stroke-miterlimit:10;" d="M 306.171875 228.609375 L 306.171875 230.15625 L 305.980469 231.503906 L 305.59375 232.660156 L 305.015625 233.625 L 304.242188 234.398438 L 303.277344 234.976562 L 302.121094 235.363281 L 300.773438 235.554688 L 299.226562 235.554688 L 297.878906 235.363281 L 296.722656 234.976562 L 295.757812 234.398438 L 294.984375 233.625 L 294.40625 232.660156 L 294.019531 231.503906 L 293.828125 230.15625 L 293.828125 228.609375 L 293.632812 227.261719 L 293.25 226.101562 L 292.671875 225.140625 L 291.898438 224.367188 L 290.933594 223.789062 L 289.777344 223.402344 L 288.425781 223.210938 L 274.539062 223.210938 L 273.1875 223.015625 L 272.03125 222.632812 L 271.066406 222.050781 L 270.292969 221.28125 L 269.714844 220.316406 L 269.328125 219.160156 L 269.136719 217.808594 L 269.136719 216.265625 L 268.945312 214.914062 L 268.558594 213.757812 L 267.980469 212.792969 L 267.207031 212.023438 L 266.242188 211.441406 L 265.085938 211.058594 L 263.734375 210.863281 L 262.191406 210.863281 L 260.84375 210.671875 L 259.683594 210.285156 L 258.722656 209.707031 L 257.949219 208.933594 L 257.371094 207.96875 L 256.984375 206.8125 L 256.792969 205.464844 L 256.792969 191.574219 L 256.597656 190.222656 L 256.214844 189.066406 L 255.632812 188.101562 L 254.863281 187.332031 L 253.898438 186.75 L 252.742188 186.367188 L 251.390625 186.171875 L 249.847656 186.171875 L 248.496094 185.980469 L 247.339844 185.59375 L 246.375 185.015625 L 245.605469 184.242188 L 245.023438 183.28125 L 244.640625 182.121094 L 244.445312 180.773438 L 244.445312 179.226562 L 244.640625 177.878906 L 245.023438 176.71875 L 245.605469 175.757812 L 246.375 174.984375 L 247.339844 174.40625 L 248.496094 174.019531 L 249.847656 173.828125 L 251.390625 173.828125 L 252.742188 173.632812 L 253.898438 173.25 L 254.863281 172.667969 L 255.632812 171.898438 L 256.214844 170.933594 L 256.597656 169.777344 L 256.792969 168.425781 L 256.792969 154.535156 L 256.984375 153.1875 L 257.371094 152.03125 L 257.949219 151.066406 L 258.722656 150.292969 L 259.683594 149.714844 L 260.84375 149.328125 L 262.191406 149.136719 L 263.734375 149.136719 L 265.085938 148.941406 L 266.242188 148.558594 L 267.207031 147.976562 L 267.980469 147.207031 L 268.558594 146.242188 L 268.945312 145.085938 L 269.136719 143.734375 L 269.136719 142.191406 L 269.328125 140.839844 L 269.714844 139.683594 L 270.292969 138.71875 L 271.066406 137.949219 L 272.03125 137.367188 L 273.1875 136.984375 L 274.539062 136.789062 L 288.425781 136.789062 L 289.777344 136.597656 L 290.933594 136.210938 L 291.898438 135.632812 L 292.671875 134.859375 L 293.25 133.898438 L 293.632812 132.738281 L 293.828125 131.390625 L 293.828125 129.84375 L 294.019531 128.496094 L 294.40625 127.339844 L 294.984375 126.375 L 295.757812 125.601562 L 296.722656 125.023438 L 297.878906 124.636719 L 299.226562 124.445312 L 300.773438 124.445312 L 302.121094 124.636719 L 303.277344 125.023438 L 304.242188 125.601562 L 305.015625 126.375 L 305.59375 127.339844 L 305.980469 128.496094 L 306.171875 129.84375 L 306.171875 131.390625 L 306.367188 132.738281 L 306.75 133.898438 L 307.328125 134.859375 L 308.101562 135.632812 L 309.066406 136.210938 L 310.222656 136.597656 L 311.574219 136.789062 L 325.460938 136.789062 L 326.8125 136.984375 L 327.96875 137.367188 L 328.933594 137.949219 L 329.707031 138.71875 L 330.285156 139.683594 L 330.671875 140.839844 L 330.863281 142.191406 L 330.863281 143.734375 L 331.054688 145.085938 L 331.441406 146.242188 L 332.019531 147.207031 L 332.792969 147.976562 L 333.757812 148.558594 L 334.914062 148.941406 L 336.265625 149.136719 L 337.808594 149.136719 L 339.15625 149.328125 L 340.316406 149.714844 L 341.277344 150.292969 L 342.050781 151.066406 L 342.628906 152.03125 L 343.015625 153.1875 L 343.207031 154.535156 L 343.207031 168.425781 L 343.402344 169.777344 L 343.785156 170.933594 L 344.367188 171.898438 L 345.136719 172.667969 L 346.101562 173.25 L 347.257812 173.632812 L 348.609375 173.828125 L 350.152344 173.828125 L 351.503906 174.019531 L 352.660156 174.40625 L 353.625 174.984375 L 354.394531 175.757812 L 354.976562 176.71875 L 355.359375 177.878906 L 355.554688 179.226562 L 355.554688 180.773438 L 355.359375 182.121094 L 354.976562 183.28125 L 354.394531 184.242188 L 353.625 185.015625 L 352.660156 185.59375 L 351.503906 185.980469 L 350.152344 186.171875 L 348.609375 186.171875 L 347.257812 186.367188 L 346.101562 186.75 L 345.136719 187.332031 L 344.367188 188.101562 L 343.785156 189.066406 L 343.402344 190.222656 L 343.207031 191.574219 L 343.207031 205.464844 L 343.015625 206.8125 L 342.628906 207.96875 L 342.050781 208.933594 L 341.277344 209.707031 L 340.316406 210.285156 L 339.15625 210.671875 L 337.808594 210.863281 L 336.265625 210.863281 L 334.914062 211.058594 L 333.757812 211.441406 L 332.792969 212.023438 L 332.019531 212.792969 L 331.441406 213.757812 L 331.054688 214.914062 L 330.863281 216.265625 L 330.863281 217.808594 L 330.671875 219.160156 L 330.285156 220.316406 L 329.707031 221.28125 L 328.933594 222.050781 L 327.96875 222.632812 L 326.8125 223.015625 L 325.460938 223.210938 L 311.574219 223.210938 L 310.222656 223.402344 L 309.066406 223.789062 L 308.101562 224.367188 L 307.328125 225.140625 L 306.75 226.101562 L 306.367188 227.261719 L 306.171875 228.609375 "/>
<path style="fill:none;stroke-width:2.25;stroke-linecap:round;stroke-linejoin:round;stroke:rgb(20%,20%,20%);stroke-opacity:1;stroke-miterlimit:10;" d="M 4.445312 355.554688 L 32.222656 355.121094 L 60 348.609375 L 87.777344 320.398438 L 115.554688 244.445312 "/>
<path style="fill:none;stroke-width:2.25;stroke-linecap:round;stroke-linejoin:round;stroke:rgb(20%,20%,20%);stroke-opacity:1;stroke-miterlimit:10;" d="M 4.445312 300 L 26.667969 247.164062 L 48.890625 267.34375 L 71.109375 332.65625 L 93.332031 352.835938 L 115.554688 300 "/>
<path style="fill:none;stroke-width:1.5;stroke-linecap:round;stroke-linejoin:round;stroke:rgb(89.411765%,10.196078%,10.980392%);stroke-opacity:1;stroke-miterlimit:10;" d="M 4.445312 355.554688 L 16.164062 355.371094 L 22.242188 355.183594 L 26.582031 354.925781 L 30.488281 354.578125 L 33.960938 354.144531 L 37.429688 353.617188 L 40.902344 352.992188 L 44.375 352.273438 L 47.847656 351.460938 L 51.320312 350.304688 L 54.792969 348.816406 L 58.265625 346.984375 L 61.734375 344.8125 L 65.207031 342.304688 L 68.679688 339.457031 L 72.152344 336.269531 L 75.625 332.742188 L 79.097656 328.46875 L 82.570312 323.449219 L 86.039062 317.6875 L 89.511719 311.175781 L 93.417969 302.734375 L 97.757812 292.355469 L 103.835938 276.488281 L 115.554688 244.445312 "/>
<path style="fill:none;stroke-width:1.5;stroke-linecap:round;stroke-linejoin:round;stroke:rgb(89.411765%,10.196078%,10.980392%);stroke-opacity:1;stroke-miterlimit:10;" d="M 4.445312 300 L 13.820312 277.710938 L 18.683594 267.292969 L 22.152344 261.320312 L 25.277344 257.3125 L 28.058594 255.269531 L 30.835938 254.371094 L 33.613281 254.609375 L 36.390625 255.992188 L 39.167969 258.515625 L 41.945312 261.742188 L 44.722656 265.675781 L 47.5 270.316406 L 50.277344 275.65625 L 53.054688 281.707031 L 55.832031 288.460938 L 58.609375 295.917969 L 61.390625 304.082031 L 64.167969 311.539062 L 66.945312 318.292969 L 69.722656 324.34375 L 72.5 329.683594 L 75.277344 334.324219 L 78.054688 338.257812 L 80.832031 341.484375 L 83.609375 344.007812 L 86.386719 345.390625 L 89.164062 345.628906 L 91.941406 344.730469 L 94.722656 342.6875 L 97.847656 338.679688 L 101.316406 332.707031 L 106.179688 322.289062 L 115.554688 300 "/>
<path style="fill:none;stroke-width:2.25;stroke-linecap:round;stroke-linejoin:round;stroke:rgb(20%,20%,20%);stroke-opacity:1;stroke-miterlimit:10;" d="M 124.445312 355.554688 L 152.222656 313.890625 L 180 300 L 207.777344 313.890625 L 235.554688 355.554688 "/>
<path style="fill:none;stroke-width:2.25;stroke-linecap:round;stroke-linejoin:round;stroke:rgb(20%,20%,20%);stroke-opacity:1;stroke-miterlimit:10;" d="M 124.445312 244.445312 L 152.222656 251.390625 L 180 272.222656 L 207.777344 306.945312 L 235.554688 355.554688 "/>
<path style="fill:none;stroke-width:2.25;stroke-linecap:round;stroke-linejoin:round;stroke:rgb(20%,20%,20%);stroke-opacity:1;stroke-miterlimit:10;" d="M 124.445312 300 L 152.222656 272.222656 "/>
<path style="fill:none;stroke-width:1.5;stroke-linecap:round;stroke-linejoin:round;stroke:rgb(89.411765%,10.196078%,10.980392%);stroke-opacity:1;stroke-miterlimit:10;" d="M 124.445312 355.554688 L 136.164062 337.976562 L 142.242188 329.296875 L 146.582031 323.65625 L 150.488281 319.097656 L 153.960938 315.625 L 157.429688 312.585938 L 160.902344 309.984375 L 164.375 307.8125 L 167.847656 306.078125 L 171.320312 304.773438 L 174.792969 303.90625 L 178.265625 303.472656 L 181.734375 303.472656 L 185.207031 303.90625 L 188.679688 304.773438 L 192.152344 306.078125 L 195.625 307.8125 L 199.097656 309.984375 L 202.570312 312.585938 L 206.039062 315.625 L 209.511719 319.097656 L 213.417969 323.65625 L 217.757812 329.296875 L 223.835938 337.976562 L 235.554688 355.554688 "/>
<path style="fill:none;stroke-width:1.5;stroke-linecap:round;stroke-linejoin:round;stroke:rgb(89.411765%,10.196078%,10.980392%);stroke-opacity:1;stroke-miterlimit:10;" d="M 124.445312 244.445312 L 136.164062 247.375 L 142.242188 249.109375 L 146.582031 250.628906 L 150.488281 252.257812 L 153.960938 253.992188 L 157.429688 255.945312 L 160.902344 258.117188 L 164.375 260.503906 L 167.847656 263.109375 L 171.320312 265.929688 L 174.792969 268.96875 L 178.265625 272.222656 L 181.734375 275.695312 L 185.207031 279.382812 L 188.679688 283.289062 L 192.152344 287.414062 L 195.625 291.753906 L 199.097656 296.3125 L 202.570312 301.085938 L 206.039062 306.078125 L 209.511719 311.285156 L 213.417969 317.46875 L 217.757812 324.632812 L 223.835938 335.046875 L 235.554688 355.554688 "/>
<path style="fill:none;stroke-width:1.5;stroke-linecap:round;stroke-linejoin:round;stroke:rgb(89.411765%,10.196078%,10.980392%);stroke-opacity:1;stroke-miterlimit:10;" d="M 124.445312 300 L 152.222656 272.222656 "/>
<path style="fill:none;stroke-width:2.25;stroke-linecap:round;stroke-linejoin:round;stroke:rgb(20%,20%,20%);stroke-opacity:1;stroke-miterlimit:10;" d="M 306.171875 306.171875 L 306.171875 318.519531 L 293.828125 318.519531 L 293.828125 306.171875 L 281.480469 306.171875 L 281.480469 293.828125 L 293.828125 293.828125 L 293.828125 281.480469 L 306.171875 281.480469 L 306.171875 293.828125 L 318.519531 293.828125 L 318.519531 306.171875 L 306.171875 306.171875 "/>
<path style="fill:none;stroke-width:2.25;stroke-linecap:round;stroke-linejoin:round;stroke:rgb(20%,20%,20%);stroke-opacity:1;stroke-miterlimit:10;" d="M 306.171875 343.210938 L 306.171875 355.554688 L 293.828125 355.554688 L 293.828125 343.210938 L 269.136719 343.210938 L 269.136719 330.863281 L 256.792969 330.863281 L 256.792969 306.171875 L 244.445312 306.171875 L 244.445312 293.828125 L 256.792969 293.828125 L 256.792969 269.136719 L 269.136719 269.136719 L 269.136719 256.789062 L 293.828125 256.789062 L 293.828125 244.445312 L 306.171875 244.445312 L 306.171875 256.789062 L 330.863281 256.789062 L 330.863281 269.136719 L 343.207031 269.136719 L 343.207031 293.828125 L 355.554688 293.828125 L 355.554688 306.171875 L 343.207031 306.171875 L 343.207031 330.863281 L 330.863281 330.863281 L 330.863281 343.210938 L 306.171875 343.210938 "/>
<path style="fill:none;stroke-width:1.5;stroke-linecap:round;stroke-linejoin:round;stroke:rgb(89.411765%,10.196078%,10.980392%);stroke-opacity:1;stroke-miterlimit:10;" d="M 306.171875 311.574219 L 306.171875 313.117188 L 305.980469 314.46875 L 305.59375 315.625 L 305.015625 316.589844 L 304.242188 317.359375 L 303.277344 317.941406 L 302.121094 318.324219 L 300.773438 318.519531 L 299.226562 318.519531 L 297.878906 318.324219 L 296.722656 317.941406 L 295.757812 317.359375 L 294.984375 316.589844 L 294.40625 315.625 L 294.019531 314.46875 L 293.828125 313.117188 L 293.828125 311.574219 L 293.632812 310.222656 L 293.25 309.066406 L 292.671875 308.101562 L 291.898438 307.332031 L 290.933594 306.75 L 289.777344 306.367188 L 288.425781 306.171875 L 286.882812 306.171875 L 285.53125 305.980469 L 284.375 305.59375 L 283.410156 305.015625 L 282.640625 304.242188 L 282.0625 303.28125 L 281.675781 302.121094 L 281.480469 300.773438 L 281.480469 299.226562 L 281.675781 297.878906 L 282.0625 296.71875 L 282.640625 295.757812 L 283.410156 294.984375 L 284.375 294.40625 L 285.53125 294.019531 L 286.882812 293.828125 L 288.425781 293.828125 L 289.777344 293.632812 L 290.933594 293.25 L 291.898438 292.667969 L 292.671875 291.898438 L 293.25 290.933594 L 293.632812 289.777344 L 293.828125 288.425781 L 293.828125 286.882812 L 294.019531 285.53125 L 294.40625 284.375 L 294.984375 283.410156 L 295.757812 282.640625 L 296.722656 282.058594 L 297.878906 281.675781 L 299.226562 281.480469 L 300.773438 281.480469 L 302.121094 281.675781 L 303.277344 282.058594 L 304.242188 282.640625 L 305.015625 283.410156 L 305.59375 284.375 L 305.980469 285.53125 L 306.171875 286.882812 L 306.171875 288.425781 L 306.367188 289.777344 L 306.75 290.933594 L 307.328125 291.898438 L 308.101562 292.667969 L 309.066406 293.25 L 310.222656 293.632812 L 311.574219 293.828125 L 313.117188 293.828125 L 314.46875 294.019531 L 315.625 294.40625 L 316.589844 294.984375 L 317.359375 295.757812 L 317.9375 296.71875 L 318.324219 297.878906 L 318.519531 299.226562 L 318.519531 300.773438 L 318.324219 302.121094 L 317.9375 303.28125 L 317.359375 304.242188 L 316.589844 305.015625 L 315.625 305.59375 L 314.46875 305.980469 L 313.117188 306.171875 L 311.574219 306.171875 L 310.222656 306.367188 L 309.066406 306.75 L 308.101562 307.332031 L 307.328125 308.101562 L 306.75 309.066406 L 306.367188 310.222656 L 306.171875 311.574219 "/>
<path style="fill:none;stroke-width:1.5;stroke-linecap:round;stroke-linejoin:round;stroke:rgb(89.411765%,10.196078%,10.980392%);stroke-opacity:1;stroke-miterlimit:10;" d="M 306.171875 348.609375 L 306.171875 350.15625 L 305.980469 351.503906 L 305.59375 352.660156 L 305.015625 353.625 L 304.242188 354.398438 L 303.277344 354.976562 L 302.121094 355.363281 L 300.773438 355.554688 L 299.226562 355.554688 L 297.878906 355.363281 L 296.722656 354.976562 L 295.757812 354.398438 L 294.984375 353.625 L 294.40625 352.660156 L 294.019531 351.503906 L 293.828125 350.15625 L 293.828125 348.609375 L 293.632812 347.261719 L 293.25 346.101562 L 292.671875 345.140625 L 291.898438 344.367188 L 290.933594 343.789062 L 289.777344 343.402344 L 288.425781 343.210938 L 274.539062 343.210938 L 273.1875 343.015625 L 272.03125 342.632812 L 271.066406 342.050781 L 270.292969 341.28125 L 269.714844 340.316406 L 269.328125 339.160156 L 269.136719 337.808594 L 269.136719 336.265625 L 268.945312 334.914062 L 268.558594 333.757812 L 267.980469 332.792969 L 267.207031 332.023438 L 266.242188 331.441406 L 265.085938 331.058594 L 263.734375 330.863281 L 262.191406 330.863281 L 260.84375 330.671875 L 259.683594 330.285156 L 258.722656 329.707031 L 257.949219 328.933594 L 257.371094 327.96875 L 256.984375 326.8125 L 256.792969 325.464844 L 256.792969 311.574219 L 256.597656 310.222656 L 256.214844 309.066406 L 255.632812 308.101562 L 254.863281 307.332031 L 253.898438 306.75 L 252.742188 306.367188 L 251.390625 306.171875 L 249.847656 306.171875 L 248.496094 305.980469 L 247.339844 305.59375 L 246.375 305.015625 L 245.605469 304.242188 L 245.023438 303.28125 L 244.640625 302.121094 L 244.445312 300.773438 L 244.445312 299.226562 L 244.640625 297.878906 L 245.023438 296.71875 L 245.605469 295.757812 L 246.375 294.984375 L 247.339844 294.40625 L 248.496094 294.019531 L 249.847656 293.828125 L 251.390625 293.828125 L 252.742188 293.632812 L 253.898438 293.25 L 254.863281 292.667969 L 255.632812 291.898438 L 256.214844 290.933594 L 256.597656 289.777344 L 256.792969 288.425781 L 256.792969 274.535156 L 256.984375 273.1875 L 257.371094 272.03125 L 257.949219 271.066406 L 258.722656 270.292969 L 259.683594 269.714844 L 260.84375 269.328125 L 262.191406 269.136719 L 263.734375 269.136719 L 265.085938 268.941406 L 266.242188 268.558594 L 267.207031 267.976562 L 267.980469 267.207031 L 268.558594 266.242188 L 268.945312 265.085938 L 269.136719 263.734375 L 269.136719 262.191406 L 269.328125 260.839844 L 269.714844 259.683594 L 270.292969 258.71875 L 271.066406 257.949219 L 272.03125 257.367188 L 273.1875 256.984375 L 274.539062 256.789062 L 288.425781 256.789062 L 289.777344 256.597656 L 290.933594 256.210938 L 291.898438 255.632812 L 292.671875 254.859375 L 293.25 253.898438 L 293.632812 252.738281 L 293.828125 251.390625 L 293.828125 249.84375 L 294.019531 248.496094 L 294.40625 247.339844 L 294.984375 246.375 L 295.757812 245.601562 L 296.722656 245.023438 L 297.878906 244.636719 L 299.226562 244.445312 L 300.773438 244.445312 L 302.121094 244.636719 L 303.277344 245.023438 L 304.242188 245.601562 L 305.015625 246.375 L 305.59375 247.339844 L 305.980469 248.496094 L 306.171875 249.84375 L 306.171875 251.390625 L 306.367188 252.738281 L 306.75 253.898438 L 307.328125 254.859375 L 308.101562 255.632812 L 309.066406 256.210938 L 310.222656 256.597656 L 311.574219 256.789062 L 325.460938 256.789062 L 326.8125 256.984375 L 327.96875 257.367188 L 328.933594 257.949219 L 329.707031 258.71875 L 330.285156 259.683594 L 330.671875 260.839844 L 330.863281 262.191406 L 330.863281 263.734375 L 331.054688 265.085938 L 331.441406 266.242188 L 332.019531 267.207031 L 332.792969 267.976562 L 333.757812 268.558594 L 334.914062 268.941406 L 336.265625 269.136719 L 337.808594 269.136719 L 339.15625 269.328125 L 340.316406 269.714844 L 341.277344 270.292969 L 342.050781 271.066406 L 342.628906 272.03125 L 343.015625 273.1875 L 343.207031 274.535156 L 343.207031 288.425781 L 343.402344 289.777344 L 343.785156 290.933594 L 344.367188 291.898438 L 345.136719 292.667969 L 346.101562 293.25 L 347.257812 293.632812 L 348.609375 293.828125 L 350.152344 293.828125 L 351.503906 294.019531 L 352.660156 294.40625 L 353.625 294.984375 L 354.394531 295.757812 L 354.976562 296.71875 L 355.359375 297.878906 L 355.554688 299.226562 L 355.554688 300.773438 L 355.359375 302.121094 L 354.976562 303.28125 L 354.394531 304.242188 L 353.625 305.015625 L 352.660156 305.59375 L 351.503906 305.980469 L 350.152344 306.171875 L 348.609375 306.171875 L 347.257812 306.367188 L 346.101562 306.75 L 345.136719 307.332031 L 344.367188 308.101562 L 343.785156 309.066406 L 343.402344 310.222656 L 343.207031 311.574219 L 343.207031 325.464844 L 343.015625 326.8125 L 342.628906 327.96875 L 342.050781 328.933594 L 341.277344 329.707031 L 340.316406 330.285156 L 339.15625 330.671875 L 337.808594 330.863281 L 336.265625 330.863281 L 334.914062 331.058594 L 333.757812 331.441406 L 332.792969 332.023438 L 332.019531 332.792969 L 331.441406 333.757812 L 331.054688 334.914062 L 330.863281 336.265625 L 330.863281 337.808594 L 330.671875 339.160156 L 330.285156 340.316406 L 329.707031 341.28125 L 328.933594 342.050781 L 327.96875 342.632812 L 326.8125 343.015625 L 325.460938 343.210938 L 311.574219 343.210938 L 310.222656 343.402344 L 309.066406 343.789062 L 308.101562 344.367188 L 307.328125 345.140625 L 306.75 346.101562 L 306.367188 347.261719 L 306.171875 348.609375 "/>
</g>
</svg>
