<?xml version="1.0" encoding="UTF-8"?>
<svg xmlns="http://www.w3.org/2000/svg" xmlns:xlink="http://www.w3.org/1999/xlink" width="360pt" height="360pt" viewBox="0 0 360 360" version="1.1">
<g id="surface1">
<rect x="0" y="0" width="360" height="360" style="fill:rgb(100%,100%,100%);fill-opacity:1;stroke:none;"/>
<path style=" stroke:none;fill-rule:evenodd;fill:rgb(40%,40%,40%);fill-opacity:1;" d="M 10.3125 3.976562 L 109.6875 3.976562 L 109.6875 103.351562 L 10.3125 103.351562 Z M 10.3125 3.976562 "/>
<path style=" stroke:none;fill-rule:evenodd;fill:rgb(40%,40%,40%);fill-opacity:1;" d="M 196.5625 70.226562 L 196.5625 103.351562 L 163.4375 103.351562 L 163.4375 70.226562 L 130.3125 70.226562 L 130.3125 37.101562 L 163.4375 37.101562 L 163.4375 3.976562 L 196.5625 3.976562 L 196.5625 37.101562 L 229.6875 37.101562 L 229.6875 70.226562 Z M 196.5625 70.226562 "/>
<path style=" stroke:none;fill-rule:evenodd;fill:rgb(40%,40%,40%);fill-opacity:1;" d="M 305.519531 92.3125 L 305.519531 103.351562 L 294.480469 103.351562 L 294.480469 92.3125 L 272.394531 92.3125 L 272.394531 81.269531 L 261.355469 81.269531 L 261.355469 59.183594 L 250.3125 59.183594 L 250.3125 48.144531 L 261.355469 48.144531 L 261.355469 26.058594 L 272.394531 26.058594 L 272.394531 15.015625 L 294.480469 15.015625 L 294.480469 3.976562 L 305.519531 3.976562 L 305.519531 15.015625 L 327.605469 15.015625 L 327.605469 26.058594 L 338.644531 26.058594 L 338.644531 48.144531 L 349.6875 48.144531 L 349.6875 59.183594 L 338.644531 59.183594 L 338.644531 81.269531 L 327.605469 81.269531 L 327.605469 92.3125 Z M 305.519531 92.3125 "/>
<path style=" stroke:none;fill-rule:evenodd;fill:rgb(40%,40%,40%);fill-opacity:1;" d="M 88.363281 163.234375 L 77.183594 111.304688 L 53.507812 131.433594 L 47.355469 145.554688 L 14.789062 166.757812 L 10.3125 210.679688 L 36.585938 190.582031 L 59.808594 202.164062 L 56.027344 171.335938 L 109.6875 191.113281 Z M 88.363281 163.234375 "/>
<path style=" stroke:none;fill-rule:evenodd;fill:rgb(40%,40%,40%);fill-opacity:1;" d="M 187.097656 196.484375 L 187.097656 210.679688 L 172.902344 210.679688 L 172.902344 196.484375 L 144.507812 196.484375 L 144.507812 168.089844 L 130.3125 168.089844 L 130.3125 153.894531 L 144.507812 153.894531 L 144.507812 125.5 L 172.902344 125.5 L 172.902344 111.304688 L 187.097656 111.304688 L 187.097656 125.5 L 215.492188 125.5 L 215.492188 153.894531 L 229.6875 153.894531 L 229.6875 168.089844 L 215.492188 168.089844 L 215.492188 196.484375 Z M 158.707031 153.894531 L 158.707031 168.089844 L 172.902344 168.089844 L 172.902344 182.289062 L 187.097656 182.289062 L 187.097656 168.089844 L 201.292969 168.089844 L 201.292969 153.894531 L 187.097656 153.894531 L 187.097656 139.695312 L 172.902344 139.695312 L 172.902344 153.894531 Z M 158.707031 153.894531 "/>
<path style=" stroke:none;fill-rule:evenodd;fill:rgb(40%,40%,40%);fill-opacity:1;" d="M 305.519531 199.640625 L 305.519531 210.679688 L 294.480469 210.679688 L 294.480469 199.640625 L 272.394531 199.640625 L 272.394531 188.597656 L 261.355469 188.597656 L 261.355469 166.511719 L 250.3125 166.511719 L 250.3125 155.472656 L 261.355469 155.472656 L 261.355469 133.386719 L 272.394531 133.386719 L 272.394531 122.34375 L 294.480469 122.34375 L 294.480469 111.304688 L 305.519531 111.304688 L 305.519531 122.34375 L 327.605469 122.34375 L 327.605469 133.386719 L 338.644531 133.386719 L 338.644531 155.472656 L 349.6875 155.472656 L 349.6875 166.511719 L 338.644531 166.511719 L 338.644531 188.597656 L 327.605469 188.597656 L 327.605469 199.640625 Z M 272.394531 155.472656 L 272.394531 177.554688 L 283.4375 177.554688 L 283.4375 188.597656 L 316.5625 188.597656 L 316.5625 177.554688 L 327.605469 177.554688 L 327.605469 144.429688 L 316.5625 144.429688 L 316.5625 133.386719 L 283.4375 133.386719 L 283.4375 144.429688 L 272.394531 144.429688 Z M 272.394531 155.472656 "/>
<path style=" stroke:none;fill-rule:evenodd;fill:rgb(40%,40%,40%);fill-opacity:1;" d="M 76.5625 306.96875 L 98.644531 306.96875 L 98.644531 318.007812 L 76.5625 318.007812 Z M 76.5625 306.96875 "/>
<path style=" stroke:none;fill-rule:evenodd;fill:rgb(40%,40%,40%);fill-opacity:1;" d="M 10.3125 218.632812 L 21.355469 218.632812 L 21.355469 229.671875 L 10.3125 229.671875 Z M 10.3125 218.632812 "/>
<path style=" stroke:none;fill-rule:evenodd;fill:rgb(40%,40%,40%);fill-opacity:1;" d="M 32.394531 229.671875 L 43.4375 229.671875 L 43.4375 240.714844 L 32.394531 240.714844 Z M 32.394531 229.671875 "/>
<path style=" stroke:none;fill-rule:evenodd;fill:rgb(40%,40%,40%);fill-opacity:1;" d="M 54.480469 240.714844 L 65.519531 240.714844 L 65.519531 251.757812 L 54.480469 251.757812 Z M 54.480469 240.714844 "/>
<path style=" stroke:none;fill-rule:evenodd;fill:rgb(40%,40%,40%);fill-opacity:1;" d="M 76.5625 240.714844 L 87.605469 240.714844 L 87.605469 251.757812 L 76.5625 251.757812 Z M 76.5625 240.714844 "/>
<path style=" stroke:none;fill-rule:evenodd;fill:rgb(40%,40%,40%);fill-opacity:1;" d="M 109.6875 229.671875 L 109.6875 240.714844 L 98.644531 240.714844 L 98.644531 218.632812 L 109.6875 218.632812 Z M 109.6875 229.671875 "/>
<path style=" stroke:none;fill-rule:evenodd;fill:rgb(40%,40%,40%);fill-opacity:1;" d="M 21.355469 295.925781 L 21.355469 306.96875 L 10.3125 306.96875 L 10.3125 284.882812 L 21.355469 284.882812 Z M 21.355469 295.925781 "/>
<path style=" stroke:none;fill-rule:evenodd;fill:rgb(40%,40%,40%);fill-opacity:1;" d="M 43.4375 306.96875 L 43.4375 318.007812 L 32.394531 318.007812 L 32.394531 273.839844 L 54.480469 273.839844 L 54.480469 262.800781 L 65.519531 262.800781 L 65.519531 273.839844 L 76.5625 273.839844 L 76.5625 284.882812 L 65.519531 284.882812 L 65.519531 295.925781 L 76.5625 295.925781 L 76.5625 306.96875 L 65.519531 306.96875 L 65.519531 318.007812 L 54.480469 318.007812 L 54.480469 284.882812 L 43.4375 284.882812 Z M 43.4375 306.96875 "/>
<path style=" stroke:none;fill-rule:evenodd;fill:rgb(40%,40%,40%);fill-opacity:1;" d="M 98.644531 284.882812 L 109.6875 284.882812 L 109.6875 295.925781 L 98.644531 295.925781 Z M 98.644531 284.882812 "/>
<path style=" stroke:none;fill-rule:evenodd;fill:rgb(40%,40%,40%);fill-opacity:1;" d="M 98.644531 273.839844 L 98.644531 284.882812 L 87.605469 284.882812 L 87.605469 251.757812 L 109.6875 251.757812 L 109.6875 262.800781 L 98.644531 262.800781 Z M 98.644531 273.839844 "/>
<path style=" stroke:none;fill-rule:evenodd;fill:rgb(40%,40%,40%);fill-opacity:1;" d="M 130.3125 306.96875 L 141.355469 306.96875 L 141.355469 318.007812 L 130.3125 318.007812 Z M 130.3125 306.96875 "/>
<path style=" stroke:none;fill-rule:evenodd;fill:rgb(40%,40%,40%);fill-opacity:1;" d="M 218.644531 306.96875 L 229.6875 306.96875 L 229.6875 318.007812 L 218.644531 318.007812 Z M 218.644531 306.96875 "/>
<path style=" stroke:none;fill-rule:evenodd;fill:rgb(40%,40%,40%);fill-opacity:1;" d="M 207.605469 295.925781 L 218.644531 295.925781 L 218.644531 306.96875 L 207.605469 306.96875 Z M 207.605469 295.925781 "/>
<path style=" stroke:none;fill-rule:evenodd;fill:rgb(40%,40%,40%);fill-opacity:1;" d="M 196.5625 284.882812 L 207.605469 284.882812 L 207.605469 295.925781 L 196.5625 295.925781 Z M 196.5625 284.882812 "/>
<path style=" stroke:none;fill-rule:evenodd;fill:rgb(40%,40%,40%);fill-opacity:1;" d="M 185.519531 273.839844 L 196.5625 273.839844 L 196.5625 284.882812 L 185.519531 284.882812 Z M 185.519531 273.839844 "/>
<path style=" stroke:none;fill-rule:evenodd;fill:rgb(40%,40%,40%);fill-opacity:1;" d="M 130.3125 218.632812 L 141.355469 218.632812 L 141.355469 229.671875 L 130.3125 229.671875 Z M 130.3125 218.632812 "/>
<path style=" stroke:none;fill-rule:evenodd;fill:rgb(40%,40%,40%);fill-opacity:1;" d="M 152.394531 240.714844 L 163.4375 240.714844 L 163.4375 251.757812 L 152.394531 251.757812 Z M 152.394531 240.714844 "/>
<path style=" stroke:none;fill-rule:evenodd;fill:rgb(40%,40%,40%);fill-opacity:1;" d="M 141.355469 229.671875 L 152.394531 229.671875 L 152.394531 240.714844 L 141.355469 240.714844 Z M 141.355469 229.671875 "/>
<path style=" stroke:none;fill-rule:evenodd;fill:rgb(40%,40%,40%);fill-opacity:1;" d="M 218.644531 218.632812 L 229.6875 218.632812 L 229.6875 229.671875 L 218.644531 229.671875 Z M 218.644531 218.632812 "/>
<path style=" stroke:none;fill-rule:evenodd;fill:rgb(40%,40%,40%);fill-opacity:1;" d="M 174.480469 262.800781 L 185.519531 262.800781 L 185.519531 273.839844 L 174.480469 273.839844 Z M 174.480469 262.800781 "/>
<path style=" stroke:none;fill-rule:evenodd;fill:rgb(40%,40%,40%);fill-opacity:1;" d="M 163.4375 251.757812 L 174.480469 251.757812 L 174.480469 262.800781 L 163.4375 262.800781 Z M 163.4375 251.757812 "/>
<path style=" stroke:none;fill-rule:evenodd;fill:rgb(40%,40%,40%);fill-opacity:1;" d="M 305.519531 306.96875 L 305.519531 318.007812 L 294.480469 318.007812 L 294.480469 306.96875 L 272.394531 306.96875 L 272.394531 295.925781 L 261.355469 295.925781 L 261.355469 273.839844 L 250.3125 273.839844 L 250.3125 262.800781 L 261.355469 262.800781 L 261.355469 240.714844 L 272.394531 240.714844 L 272.394531 229.671875 L 294.480469 229.671875 L 294.480469 218.632812 L 305.519531 218.632812 L 305.519531 229.671875 L 327.605469 229.671875 L 327.605469 240.714844 L 338.644531 240.714844 L 338.644531 262.800781 L 349.6875 262.800781 L 349.6875 273.839844 L 338.644531 273.839844 L 338.644531 295.925781 L 327.605469 295.925781 L 327.605469 306.96875 Z M 272.394531 262.800781 L 272.394531 284.882812 L 283.4375 284.882812 L 283.4375 295.925781 L 316.5625 295.925781 L 316.5625 284.882812 L 327.605469 284.882812 L 327.605469 251.757812 L 316.5625 251.757812 L 316.5625 240.714844 L 283.4375 240.714844 L 283.4375 251.757812 L 272.394531 251.757812 Z M 272.394531 262.800781 "/>
<path style=" stroke:none;fill-rule:evenodd;fill:rgb(40%,40%,40%);fill-opacity:1;" d="M 305.519531 273.839844 L 305.519531 284.882812 L 294.480469 284.882812 L 294.480469 273.839844 L 283.4375 273.839844 L 283.4375 262.800781 L 294.480469 262.800781 L 294.480469 251.757812 L 305.519531 251.757812 L 305.519531 262.800781 L 316.5625 262.800781 L 316.5625 273.839844 Z M 305.519531 273.839844 "/>
</g>
</svg>
