<?xml version="1.0" encoding="UTF-8"?>
<svg xmlns="http://www.w3.org/2000/svg" xmlns:xlink="http://www.w3.org/1999/xlink" width="360pt" height="360pt" viewBox="0 0 360 360" version="1.1">
<g id="surface11">
<rect x="0" y="0" width="360" height="360" style="fill:rgb(100%,100%,100%);fill-opacity:1;stroke:none;"/>
<path style=" stroke:none;fill-rule:evenodd;fill:rgb(40%,40%,40%);fill-opacity:1;" d="M 4.445312 4.445312 L 115.554688 4.445312 L 115.554688 115.554688 L 4.445312 115.554688 Z M 4.445312 4.445312 "/>
<path style="fill:none;stroke-width:1.5;stroke-linecap:round;stroke-linejoin:round;stroke:rgb(89.411765%,10.196078%,10.980392%);stroke-opacity:1;stroke-miterlimit:10;" d="M 53.054688 4.445312 L 66.945312 4.445312 L 79.097656 6.179688 L 89.511719 9.652344 L 98.191406 14.859375 L 105.136719 21.804688 L 110.34375 30.484375 L 113.816406 40.902344 L 115.554688 53.054688 L 115.554688 66.945312 L 113.816406 79.097656 L 110.34375 89.515625 L 105.136719 98.195312 L 98.191406 105.140625 L 89.511719 110.347656 L 79.097656 113.820312 L 66.945312 115.554688 L 53.054688 115.554688 L 40.902344 113.820312 L 30.488281 110.347656 L 21.808594 105.140625 L 14.863281 98.195312 L 9.65625 89.515625 L 6.183594 79.097656 L 4.445312 66.945312 L 4.445312 53.054688 L 6.183594 40.902344 L 9.65625 30.484375 L 14.863281 21.804688 L 21.808594 14.859375 L 30.488281 9.652344 L 40.902344 6.179688 Z M 53.054688 4.445312 "/>
<path style=" stroke:none;fill-rule:evenodd;fill:rgb(40%,40%,40%);fill-opacity:1;" d="M 198.519531 78.519531 L 198.519531 115.554688 L 161.480469 115.554688 L 161.480469 78.519531 L 124.445312 78.519531 L 124.445312 41.480469 L 161.480469 41.480469 L 161.480469 4.445312 L 198.519531 4.445312 L 198.519531 41.480469 L 235.554688 41.480469 L 235.554688 78.519531 Z M 198.519531 78.519531 "/>
<path style="fill:none;stroke-width:1.5;stroke-linecap:round;stroke-linejoin:round;stroke:rgb(89.411765%,10.196078%,10.980392%);stroke-opacity:1;stroke-miterlimit:10;" d="M 198.519531 94.722656 L 198.519531 99.351562 L 197.9375 103.402344 L 196.78125 106.875 L 195.046875 109.769531 L 192.730469 112.082031 L 189.835938 113.820312 L 186.367188 114.976562 L 182.316406 115.554688 L 177.683594 115.554688 L 173.632812 114.976562 L 170.164062 113.820312 L 167.269531 112.082031 L 164.953125 109.769531 L 163.21875 106.875 L 162.0625 103.402344 L 161.480469 99.351562 L 161.480469 94.722656 L 160.902344 90.671875 L 159.746094 87.199219 L 158.011719 84.304688 L 155.695312 81.992188 L 152.800781 80.253906 L 149.328125 79.097656 L 145.277344 78.519531 L 140.648438 78.519531 L 136.597656 77.941406 L 133.125 76.78125 L 130.234375 75.046875 L 127.917969 72.730469 L 126.183594 69.839844 L 125.023438 66.367188 L 124.445312 62.316406 L 124.445312 57.683594 L 125.023438 53.632812 L 126.183594 50.160156 L 127.917969 47.269531 L 130.234375 44.953125 L 133.125 43.21875 L 136.597656 42.058594 L 140.648438 41.480469 L 145.277344 41.480469 L 149.328125 40.902344 L 152.800781 39.746094 L 155.695312 38.007812 L 158.011719 35.695312 L 159.746094 32.800781 L 160.902344 29.328125 L 161.480469 25.277344 L 161.480469 20.648438 L 162.0625 16.597656 L 163.21875 13.125 L 164.953125 10.230469 L 167.269531 7.917969 L 170.164062 6.179688 L 173.632812 5.023438 L 177.683594 4.445312 L 182.316406 4.445312 L 186.367188 5.023438 L 189.835938 6.179688 L 192.730469 7.917969 L 195.046875 10.230469 L 196.78125 13.125 L 197.9375 16.597656 L 198.519531 20.648438 L 198.519531 25.277344 L 199.097656 29.328125 L 200.253906 32.800781 L 201.988281 35.695312 L 204.304688 38.007812 L 207.199219 39.746094 L 210.671875 40.902344 L 214.722656 41.480469 L 219.351562 41.480469 L 223.402344 42.058594 L 226.875 43.21875 L 229.765625 44.953125 L 232.082031 47.269531 L 233.816406 50.160156 L 234.976562 53.632812 L 235.554688 57.683594 L 235.554688 62.316406 L 234.976562 66.367188 L 233.816406 69.839844 L 232.082031 72.730469 L 229.765625 75.046875 L 226.875 76.78125 L 223.402344 77.941406 L 219.351562 78.519531 L 214.722656 78.519531 L 210.671875 79.097656 L 207.199219 80.253906 L 204.304688 81.992188 L 201.988281 84.304688 L 200.253906 87.199219 L 199.097656 90.671875 Z M 198.519531 94.722656 "/>
<path style=" stroke:none;fill-rule:evenodd;fill:rgb(40%,40%,40%);fill-opacity:1;" d="M 306.171875 103.210938 L 306.171875 115.554688 L 293.828125 115.554688 L 293.828125 103.210938 L 269.136719 103.210938 L 269.136719 90.863281 L 256.792969 90.863281 L 256.792969 66.171875 L 244.445312 66.171875 L 244.445312 53.828125 L 256.792969 53.828125 L 256.792969 29.136719 L 269.136719 29.136719 L 269.136719 16.789062 L 293.828125 16.789062 L 293.828125 4.445312 L 306.171875 4.445312 L 306.171875 16.789062 L 330.863281 16.789062 L 330.863281 29.136719 L 343.207031 29.136719 L 343.207031 53.828125 L 355.554688 53.828125 L 355.554688 66.171875 L 343.207031 66.171875 L 343.207031 90.863281 L 330.863281 90.863281 L 330.863281 103.210938 Z M 306.171875 103.210938 "/>
<path style="fill:none;stroke-width:1.5;stroke-linecap:round;stroke-linejoin:round;stroke:rgb(89.411765%,10.196078%,10.980392%);stroke-opacity:1;stroke-miterlimit:10;" d="M 306.171875 108.609375 L 306.171875 110.15625 L 305.980469 111.503906 L 305.59375 112.660156 L 305.015625 113.625 L 304.242188 114.398438 L 303.277344 114.976562 L 302.121094 115.363281 L 300.773438 115.554688 L 299.226562 115.554688 L 297.878906 115.363281 L 296.722656 114.976562 L 295.757812 114.398438 L 294.984375 113.625 L 294.40625 112.660156 L 294.019531 111.503906 L 293.828125 110.15625 L 293.828125 108.609375 L 293.632812 107.261719 L 293.25 106.101562 L 292.671875 105.140625 L 291.898438 104.367188 L 290.933594 103.789062 L 289.777344 103.402344 L 288.425781 103.210938 L 274.539062 103.210938 L 273.1875 103.015625 L 272.03125 102.632812 L 271.066406 102.050781 L 270.292969 101.28125 L 269.714844 100.316406 L 269.328125 99.160156 L 269.136719 97.808594 L 269.136719 96.265625 L 268.945312 94.914062 L 268.558594 93.757812 L 267.980469 92.792969 L 267.207031 92.023438 L 266.242188 91.441406 L 265.085938 91.058594 L 263.734375 90.863281 L 262.191406 90.863281 L 260.84375 90.671875 L 259.683594 90.285156 L 258.722656 89.707031 L 257.949219 88.933594 L 257.371094 87.96875 L 256.984375 86.8125 L 256.792969 85.464844 L 256.792969 71.574219 L 256.597656 70.222656 L 256.214844 69.066406 L 255.632812 68.101562 L 254.863281 67.332031 L 253.898438 66.75 L 252.742188 66.367188 L 251.390625 66.171875 L 249.847656 66.171875 L 248.496094 65.980469 L 247.339844 65.59375 L 246.375 65.015625 L 245.605469 64.242188 L 245.023438 63.28125 L 244.640625 62.121094 L 244.445312 60.773438 L 244.445312 59.226562 L 244.640625 57.878906 L 245.023438 56.71875 L 245.605469 55.757812 L 246.375 54.984375 L 247.339844 54.40625 L 248.496094 54.019531 L 249.847656 53.828125 L 251.390625 53.828125 L 252.742188 53.632812 L 253.898438 53.25 L 254.863281 52.667969 L 255.632812 51.898438 L 256.214844 50.933594 L 256.597656 49.777344 L 256.792969 48.425781 L 256.792969 34.535156 L 256.984375 33.1875 L 257.371094 32.03125 L 257.949219 31.066406 L 258.722656 30.292969 L 259.683594 29.714844 L 260.84375 29.328125 L 262.191406 29.136719 L 263.734375 29.136719 L 265.085938 28.941406 L 266.242188 28.558594 L 267.207031 27.976562 L 267.980469 27.207031 L 268.558594 26.242188 L 268.945312 25.085938 L 269.136719 23.734375 L 269.136719 22.191406 L 269.328125 20.839844 L 269.714844 19.683594 L 270.292969 18.71875 L 271.066406 17.949219 L 272.03125 17.367188 L 273.1875 16.984375 L 274.539062 16.789062 L 288.425781 16.789062 L 289.777344 16.597656 L 290.933594 16.210938 L 291.898438 15.632812 L 292.671875 14.859375 L 293.25 13.898438 L 293.632812 12.738281 L 293.828125 11.390625 L 293.828125 9.84375 L 294.019531 8.496094 L 294.40625 7.339844 L 294.984375 6.375 L 295.757812 5.601562 L 296.722656 5.023438 L 297.878906 4.636719 L 299.226562 4.445312 L 300.773438 4.445312 L 302.121094 4.636719 L 303.277344 5.023438 L 304.242188 5.601562 L 305.015625 6.375 L 305.59375 7.339844 L 305.980469 8.496094 L 306.171875 9.84375 L 306.171875 11.390625 L 306.367188 12.738281 L 306.75 13.898438 L 307.328125 14.859375 L 308.101562 15.632812 L 309.066406 16.210938 L 310.222656 16.597656 L 311.574219 16.789062 L 325.460938 16.789062 L 326.8125 16.984375 L 327.96875 17.367188 L 328.933594 17.949219 L 329.707031 18.71875 L 330.285156 19.683594 L 330.671875 20.839844 L 330.863281 22.191406 L 330.863281 23.734375 L 331.054688 25.085938 L 331.441406 26.242188 L 332.019531 27.207031 L 332.792969 27.976562 L 333.757812 28.558594 L 334.914062 28.941406 L 336.265625 29.136719 L 337.808594 29.136719 L 339.15625 29.328125 L 340.316406 29.714844 L 341.277344 30.292969 L 342.050781 31.066406 L 342.628906 32.03125 L 343.015625 33.1875 L 343.207031 34.535156 L 343.207031 48.425781 L 343.402344 49.777344 L 343.785156 50.933594 L 344.367188 51.898438 L 345.136719 52.667969 L 346.101562 53.25 L 347.257812 53.632812 L 348.609375 53.828125 L 350.152344 53.828125 L 351.503906 54.019531 L 352.660156 54.40625 L 353.625 54.984375 L 354.394531 55.757812 L 354.976562 56.71875 L 355.359375 57.878906 L 355.554688 59.226562 L 355.554688 60.773438 L 355.359375 62.121094 L 354.976562 63.28125 L 354.394531 64.242188 L 353.625 65.015625 L 352.660156 65.59375 L 351.503906 65.980469 L 350.152344 66.171875 L 348.609375 66.171875 L 347.257812 66.367188 L 346.101562 66.75 L 345.136719 67.332031 L 344.367188 68.101562 L 343.785156 69.066406 L 343.402344 70.222656 L 343.207031 71.574219 L 343.207031 85.464844 L 343.015625 86.8125 L 342.628906 87.96875 L 342.050781 88.933594 L 341.277344 89.707031 L 340.316406 90.285156 L 339.15625 90.671875 L 337.808594 90.863281 L 336.265625 90.863281 L 334.914062 91.058594 L 333.757812 91.441406 L 332.792969 92.023438 L 332.019531 92.792969 L 331.441406 93.757812 L 331.054688 94.914062 L 330.863281 96.265625 L 330.863281 97.808594 L 330.671875 99.160156 L 330.285156 100.316406 L 329.707031 101.28125 L 328.933594 102.050781 L 327.96875 102.632812 L 326.8125 103.015625 L 325.460938 103.210938 L 311.574219 103.210938 L 310.222656 103.402344 L 309.066406 103.789062 L 308.101562 104.367188 L 307.328125 105.140625 L 306.75 106.101562 L 306.367188 107.261719 Z M 306.171875 108.609375 "/>
<path style=" stroke:none;fill-rule:evenodd;fill:rgb(40%,40%,40%);fill-opacity:1;" d="M 91.714844 182.507812 L 79.210938 124.445312 L 52.742188 146.949219 L 45.863281 162.738281 L 9.449219 186.449219 L 4.445312 235.554688 L 33.820312 213.082031 L 59.785156 226.035156 L 55.558594 191.5625 L 115.554688 213.679688 Z M 91.714844 182.507812 "/>
<path style="fill:none;stroke-width:1.5;stroke-linecap:round;stroke-linejoin:round;stroke:rgb(89.411765%,10.196078%,10.980392%);stroke-opacity:1;stroke-miterlimit:10;" d="M 86.242188 157.105469 L 84.679688 149.847656 L 82.898438 143.847656 L 80.898438 139.109375 L 78.683594 135.625 L 76.246094 133.40625 L 73.59375 132.441406 L 70.722656 132.738281 L 67.632812 134.289062 L 64.324219 137.105469 L 61.320312 139.8125 L 58.625 142.414062 L 56.234375 144.914062 L 54.148438 147.308594 L 52.371094 149.597656 L 50.898438 151.78125 L 49.734375 153.859375 L 48.875 155.832031 L 47.550781 157.929688 L 45.769531 160.152344 L 43.523438 162.496094 L 40.820312 164.964844 L 37.652344 167.554688 L 34.023438 170.273438 L 29.933594 173.113281 L 25.382812 176.074219 L 21.320312 179.4375 L 17.75 183.191406 L 14.671875 187.347656 L 12.082031 191.898438 L 9.984375 196.847656 L 8.378906 202.191406 L 7.261719 207.933594 L 6.636719 214.070312 L 6.546875 219.089844 L 6.996094 222.992188 L 7.980469 225.777344 L 9.503906 227.441406 L 11.566406 227.988281 L 14.164062 227.414062 L 17.296875 225.722656 L 20.96875 222.914062 L 24.585938 220.660156 L 28.152344 218.957031 L 31.664062 217.808594 L 35.125 217.214844 L 38.527344 217.171875 L 41.878906 217.683594 L 45.179688 218.75 L 48.425781 220.367188 L 51.199219 221.246094 L 53.5 221.382812 L 55.332031 220.777344 L 56.691406 219.433594 L 57.578125 217.347656 L 57.992188 214.519531 L 57.9375 210.953125 L 57.40625 206.644531 L 57.882812 203.21875 L 59.363281 200.679688 L 61.84375 199.023438 L 65.328125 198.25 L 69.816406 198.363281 L 75.308594 199.359375 L 81.804688 201.238281 L 89.304688 204.003906 L 95.496094 205.933594 L 100.375 207.035156 L 103.945312 207.300781 L 106.203125 206.734375 L 107.152344 205.335938 L 106.792969 203.105469 L 105.125 200.042969 L 102.144531 196.144531 L 99.339844 191.828125 L 96.714844 187.089844 L 94.265625 181.933594 L 91.996094 176.359375 L 89.902344 170.359375 L 87.984375 163.941406 Z M 86.242188 157.105469 "/>
<path style=" stroke:none;fill-rule:evenodd;fill:rgb(40%,40%,40%);fill-opacity:1;" d="M 187.9375 219.683594 L 187.9375 235.554688 L 172.0625 235.554688 L 172.0625 219.683594 L 140.320312 219.683594 L 140.320312 187.9375 L 124.445312 187.9375 L 124.445312 172.0625 L 140.320312 172.0625 L 140.320312 140.316406 L 172.0625 140.316406 L 172.0625 124.445312 L 187.9375 124.445312 L 187.9375 140.316406 L 219.679688 140.316406 L 219.679688 172.0625 L 235.554688 172.0625 L 235.554688 187.9375 L 219.679688 187.9375 L 219.679688 219.683594 Z M 156.191406 172.0625 L 156.191406 187.9375 L 172.0625 187.9375 L 172.0625 203.808594 L 187.9375 203.808594 L 187.9375 187.9375 L 203.808594 187.9375 L 203.808594 172.0625 L 187.9375 172.0625 L 187.9375 156.191406 L 172.0625 156.191406 L 172.0625 172.0625 Z M 156.191406 172.0625 "/>
<path style="fill:none;stroke-width:1.5;stroke-linecap:round;stroke-linejoin:round;stroke:rgb(89.411765%,10.196078%,10.980392%);stroke-opacity:1;stroke-miterlimit:10;" d="M 187.9375 226.628906 L 187.9375 228.609375 L 187.6875 230.347656 L 187.191406 231.835938 L 186.449219 233.074219 L 185.457031 234.066406 L 184.214844 234.8125 L 182.726562 235.308594 L 180.992188 235.554688 L 179.007812 235.554688 L 177.273438 235.308594 L 175.785156 234.8125 L 174.542969 234.066406 L 173.550781 233.074219 L 172.808594 231.835938 L 172.3125 230.347656 L 172.0625 228.609375 L 172.0625 226.628906 L 171.816406 224.890625 L 171.320312 223.402344 L 170.574219 222.164062 L 169.582031 221.171875 L 168.34375 220.425781 L 166.855469 219.929688 L 165.121094 219.683594 L 147.261719 219.683594 L 145.527344 219.433594 L 144.039062 218.9375 L 142.800781 218.195312 L 141.808594 217.203125 L 141.0625 215.960938 L 140.566406 214.472656 L 140.320312 212.738281 L 140.320312 194.882812 L 140.070312 193.144531 L 139.574219 191.65625 L 138.832031 190.417969 L 137.839844 189.425781 L 136.597656 188.679688 L 135.109375 188.183594 L 133.375 187.9375 L 131.390625 187.9375 L 129.65625 187.6875 L 128.167969 187.191406 L 126.925781 186.449219 L 125.933594 185.457031 L 125.191406 184.214844 L 124.695312 182.726562 L 124.445312 180.992188 L 124.445312 179.007812 L 124.695312 177.273438 L 125.191406 175.785156 L 125.933594 174.542969 L 126.925781 173.550781 L 128.167969 172.808594 L 129.65625 172.3125 L 131.390625 172.0625 L 133.375 172.0625 L 135.109375 171.816406 L 136.597656 171.320312 L 137.839844 170.574219 L 138.832031 169.582031 L 139.574219 168.34375 L 140.070312 166.855469 L 140.320312 165.117188 L 140.320312 147.261719 L 140.566406 145.527344 L 141.0625 144.039062 L 141.808594 142.796875 L 142.800781 141.804688 L 144.039062 141.0625 L 145.527344 140.566406 L 147.261719 140.316406 L 165.121094 140.316406 L 166.855469 140.070312 L 168.34375 139.574219 L 169.582031 138.828125 L 170.574219 137.835938 L 171.320312 136.597656 L 171.816406 135.109375 L 172.0625 133.371094 L 172.0625 131.390625 L 172.3125 129.652344 L 172.808594 128.164062 L 173.550781 126.925781 L 174.542969 125.933594 L 175.785156 125.1875 L 177.273438 124.691406 L 179.007812 124.445312 L 180.992188 124.445312 L 182.726562 124.691406 L 184.214844 125.1875 L 185.457031 125.933594 L 186.449219 126.925781 L 187.191406 128.164062 L 187.6875 129.652344 L 187.9375 131.390625 L 187.9375 133.371094 L 188.183594 135.109375 L 188.679688 136.597656 L 189.425781 137.835938 L 190.417969 138.828125 L 191.65625 139.574219 L 193.144531 140.070312 L 194.878906 140.316406 L 212.738281 140.316406 L 214.472656 140.566406 L 215.960938 141.0625 L 217.199219 141.804688 L 218.191406 142.796875 L 218.9375 144.039062 L 219.433594 145.527344 L 219.679688 147.261719 L 219.679688 165.117188 L 219.929688 166.855469 L 220.425781 168.34375 L 221.167969 169.582031 L 222.160156 170.574219 L 223.402344 171.320312 L 224.890625 171.816406 L 226.625 172.0625 L 228.609375 172.0625 L 230.34375 172.3125 L 231.832031 172.808594 L 233.074219 173.550781 L 234.066406 174.542969 L 234.808594 175.785156 L 235.304688 177.273438 L 235.554688 179.007812 L 235.554688 180.992188 L 235.304688 182.726562 L 234.808594 184.214844 L 234.066406 185.457031 L 233.074219 186.449219 L 231.832031 187.191406 L 230.34375 187.6875 L 228.609375 187.9375 L 226.625 187.9375 L 224.890625 188.183594 L 223.402344 188.679688 L 222.160156 189.425781 L 221.167969 190.417969 L 220.425781 191.65625 L 219.929688 193.144531 L 219.679688 194.882812 L 219.679688 212.738281 L 219.433594 214.472656 L 218.9375 215.960938 L 218.191406 217.203125 L 217.199219 218.195312 L 215.960938 218.9375 L 214.472656 219.433594 L 212.738281 219.683594 L 194.878906 219.683594 L 193.144531 219.929688 L 191.65625 220.425781 L 190.417969 221.171875 L 189.425781 222.164062 L 188.679688 223.402344 L 188.183594 224.890625 Z M 156.191406 179.007812 L 156.191406 180.992188 L 156.4375 182.726562 L 156.933594 184.214844 L 157.679688 185.457031 L 158.671875 186.449219 L 159.910156 187.191406 L 161.398438 187.6875 L 163.136719 187.9375 L 165.121094 187.9375 L 166.855469 188.183594 L 168.34375 188.679688 L 169.582031 189.425781 L 170.574219 190.417969 L 171.320312 191.65625 L 171.816406 193.144531 L 172.0625 194.882812 L 172.0625 196.863281 L 172.3125 198.601562 L 172.808594 200.089844 L 173.550781 201.328125 L 174.542969 202.320312 L 175.785156 203.066406 L 177.273438 203.5625 L 179.007812 203.808594 L 180.992188 203.808594 L 182.726562 203.5625 L 184.214844 203.066406 L 185.457031 202.320312 L 186.449219 201.328125 L 187.191406 200.089844 L 187.6875 198.601562 L 187.9375 196.863281 L 187.9375 194.882812 L 188.183594 193.144531 L 188.679688 191.65625 L 189.425781 190.417969 L 190.417969 189.425781 L 191.65625 188.679688 L 193.144531 188.183594 L 194.878906 187.9375 L 196.863281 187.9375 L 198.601562 187.6875 L 200.089844 187.191406 L 201.328125 186.449219 L 202.320312 185.457031 L 203.066406 184.214844 L 203.5625 182.726562 L 203.808594 180.992188 L 203.808594 179.007812 L 203.5625 177.273438 L 203.066406 175.785156 L 202.320312 174.542969 L 201.328125 173.550781 L 200.089844 172.808594 L 198.601562 172.3125 L 196.863281 172.0625 L 194.878906 172.0625 L 193.144531 171.816406 L 191.65625 171.320312 L 190.417969 170.574219 L 189.425781 169.582031 L 188.679688 168.34375 L 188.183594 166.855469 L 187.9375 165.117188 L 187.9375 163.136719 L 187.6875 161.398438 L 187.191406 159.910156 L 186.449219 158.671875 L 185.457031 157.679688 L 184.214844 156.933594 L 182.726562 156.4375 L 180.992188 156.191406 L 179.007812 156.191406 L 177.273438 156.4375 L 175.785156 156.933594 L 174.542969 157.679688 L 173.550781 158.671875 L 172.808594 159.910156 L 172.3125 161.398438 L 172.0625 163.136719 L 172.0625 165.117188 L 171.816406 166.855469 L 171.320312 168.34375 L 170.574219 169.582031 L 169.582031 170.574219 L 168.34375 171.320312 L 166.855469 171.816406 L 165.121094 172.0625 L 163.136719 172.0625 L 161.398438 172.3125 L 159.910156 172.808594 L 158.671875 173.550781 L 157.679688 174.542969 L 156.933594 175.785156 L 156.4375 177.273438 Z M 156.191406 179.007812 "/>
<path style=" stroke:none;fill-rule:evenodd;fill:rgb(40%,40%,40%);fill-opacity:1;" d="M 306.171875 223.210938 L 306.171875 235.554688 L 293.828125 235.554688 L 293.828125 223.210938 L 269.136719 223.210938 L 269.136719 210.863281 L 256.792969 210.863281 L 256.792969 186.171875 L 244.445312 186.171875 L 244.445312 173.828125 L 256.792969 173.828125 L 256.792969 149.136719 L 269.136719 149.136719 L 269.136719 136.789062 L 293.828125 136.789062 L 293.828125 124.445312 L 306.171875 124.445312 L 306.171875 136.789062 L 330.863281 136.789062 L 330.863281 149.136719 L 343.207031 149.136719 L 343.207031 173.828125 L 355.554688 173.828125 L 355.554688 186.171875 L 343.207031 186.171875 L 343.207031 210.863281 L 330.863281 210.863281 L 330.863281 223.210938 Z M 269.136719 173.828125 L 269.136719 198.519531 L 281.480469 198.519531 L 281.480469 210.863281 L 318.519531 210.863281 L 318.519531 198.519531 L 330.863281 198.519531 L 330.863281 161.480469 L 318.519531 161.480469 L 318.519531 149.136719 L 281.480469 149.136719 L 281.480469 161.480469 L 269.136719 161.480469 Z M 269.136719 173.828125 "/>
<path style="fill:none;stroke-width:1.5;stroke-linecap:round;stroke-linejoin:round;stroke:rgb(89.411765%,10.196078%,10.980392%);stroke-opacity:1;stroke-miterlimit:10;" d="M 306.171875 228.609375 L 306.171875 230.15625 L 305.980469 231.503906 L 305.59375 232.660156 L 305.015625 233.625 L 304.242188 234.398438 L 303.277344 234.976562 L 302.121094 235.363281 L 300.773438 235.554688 L 299.226562 235.554688 L 297.878906 235.363281 L 296.722656 234.976562 L 295.757812 234.398438 L 294.984375 233.625 L 294.40625 232.660156 L 294.019531 231.503906 L 293.828125 230.15625 L 293.828125 228.609375 L 293.632812 227.261719 L 293.25 226.101562 L 292.671875 225.140625 L 291.898438 224.367188 L 290.933594 223.789062 L 289.777344 223.402344 L 288.425781 223.210938 L 274.539062 223.210938 L 273.1875 223.015625 L 272.03125 222.632812 L 271.066406 222.050781 L 270.292969 221.28125 L 269.714844 220.316406 L 269.328125 219.160156 L 269.136719 217.808594 L 269.136719 216.265625 L 268.945312 214.914062 L 268.558594 213.757812 L 267.980469 212.792969 L 267.207031 212.023438 L 266.242188 211.441406 L 265.085938 211.058594 L 263.734375 210.863281 L 262.191406 210.863281 L 260.84375 210.671875 L 259.683594 210.285156 L 258.722656 209.707031 L 257.949219 208.933594 L 257.371094 207.96875 L 256.984375 206.8125 L 256.792969 205.464844 L 256.792969 191.574219 L 256.597656 190.222656 L 256.214844 189.066406 L 255.632812 188.101562 L 254.863281 187.332031 L 253.898438 186.75 L 252.742188 186.367188 L 251.390625 186.171875 L 249.847656 186.171875 L 248.496094 185.980469 L 247.339844 185.59375 L 246.375 185.015625 L 245.605469 184.242188 L 245.023438 183.28125 L 244.640625 182.121094 L 244.445312 180.773438 L 244.445312 179.226562 L 244.640625 177.878906 L 245.023438 176.71875 L 245.605469 175.757812 L 246.375 174.984375 L 247.339844 174.40625 L 248.496094 174.019531 L 249.847656 173.828125 L 251.390625 173.828125 L 252.742188 173.632812 L 253.898438 173.25 L 254.863281 172.667969 L 255.632812 171.898438 L 256.214844 170.933594 L 256.597656 169.777344 L 256.792969 168.425781 L 256.792969 154.535156 L 256.984375 153.1875 L 257.371094 152.03125 L 257.949219 151.066406 L 258.722656 150.292969 L 259.683594 149.714844 L 260.84375 149.328125 L 262.191406 149.136719 L 263.734375 149.136719 L 265.085938 148.941406 L 266.242188 148.558594 L 267.207031 147.976562 L 267.980469 147.207031 L 268.558594 146.242188 L 268.945312 145.085938 L 269.136719 143.734375 L 269.136719 142.191406 L 269.328125 140.839844 L 269.714844 139.683594 L 270.292969 138.71875 L 271.066406 137.949219 L 272.03125 137.367188 L 273.1875 136.984375 L 274.539062 136.789062 L 288.425781 136.789062 L 289.777344 136.597656 L 290.933594 136.210938 L 291.898438 135.632812 L 292.671875 134.859375 L 293.25 133.898438 L 293.632812 132.738281 L 293.828125 131.390625 L 293.828125 129.84375 L 294.019531 128.496094 L 294.40625 127.339844 L 294.984375 126.375 L 295.757812 125.601562 L 296.722656 125.023438 L 297.878906 124.636719 L 299.226562 124.445312 L 300.773438 124.445312 L 302.121094 124.636719 L 303.277344 125.023438 L 304.242188 125.601562 L 305.015625 126.375 L 305.59375 127.339844 L 305.980469 128.496094 L 306.171875 129.84375 L 306.171875 131.390625 L 306.367188 132.738281 L 306.75 133.898438 L 307.328125 134.859375 L 308.101562 135.632812 L 309.066406 136.210938 L 310.222656 136.597656 L 311.574219 136.789062 L 325.460938 136.789062 L 326.8125 136.984375 L 327.96875 137.367188 L 328.933594 137.949219 L 329.707031 138.71875 L 330.285156 139.683594 L 330.671875 140.839844 L 330.863281 142.191406 L 330.863281 143.734375 L 331.054688 145.085938 L 331.441406 146.242188 L 332.019531 147.207031 L 332.792969 147.976562 L 333.757812 148.558594 L 334.914062 148.941406 L 336.265625 149.136719 L 337.808594 149.136719 L 339.15625 149.328125 L 340.316406 149.714844 L 341.277344 150.292969 L 342.050781 151.066406 L 342.628906 152.03125 L 343.015625 153.1875 L 343.207031 154.535156 L 343.207031 168.425781 L 343.402344 169.777344 L 343.785156 170.933594 L 344.367188 171.898438 L 345.136719 172.667969 L 346.101562 173.25 L 347.257812 173.632812 L 348.609375 173.828125 L 350.152344 173.828125 L 351.503906 174.019531 L 352.660156 174.40625 L 353.625 174.984375 L 354.394531 175.757812 L 354.976562 176.71875 L 355.359375 177.878906 L 355.554688 179.226562 L 355.554688 180.773438 L 355.359375 182.121094 L 354.976562 183.28125 L 354.394531 184.242188 L 353.625 185.015625 L 352.660156 185.59375 L 351.503906 185.980469 L 350.152344 186.171875 L 348.609375 186.171875 L 347.257812 186.367188 L 346.101562 186.75 L 345.136719 187.332031 L 344.367188 188.101562 L 343.785156 189.066406 L 343.402344 190.222656 L 343.207031 191.574219 L 343.207031 205.464844 L 343.015625 206.8125 L 342.628906 207.96875 L 342.050781 208.933594 L 341.277344 209.707031 L 340.316406 210.285156 L 339.15625 210.671875 L 337.808594 210.863281 L 336.265625 210.863281 L 334.914062 211.058594 L 333.757812 211.441406 L 332.792969 212.023438 L 332.019531 212.792969 L 331.441406 213.757812 L 331.054688 214.914062 L 330.863281 216.265625 L 330.863281 217.808594 L 330.671875 219.160156 L 330.285156 220.316406 L 329.707031 221.28125 L 328.933594 222.050781 L 327.96875 222.632812 L 326.8125 223.015625 L 325.460938 223.210938 L 311.574219 223.210938 L 310.222656 223.402344 L 309.066406 223.789062 L 308.101562 224.367188 L 307.328125 225.140625 L 306.75 226.101562 L 306.367188 227.261719 Z M 269.136719 179.226562 L 269.136719 193.117188 L 269.328125 194.46875 L 269.714844 195.625 L 270.292969 196.589844 L 271.066406 197.359375 L 272.03125 197.941406 L 273.1875 198.324219 L 274.539062 198.519531 L 276.082031 198.519531 L 277.429688 198.710938 L 278.589844 199.097656 L 279.554688 199.675781 L 280.324219 200.449219 L 280.902344 201.410156 L 281.289062 202.570312 L 281.480469 203.917969 L 281.480469 205.464844 L 281.675781 206.8125 L 282.0625 207.96875 L 282.640625 208.933594 L 283.410156 209.707031 L 284.375 210.285156 L 285.53125 210.671875 L 286.882812 210.863281 L 313.117188 210.863281 L 314.46875 210.671875 L 315.625 210.285156 L 316.589844 209.707031 L 317.359375 208.933594 L 317.9375 207.96875 L 318.324219 206.8125 L 318.519531 205.464844 L 318.519531 203.917969 L 318.710938 202.570312 L 319.097656 201.410156 L 319.675781 200.449219 L 320.445312 199.675781 L 321.410156 199.097656 L 322.570312 198.710938 L 323.917969 198.519531 L 325.460938 198.519531 L 326.8125 198.324219 L 327.96875 197.941406 L 328.933594 197.359375 L 329.707031 196.589844 L 330.285156 195.625 L 330.671875 194.46875 L 330.863281 193.117188 L 330.863281 166.882812 L 330.671875 165.53125 L 330.285156 164.375 L 329.707031 163.410156 L 328.933594 162.640625 L 327.96875 162.058594 L 326.8125 161.675781 L 325.460938 161.480469 L 323.917969 161.480469 L 322.570312 161.289062 L 321.410156 160.902344 L 320.445312 160.324219 L 319.675781 159.550781 L 319.097656 158.589844 L 318.710938 157.429688 L 318.519531 156.082031 L 318.519531 154.535156 L 318.324219 153.1875 L 317.9375 152.03125 L 317.359375 151.066406 L 316.589844 150.292969 L 315.625 149.714844 L 314.46875 149.328125 L 313.117188 149.136719 L 286.882812 149.136719 L 285.53125 149.328125 L 284.375 149.714844 L 283.410156 150.292969 L 282.640625 151.066406 L 282.0625 152.03125 L 281.675781 153.1875 L 281.480469 154.535156 L 281.480469 156.082031 L 281.289062 157.429688 L 280.902344 158.589844 L 280.324219 159.550781 L 279.554688 160.324219 L 278.589844 160.902344 L 277.429688 161.289062 L 276.082031 161.480469 L 274.539062 161.480469 L 273.1875 161.675781 L 272.03125 162.058594 L 271.066406 162.640625 L 270.292969 163.410156 L 269.714844 164.375 L 269.328125 165.53125 L 269.136719 166.882812 Z M 269.136719 179.226562 "/>
<path style=" stroke:none;fill-rule:evenodd;fill:rgb(40%,40%,40%);fill-opacity:1;" d="M 78.519531 343.210938 L 103.207031 343.210938 L 103.207031 355.554688 L 78.519531 355.554688 Z M 78.519531 343.210938 "/>
<path style=" stroke:none;fill-rule:evenodd;fill:rgb(40%,40%,40%);fill-opacity:1;" d="M 4.445312 244.445312 L 16.792969 244.445312 L 16.792969 256.789062 L 4.445312 256.789062 Z M 4.445312 244.445312 "/>
<path style=" stroke:none;fill-rule:evenodd;fill:rgb(40%,40%,40%);fill-opacity:1;" d="M 29.136719 256.789062 L 41.480469 256.789062 L 41.480469 269.136719 L 29.136719 269.136719 Z M 29.136719 256.789062 "/>
<path style=" stroke:none;fill-rule:evenodd;fill:rgb(40%,40%,40%);fill-opacity:1;" d="M 53.828125 269.136719 L 66.171875 269.136719 L 66.171875 281.480469 L 53.828125 281.480469 Z M 53.828125 269.136719 "/>
<path style=" stroke:none;fill-rule:evenodd;fill:rgb(40%,40%,40%);fill-opacity:1;" d="M 78.519531 269.136719 L 90.863281 269.136719 L 90.863281 281.480469 L 78.519531 281.480469 Z M 78.519531 269.136719 "/>
<path style=" stroke:none;fill-rule:evenodd;fill:rgb(40%,40%,40%);fill-opacity:1;" d="M 115.554688 256.789062 L 115.554688 269.136719 L 103.207031 269.136719 L 103.207031 244.445312 L 115.554688 244.445312 Z M 115.554688 256.789062 "/>
<path style=" stroke:none;fill-rule:evenodd;fill:rgb(40%,40%,40%);fill-opacity:1;" d="M 16.792969 330.863281 L 16.792969 343.210938 L 4.445312 343.210938 L 4.445312 318.519531 L 16.792969 318.519531 Z M 16.792969 330.863281 "/>
<path style=" stroke:none;fill-rule:evenodd;fill:rgb(40%,40%,40%);fill-opacity:1;" d="M 41.480469 343.210938 L 41.480469 355.554688 L 29.136719 355.554688 L 29.136719 306.171875 L 53.828125 306.171875 L 53.828125 293.828125 L 66.171875 293.828125 L 66.171875 306.171875 L 78.519531 306.171875 L 78.519531 318.519531 L 66.171875 318.519531 L 66.171875 330.863281 L 78.519531 330.863281 L 78.519531 343.210938 L 66.171875 343.210938 L 66.171875 355.554688 L 53.828125 355.554688 L 53.828125 318.519531 L 41.480469 318.519531 Z M 41.480469 343.210938 "/>
<path style=" stroke:none;fill-rule:evenodd;fill:rgb(40%,40%,40%);fill-opacity:1;" d="M 103.207031 318.519531 L 115.554688 318.519531 L 115.554688 330.863281 L 103.207031 330.863281 Z M 103.207031 318.519531 "/>
<path style=" stroke:none;fill-rule:evenodd;fill:rgb(40%,40%,40%);fill-opacity:1;" d="M 103.207031 306.171875 L 103.207031 318.519531 L 90.863281 318.519531 L 90.863281 281.480469 L 115.554688 281.480469 L 115.554688 293.828125 L 103.207031 293.828125 Z M 103.207031 306.171875 "/>
<path style="fill:none;stroke-width:1.5;stroke-linecap:round;stroke-linejoin:round;stroke:rgb(89.411765%,10.196078%,10.980392%);stroke-opacity:1;stroke-miterlimit:10;" d="M 83.917969 343.210938 L 97.808594 343.210938 L 99.15625 343.402344 L 100.316406 343.789062 L 101.277344 344.367188 L 102.050781 345.140625 L 102.628906 346.101562 L 103.015625 347.261719 L 103.207031 348.609375 L 103.207031 350.15625 L 103.015625 351.503906 L 102.628906 352.660156 L 102.050781 353.625 L 101.277344 354.398438 L 100.316406 354.976562 L 99.15625 355.363281 L 97.808594 355.554688 L 83.917969 355.554688 L 82.570312 355.363281 L 81.410156 354.976562 L 80.445312 354.398438 L 79.675781 353.625 L 79.097656 352.660156 L 78.710938 351.503906 L 78.519531 350.15625 L 78.519531 348.609375 L 78.710938 347.261719 L 79.097656 346.101562 L 79.675781 345.140625 L 80.445312 344.367188 L 81.410156 343.789062 L 82.570312 343.402344 Z M 83.917969 343.210938 "/>
<path style="fill:none;stroke-width:1.5;stroke-linecap:round;stroke-linejoin:round;stroke:rgb(89.411765%,10.196078%,10.980392%);stroke-opacity:1;stroke-miterlimit:10;" d="M 9.847656 244.445312 L 11.390625 244.445312 L 12.742188 244.636719 L 13.898438 245.023438 L 14.863281 245.601562 L 15.632812 246.375 L 16.214844 247.339844 L 16.597656 248.496094 L 16.792969 249.84375 L 16.792969 251.390625 L 16.597656 252.738281 L 16.214844 253.898438 L 15.632812 254.859375 L 14.863281 255.632812 L 13.898438 256.210938 L 12.742188 256.597656 L 11.390625 256.789062 L 9.847656 256.789062 L 8.496094 256.597656 L 7.339844 256.210938 L 6.375 255.632812 L 5.605469 254.859375 L 5.023438 253.898438 L 4.640625 252.738281 L 4.445312 251.390625 L 4.445312 249.84375 L 4.640625 248.496094 L 5.023438 247.339844 L 5.605469 246.375 L 6.375 245.601562 L 7.339844 245.023438 L 8.496094 244.636719 Z M 9.847656 244.445312 "/>
<path style="fill:none;stroke-width:1.5;stroke-linecap:round;stroke-linejoin:round;stroke:rgb(89.411765%,10.196078%,10.980392%);stroke-opacity:1;stroke-miterlimit:10;" d="M 34.539062 256.789062 L 36.082031 256.789062 L 37.429688 256.984375 L 38.589844 257.367188 L 39.554688 257.949219 L 40.324219 258.71875 L 40.902344 259.683594 L 41.289062 260.839844 L 41.480469 262.191406 L 41.480469 263.734375 L 41.289062 265.085938 L 40.902344 266.242188 L 40.324219 267.207031 L 39.554688 267.976562 L 38.589844 268.558594 L 37.429688 268.941406 L 36.082031 269.136719 L 34.539062 269.136719 L 33.1875 268.941406 L 32.03125 268.558594 L 31.066406 267.976562 L 30.292969 267.207031 L 29.714844 266.242188 L 29.328125 265.085938 L 29.136719 263.734375 L 29.136719 262.191406 L 29.328125 260.839844 L 29.714844 259.683594 L 30.292969 258.71875 L 31.066406 257.949219 L 32.03125 257.367188 L 33.1875 256.984375 Z M 34.539062 256.789062 "/>
<path style="fill:none;stroke-width:1.5;stroke-linecap:round;stroke-linejoin:round;stroke:rgb(89.411765%,10.196078%,10.980392%);stroke-opacity:1;stroke-miterlimit:10;" d="M 59.226562 269.136719 L 60.773438 269.136719 L 62.121094 269.328125 L 63.277344 269.714844 L 64.242188 270.292969 L 65.015625 271.066406 L 65.59375 272.03125 L 65.980469 273.1875 L 66.171875 274.535156 L 66.171875 276.082031 L 65.980469 277.429688 L 65.59375 278.589844 L 65.015625 279.550781 L 64.242188 280.324219 L 63.277344 280.902344 L 62.121094 281.289062 L 60.773438 281.480469 L 59.226562 281.480469 L 57.878906 281.289062 L 56.722656 280.902344 L 55.757812 280.324219 L 54.984375 279.550781 L 54.40625 278.589844 L 54.019531 277.429688 L 53.828125 276.082031 L 53.828125 274.535156 L 54.019531 273.1875 L 54.40625 272.03125 L 54.984375 271.066406 L 55.757812 270.292969 L 56.722656 269.714844 L 57.878906 269.328125 Z M 59.226562 269.136719 "/>
<path style="fill:none;stroke-width:1.5;stroke-linecap:round;stroke-linejoin:round;stroke:rgb(89.411765%,10.196078%,10.980392%);stroke-opacity:1;stroke-miterlimit:10;" d="M 83.917969 269.136719 L 85.460938 269.136719 L 86.8125 269.328125 L 87.96875 269.714844 L 88.933594 270.292969 L 89.707031 271.066406 L 90.285156 272.03125 L 90.671875 273.1875 L 90.863281 274.535156 L 90.863281 276.082031 L 90.671875 277.429688 L 90.285156 278.589844 L 89.707031 279.550781 L 88.933594 280.324219 L 87.96875 280.902344 L 86.8125 281.289062 L 85.460938 281.480469 L 83.917969 281.480469 L 82.570312 281.289062 L 81.410156 280.902344 L 80.445312 280.324219 L 79.675781 279.550781 L 79.097656 278.589844 L 78.710938 277.429688 L 78.519531 276.082031 L 78.519531 274.535156 L 78.710938 273.1875 L 79.097656 272.03125 L 79.675781 271.066406 L 80.445312 270.292969 L 81.410156 269.714844 L 82.570312 269.328125 Z M 83.917969 269.136719 "/>
<path style="fill:none;stroke-width:1.5;stroke-linecap:round;stroke-linejoin:round;stroke:rgb(89.411765%,10.196078%,10.980392%);stroke-opacity:1;stroke-miterlimit:10;" d="M 115.554688 262.191406 L 115.554688 263.734375 L 115.359375 265.085938 L 114.976562 266.242188 L 114.394531 267.207031 L 113.625 267.976562 L 112.660156 268.558594 L 111.503906 268.941406 L 110.152344 269.136719 L 108.609375 269.136719 L 107.257812 268.941406 L 106.101562 268.558594 L 105.136719 267.976562 L 104.367188 267.207031 L 103.785156 266.242188 L 103.402344 265.085938 L 103.207031 263.734375 L 103.207031 249.84375 L 103.402344 248.496094 L 103.785156 247.339844 L 104.367188 246.375 L 105.136719 245.601562 L 106.101562 245.023438 L 107.257812 244.636719 L 108.609375 244.445312 L 110.152344 244.445312 L 111.503906 244.636719 L 112.660156 245.023438 L 113.625 245.601562 L 114.394531 246.375 L 114.976562 247.339844 L 115.359375 248.496094 L 115.554688 249.84375 Z M 115.554688 262.191406 "/>
<path style="fill:none;stroke-width:1.5;stroke-linecap:round;stroke-linejoin:round;stroke:rgb(89.411765%,10.196078%,10.980392%);stroke-opacity:1;stroke-miterlimit:10;" d="M 16.792969 336.265625 L 16.792969 337.808594 L 16.597656 339.160156 L 16.214844 340.316406 L 15.632812 341.28125 L 14.863281 342.050781 L 13.898438 342.632812 L 12.742188 343.015625 L 11.390625 343.210938 L 9.847656 343.210938 L 8.496094 343.015625 L 7.339844 342.632812 L 6.375 342.050781 L 5.605469 341.28125 L 5.023438 340.316406 L 4.640625 339.160156 L 4.445312 337.808594 L 4.445312 323.917969 L 4.640625 322.570312 L 5.023438 321.410156 L 5.605469 320.449219 L 6.375 319.675781 L 7.339844 319.097656 L 8.496094 318.710938 L 9.847656 318.519531 L 11.390625 318.519531 L 12.742188 318.710938 L 13.898438 319.097656 L 14.863281 319.675781 L 15.632812 320.449219 L 16.214844 321.410156 L 16.597656 322.570312 L 16.792969 323.917969 Z M 16.792969 336.265625 "/>
<path style="fill:none;stroke-width:1.5;stroke-linecap:round;stroke-linejoin:round;stroke:rgb(89.411765%,10.196078%,10.980392%);stroke-opacity:1;stroke-miterlimit:10;" d="M 41.480469 348.609375 L 41.480469 350.15625 L 41.289062 351.503906 L 40.902344 352.660156 L 40.324219 353.625 L 39.554688 354.398438 L 38.589844 354.976562 L 37.429688 355.363281 L 36.082031 355.554688 L 34.539062 355.554688 L 33.1875 355.363281 L 32.03125 354.976562 L 31.066406 354.398438 L 30.292969 353.625 L 29.714844 352.660156 L 29.328125 351.503906 L 29.136719 350.15625 L 29.136719 311.574219 L 29.328125 310.222656 L 29.714844 309.066406 L 30.292969 308.101562 L 31.066406 307.332031 L 32.03125 306.75 L 33.1875 306.367188 L 34.539062 306.171875 L 48.425781 306.171875 L 49.777344 305.980469 L 50.933594 305.59375 L 51.898438 305.015625 L 52.671875 304.242188 L 53.25 303.28125 L 53.632812 302.121094 L 53.828125 300.773438 L 53.828125 299.226562 L 54.019531 297.878906 L 54.40625 296.71875 L 54.984375 295.757812 L 55.757812 294.984375 L 56.722656 294.40625 L 57.878906 294.019531 L 59.226562 293.828125 L 60.773438 293.828125 L 62.121094 294.019531 L 63.277344 294.40625 L 64.242188 294.984375 L 65.015625 295.757812 L 65.59375 296.71875 L 65.980469 297.878906 L 66.171875 299.226562 L 66.171875 300.773438 L 66.367188 302.121094 L 66.75 303.28125 L 67.328125 304.242188 L 68.101562 305.015625 L 69.066406 305.59375 L 70.222656 305.980469 L 71.574219 306.171875 L 73.117188 306.171875 L 74.46875 306.367188 L 75.625 306.75 L 76.589844 307.332031 L 77.359375 308.101562 L 77.9375 309.066406 L 78.324219 310.222656 L 78.519531 311.574219 L 78.519531 313.117188 L 78.324219 314.46875 L 77.9375 315.625 L 77.359375 316.589844 L 76.589844 317.359375 L 75.625 317.941406 L 74.46875 318.324219 L 73.117188 318.519531 L 71.574219 318.519531 L 70.222656 318.710938 L 69.066406 319.097656 L 68.101562 319.675781 L 67.328125 320.449219 L 66.75 321.410156 L 66.367188 322.570312 L 66.171875 323.917969 L 66.171875 325.464844 L 66.367188 326.8125 L 66.75 327.96875 L 67.328125 328.933594 L 68.101562 329.707031 L 69.066406 330.285156 L 70.222656 330.671875 L 71.574219 330.863281 L 73.117188 330.863281 L 74.46875 331.058594 L 75.625 331.441406 L 76.589844 332.023438 L 77.359375 332.792969 L 77.9375 333.757812 L 78.324219 334.914062 L 78.519531 336.265625 L 78.519531 337.808594 L 78.324219 339.160156 L 77.9375 340.316406 L 77.359375 341.28125 L 76.589844 342.050781 L 75.625 342.632812 L 74.46875 343.015625 L 73.117188 343.210938 L 71.574219 343.210938 L 70.222656 343.402344 L 69.066406 343.789062 L 68.101562 344.367188 L 67.328125 345.140625 L 66.75 346.101562 L 66.367188 347.261719 L 66.171875 348.609375 L 66.171875 350.15625 L 65.980469 351.503906 L 65.59375 352.660156 L 65.015625 353.625 L 64.242188 354.398438 L 63.277344 354.976562 L 62.121094 355.363281 L 60.773438 355.554688 L 59.226562 355.554688 L 57.878906 355.363281 L 56.722656 354.976562 L 55.757812 354.398438 L 54.984375 353.625 L 54.40625 352.660156 L 54.019531 351.503906 L 53.828125 350.15625 L 53.828125 323.917969 L 53.632812 322.570312 L 53.25 321.410156 L 52.671875 320.449219 L 51.898438 319.675781 L 50.933594 319.097656 L 49.777344 318.710938 L 48.425781 318.519531 L 46.882812 318.519531 L 45.53125 318.710938 L 44.375 319.097656 L 43.410156 319.675781 L 42.640625 320.449219 L 42.0625 321.410156 L 41.675781 322.570312 L 41.480469 323.917969 Z M 41.480469 348.609375 "/>
<path style="fill:none;stroke-width:1.5;stroke-linecap:round;stroke-linejoin:round;stroke:rgb(89.411765%,10.196078%,10.980392%);stroke-opacity:1;stroke-miterlimit:10;" d="M 108.609375 318.519531 L 110.152344 318.519531 L 111.503906 318.710938 L 112.660156 319.097656 L 113.625 319.675781 L 114.394531 320.449219 L 114.976562 321.410156 L 115.359375 322.570312 L 115.554688 323.917969 L 115.554688 325.464844 L 115.359375 326.8125 L 114.976562 327.96875 L 114.394531 328.933594 L 113.625 329.707031 L 112.660156 330.285156 L 111.503906 330.671875 L 110.152344 330.863281 L 108.609375 330.863281 L 107.257812 330.671875 L 106.101562 330.285156 L 105.136719 329.707031 L 104.367188 328.933594 L 103.785156 327.96875 L 103.402344 326.8125 L 103.207031 325.464844 L 103.207031 323.917969 L 103.402344 322.570312 L 103.785156 321.410156 L 104.367188 320.449219 L 105.136719 319.675781 L 106.101562 319.097656 L 107.257812 318.710938 Z M 108.609375 318.519531 "/>
<path style="fill:none;stroke-width:1.5;stroke-linecap:round;stroke-linejoin:round;stroke:rgb(89.411765%,10.196078%,10.980392%);stroke-opacity:1;stroke-miterlimit:10;" d="M 103.207031 311.574219 L 103.207031 313.117188 L 103.015625 314.46875 L 102.628906 315.625 L 102.050781 316.589844 L 101.277344 317.359375 L 100.316406 317.941406 L 99.15625 318.324219 L 97.808594 318.519531 L 96.265625 318.519531 L 94.914062 318.324219 L 93.757812 317.941406 L 92.792969 317.359375 L 92.019531 316.589844 L 91.441406 315.625 L 91.054688 314.46875 L 90.863281 313.117188 L 90.863281 286.882812 L 91.054688 285.53125 L 91.441406 284.375 L 92.019531 283.410156 L 92.792969 282.640625 L 93.757812 282.058594 L 94.914062 281.675781 L 96.265625 281.480469 L 110.152344 281.480469 L 111.503906 281.675781 L 112.660156 282.058594 L 113.625 282.640625 L 114.394531 283.410156 L 114.976562 284.375 L 115.359375 285.53125 L 115.554688 286.882812 L 115.554688 288.425781 L 115.359375 289.777344 L 114.976562 290.933594 L 114.394531 291.898438 L 113.625 292.667969 L 112.660156 293.25 L 111.503906 293.632812 L 110.152344 293.828125 L 108.609375 293.828125 L 107.257812 294.019531 L 106.101562 294.40625 L 105.136719 294.984375 L 104.367188 295.757812 L 103.785156 296.71875 L 103.402344 297.878906 L 103.207031 299.226562 Z M 103.207031 311.574219 "/>
<path style=" stroke:none;fill-rule:evenodd;fill:rgb(40%,40%,40%);fill-opacity:1;" d="M 124.445312 343.210938 L 136.792969 343.210938 L 136.792969 355.554688 L 124.445312 355.554688 Z M 124.445312 343.210938 "/>
<path style=" stroke:none;fill-rule:evenodd;fill:rgb(40%,40%,40%);fill-opacity:1;" d="M 223.207031 343.210938 L 235.554688 343.210938 L 235.554688 355.554688 L 223.207031 355.554688 Z M 223.207031 343.210938 "/>
<path style=" stroke:none;fill-rule:evenodd;fill:rgb(40%,40%,40%);fill-opacity:1;" d="M 210.863281 330.863281 L 223.207031 330.863281 L 223.207031 343.210938 L 210.863281 343.210938 Z M 210.863281 330.863281 "/>
<path style=" stroke:none;fill-rule:evenodd;fill:rgb(40%,40%,40%);fill-opacity:1;" d="M 198.519531 318.519531 L 210.863281 318.519531 L 210.863281 330.863281 L 198.519531 330.863281 Z M 198.519531 318.519531 "/>
<path style=" stroke:none;fill-rule:evenodd;fill:rgb(40%,40%,40%);fill-opacity:1;" d="M 186.171875 306.171875 L 198.519531 306.171875 L 198.519531 318.519531 L 186.171875 318.519531 Z M 186.171875 306.171875 "/>
<path style=" stroke:none;fill-rule:evenodd;fill:rgb(40%,40%,40%);fill-opacity:1;" d="M 124.445312 244.445312 L 136.792969 244.445312 L 136.792969 256.789062 L 124.445312 256.789062 Z M 124.445312 244.445312 "/>
<path style=" stroke:none;fill-rule:evenodd;fill:rgb(40%,40%,40%);fill-opacity:1;" d="M 149.136719 269.136719 L 161.480469 269.136719 L 161.480469 281.480469 L 149.136719 281.480469 Z M 149.136719 269.136719 "/>
<path style=" stroke:none;fill-rule:evenodd;fill:rgb(40%,40%,40%);fill-opacity:1;" d="M 136.792969 256.789062 L 149.136719 256.789062 L 149.136719 269.136719 L 136.792969 269.136719 Z M 136.792969 256.789062 "/>
<path style=" stroke:none;fill-rule:evenodd;fill:rgb(40%,40%,40%);fill-opacity:1;" d="M 223.207031 244.445312 L 235.554688 244.445312 L 235.554688 256.789062 L 223.207031 256.789062 Z M 223.207031 244.445312 "/>
<path style=" stroke:none;fill-rule:evenodd;fill:rgb(40%,40%,40%);fill-opacity:1;" d="M 173.828125 293.828125 L 186.171875 293.828125 L 186.171875 306.171875 L 173.828125 306.171875 Z M 173.828125 293.828125 "/>
<path style=" stroke:none;fill-rule:evenodd;fill:rgb(40%,40%,40%);fill-opacity:1;" d="M 161.480469 281.480469 L 173.828125 281.480469 L 173.828125 293.828125 L 161.480469 293.828125 Z M 161.480469 281.480469 "/>
<path style="fill:none;stroke-width:1.5;stroke-linecap:round;stroke-linejoin:round;stroke:rgb(89.411765%,10.196078%,10.980392%);stroke-opacity:1;stroke-miterlimit:10;" d="M 129.847656 343.210938 L 131.390625 343.210938 L 132.742188 343.402344 L 133.898438 343.789062 L 134.863281 344.367188 L 135.632812 345.140625 L 136.214844 346.101562 L 136.597656 347.261719 L 136.792969 348.609375 L 136.792969 350.15625 L 136.597656 351.503906 L 136.214844 352.660156 L 135.632812 353.625 L 134.863281 354.398438 L 133.898438 354.976562 L 132.742188 355.363281 L 131.390625 355.554688 L 129.847656 355.554688 L 128.496094 355.363281 L 127.339844 354.976562 L 126.375 354.398438 L 125.605469 353.625 L 125.023438 352.660156 L 124.640625 351.503906 L 124.445312 350.15625 L 124.445312 348.609375 L 124.640625 347.261719 L 125.023438 346.101562 L 125.605469 345.140625 L 126.375 344.367188 L 127.339844 343.789062 L 128.496094 343.402344 Z M 129.847656 343.210938 "/>
<path style="fill:none;stroke-width:1.5;stroke-linecap:round;stroke-linejoin:round;stroke:rgb(89.411765%,10.196078%,10.980392%);stroke-opacity:1;stroke-miterlimit:10;" d="M 228.609375 343.210938 L 230.152344 343.210938 L 231.503906 343.402344 L 232.660156 343.789062 L 233.625 344.367188 L 234.394531 345.140625 L 234.976562 346.101562 L 235.359375 347.261719 L 235.554688 348.609375 L 235.554688 350.15625 L 235.359375 351.503906 L 234.976562 352.660156 L 234.394531 353.625 L 233.625 354.398438 L 232.660156 354.976562 L 231.503906 355.363281 L 230.152344 355.554688 L 228.609375 355.554688 L 227.257812 355.363281 L 226.101562 354.976562 L 225.136719 354.398438 L 224.367188 353.625 L 223.785156 352.660156 L 223.402344 351.503906 L 223.207031 350.15625 L 223.207031 348.609375 L 223.402344 347.261719 L 223.785156 346.101562 L 224.367188 345.140625 L 225.136719 344.367188 L 226.101562 343.789062 L 227.257812 343.402344 Z M 228.609375 343.210938 "/>
<path style="fill:none;stroke-width:1.5;stroke-linecap:round;stroke-linejoin:round;stroke:rgb(89.411765%,10.196078%,10.980392%);stroke-opacity:1;stroke-miterlimit:10;" d="M 216.265625 330.863281 L 217.808594 330.863281 L 219.15625 331.058594 L 220.316406 331.441406 L 221.277344 332.023438 L 222.050781 332.792969 L 222.628906 333.757812 L 223.015625 334.914062 L 223.207031 336.265625 L 223.207031 337.808594 L 223.015625 339.160156 L 222.628906 340.316406 L 222.050781 341.28125 L 221.277344 342.050781 L 220.316406 342.632812 L 219.15625 343.015625 L 217.808594 343.210938 L 216.265625 343.210938 L 214.914062 343.015625 L 213.757812 342.632812 L 212.792969 342.050781 L 212.019531 341.28125 L 211.441406 340.316406 L 211.054688 339.160156 L 210.863281 337.808594 L 210.863281 336.265625 L 211.054688 334.914062 L 211.441406 333.757812 L 212.019531 332.792969 L 212.792969 332.023438 L 213.757812 331.441406 L 214.914062 331.058594 Z M 216.265625 330.863281 "/>
<path style="fill:none;stroke-width:1.5;stroke-linecap:round;stroke-linejoin:round;stroke:rgb(89.411765%,10.196078%,10.980392%);stroke-opacity:1;stroke-miterlimit:10;" d="M 203.917969 318.519531 L 205.460938 318.519531 L 206.8125 318.710938 L 207.96875 319.097656 L 208.933594 319.675781 L 209.707031 320.449219 L 210.285156 321.410156 L 210.671875 322.570312 L 210.863281 323.917969 L 210.863281 325.464844 L 210.671875 326.8125 L 210.285156 327.96875 L 209.707031 328.933594 L 208.933594 329.707031 L 207.96875 330.285156 L 206.8125 330.671875 L 205.460938 330.863281 L 203.917969 330.863281 L 202.570312 330.671875 L 201.410156 330.285156 L 200.445312 329.707031 L 199.675781 328.933594 L 199.097656 327.96875 L 198.710938 326.8125 L 198.519531 325.464844 L 198.519531 323.917969 L 198.710938 322.570312 L 199.097656 321.410156 L 199.675781 320.449219 L 200.445312 319.675781 L 201.410156 319.097656 L 202.570312 318.710938 Z M 203.917969 318.519531 "/>
<path style="fill:none;stroke-width:1.5;stroke-linecap:round;stroke-linejoin:round;stroke:rgb(89.411765%,10.196078%,10.980392%);stroke-opacity:1;stroke-miterlimit:10;" d="M 191.574219 306.171875 L 193.117188 306.171875 L 194.46875 306.367188 L 195.625 306.75 L 196.589844 307.332031 L 197.359375 308.101562 L 197.9375 309.066406 L 198.324219 310.222656 L 198.519531 311.574219 L 198.519531 313.117188 L 198.324219 314.46875 L 197.9375 315.625 L 197.359375 316.589844 L 196.589844 317.359375 L 195.625 317.941406 L 194.46875 318.324219 L 193.117188 318.519531 L 191.574219 318.519531 L 190.222656 318.324219 L 189.066406 317.941406 L 188.101562 317.359375 L 187.328125 316.589844 L 186.75 315.625 L 186.367188 314.46875 L 186.171875 313.117188 L 186.171875 311.574219 L 186.367188 310.222656 L 186.75 309.066406 L 187.328125 308.101562 L 188.101562 307.332031 L 189.066406 306.75 L 190.222656 306.367188 Z M 191.574219 306.171875 "/>
<path style="fill:none;stroke-width:1.5;stroke-linecap:round;stroke-linejoin:round;stroke:rgb(89.411765%,10.196078%,10.980392%);stroke-opacity:1;stroke-miterlimit:10;" d="M 129.847656 244.445312 L 131.390625 244.445312 L 132.742188 244.636719 L 133.898438 245.023438 L 134.863281 245.601562 L 135.632812 246.375 L 136.214844 247.339844 L 136.597656 248.496094 L 136.792969 249.84375 L 136.792969 251.390625 L 136.597656 252.738281 L 136.214844 253.898438 L 135.632812 254.859375 L 134.863281 255.632812 L 133.898438 256.210938 L 132.742188 256.597656 L 131.390625 256.789062 L 129.847656 256.789062 L 128.496094 256.597656 L 127.339844 256.210938 L 126.375 255.632812 L 125.605469 254.859375 L 125.023438 253.898438 L 124.640625 252.738281 L 124.445312 251.390625 L 124.445312 249.84375 L 124.640625 248.496094 L 125.023438 247.339844 L 125.605469 246.375 L 126.375 245.601562 L 127.339844 245.023438 L 128.496094 244.636719 Z M 129.847656 244.445312 "/>
<path style="fill:none;stroke-width:1.5;stroke-linecap:round;stroke-linejoin:round;stroke:rgb(89.411765%,10.196078%,10.980392%);stroke-opacity:1;stroke-miterlimit:10;" d="M 154.539062 269.136719 L 156.082031 269.136719 L 157.429688 269.328125 L 158.589844 269.714844 L 159.554688 270.292969 L 160.324219 271.066406 L 160.902344 272.03125 L 161.289062 273.1875 L 161.480469 274.535156 L 161.480469 276.082031 L 161.289062 277.429688 L 160.902344 278.589844 L 160.324219 279.550781 L 159.554688 280.324219 L 158.589844 280.902344 L 157.429688 281.289062 L 156.082031 281.480469 L 154.539062 281.480469 L 153.1875 281.289062 L 152.03125 280.902344 L 151.066406 280.324219 L 150.292969 279.550781 L 149.714844 278.589844 L 149.328125 277.429688 L 149.136719 276.082031 L 149.136719 274.535156 L 149.328125 273.1875 L 149.714844 272.03125 L 150.292969 271.066406 L 151.066406 270.292969 L 152.03125 269.714844 L 153.1875 269.328125 Z M 154.539062 269.136719 "/>
<path style="fill:none;stroke-width:1.5;stroke-linecap:round;stroke-linejoin:round;stroke:rgb(89.411765%,10.196078%,10.980392%);stroke-opacity:1;stroke-miterlimit:10;" d="M 142.191406 256.789062 L 143.734375 256.789062 L 145.085938 256.984375 L 146.242188 257.367188 L 147.207031 257.949219 L 147.980469 258.71875 L 148.558594 259.683594 L 148.945312 260.839844 L 149.136719 262.191406 L 149.136719 263.734375 L 148.945312 265.085938 L 148.558594 266.242188 L 147.980469 267.207031 L 147.207031 267.976562 L 146.242188 268.558594 L 145.085938 268.941406 L 143.734375 269.136719 L 142.191406 269.136719 L 140.84375 268.941406 L 139.683594 268.558594 L 138.722656 267.976562 L 137.949219 267.207031 L 137.371094 266.242188 L 136.984375 265.085938 L 136.792969 263.734375 L 136.792969 262.191406 L 136.984375 260.839844 L 137.371094 259.683594 L 137.949219 258.71875 L 138.722656 257.949219 L 139.683594 257.367188 L 140.84375 256.984375 Z M 142.191406 256.789062 "/>
<path style="fill:none;stroke-width:1.5;stroke-linecap:round;stroke-linejoin:round;stroke:rgb(89.411765%,10.196078%,10.980392%);stroke-opacity:1;stroke-miterlimit:10;" d="M 228.609375 244.445312 L 230.152344 244.445312 L 231.503906 244.636719 L 232.660156 245.023438 L 233.625 245.601562 L 234.394531 246.375 L 234.976562 247.339844 L 235.359375 248.496094 L 235.554688 249.84375 L 235.554688 251.390625 L 235.359375 252.738281 L 234.976562 253.898438 L 234.394531 254.859375 L 233.625 255.632812 L 232.660156 256.210938 L 231.503906 256.597656 L 230.152344 256.789062 L 228.609375 256.789062 L 227.257812 256.597656 L 226.101562 256.210938 L 225.136719 255.632812 L 224.367188 254.859375 L 223.785156 253.898438 L 223.402344 252.738281 L 223.207031 251.390625 L 223.207031 249.84375 L 223.402344 248.496094 L 223.785156 247.339844 L 224.367188 246.375 L 225.136719 245.601562 L 226.101562 245.023438 L 227.257812 244.636719 Z M 228.609375 244.445312 "/>
<path style="fill:none;stroke-width:1.5;stroke-linecap:round;stroke-linejoin:round;stroke:rgb(89.411765%,10.196078%,10.980392%);stroke-opacity:1;stroke-miterlimit:10;" d="M 179.226562 293.828125 L 180.773438 293.828125 L 182.121094 294.019531 L 183.277344 294.40625 L 184.242188 294.984375 L 185.015625 295.757812 L 185.59375 296.71875 L 185.980469 297.878906 L 186.171875 299.226562 L 186.171875 300.773438 L 185.980469 302.121094 L 185.59375 303.28125 L 185.015625 304.242188 L 184.242188 305.015625 L 183.277344 305.59375 L 182.121094 305.980469 L 180.773438 306.171875 L 179.226562 306.171875 L 177.878906 305.980469 L 176.722656 305.59375 L 175.757812 305.015625 L 174.984375 304.242188 L 174.40625 303.28125 L 174.019531 302.121094 L 173.828125 300.773438 L 173.828125 299.226562 L 174.019531 297.878906 L 174.40625 296.71875 L 174.984375 295.757812 L 175.757812 294.984375 L 176.722656 294.40625 L 177.878906 294.019531 Z M 179.226562 293.828125 "/>
<path style="fill:none;stroke-width:1.5;stroke-linecap:round;stroke-linejoin:round;stroke:rgb(89.411765%,10.196078%,10.980392%);stroke-opacity:1;stroke-miterlimit:10;" d="M 166.882812 281.480469 L 168.425781 281.480469 L 169.777344 281.675781 L 170.933594 282.058594 L 171.898438 282.640625 L 172.671875 283.410156 L 173.25 284.375 L 173.632812 285.53125 L 173.828125 286.882812 L 173.828125 288.425781 L 173.632812 289.777344 L 173.25 290.933594 L 172.671875 291.898438 L 171.898438 292.667969 L 170.933594 293.25 L 169.777344 293.632812 L 168.425781 293.828125 L 166.882812 293.828125 L 165.53125 293.632812 L 164.375 293.25 L 163.410156 292.667969 L 162.640625 291.898438 L 162.0625 290.933594 L 161.675781 289.777344 L 161.480469 288.425781 L 161.480469 286.882812 L 161.675781 285.53125 L 162.0625 284.375 L 162.640625 283.410156 L 163.410156 282.640625 L 164.375 282.058594 L 165.53125 281.675781 Z M 166.882812 281.480469 "/>
<path style=" stroke:none;fill-rule:evenodd;fill:rgb(40%,40%,40%);fill-opacity:1;" d="M 306.171875 343.210938 L 306.171875 355.554688 L 293.828125 355.554688 L 293.828125 343.210938 L 269.136719 343.210938 L 269.136719 330.863281 L 256.792969 330.863281 L 256.792969 306.171875 L 244.445312 306.171875 L 244.445312 293.828125 L 256.792969 293.828125 L 256.792969 269.136719 L 269.136719 269.136719 L 269.136719 256.789062 L 293.828125 256.789062 L 293.828125 244.445312 L 306.171875 244.445312 L 306.171875 256.789062 L 330.863281 256.789062 L 330.863281 269.136719 L 343.207031 269.136719 L 343.207031 293.828125 L 355.554688 293.828125 L 355.554688 306.171875 L 343.207031 306.171875 L 343.207031 330.863281 L 330.863281 330.863281 L 330.863281 343.210938 Z M 269.136719 293.828125 L 269.136719 318.519531 L 281.480469 318.519531 L 281.480469 330.863281 L 318.519531 330.863281 L 318.519531 318.519531 L 330.863281 318.519531 L 330.863281 281.480469 L 318.519531 281.480469 L 318.519531 269.136719 L 281.480469 269.136719 L 281.480469 281.480469 L 269.136719 281.480469 Z M 269.136719 293.828125 "/>
<path style=" stroke:none;fill-rule:evenodd;fill:rgb(40%,40%,40%);fill-opacity:1;" d="M 306.171875 306.171875 L 306.171875 318.519531 L 293.828125 318.519531 L 293.828125 306.171875 L 281.480469 306.171875 L 281.480469 293.828125 L 293.828125 293.828125 L 293.828125 281.480469 L 306.171875 281.480469 L 306.171875 293.828125 L 318.519531 293.828125 L 318.519531 306.171875 Z M 306.171875 306.171875 "/>
<path style="fill:none;stroke-width:1.5;stroke-linecap:round;stroke-linejoin:round;stroke:rgb(89.411765%,10.196078%,10.980392%);stroke-opacity:1;stroke-miterlimit:10;" d="M 306.171875 348.609375 L 306.171875 350.15625 L 305.980469 351.503906 L 305.59375 352.660156 L 305.015625 353.625 L 304.242188 354.398438 L 303.277344 354.976562 L 302.121094 355.363281 L 300.773438 355.554688 L 299.226562 355.554688 L 297.878906 355.363281 L 296.722656 354.976562 L 295.757812 354.398438 L 294.984375 353.625 L 294.40625 352.660156 L 294.019531 351.503906 L 293.828125 350.15625 L 293.828125 348.609375 L 293.632812 347.261719 L 293.25 346.101562 L 292.671875 345.140625 L 291.898438 344.367188 L 290.933594 343.789062 L 289.777344 343.402344 L 288.425781 343.210938 L 274.539062 343.210938 L 273.1875 343.015625 L 272.03125 342.632812 L 271.066406 342.050781 L 270.292969 341.28125 L 269.714844 340.316406 L 269.328125 339.160156 L 269.136719 337.808594 L 269.136719 336.265625 L 268.945312 334.914062 L 268.558594 333.757812 L 267.980469 332.792969 L 267.207031 332.023438 L 266.242188 331.441406 L 265.085938 331.058594 L 263.734375 330.863281 L 262.191406 330.863281 L 260.84375 330.671875 L 259.683594 330.285156 L 258.722656 329.707031 L 257.949219 328.933594 L 257.371094 327.96875 L 256.984375 326.8125 L 256.792969 325.464844 L 256.792969 311.574219 L 256.597656 310.222656 L 256.214844 309.066406 L 255.632812 308.101562 L 254.863281 307.332031 L 253.898438 306.75 L 252.742188 306.367188 L 251.390625 306.171875 L 249.847656 306.171875 L 248.496094 305.980469 L 247.339844 305.59375 L 246.375 305.015625 L 245.605469 304.242188 L 245.023438 303.28125 L 244.640625 302.121094 L 244.445312 300.773438 L 244.445312 299.226562 L 244.640625 297.878906 L 245.023438 296.71875 L 245.605469 295.757812 L 246.375 294.984375 L 247.339844 294.40625 L 248.496094 294.019531 L 249.847656 293.828125 L 251.390625 293.828125 L 252.742188 293.632812 L 253.898438 293.25 L 254.863281 292.667969 L 255.632812 291.898438 L 256.214844 290.933594 L 256.597656 289.777344 L 256.792969 288.425781 L 256.792969 274.535156 L 256.984375 273.1875 L 257.371094 272.03125 L 257.949219 271.066406 L 258.722656 270.292969 L 259.683594 269.714844 L 260.84375 269.328125 L 262.191406 269.136719 L 263.734375 269.136719 L 265.085938 268.941406 L 266.242188 268.558594 L 267.207031 267.976562 L 267.980469 267.207031 L 268.558594 266.242188 L 268.945312 265.085938 L 269.136719 263.734375 L 269.136719 262.191406 L 269.328125 260.839844 L 269.714844 259.683594 L 270.292969 258.71875 L 271.066406 257.949219 L 272.03125 257.367188 L 273.1875 256.984375 L 274.539062 256.789062 L 288.425781 256.789062 L 289.777344 256.597656 L 290.933594 256.210938 L 291.898438 255.632812 L 292.671875 254.859375 L 293.25 253.898438 L 293.632812 252.738281 L 293.828125 251.390625 L 293.828125 249.84375 L 294.019531 248.496094 L 294.40625 247.339844 L 294.984375 246.375 L 295.757812 245.601562 L 296.722656 245.023438 L 297.878906 244.636719 L 299.226562 244.445312 L 300.773438 244.445312 L 302.121094 244.636719 L 303.277344 245.023438 L 304.242188 245.601562 L 305.015625 246.375 L 305.59375 247.339844 L 305.980469 248.496094 L 306.171875 249.84375 L 306.171875 251.390625 L 306.367188 252.738281 L 306.75 253.898438 L 307.328125 254.859375 L 308.101562 255.632812 L 309.066406 256.210938 L 310.222656 256.597656 L 311.574219 256.789062 L 325.460938 256.789062 L 326.8125 256.984375 L 327.96875 257.367188 L 328.933594 257.949219 L 329.707031 258.71875 L 330.285156 259.683594 L 330.671875 260.839844 L 330.863281 262.191406 L 330.863281 263.734375 L 331.054688 265.085938 L 331.441406 266.242188 L 332.019531 267.207031 L 332.792969 267.976562 L 333.757812 268.558594 L 334.914062 268.941406 L 336.265625 269.136719 L 337.808594 269.136719 L 339.15625 269.328125 L 340.316406 269.714844 L 341.277344 270.292969 L 342.050781 271.066406 L 342.628906 272.03125 L 343.015625 273.1875 L 343.207031 274.535156 L 343.207031 288.425781 L 343.402344 289.777344 L 343.785156 290.933594 L 344.367188 291.898438 L 345.136719 292.667969 L 346.101562 293.25 L 347.257812 293.632812 L 348.609375 293.828125 L 350.152344 293.828125 L 351.503906 294.019531 L 352.660156 294.40625 L 353.625 294.984375 L 354.394531 295.757812 L 354.976562 296.71875 L 355.359375 297.878906 L 355.554688 299.226562 L 355.554688 300.773438 L 355.359375 302.121094 L 354.976562 303.28125 L 354.394531 304.242188 L 353.625 305.015625 L 352.660156 305.59375 L 351.503906 305.980469 L 350.152344 306.171875 L 348.609375 306.171875 L 347.257812 306.367188 L 346.101562 306.75 L 345.136719 307.332031 L 344.367188 308.101562 L 343.785156 309.066406 L 343.402344 310.222656 L 343.207031 311.574219 L 343.207031 325.464844 L 343.015625 326.8125 L 342.628906 327.96875 L 342.050781 328.933594 L 341.277344 329.707031 L 340.316406 330.285156 L 339.15625 330.671875 L 337.808594 330.863281 L 336.265625 330.863281 L 334.914062 331.058594 L 333.757812 331.441406 L 332.792969 332.023438 L 332.019531 332.792969 L 331.441406 333.757812 L 331.054688 334.914062 L 330.863281 336.265625 L 330.863281 337.808594 L 330.671875 339.160156 L 330.285156 340.316406 L 329.707031 341.28125 L 328.933594 342.050781 L 327.96875 342.632812 L 326.8125 343.015625 L 325.460938 343.210938 L 311.574219 343.210938 L 310.222656 343.402344 L 309.066406 343.789062 L 308.101562 344.367188 L 307.328125 345.140625 L 306.75 346.101562 L 306.367188 347.261719 Z M 269.136719 299.226562 L 269.136719 313.117188 L 269.328125 314.46875 L 269.714844 315.625 L 270.292969 316.589844 L 271.066406 317.359375 L 272.03125 317.941406 L 273.1875 318.324219 L 274.539062 318.519531 L 276.082031 318.519531 L 277.429688 318.710938 L 278.589844 319.097656 L 279.554688 319.675781 L 280.324219 320.449219 L 280.902344 321.410156 L 281.289062 322.570312 L 281.480469 323.917969 L 281.480469 325.464844 L 281.675781 326.8125 L 282.0625 327.96875 L 282.640625 328.933594 L 283.410156 329.707031 L 284.375 330.285156 L 285.53125 330.671875 L 286.882812 330.863281 L 313.117188 330.863281 L 314.46875 330.671875 L 315.625 330.285156 L 316.589844 329.707031 L 317.359375 328.933594 L 317.9375 327.96875 L 318.324219 326.8125 L 318.519531 325.464844 L 318.519531 323.917969 L 318.710938 322.570312 L 319.097656 321.410156 L 319.675781 320.449219 L 320.445312 319.675781 L 321.410156 319.097656 L 322.570312 318.710938 L 323.917969 318.519531 L 325.460938 318.519531 L 326.8125 318.324219 L 327.96875 317.941406 L 328.933594 317.359375 L 329.707031 316.589844 L 330.285156 315.625 L 330.671875 314.46875 L 330.863281 313.117188 L 330.863281 286.882812 L 330.671875 285.53125 L 330.285156 284.375 L 329.707031 283.410156 L 328.933594 282.640625 L 327.96875 282.058594 L 326.8125 281.675781 L 325.460938 281.480469 L 323.917969 281.480469 L 322.570312 281.289062 L 321.410156 280.902344 L 320.445312 280.324219 L 319.675781 279.550781 L 319.097656 278.589844 L 318.710938 277.429688 L 318.519531 276.082031 L 318.519531 274.535156 L 318.324219 273.1875 L 317.9375 272.03125 L 317.359375 271.066406 L 316.589844 270.292969 L 315.625 269.714844 L 314.46875 269.328125 L 313.117188 269.136719 L 286.882812 269.136719 L 285.53125 269.328125 L 284.375 269.714844 L 283.410156 270.292969 L 282.640625 271.066406 L 282.0625 272.03125 L 281.675781 273.1875 L 281.480469 274.535156 L 281.480469 276.082031 L 281.289062 277.429688 L 280.902344 278.589844 L 280.324219 279.550781 L 279.554688 280.324219 L 278.589844 280.902344 L 277.429688 281.289062 L 276.082031 281.480469 L 274.539062 281.480469 L 273.1875 281.675781 L 272.03125 282.058594 L 271.066406 282.640625 L 270.292969 283.410156 L 269.714844 284.375 L 269.328125 285.53125 L 269.136719 286.882812 Z M 269.136719 299.226562 "/>
<path style="fill:none;stroke-width:1.5;stroke-linecap:round;stroke-linejoin:round;stroke:rgb(89.411765%,10.196078%,10.980392%);stroke-opacity:1;stroke-miterlimit:10;" d="M 306.171875 311.574219 L 306.171875 313.117188 L 305.980469 314.46875 L 305.59375 315.625 L 305.015625 316.589844 L 304.242188 317.359375 L 303.277344 317.941406 L 302.121094 318.324219 L 300.773438 318.519531 L 299.226562 318.519531 L 297.878906 318.324219 L 296.722656 317.941406 L 295.757812 317.359375 L 294.984375 316.589844 L 294.40625 315.625 L 294.019531 314.46875 L 293.828125 313.117188 L 293.828125 311.574219 L 293.632812 310.222656 L 293.25 309.066406 L 292.671875 308.101562 L 291.898438 307.332031 L 290.933594 306.75 L 289.777344 306.367188 L 288.425781 306.171875 L 286.882812 306.171875 L 285.53125 305.980469 L 284.375 305.59375 L 283.410156 305.015625 L 282.640625 304.242188 L 282.0625 303.28125 L 281.675781 302.121094 L 281.480469 300.773438 L 281.480469 299.226562 L 281.675781 297.878906 L 282.0625 296.71875 L 282.640625 295.757812 L 283.410156 294.984375 L 284.375 294.40625 L 285.53125 294.019531 L 286.882812 293.828125 L 288.425781 293.828125 L 289.777344 293.632812 L 290.933594 293.25 L 291.898438 292.667969 L 292.671875 291.898438 L 293.25 290.933594 L 293.632812 289.777344 L 293.828125 288.425781 L 293.828125 286.882812 L 294.019531 285.53125 L 294.40625 284.375 L 294.984375 283.410156 L 295.757812 282.640625 L 296.722656 282.058594 L 297.878906 281.675781 L 299.226562 281.480469 L 300.773438 281.480469 L 302.121094 281.675781 L 303.277344 282.058594 L 304.242188 282.640625 L 305.015625 283.410156 L 305.59375 284.375 L 305.980469 285.53125 L 306.171875 286.882812 L 306.171875 288.425781 L 306.367188 289.777344 L 306.75 290.933594 L 307.328125 291.898438 L 308.101562 292.667969 L 309.066406 293.25 L 310.222656 293.632812 L 311.574219 293.828125 L 313.117188 293.828125 L 314.46875 294.019531 L 315.625 294.40625 L 316.589844 294.984375 L 317.359375 295.757812 L 317.9375 296.71875 L 318.324219 297.878906 L 318.519531 299.226562 L 318.519531 300.773438 L 318.324219 302.121094 L 317.9375 303.28125 L 317.359375 304.242188 L 316.589844 305.015625 L 315.625 305.59375 L 314.46875 305.980469 L 313.117188 306.171875 L 311.574219 306.171875 L 310.222656 306.367188 L 309.066406 306.75 L 308.101562 307.332031 L 307.328125 308.101562 L 306.75 309.066406 L 306.367188 310.222656 Z M 306.171875 311.574219 "/>
</g>
</svg>
