<?xml version="1.0" encoding="UTF-8"?>
<svg xmlns="http://www.w3.org/2000/svg" xmlns:xlink="http://www.w3.org/1999/xlink" width="360pt" height="360pt" viewBox="0 0 360 360" version="1.1">
<g id="surface6">
<rect x="0" y="0" width="360" height="360" style="fill:rgb(100%,100%,100%);fill-opacity:1;stroke:none;"/>
<path style="fill:none;stroke-width:2.25;stroke-linecap:round;stroke-linejoin:round;stroke:rgb(20%,20%,20%);stroke-opacity:1;stroke-miterlimit:10;" d="M 4.445312 115.554688 L 32.222656 115.121094 L 60 108.609375 L 87.777344 80.398438 L 115.554688 4.445312 "/>
<path style="fill:none;stroke-width:2.25;stroke-linecap:round;stroke-linejoin:round;stroke:rgb(20%,20%,20%);stroke-opacity:1;stroke-miterlimit:10;" d="M 124.445312 60 L 146.667969 7.160156 L 168.890625 27.34375 L 191.109375 92.65625 L 213.332031 112.839844 L 235.554688 60 "/>
<path style="fill:none;stroke-width:2.25;stroke-linecap:round;stroke-linejoin:round;stroke:rgb(20%,20%,20%);stroke-opacity:1;stroke-miterlimit:10;" d="M 244.445312 60 L 250 7.160156 L 255.554688 27.34375 L 261.109375 92.65625 L 266.667969 112.839844 L 277.777344 7.160156 L 283.332031 27.34375 L 288.890625 92.65625 L 294.445312 112.839844 L 305.554688 7.160156 L 311.109375 27.34375 L 316.667969 92.65625 L 322.222656 112.839844 L 333.332031 7.160156 L 338.890625 27.34375 L 344.445312 92.65625 L 350 112.839844 L 355.554688 60 "/>
<path style="fill:none;stroke-width:2.25;stroke-linecap:round;stroke-linejoin:round;stroke:rgb(20%,20%,20%);stroke-opacity:1;stroke-miterlimit:10;" d="M 4.445312 124.445312 L 115.554688 124.445312 L 115.554688 235.554688 L 4.445312 235.554688 L 4.445312 124.445312 "/>
<path style="fill:none;stroke-width:2.25;stroke-linecap:round;stroke-linejoin:round;stroke:rgb(20%,20%,20%);stroke-opacity:1;stroke-miterlimit:10;" d="M 198.519531 198.519531 L 198.519531 235.554688 L 161.480469 235.554688 L 161.480469 198.519531 L 124.445312 198.519531 L 124.445312 161.480469 L 161.480469 161.480469 L 161.480469 124.445312 L 198.519531 124.445312 L 198.519531 161.480469 L 235.554688 161.480469 L 235.554688 198.519531 L 198.519531 198.519531 "/>
<path style="fill:none;stroke-width:2.25;stroke-linecap:round;stroke-linejoin:round;stroke:rgb(20%,20%,20%);stroke-opacity:1;stroke-miterlimit:10;" d="M 306.171875 223.210938 L 306.171875 235.554688 L 293.828125 235.554688 L 293.828125 223.210938 L 269.136719 223.210938 L 269.136719 210.863281 L 256.792969 210.863281 L 256.792969 186.171875 L 244.445312 186.171875 L 244.445312 173.828125 L 256.792969 173.828125 L 256.792969 149.136719 L 269.136719 149.136719 L 269.136719 136.789062 L 293.828125 136.789062 L 293.828125 124.445312 L 306.171875 124.445312 L 306.171875 136.789062 L 330.863281 136.789062 L 330.863281 149.136719 L 343.207031 149.136719 L 343.207031 173.828125 L 355.554688 173.828125 L 355.554688 186.171875 L 343.207031 186.171875 L 343.207031 210.863281 L 330.863281 210.863281 L 330.863281 223.210938 L 306.171875 223.210938 "/>
<path style="fill:none;stroke-width:2.25;stroke-linecap:round;stroke-linejoin:round;stroke:rgb(20%,20%,20%);stroke-opacity:1;stroke-miterlimit:10;" d="M 4.445312 355.554688 L 32.222656 355.121094 L 60 348.609375 L 87.777344 320.398438 L 115.554688 244.445312 "/>
<path style="fill:none;stroke-width:2.25;stroke-linecap:round;stroke-linejoin:round;stroke:rgb(20%,20%,20%);stroke-opacity:1;stroke-miterlimit:10;" d="M 4.445312 300 L 26.667969 247.164062 L 48.890625 267.34375 L 71.109375 332.65625 L 93.332031 352.835938 L 115.554688 300 "/>
<path style="fill:none;stroke-width:2.25;stroke-linecap:round;stroke-linejoin:round;stroke:rgb(20%,20%,20%);stroke-opacity:1;stroke-miterlimit:10;" d="M 124.445312 355.554688 L 152.222656 313.890625 L 180 300 L 207.777344 313.890625 L 235.554688 355.554688 "/>
<path style="fill:none;stroke-width:2.25;stroke-linecap:round;stroke-linejoin:round;stroke:rgb(20%,20%,20%);stroke-opacity:1;stroke-miterlimit:10;" d="M 124.445312 244.445312 L 152.222656 251.390625 L 180 272.222656 L 207.777344 306.945312 L 235.554688 355.554688 "/>
<path style="fill:none;stroke-width:2.25;stroke-linecap:round;stroke-linejoin:round;stroke:rgb(20%,20%,20%);stroke-opacity:1;stroke-miterlimit:10;" d="M 124.445312 300 L 152.222656 272.222656 "/>
<path style="fill:none;stroke-width:2.25;stroke-linecap:round;stroke-linejoin:round;stroke:rgb(20%,20%,20%);stroke-opacity:1;stroke-miterlimit:10;" d="M 306.171875 306.171875 L 306.171875 318.519531 L 293.828125 318.519531 L 293.828125 306.171875 L 281.480469 306.171875 L 281.480469 293.828125 L 293.828125 293.828125 L 293.828125 281.480469 L 306.171875 281.480469 L 306.171875 293.828125 L 318.519531 293.828125 L 318.519531 306.171875 L 306.171875 306.171875 "/>
<path style="fill:none;stroke-width:2.25;stroke-linecap:round;stroke-linejoin:round;stroke:rgb(20%,20%,20%);stroke-opacity:1;stroke-miterlimit:10;" d="M 306.171875 343.210938 L 306.171875 355.554688 L 293.828125 355.554688 L 293.828125 343.210938 L 269.136719 343.210938 L 269.136719 330.863281 L 256.792969 330.863281 L 256.792969 306.171875 L 244.445312 306.171875 L 244.445312 293.828125 L 256.792969 293.828125 L 256.792969 269.136719 L 269.136719 269.136719 L 269.136719 256.789062 L 293.828125 256.789062 L 293.828125 244.445312 L 306.171875 244.445312 L 306.171875 256.789062 L 330.863281 256.789062 L 330.863281 269.136719 L 343.207031 269.136719 L 343.207031 293.828125 L 355.554688 293.828125 L 355.554688 306.171875 L 343.207031 306.171875 L 343.207031 330.863281 L 330.863281 330.863281 L 330.863281 343.210938 L 306.171875 343.210938 "/>
</g>
</svg>
